<mxfile host="app.diagrams.net" modified="2022-08-15T06:52:17.383Z" agent="5.0 (Macintosh; Intel Mac OS X 10_15_7) AppleWebKit/537.36 (KHTML, like Gecko) Chrome/104.0.0.0 Safari/537.36" etag="5FAKaY_8XbEY5YLgNmBV" version="20.2.2" type="github">
  <diagram id="cVHew6RAykeyaQVpeC-4" name="Page-1">
    <mxGraphModel dx="1234" dy="650" grid="1" gridSize="10" guides="1" tooltips="1" connect="1" arrows="1" fold="1" page="1" pageScale="1" pageWidth="827" pageHeight="1169" math="0" shadow="0">
      <root>
        <mxCell id="0" />
        <mxCell id="1" parent="0" />
        <mxCell id="6ewWvkbA7y4lwiOxdqUY-34" value="" style="rounded=0;whiteSpace=wrap;html=1;fontFamily=Helvetica;fontSize=10;fontColor=#000000;strokeColor=#5AB5E6;fillColor=default;" parent="1" vertex="1">
          <mxGeometry x="16" y="51" width="795" height="533.17" as="geometry" />
        </mxCell>
        <mxCell id="6ewWvkbA7y4lwiOxdqUY-29" style="edgeStyle=orthogonalEdgeStyle;rounded=0;orthogonalLoop=1;jettySize=auto;html=1;exitX=1;exitY=0.5;exitDx=0;exitDy=0;entryX=0;entryY=0.5;entryDx=0;entryDy=0;fontFamily=Helvetica;fontSize=10;fontColor=#3D4C53;" parent="1" source="6ewWvkbA7y4lwiOxdqUY-6" target="6ewWvkbA7y4lwiOxdqUY-16" edge="1">
          <mxGeometry relative="1" as="geometry">
            <Array as="points">
              <mxPoint x="560" y="287" />
              <mxPoint x="560" y="355" />
            </Array>
          </mxGeometry>
        </mxCell>
        <mxCell id="6ewWvkbA7y4lwiOxdqUY-32" style="edgeStyle=orthogonalEdgeStyle;rounded=0;orthogonalLoop=1;jettySize=auto;html=1;fontFamily=Helvetica;fontSize=10;fontColor=#3D4C53;exitX=-0.006;exitY=0.342;exitDx=0;exitDy=0;exitPerimeter=0;" parent="1" source="6ewWvkbA7y4lwiOxdqUY-6" target="6ewWvkbA7y4lwiOxdqUY-13" edge="1">
          <mxGeometry relative="1" as="geometry" />
        </mxCell>
        <mxCell id="6ewWvkbA7y4lwiOxdqUY-6" value="" style="rounded=1;whiteSpace=wrap;html=1;strokeColor=#5AB5E6;fillColor=none;" parent="1" vertex="1">
          <mxGeometry x="260" y="186.82999999999998" width="270" height="200" as="geometry" />
        </mxCell>
        <mxCell id="6ewWvkbA7y4lwiOxdqUY-4" value="" style="rounded=1;whiteSpace=wrap;html=1;strokeColor=#5AB5E6;fillColor=none;" parent="1" vertex="1">
          <mxGeometry x="340" y="256.83" width="160" height="110" as="geometry" />
        </mxCell>
        <mxCell id="6ewWvkbA7y4lwiOxdqUY-3" value="" style="sketch=0;aspect=fixed;html=1;points=[];align=center;image;fontSize=12;image=img/lib/mscae/Docker.svg;imageBackground=default;" parent="1" vertex="1">
          <mxGeometry x="360" y="216.82999999999998" width="73.17" height="60" as="geometry" />
        </mxCell>
        <mxCell id="6ewWvkbA7y4lwiOxdqUY-5" value="" style="shape=image;verticalLabelPosition=bottom;labelBackgroundColor=default;verticalAlign=top;aspect=fixed;imageAspect=0;image=https://velog.velcdn.com/images/jieun_han/post/0c86ad4f-27af-425d-b1f1-6c20f4715500/image.png;" parent="1" vertex="1">
          <mxGeometry x="354.83000000000004" y="296.83" width="138.17" height="42.08" as="geometry" />
        </mxCell>
        <mxCell id="6ewWvkbA7y4lwiOxdqUY-8" value="&lt;font style=&quot;font-size: 15px; font-weight: normal;&quot; face=&quot;Helvetica&quot;&gt;Cloud Run&lt;/font&gt;" style="sketch=0;html=1;verticalAlign=top;labelPosition=center;verticalLabelPosition=bottom;align=center;spacingTop=-6;fontSize=19;fontStyle=1;fontColor=#3D4C53;shape=image;aspect=fixed;imageAspect=0;image=data:image/svg+xml,PHN2ZyB4bWxucz0iaHR0cDovL3d3dy53My5vcmcvMjAwMC9zdmciIHhtbG5zOnY9Imh0dHBzOi8vdmVjdGEuaW8vbmFubyIgd2lkdGg9IjM2NS40NjQ5OTY3NzA0MjQ5MyIgaGVpZ2h0PSIzNzkuMjIyOTk0NDYzNTc3OTUiIHZpZXdCb3g9IjAgMCA5Ni42OTU5OTkxNDU1MDc4MSAxMDAuMzM1OTk4NTM1MTU2MjUiPiYjeGE7PHN0eWxlIHR5cGU9InRleHQvY3NzIj4mI3hhOwkuc3Qwe2ZpbGw6IzQyODVmNDt9JiN4YTsJLnN0MXtmaWxsOiNhZWNiZmE7fSYjeGE7PC9zdHlsZT4mI3hhOwk8cGF0aCBjbGFzcz0ic3QwIiBkPSJNMjkuNzk0IDEwMC4zMzZMNDYuOTIgNTAuMTY4aDQ5Ljc3NnpNMCA5OS42NzFsMTIuOTc2LTQ5LjUwMkgyOS4yMkwxNi44OTcgOTIuMDU0eiIvPiYjeGE7CTxwYXRoIGNsYXNzPSJzdDEiIGQ9Ik0yOS43OTQgMEw0Ni45MiA1MC4xNjhoNDkuNzc2ek0wIC42NjZsMTIuOTc2IDQ5LjUwMkgyOS4yMkwxNi44OTcgOC4yODN6Ii8+JiN4YTs8L3N2Zz4=;fontFamily=Comic Sans MS;strokeColor=#5AB5E6;fillColor=none;imageBackground=default;" parent="1" vertex="1">
          <mxGeometry x="280" y="152" width="51.83" height="51.83" as="geometry" />
        </mxCell>
        <mxCell id="C9uzuR9SwBI8yeOS5jQj-9" style="edgeStyle=orthogonalEdgeStyle;rounded=0;orthogonalLoop=1;jettySize=auto;html=1;exitX=0;exitY=0.5;exitDx=0;exitDy=0;exitPerimeter=0;entryX=0;entryY=0.5;entryDx=0;entryDy=0;entryPerimeter=0;fontSize=10;" edge="1" parent="1" source="6ewWvkbA7y4lwiOxdqUY-13" target="s9d3rNNhCT-wultPV47C-2">
          <mxGeometry relative="1" as="geometry">
            <Array as="points">
              <mxPoint x="130" y="227" />
              <mxPoint x="130" y="353" />
            </Array>
          </mxGeometry>
        </mxCell>
        <mxCell id="6ewWvkbA7y4lwiOxdqUY-13" value="&lt;font style=&quot;font-size: 10px;&quot; face=&quot;Helvetica&quot;&gt;AWS S3&lt;/font&gt;" style="sketch=0;points=[[0,0,0],[0.25,0,0],[0.5,0,0],[0.75,0,0],[1,0,0],[0,1,0],[0.25,1,0],[0.5,1,0],[0.75,1,0],[1,1,0],[0,0.25,0],[0,0.5,0],[0,0.75,0],[1,0.25,0],[1,0.5,0],[1,0.75,0]];outlineConnect=0;fontColor=#232F3E;gradientColor=#60A337;gradientDirection=north;fillColor=#277116;strokeColor=#ffffff;dashed=0;verticalLabelPosition=bottom;verticalAlign=top;align=center;html=1;fontSize=12;fontStyle=0;aspect=fixed;shape=mxgraph.aws4.resourceIcon;resIcon=mxgraph.aws4.s3;fontFamily=Comic Sans MS;" parent="1" vertex="1">
          <mxGeometry x="160" y="201.16999999999996" width="51.17" height="51.17" as="geometry" />
        </mxCell>
        <mxCell id="6ewWvkbA7y4lwiOxdqUY-16" value="PlanetScale" style="shape=image;verticalLabelPosition=bottom;labelBackgroundColor=default;verticalAlign=top;aspect=fixed;imageAspect=0;image=data:image/jpeg,/9j/4AAQSkZJRgABAQAAAQABAAD/2wCEAAMCAgICAggCAggICAIICAgIBgYICAYHBwYIBQYICAgICAgICAgGCAgIBggICAoICAgICQkJCAgLDAoIDQgICQgBAwQEAgICCQICCQgCAgIICAgICAgICAgICAgICAgICAgICAgICAgICAgICAgICAgICAgICAgICAgICAgICAgICP/AABEIA4QDhAMBIgACEQEDEQH/xAAeAAEAAgMBAAMBAAAAAAAAAAAACAkGBwoBAwQFAv/EAEwQAAICAQMEAAQDBQMJBQYFBQACAQMEBgcRBQgSIQkTIjEUFSMmMjRBURZCYRkkJTNEVXGl1UNSgZGhF2OSk7GyYnLBwsMYJzVTVP/EABQBAQAAAAAAAAAAAAAAAAAAAAD/xAAUEQEAAAAAAAAAAAAAAAAAAAAA/9oADAMBAAIRAxEAPwCqoAAAAAAAAAAAAAAAAAAAAAAAAAAAAAAAAAAAAAAAAAAAAAAAAAAAAAAAAAAAAAAAAAAAAAAAAAAAAAAAAAAAAAAAAAAAAAAAAAAAAAAAAAAAAAAAAAAAAAAAAAAAAAAAAAAAAAAAAAAAAAAAAAAAAAAAAAAAAAAAAAAAAAAAAAAAAAAAAAAAAAAAAAAAAAAAAAAAAAAAAAAAAAAAAAAAAAAAAAAAAAAAAAAAAAAAAAAAAAAAAAAAAAAAAAAAAAAAAAAAAAAAAAAAAAAAAAAAAAAAAAAAAAAAAAAAAAAAAAAAAAAAAAAAAAAAAAAAAAAAAAAAAAAAAAAAAAAAAAAAAAAAAAAAAAAAAAAAAAAAAAAAAAAAAAAAAAAAAAAAAAAAAAAAAAAAAAAAAAAAAAAAAAAAAAAAAAAAAAAAAAAAAAAAAAAAAAAAAAAAAAAAAAAAAAAAAAAAAAAAAAAAAAAAAAAAAAAAAAAAAAAAAAAAAAAAAAAAAAAAAAAAAAAAAAAAAAAAAAAAAAAAAAAAAAAAAAAAAAAAAAAAAAAAAAAAAAAAAAAAAAAAAAAAAAAAAAAAAAAAAAAAAAAAAAAAAAAAAAAAAAAAAAAAAAAAAAAAAAAAAAAAAAAAAAAAAAAAAAAAAAAAAAAAAAAAAAAAAAAAAAAAAAAAAAAAAAAAAAAAAAAAAAAAAAAAAAAAAAAAAAAAAAAAAAAAAAAAAAAAAAAAAAAAAAAAAAAAAAAAAAAAAAAAAAAAAAAAAAAAAAAAAAAAAAAAAAAAAAAAAAAAAAAAAAAAAAAAAAAAAAAAAAAAAAAAAAAAAAAAAAAAAAAAAAAAAAAAAAAAAAAAAAAAAAAAAAAAAAAAAAAAAAAAAAAAAAAAAAAAAAAAAAAAAAAAAAAAAAAAAAAAAAAAAAAAAAAAAAAAAAAAAAAAAAAAAAAAAAAAAAAAAAAAAAAAAAAAAAAAAAAAAAAAAAAAD73Q+g9c1N1ROh6bptyOtWTxVj0V2XXWTEc8JXXDWNPETPERPqAPogk1tz8N3vG3JhMjC6PbidMeImL+oPVhQsTETHNVrfjPcT/KieJ9TxPokdon4I26XUsWLdwut4OHkz/cxcbJ6jxH8uWsfAjn+sRzEfyaQK1wXW6K+DJ2ydBeL9W5XVM+6OPJGuoxaWmPv9NFMXxEz/L58zHEe/vzvTSPw+OzXRlMU9N6BhW8c8NlxbntPM8+5y3u59/aJj1HqOI4gDneMp01tTujrPFjO0f03Py8GZmFsxsPLyEmVmYmIaqt1mYaJiff3if6HSzprbDbbRmMuHpDp+Fi4qRxWmPi41CpEfaFitFiI/4GSgc3unuzLuy1Pf8Ah+lac6xDcc+V2BlYlc/8LMlKqp/4QxnOB8M7vcz7ISOh2Ik/3rMvpaRHEfzj8V5/4fuydBQAodxvhMd6WQnm2FiL/g2fh8x/h6eT7+N8IXvIv/1tPT0//Nn1z/8AYjl6YAo0s+D53hIvKr0yZ/pGdPP/AK0xH/qfQs+Ed3nJPC4uFMf1jPxvf/nx/wCpe0AKC+rfCw72elp51dKrun+lOd06Z+//AOO9I9ff7mJ9Z+Hp3odConIzdP5rVxHMxTOLlN6/ouPda8z/AIREzJ0QADmfz+2nuN6VHl1TT/W61/8AedK6mn/3UQYD1PpfU+iZzdL6zXZT1NJ4sptR67EmYiYhkeIdZlZifcR6mDqePrZ3TendUp/DdTrSzH/mtiK6z/4NEwBywA6VNWdqvbVrq6crVnQek3ZzRw1zYOIt0xHPEfNRFuiI5n7N/M0rrP4UvZjq1mvxMC/CzGnmXw8zJSF4iI4Wq5r8ZY9fZao/nP3nkChUFteuPggaSyXi3bbr2TSkRPNWdh05cvPrji3HtxPCIjnn9GznmP3ePcedffB67r9KQ+Rpaen9Swl5mtcfJai+yI+3NeXXTUrT/wB2L3iP+8BBoGx9y+3DfnZ2Gt3L6Rn4mCvHlkWY9k40eTSsf5ykNizMtHERFkzPr+sc64AAAAAAAAAAAAAAAAAAAAAAAAAAAAAAAAAAAAAAAAAAAAAAAAAAAAAAAAAAAAAAAAAAAAAAAAAAAAAAAAAAAAAAAAAAAAAAAAAAAAAAAAAAAAAAAAAAH72itA633I64umdAYmTm6gb93Hxqbb7OJmI8pWtWlUiZjl24VfvMwB+CCwTYz4OO+mt/Dq282RT0fok8TOMspndQaPL3HjU/4OryT3DNfYyzMQ1UTExE/NmvhodpGzjJ1BOnR1HUiLx+L6o34zmfKG8oxphenK0MseLrjRYscxD/AFN5BSVtP21b9b5Wwm1XSszMxZ5/zhK/l4kSjQsxOVdNeGrQ08eLWxPqfX0zxNPab4K27nXLYzN4upYmB0z6Z+RiRZn5U88+avLRRi1TH08MlmTE8tzEeMeVwuNjY2HRGLhqqYqxwqLEKqxH8oiOIiP8IPlAh9tZ8KntC23hMnquHd1TrC8/rdRvaxJ8ufvjUxThtERPEQ9TzHETzM8zMotHaA0Jt50uOh6BwsTB6NHPjRiY9GLVHk0tP0Uoicy8y0zxzLTMzzMyfvgAAAAAAAAAAAAAAAAAAAAAAAAAAAPGVXXwf2k+piftPJprczs27Xt3psv110TAfqlvHzcumlcPLeVhYiWycX5OS0wqqsS1k/THH29G5gBW7ur8FParrcvnbQdUy8DLmeVxstEz8ZeIiPFWWaMpImYmfJ3vnmftxEQQs3Y+F33f7VY89QTBr6n0lVZnu6VbOVKwkc8Rj2JRnvMxzxFeO/PHH3mIm/UAcsXV+j9X0/1J+jdeqso6xXPjbRcj1W1txzw9bwrrPExPDREn1Dpt3S2J2c3s6ZPSd1um4mdjeLKr3VLN9UWL4tNOQvjlUNx9npsRo4iYmJiJiDO9vwXdr9RK/VNis67p3UvuuFl+WbhTML6VbeYzqoluOXdsqY98L/ICngG/t8uxPue7fVfqGt+m2WaVTmZ6nhT+Mw/FV8psdq4+djpHuOcqqj3H9JiZ0CAAAAAAAAAAAAAAAAAAAAAAAAAAAAAAAAAAAAAAAAAAAAAAAAAAAAAAAAAAAAAAAAAAAAAAAAAAAAAAAAAAAAAAAAAAAAAAAAAAAAA2Nsl287wdxOpP7L7SYVuVlrK/iLo4TGxFsniHyL34pqieGmIlvN4VvBXmOANcmytle2/ezuF6x+UbS9PvylhvG3Jhfl4eNPqZ+dlWeONXMK0N4S/zGj91W9QWk9tXwd9s9DfL1P3CX/mup44b8up86emUtws8O305WX4vE8S34eplbhqG+5YHp7Tmn9I9Fr03pWinG0/SsJRjUV1000okcQqVpCoqxH8oiAK39gPgv6L6MtfXe4vNfM6l6ZumYLPj4cTK8SluTMLmXREzzzTGJPMR7aOYmwjbravbfaPoK6Y2zwcbB6Gv/ZY9SV+c/wDesaI+ZY8/zexmaZ+8yZUAAAAAAAAAAAAAAAAAAAAAAAAAAAAAAAAAAAAAAAAAAAA8ZVZfFv3f5x/UjH3AfDo7Ye4GX6r1TD/Aa0f3+ZdO8Ma1mmYmWtq8Ww75bjhmspm3xmYWxJ4aJOgCjLuL+FB3C7Oq/XtvIjrei15aWxUleoVLHM/XhTLPZxHEc4r3tM8zKJBCrMw8vp2W/T+oI1efWzJZW6sj1vW0qyOrRDKytExKzETExMSdURo/uF7Me33uYw2ncfCSNUSnjX1bG8cfqFXEN4/rQsxaqS0yteQl1UTPPgBzjgnH3M/Cf302aizUu13PW9BL5NMUVynUsdIlp4sxIlvnwqQsfMxmdmbmZpqiCDro9TzXZExZE8TE+piY+8TH3iYkDwAAAAAAAAAAAAAAAAAAAAAAAAAAAAAAAAAAAAAAAAAAAAAAAAAAAAAAAAAAAAAAAAAAAAAAAAAAAAAAAAAAAAAAAAAAD9nRujNWbh6mp0bofHtytU3t4Y+LQjWW2NxzPCx9lVYlmeeFRYZmlYWZiU3aJ8NjePuWarV+oYnpez7eL/j7k5yM2uffGDjzwzwy8cZFvhREN5LN8rNc3Jdv/bBsv2z6c/INqsNKsplVcrOeIszs2UmZ5vyJjzaPKZZal8akmZ8ETkCAXat8HJZrr1h3V2/VPDJ0HEumOIZInxzcyviYaGmYmrCfiPFWjJbyZIs60dorSO3unq9J6GxqMTTVUcVY2PWlNSc/eYRIiOWn2zTzLT7mZmeT9oAAAAAAAAAAAAAAAAAAAAAAAAAAAAAAAAAAAAAAAAAAAAAAAAAAAAAAAjZ3PdgmwPdBU/VdQ0fg9xpifDrGHCV5DT9PH4lOPk5a8LC/rLNirzFdlXMySTAHPT3R9gu/XazY/WdR0xmbaw/FfWcSGeiIssZa4ya5j52JY0eHMWQ1Pm6ol90+5jadUmRj4+ZjtiZaq2K0Sro0QyurRxKss8xMTHqYmOJgrz7uPhI6B3HSzWvbn8rpetv3n6ZMSnS8uYieYqhYmcKyfXHy1bHmYiPl1eTWQFM4Mp3K2u3B2d1ZZobc7EuwtVVxEtRcsRMq0zC2VustVbU0xMLbUz1txPDTxJiwAAAAAAAAAAAAAAAAAAAAAAAAAAAAAAAAAAAAAAAAAAAAAAAAAAAAAAAAAAAAAAAAAAAAAAAAAAAAAAAAAA3x2p9mm7vdpqWcDRKRToup1XP6vcrfhcWJ4lkTjicjJ+XMMuPXMT7SXalG+ZAam0Ht/rXc/VFWitvcW7M1Tc0LVjUJLvPMxEs3H0pWvPL2vK11ryzMsRMxb/2cfCg0PtZFW4HcLFXUtw44enp3Hn03Abj/ALRZ9Ztyzz7sj5Cz9q7JVLSUXbL2k7PdqelZ6DtvTLdathZzup3+L5mayx683iIiupf7lFUJUvMtwztY77oA/lEStIrriIriOIiPUREfaIj7REQf0AAAAAAAAAAAAAAAAAAAAAAAAAAAAAAAAAAAAAAAAAAAAAAAAAAAAAAAAAAAAAAAaz357ctou5PSM6P3XxVvxo5nHyV/Ty8J2/7THviPOtuYiZWfKuziIsSxfpKV+8X4de7Ha5kvqjpMP1LZ6Wnw6lVXPzMNZ5lVzql8vk8R9P4iP0Hbj3UzrUX6HxZONjZuO2HmKr4jRKujRDK6tHEqyzysxMepiY4mAOVwFsPez8JjDzkt3O7VK4TqHL2Zenpbiqzy5Zm6czeqm8uf8zdormJ4paqESh6puo9O6h0jqD9J6tW9XVKnau6mxWrspsqaVet0aIdHR4lWVoiVmJiYiYA+uAAAAAAAAAAAAAAAAAAAAAAAAAAAAAAAAAAAAAAAAAAAAAAAAAAAAAAAAAAAAAAAAAAAAAAAAAAABaR2CfC3XqtNG8/c/R/o+fC7p2n7YaJsjmGS7qKTxMJPETGE378TxfER5UsGnexb4aWru4W6jc/dmHw9j5+utPqTN6vCzHitETH6OK/vyypnyaF8aln5nz6bptFaI0jtzpenRehcerF0rQvhRjUpCV1xzzPER92ZplmduWdplmmZmZn9mmmnHpjHx4haFiIVYiIVYWOIiIj1ERHqIj7H9gAAAAAAAAAAAAAAAAAAAAAAAAAAAAAAAAAAAAAAAAAAAAAAAAAAAAAAAAAAAAAAAAAAAAAAiN3u/D20B3UdHs1VpqKsHfJE5o6hC+NOdNa8JRnwkSzJMRCLkqrXUR4zEXKvyWlyAOYfdnaTcDZDXN23W5mO+NqimfqRvaWo0z4XUvH0W02REytiTMTxMepVojDzo+7ou03anuu0X/ZrX9Xh16qHnp3U6oiMrAsdeOVb18ylp4mzHeZrs8Vn6XSuxKG+5btj3O7WdwG0LuNX+g/k+Dn1w04vUKVmI+ZS0xHDLzEWUtxZU0xzHD1u4alAAAAAAAAAAAAAAAAAAAAAAAAAAAAAAAAAAAAAAAAAAAAAAAAAAAAAAAAAAAAAAAAAAAAAD5MbGyc3JXDw1Z8x2hURYlndnnhVVY5ZmZpiIiImZmeBi42Tm5K4eGrPmO0LXWsSzuzzwqqscszM0xERETMzPBcz8Of4c+Ds/g074b4Uw+7jxFmBgWRDJ0ZWj6XdftOdMe+Z5/D8wscPDMofi/D1+GZi7fRRvf3F0K+v4lbumdIs4evpnEcpkZS+67Mznhq6p8kxphXnm6F/DWSgAAAAAAAAAAAAAAAAAAAAAAAAAAAAAAAAAAAAAAAAAAAAAAAAAAAAAAAAAAAAAAAAAAAAAAAAAAAANd777B7Z9x239m3O6NEXdHafOm1eEyMO5YmEyMa3iWrtTmY/mrrLVutiO6NsQAc5/dt2fbl9pOuPyLVa/O0ZczflnVa1mKMxF9+LR7+TkovHzKGmZieZRrElXbQ5067vbQbf76aCu233Lx1yNMXx7WfVlLrE+F1Lx9VV1czyrr7j3E8qzLNBfeP2ea77SNwp6H1aHv2+vZm6V1SF4TJrj38qzj6a8qqPVlfrn06/S0cBH4AAAAAAAAAAAAAAAAAAAAAAAAAAAAAAAAAAAAAAAAAAAAAAAAAAAAAAAAAAAAAAAAAtI+Fv2CU9UWjuf3no56f6t0/065J4slW5TqNyNEcpEx5YqzEw/wBN8eooZgzv4Znw9Y2+xaO4ve+iY1+6/M6R0y5YiemJZH05WQk+/wAZZXPNdTRE4yNy0RdPjjWSgAAAAAAAAAAAAAAAAAAAAAAAAAAAAAAAAAAAAAAAAAAAAAAAAAAAAAAAAAAAAAAAAAAAAAAAAAAAAAAAAADBt6dmdBb+7c5G2G49XzdO5C/vRxF2PavuvIoeYn5d1TfUrcTE+1ZXVnRs5AHN93XdrevO1DdB9B6tibOhPzZ0vqUJK09Rx4mPrX20JdVMwl1EtLVvxP1JZTZZpg6WO43t42/7mtsbttNfp+i3L4mUsRN+BkqsxXkUzP2ZeZhl5hbK5dG9NJz17+7F667ct0MjavcBPHq1Mw1Vyw0U5mPZz8rJoZojzqsiJjmOfCxbK24at1gNdgAAAAAAAAAAAAAAAAAAAAAAAAAAAAAAAAAAAAAAAAAAAAAAAAAAAAAAAAAAAb47NO1PUvdpu4misCXq0XTC3dXz1Xn8Lj+XHgjNE1/iciYmulWifcPZKstNnAbu+Gl2LXdwuro3Z3Po52Pw3+it+Yjq+XU0TFCrx9eLT7nIflYZvCmPmc5Hybv6aacemMfHiFoWIhViIhVhY4iIiPUREeoiPsfjaI0VpfbnSOPoXRdK0aVxakpxqE58a66o4iOZ5Zmn95naZZ2mWaZmZmf3AAAAAAAAAAAAAAAAAAAAAAAAAAAAAAAAAAAAAAAAAAAAAAAAAAAAAAAAAAAAAAAAAAAAAAAAAAAAAAAAAAAAAAAR172u0LTHdrta/RGWuvc3GWyzo2e3K/KuZefkXOqu/wCFyGVVtiFeV4WxVlq4iZFADlw1lo7VG3uqsjRGtaHxtVYtrU5WNZEQ9Vlc8THqZVon0yussjrKsrMrRM/jF2PxQOx9d8dINvhtpVM7u4FM/icetZZur4dMS0pCLEs2Vjry1Pj9VqS9XDz+H+XScAAAAAAAAAAAAAAAAAAAAAAAAAAAAAAAAAAAAAAAAAAAAAAAAAAAAAAAABkG3+g9Ubn62xdvdFVNdqnMuSjGqWJnl7Z48mmInxrRebLLJ+mutXdpiFmY6IO0ntl0r2p7PU7b9BmLetNPz+p50rCtm5dqxDvx/dqriIqpr9+NSLzLO1jvF34UHZv/AOyzQ8dwu4NXG4nUav8AR1NkR5YHT7Pa2cfdbs2OLJ/mtHyl+mbLlLCgAAAAAAAAAAAAAAAAAAAAAAAAAAAAAAAAAAAAAAAAAAAAAAAAAAAAAAAAAAAAAAAAAAAAAAAAAAAAAAAAAAAAAAAAAAAFMXxVuymNqNVt3E7cVz/7O+oX/wCksdF+jpubkcz81fGOExst+Z+r1XkNKQ3F1FaXOn4et9F6Z3G0jk6F1lUt+l8up6cmhvs6WxxP+MNHplaOJVohomJiJA5cwbl7tO2zUvaxvNkbada8n6J/rumZjRERm4drT8qz1wsWJMNVasRHjbW/ESsozaaAAAAAAAAAAAAAAAAAAAAAAAAAAAAAAAAAAAAAAAAAAAAAAAAAAAAS/wDhr9ordyu8caj1dV5bP9LZLs+HWZqzr594+D7+lodo+bdHDR8lJRoX59czFnRejdTbh6sx9DaNpa/VOXclGLQnHlZZc3CxzPCqsfdnaYVFiWaVhZmOjjtf7f8ATfbPsxh7Vaf8Wyqkh87KVfGc3MuiJyL55mW4Z48a1aZlKlrTmYSANqoiVpFdcRFcRxER6iIj7REf0P6AAAAAAAAAAAAAAAAAAAAAAAAAAAAAAAAAAAAAAAAAAAAAAAAAAAAAAAAAAAAAAAAAAAAAAAAAAAAAAAAAAAAAAAAAAAAAAAIxfEA7TsLun2UswujIn/tVwYfI6NdMLDO8LE24ctMxwmWiQntoRblpsb1XMTz9ZmHl9Oy36f1BGrz62ZLK3Vket62lWR1aIZWVomJWYiYmJiTqiKbvi7dpzaB14ncboenjRnUW+X1Za1+jE6h/dubifpTOr9zMLCxkVWSzeWRWshXQAAAAAAAAAAAAAAAAAAAAAAAAAAAAAAAAAAAAAAAAAAAAAAAAAbG7eNktR9xG8WFtJpnlcnKtiLr/ABl1xMeqPPIyHiOI4qphpiJlYd/BOYl4AsO+Dl2rVytvdXrCvmf1sToKNCTEcT8vMzV5iXhomHwq2iV4icyGhvKuYtUPxdFaO09t7pHG0LpOuKtM4lFWPjVR78KsdIRImZ9tPjHMtPtm5meZmT9oAAAAAAAAAAAAAAAAAAAAAAAAAAAAAAAAAAAAAAAAAAAAAAAAAAAAAAAAAAAAAAAAAAAAAAAAAAAAAAAAAAAAAAAAAAAAAAAAAYbvDtVpXe7bHN2q1ovlp3Noel2iEl6Wn3VfV5qyRdj3Ql1TMrQtlazxPHBmQA5id49q9TbI7oZu1OsF41BhXtS8x+7avEPTcnuf078dq7k59+Fi88TzBhpcB8Yvths1Zo2juV0mnPWunrGN1dFVpe7Cusj5F/r/AP5Mh2V/pmZrv8pZVx+Jp/AAAAAAAAAAAAAAAAAAAAAAAAAAAAAAAAAAAAAAAAAAAAAABcn8Hjtq/sLtnf3Canr41P1X9Hp3ksedPTsd/bxMrDr+Myl8piJZWqox3ifqmCrftu2V6v3C72dP2l6R5QmVesZNq/fHxaf1Mq7mVZYmvGV5XyjhrPBf70HSXpzT3RdI6fo0rpytadP41NdGNQkQqU1Y1cV1osR6hVRYiI/wA/SAAAAAAAAAAAAAAAAAAAAAAAAAAAAAAAAAAAAAAAAAAAAAAAAAAAAAAAAAAAAAAAAAAAAAAAAAAAAAAAAAAAAAAAAAAAAAAAAAAAAAfm6k070XV+nr9KakrW7T+TTZRk0PEMl1WTXKWI0T6mGRpif+Jzc9zOxvWu3Le3P2m6x5TTj3TOHe33ysS/68a7nxVZZ6JWLPGPFbVsWOfA6WCuT4yHbousNs8buE07VzqPpjRj9RlVjys6fl2fpu8wsu34XMaPGOYhUyb2n0voKcgAAAAAAAAAAAAAAAAAAAAAAAAAAAAAAAAAAAAAAAAAAAP3tBaK67uRrbE2/0wvnqHNyKcbHX6uPmZVq1rLcRMwiy3kzcT4rEz/IC1j4L+wC9G0Xm9xfXa/8ASWY7YPTGaFmYxcR4nJtSY5mIuzFimYniecSfXDRM2ZGK7V7ddB2k23wts9ML49DwcarHq/q/yUiGsb+r2WeVjz95Zmn+ZlQAAAAAAAAAAAAAAAAAAAAAAAAAAAAAAAAAAAAAAAAAAAAAAAAAAAAAAAAAAAAAAAAAAAAAAAAAAAAAAAAAAAAAAAAAAAAAAAAAAAAAAI09+Pc3tH2/7M5PSNw0TM611LHvxcTovlEPnLfXNdjWz7mrGSG+u7jnnhUhmmIP1e8TvE0D2j6AnrfW5W/X16svSulw3FmVYscfMs4914tTTE2WzHv9xPJmiCgvd/d/X++mvr9ytyr2v1Pe3uZ9V01rM+FFCcytVNUTwiL9vczLMzMwYYAAAAAAAAAAAAAAAAAAAAAAAAAAAAAAAAAAAAAAAAAABYJ8HDYz+2++eRvN1ZOeidHolcaZhuGzupo9SzH9xvlYf4hpiefFrKWiImImK+zoB+Ghs1OznaR05M5ITUnUobqmXx5cz+YxE40N5QrQydOXGVl4iFeHiPL95glOAAAAAAAAAAAAAAAAAAAAAAAAAAAAAAAAAAAAAAAAAAAAAAAAAAAAAAAAAAAAAAAAAAAAAAAAAAAAAAAAAAAAAAAAAAAAAAAAAAAAAEfu8TvE0B2j6B/O+t+N+vr1aOl9KVuLMp19fMsmOZqxa5mJstmPf7i+TNEHveJ3iaB7R9AfnnW/G/Xt8MvSulq0RZkuscTZZxy1eLVMx8y3j36RfJmiCgrd/d/X2+mv79ytyr2v1Pe3ufcV0osz4UUJzMVU1LPCJH29zMszMzB5u9u9r7fTX9+5W5V7X6nvblm+1dKLz4U0pzK1U1LPiiR9vczLMzM2GgAAAAAAAAAAAAAAAAAAAAAAAAAAAAAAAAAAAAAAAAAAABsrtq2nt3y356VtUkc42ZmVpke2WYxqebsqYlYloZcOu1o449xHtfvHSzjY1GHjLh4sQuKiwqLHqFVI4iI/wiI4KevgrbT29c3c6lvFmR/ozAxIxKOV55yeq2Q0ur8+pqxaLEZfGeYyVnleOGuKAAAAAAAAAAAAAAAAAAAAAAAAAAAAAAAAAAAAAAAAAAAAAAAAAAAAAAAAAAAAAAAAAAAAAAAAAAAAAAAAAAAAAAAAAAAAAAAAAAAAR/7xO8TQHaPoH8765436+vVo6V0pW4synX1NlkxzNWNW0xNlsx7/AHEhmaIPO8TvE0B2j6B/O+t+N+vr1ZeldKVoizJdY4+ZZxy1WLW3HzLePfpF8maIKCt3t39f76a/v3K3Kva/U97czM8xXSizPhRQnMxVTVE8JXH29zMszMzA3e3e19vpr6/crcq9r9T3tyzT6rpRefCmlOZWqmpZ8USPt7mZZmZpw0AAAAAAAAAAAAAAAAAAAAAAAAAAAAAAAAAAAAAAAAAAAAAB97oPQ+qam65TpvoaTZ1rItrox6o4ibLcmyK60jniOWsaI9zx7AvZ+FTtZG2/aFh9VyU8esdUuv6jd755S5opxp+8xENh01PxHHEvPMczMzME/A0Bo7pe3mhMLQPRI46Ng4mPiURy08V4NCUp7aZeZ8UjmWmWmfczMzMn74AAAAAAAAAAAAAAAAAAAAAAAAAAAAAAAAAAAAAAAAAAAAAAAAAAAAAAAAAAAAAAAAAAAAAAAAAAAAAAAAAAAAAAAAAAAAAAAAAj/wB4neJoDtH0BPW+tyt+vr1ZeldKVuLMp19fMs45mrFqmYmy2Y9+kXyZog87xO8TQPaPoD8763436+vVl6V0tWiLMl1jj5lnH1V4tTTHzLePfpF8maIKCt3t3tfb6a/v3K3Jvm/U+Q3LT9q6UX9ymlOZiumpfpRI+3uZlmZmYG7272v99NfX7k7lXtkanvn20+q6UXnwppT92qmuJ4RF+3uZlmZmbDQAAAAAAAAAAAAAAAAAAAAAAAAAAAAAAAAAAAAAAAAAAAAAAASa+G7tzG5PeN0fCvSH6ZiWv1C+GiJiI6ZU1tU8TExP+efIj+sc8x7iCMpZR8EXRON1LdLre4Vsc5OJg42Kn9I/N8l7Gnj+vGBxE/yiWj+YFwAAAAAAAAAAAAAAAAAAAAAAAAAAAAAAAAAAAAAAAAAAAAAAAAAAAAAAAAAAAAAAAAAAAAAAAAAAAAAAAAAAAAAAAAAAAAAAAABH/vE7xNA9o+gPzzrfjfr69WXpXSobizKdfU2WTHLV41UzE2WzHv0i+TNEDvE7xNAdo+gfzvrnF+vb1Zel9KVoizJdY4+ZZMczVi1tMfMt49+kWGZogoJ3e3e19vpr6/crcq9r9T3tyzT6rpRefCmlOZWqmpZ4RF+3uZlmZmkG727+v99Nf37lblXtfqe9uZmeYrpRZnwooTmYqpqieErj7e5mWZmZsNAAAAAAAAAAAAAAAAAAAAAAAAAAAAAAAAAAAAAAAAAAAAAAAAAAF1vwZNFt0HtkytW3xxdn9UuZG44lqcGimhffPMxF8X8fbiZn1/OaUjoh+HxpGnRfZr0DptMcfNwoy2jmZ5bqtr5cz79+/nRPH2j7R6iAJDgAAAAAAAAAAAAAAAAAAAAAAAAAAAAAAAAAAAAAAAAAAAAAAAAAAAAAAAAAAAAAAAAAAAAAAAAAAAAAAAAAAAAAAAAAAAABH7vE7xNA9o+gPzvrfjfr69WXpXS4bizKsX1NlnHM14tUzE2WzHv0i+TNEDvE7xNAdo+gZ631uVv19erR0vpStEWZTx6+ZZxy1WLXPE2WzHv9xfJmiCgrd7d7X++mvr9ytyr2v1Pe3tp9V0ovPhTSnMrVTUs8Ii/b3MyzMzMHu7+7+v8AfTX9+5W5V7X6nvb3P2rpRZnwooTmVqpqieESPt7mZZmZmwwAAAAAAAAAAAAAAAAAAAAAAAAAAAAAAAAAAAAAAAAAAAAAAAAAAAAB1BbYaaxtGbbdP0hhrCYuLhYuOlceoSMXGSuFiP6RC8HNNtTprF1puj03R2dEzg5efh41ixMxMpmZddTRExMNEyrz7iYn/GDp+A9AAAAAAAAAAAAAAAAAAAAAAAAAAAAAAAAAAAAAAAAAAAAAAAAAAAAAAAAAAAAAAAAAAAAAAAAAAAAAAAAAAAAAAAAAAAj/AN4neJoHtG0B+edb4v17fDL0rpatEWZLrHE2WcctXi1NMfMt49+kWGZogd4neJoDtH0B+d9b8b9e3qy9K6UrcWZTr6myyY5mrGqmYmy2Y9+kXyZogoJ3e3e19vpr6/crcq9r9T3t9TfaulF58KaU5laqalnhEj7e5mWZmZg93f3f19vpr+/crcq9r9T3tzM+4rpRefCihOZiqmpZ8USPt7mZZmZmwwAAAAAAAAAAAAAAAAAAAAAAAAAAAAAAAAAAAAAAAAAAAAAAAAAAAAAAA3L2Zaev1R3Zac6Vj8eUdYwLm5+0pgZSZNkf+NVTR/xOkM59fhnYFmf3udDhI5RLMuxvt6ivpeVxP/x+P2/qdBQAAAAAAAAAAAAAAAAAAAAAAAAAAAAAAAAAAAAAAAAAAAAAAAAAAAAAAAAAAAAAAAAAAAAAAAAAAAAAAAAAAAAAAAAAj93id4mgO0fQP531zxv19erR0rpStEWZLrHHzLOOZqxa2mPmWzHv9xIZmiD3vE7xNA9o+gJ631vxv19erL0rpUNxZlOvr5lnHLV4tUzE2WzHv0i+TNEFBO727+v99NfX7lblXtfqe+fbT6rpRefCmlOZWqmuJ4RF+3uZlmZmYG7272vt9NfX7lblXtfqe9uWmeYrpRZnwppTmYqpqWfFK4+3uZlmZmnDQAAAAAAAAAAAAAAAAAAAAAAAAAAAAAAAAAAAAAAAAAAAAAAAAAAAAAAAAAJjfCXxkyO9LCZ/7uJntH+ExhvHr/zL4iiz4QuN8/vIpt/7nT89v/OtE/8A3l6YAAAAAAAAAAAAAAAAAAAAAAAAAAAAAAAAAAAAAAAAAAAAAAAAAAAAAAAAAAAAAAAAAAAAAAAAAAAAAAAAAAAAAAI/d4neJoDtH0BPW+tyt+vr1ZeldKVoizJdY4+ZZxy1WLW0x8y3j36RfJmiD3vE7xNA9o2gPzzrfjfr2+GXpXSobizKdfU2WTHM1Y1UzE2WzHv0i+TNEFBO7272vt9Nf37lblXtfqe9uZn3FdKLM+FFCczFVNUTwiR9vczLMzMwN3t3tfb6a/v3K3Jva/U97ctP2rpRefCmlOZiumpZ8USPt7mZZmZpw0AAAAAAAAAAAAAAAAAAAAAAAAAAAAAAAAAAAAAAAAAAAAAAAAAAAAAAAAAAAAJu/B8sVO8JVn7z0zOiP/Omf/pEl5ZRL8I62a+87FWPs2FnxP8Aj/m3P/1jkvaAAAAAAAAAAAAAAAAAAAAAAAAAAAAAAAAAAAAAAAAAAAAAAAAAAAAAABrLuG7htuO2fbi3cfci3xw1+jGxk8ZyM++VmUx8dJmPJ245lp4StIZ3lVWZHcN3Dbcds+3Fu5G5Fvjhr9GNjJ4zkZ98rMpj46TMeTtxzLTwlaQzvKqsyUA9znc7uP3Ubjvr3Xz+OGvknT+nozTj9OoluYrqiePJ24ibbpiHteImfFVrrrDc2sviv952oNU39Z0x1GvA09ZZLY3T6sHpGQmJX9lri7Jw7cm1oWOWsd/qeWmFrWVRfxv8qP31/wC/f+Wae/6eRVAEqv8AKj99f+/f+Wae/wCnj/Kj99f+/f8Almnv+nkVQBKr/Kj99f8Av3/lmnv+nj/Kj99f+/f+Wae/6eRVAEqv8qP31/79/wCWae/6eP8AKj99f+/f+Wae/wCnkVQBKr/Kj99f+/f+Wae/6eP8qP31/wC/f+Wae/6eRVJK9kvZNrbu71v4x8zG2jxnX806pCx69Q34TF8olLMuxJifcMmOjRbZDc01XhKrsm3t+JH3d62+nrr420eNYsdU6p+Vae9eob8LieXTpSzLsSYn3DJjoy2WRPlTVfbNUjV1RW8yzRERLT48txH3nxiF5n7zxER/SIMb21220TtDonH2727x0xtI4yeFFCc+vfLO7Ty9ltjzL2WvLPY7MzTMzMmTgAAAAAAAAAAAI/8AeJ3iaA7R9A/nfXPG/Xt6svS+lK0RZkuscfMs45arFrbj5lvHv0iwzNEHneJ3iaA7R9A/nfW/G/X16svSulq3FmS6xx8yyY5mrFqaY+ZbMe/SJDM0QUFbv7v6/wB9Nf37lblXtfqe9vc+4rpRZnwppTmYqpqWeESPt7mZZmZmBu9u9r/fTX1+5O5V7ZGp72+pp9V0ovPhTSn7tVNcTwiL9vczLMzNOGgAAAAAAAAAAAAAAAAAAAAAAAAACae13w/+r0dqXWO5/edLKMavptt3QenzLVXWu0L8vOyI5hlp4nmmmfd3PzGiE8Iu3P8ADf8AhuRqeKO4HuEo/Zv6bekdGuX+M/mmXmVtH8P9mpoaP1vTv+n4rfOf4g1nyezDUEr6/wAxiP8A4smleP8AyngDneAAAAAAAAAAAAAAAAAAAAAAAAAAAAAAAAAAEtPhYdWTpfez0qp/vdXnUx9/u3Tr3/8AD0k/cv0Od/4enWaOhd6Gn83JmIrbNmmJn19Wdi3Y6R/xl7YiP6zJ0QAAAAAAAAAAAAAAAAAAAAAAAAAAAAAAAAAAAAAAAAAAAAAAAAAAAANZdw3cNtx2z7cW7kbkW+OGv0Y2MkrORn3ysymPjpMx5O3HMtPCVpDO8qqzI7hu4bbjtn24t3I3It8cNfoxsZPGcjPvlZlMfHSZjyduOZaeErSGd5VVmSgHud7nNx+6jcd9fa9fxw18k6f09Gacfp1EtzFVcTx5O3ENbdMQ9rxzPiq111g7nO53cfuo3HfXuvn8cNfJOn9PRmnH6dRLcxXVE8eTtxE23TEPa8RM+KrXXXqIAAAAAAAAAAASV7JuyXW3d5rWVWXxdpcV1/NOqePv3w34XE8olLMuxJifcSmOkxZZE+VNV4OyXsm1r3ea38Il8XaXFdfzTqnjHr1DfhMXyiUsy7EmJ9wyY6NFtkNzTVffbttttoraLRGPt1t5jpjaQxU+XRQnPr3Ms7tPL2W2PLWWWvLPY7MzTMtMjbfbfRO0eicfbvbzHTG0jipFdFCR9v5s7tPL2W2PMvZa8s9jszMzS0zOTAAAAAAAAAAAAI/d4neJoHtH0BPW+tyt+vr1ZeldKhuLMp49fMs45avFqnibLZj36RfJmiB3id4mge0bQP531vi/Xt6svSulq0RZkuscTZZMczVi1NMfMt49+kWGZogoK3e3e19vpr+/crcq9r9T3ty0+4rpRefCmlOZiqmpZ8USPt7mZZmZmBu9u/r/AH019fuVuVe1+p729z9q6UXnwppTmVqpqWeESPt7mZZmZmw0AAAAAAAAAAAAAAAAAAAAAAAAAAWdfDe+G7OpZx+4PuCo/Zv6buj9HtWecuYmGrzMtJ/2f+9VjtH6/p3j5fit74b3w3X1I2P3CdwVH7N/Td0fo9q+8v8AmmXmVtH8P9npob/X+nePl+K322xERHEfYBEREcR9iMHxMerp0fsm63bZ9nrxaY+/3yOo46R9v8ZJQEM/i39Zo6Z2X5eFdMRZk5vT6Uj/ALzJlRkcR/WfChp/4RP9AKIwAAAAAAAAAAAAAAAAAAAAAAAAAAAAAAAAABsjtpz46V3G6f6o37tfW+lWf/K6nQ3/AOh0wHLD0vqed0TqdfWeltKdTpsS2myOJlLKXh0aImJWZV4ifcTHo6lem59PVOnV9Txv4exEsSf6rasNH/pIH2QAAAAAAAAAAAAAAAAAAAAAAAAAAAAAAAAAAAAAAAAAAAAAAADWXcN3Dbcds+3Fu5G5Fvjhr9GNjJ4zkZ98rMpj46TMeTtxzLTwlaQzvKqsyO4buG237Z9uLdx9yLfHDX6MbGTxnIz75WZTHx0mY8nbjmWnhK0hneVVZkoB7nO5zcfuo3HfXuvX8cJfJOn9PRmnH6dRLcxVVE8eTtxE23TEPa8RM+KrXXWDuc7ndx+6jcd9e69fxw18k6f09Gacfp1EtzFdUTx5O3ETbdMQ9rxEz4qtddeogAAAAAAAAAABJXsl7Jdbd3etuI+ZjbR41ix1TqkLH9Ib8JieUSlmXYkxPuGTHRotshvKmq8HZN2S637vNa8L5420mK6x1TqnjHr1DfhcTyiUsy7EmJ9wyY6NFlkT5U1X327b7baI2i0Vj7ebdY6YukMZPCiiuJ4j3yzu08vZbY8y9ltks9jszMzS0yNttttEbQ6Jx9u9usdMXSOMnhRQnPr3yzu0zL2W2PMvZa8s9jszNLTMyZMAAAAAAAAAAAAj/wB4neJoHtH0B+d9b8b9e3qy9K6UrcWZTr6myyY5mrGqmYmy2Y9+kXyZogd4feJoDtH0DPW+uSt+vr1aOl9KVoizKdfXzLOOWqxa24+ZbMe/3EhmaIKCd3t3tfb6a+v3J3Kva/U97czM8xXSizPhTQnMxVTVE8JWv29zMszM0g3e3e19vpr+/crcq9r9T3t9TfaulF58KaU5laqalnxRI+3uZlmZmbDQAAAAAAAAAAAAAAAAAAAAAAAAABZ18N34bzakajuC7hMf9m/pu6P0e5f4v7NXmZaT/s/96rHeP1/TvHy/Fb3w3fhvNqRqO4LuDx+NOfTd0fo9yzE5cx7TLzK2j+H+zU0N/r/TvHy/Fb7bYiFjiPsAiIWPFf3T0AAV5/Gwz4r7cumdL/vP1uqz/wCR0zOX/wDlLDCqz442osiF05pOlv8ANJ/M8i2v1wzL+Cqpbnjy+mGviOJ4nynmJ4jgKqgAAAAAAAAAAAAAAAAAAAAAAAAAAAAAAAAAAOlTtV1Zdrrtq6DqvKmGzruk4LXNHqJtXERLeI5nji5Wj7yc1ZfV8KbWbat7McDDvaWzMK/Mw3mePpivKa6pY4iPS419Sx/w98zyBL4AAAAAAAAAAAAAAAAAAAAAAAAAAAAAAAAAAAAAAAAAAAAANZdw3cNtx2z7cW7kbkW+OGv0Y2MnjORn3ysymPjpMx5O3HMtPCVpDO8qqzI7hu4bbjtn24t3I3It8cNfoxsZPGcjPvlZlMfHSZjyduOZaeErSGd5VVmSgHuc7nNx+6jcd9fa9fxw18k6f09Gacfp1EtzFVcTx5O3ETbdMQ9rxEz4qtddYO5zud3H7qNx317r5/HDXyTp/T0Zpx+nUS3MV1xPHk7cRNt0xD2vETPiq1116iAAAAAAAAAAAEleyXsm1r3ea2lVl8XaXFdfzTqnj/wb8Ji+USlmXYkxPuJTHSYsshuaarwdkvZNrXu81v4x54u0mM6/mnVIWPXqG/CYvlEpZl2JMT7hkx0aLbIbmmq++3bbbbRO0OiMfbrbvHTG0jip4UUJz69zLO7Ty9ltjzL2WvLPY7MzTMtMjbbbfRW0WiMfbrbzHTG0hipFdFCc+o55Z3aeXstseZssteWex2ZmlpaZMmAAAAAAAAAAAAR/7xO8TQPaPoD87634369vVl6V0pW4synX1NlkxzNWNVMxNlsx79IvkzRA7xO8TQPaPoCet9blb9fXqy9K6VDRFmVYscfMs4+qvFqaYmy3j36RfJmiCgnd7d7X2+mv79ytyr2v1Pe31N9q6UXnwppTmVqpqWeESPt7mZZmZmBu9u/r/fTX1+5W5V7X6nvb20+q6UXnwppTmVqprieERft7mZZmZmw0AAAAAAAAAAAAAAAAAAAAAAAAAAWdfDc+G/Gp4o7hO4Gj9m/pu6P0e1Y/zz7NXmZaT/s/2mmho/W9O8fL8Fv9+G78N5tSTR3CdwVH7OR429H6PcsxOXMTymXl1tH8Pzw1NDR+v6d4+X4rfbZEREcR9gERERxH2PQAAAAFK/xodW3dW7lcLSazE4OH0mpvH+a252XkPZzPP2mlKJj1/X78xxdQc9vxH9ZtrbvO63lq0th0X14dUTx9EdOxqqbFj17j8Stre+f3vvxwBGkAAAAAAAAAAAAAAAAAAAAAAAAAAAAAAAAAAC2v4H+uGydJde22tiISnJw86qefbzn020Wx48cRCfhKffM8/M+0eMc1KE5fg9a+jSndfOlsizxwupdPycda5n6bL8Vq8queP5stVN8R/g7gXhgAAAAAAAAAAAAAAAAAAAAAAAAAAAAAAAAAAAAAAAAAAay7hu4bbjtn24t3I3It8cJfoxsZPGcjPvlZlMfHSZjyduOZaeErSGd5VVmR3Ddw23HbPtxbuRuRb44a/RjYyeM5GffKzKY+OkzHk7ccy08JWkM7yqrMlAPc53Obj91G476918/jhr5J0/p6M04/TqJbmKqonjyduIm26Yh7XiJnxVa66wdzvc5uP3Ubjvr7Xr+OGvknT+nozTj9OoluYqriePJ24ibbpiHteOZ8VWuuvUQAAAAAAAAAAAkr2Tdkut+7vW3C+eNtHjWLHVOqeMevUN+FxPKJSzLsSYn3DJjo0WWRPlTVeDsm7Jdb93mtZhPPF2lxXX806p4xzHMQ34XE8olLMuxJifcMmOjRZZE+VNV99u2+2+ido9E4+3m3eOmLpHGSEoorj1H82d2nl7LbHmXsteWex2ZmZpaZlttttojaLRWPt5t1jpi6Qxk8KKK+eI98s7tMy9ltjzL2W2Mz2OzMzNMzJkwAAAAAAAAAAACP/eJ3iaB7RtA/nfW/G/Xt8MvSulK3FmU6+pssmOZqxqpmJst49+kWGZogd4neJoHtH0B+d9b8b9fXqy9K6UrRFmS6xx8yzj6q8Wppj5lvHv0i+TNEFBO7272v99NfX7lblXtfqe9vbT6rpRefCmlOfGqmuJ4RF+3uZlmZmYG7272vt9Nf37lbk3tfqe9uWn3FdKLM+FNKczFVNSz4okfb3MyzMzThoAAAAAAAAAAAAAAAAAAAAAAAAAAs6+G98N7+034fuD7g6P2Z+m7o/R7l/jOeGry8uto/h/s1NDR+v6d4+X4rd78N74bs6kmjuC7hMef7OfTd0fo9yzE5cxMNXl5aT7/D/Zqcdo/X9O8fL8VvtsiIWPFf3QERCx4r9j0AAAAAAA+HNzMfp+G+flzxiorO7f8AdWtZZp/8IiZOXrXurMrXuuc3XWesLnZuXk5diRPlCPnZD3MsTxEzEM8xzxHP9IOhzvb19G2nah17VKP8vN/L78eiyJ4lb+pL+EplZ/70W3LK/wCMQc4wAAAAAAAAAAAAAAAAAAAAAAAAAAAAAAAAAAADY/bfuXGz2/PSNy7W8cHEz8ezIbhm4x2shMn0sw0zOK1kREfeZ+0/adcADqnVldfNPaT7iY+08nppns23Mnd7te6Jrq+z5vVHwKasu3iIl8rp6/hclpiFVYlsmmxphVhffr1wbmAAAAAAAAAAAAAAAAAAAAAAAAAAAAAAAAAAAAAABrLuG7htuO2fbi3cjci3xw1+jGxk8ZyM++VmUx8dJmPJ245lp4StIZ3lVWZHcN3Dbcds+3Fu5G49vjhr9GNjJKzkZ98rMpj46TMeTtxzLTwlaQzvKqsyUA9znc7uP3Ubjvr3Xz+OGvknT+nozTj9OoluYrqiePJ24ibbmiHteImfFVrrrB3Odzm4/dRuO+vdfP44a+SdP6ejNOP06iW5iqqJ48nbiJtumIe14iZ8VWuuvUQAAAAAAAAAAAkr2S9k2te7zW/hEvi7S4rr+adU8Y9eob8Ji+USlmXYkxPuGTHRotshuaarwdkvZNrXu71v4/qY20eM6/mnVIWPXqG/CYvlEpZl2JMT7hkx0aLbIbmmq++zbXbbRO0OicfbvbvHTG0jjJ4UUJz698s7tPL2W2PMvZa8s9jszNMzMye7bbbaK2i0Rj7dbeY6Y2kMVPl0UJz69zLO7Ty9ltjy1llryz2OzM0zLTJkwAAAAAAAAAAACP3eJ3iaA7R9A/nfW/G/X16tHSulq3FmU6+vmWTHM1YtTTE2WzHv9xIZmiB3id4mge0fQE9b63436+vVl6X0qG4synX1NlnHLV4tUzE2WzHv0i+TNEFBe7+7+v8AfTX9+5W5V7X6nvb3P2rpRefCmlOZWqmpZ4RI/wAZmWZmZg83e3e19vpr6/crcq9r9T3tzMzzFdKLM+FNKczFVNUTwiR9vczLMzM2GgAAAAAAAAAAAAAAAAAAAAAAAAACzr4b/wANz+03yO4LuEo/Zv6buj9HuX+M/mmXmVtH8P8AZqaGj9b07x8vxW98N74bs6lnH7hO4Kj9nIlbuj9HtX3lzEw1eXlpP+z/AN6rHaP1/TvHy/Fb7bYiIjiPsAiIiOI+x6AAAAAAAAABXj8aTc1NObEdP2xxm46h1POm104b6sbo9cO/uJhY4yr8WYhueeJ4j6ZmKZSd3xi9zJ1h3Q16FxLPLpfSsCmpquI4ryuoM2Vc3PjDTL4z4izHkyx8uOOJl+YIgAAAAAAAAAAAAAAAAAAAAAAAAAAAAAAAAAAAAAFw3wU91W63tV1PaDOaZy8DKTLxlnj6cfqiSrKvERMwmVQ7zzMzzfH2jiCyIoK+F3uxj7Vd3+CnUJVek9Trt6Vc7NCws50pZjxHPqZfPox64jmOfP1zPETfqAAAAAAAAAAAAAAAAAAAAAAAAAAAAAAAAAAAA1l3Ddw23HbPtxbuRuRb44a/RjYyeM5GffKzKY+OkzHk7ccy08JWkM7yqrMjuG7htuO2fbi3cjci3xw1+jGxk8ZyM++VmUx8dJmPJ245lp4StIZ3lVWZKAe53ud3H7qNx317r1/HDXyTp/T0Zpx+nUS3MV1xPHk7cRNt0xD2vETPiq111g7nO5zcfuo3HfX2vX8cNfJOn9PRmnH6dRLcxVXE8eTtxE23TEPa8cz4qtddeogAAAAAAAAAABJXsm7Jdb93mteE88baTFdY6p1Txj16hvwuJ5RKWZdiTE+4ZMdGiyyJ8qarwdk3ZLrbu81rKrL4u0uK6/mnVPH/AIN+FxPKJSzLsSYn3EpjpMWWRPlTVffbtvtvonaPROPt3t5jpjaRxUiuihI+382d2nl7LbHmXsteWex2ZmZpaZltvttojaLRWPt5t1jpi6Qxk8KKK4niPfLO7Ty9ltjzL2W2Mz2OzMzNLTM5MAAAAAAAAAAAAj/3id4mgO0fQP531vxv19erL0rpStEWZLrHHzLOOWqxa24+Zbx79IsMzRA7xO8TQPaNoH8763xfr29WXpXS1bizKdfU2WTHM1Y1UzHzLZj36RYZmiCgnd7d7X2+mv79ytyr2v1Pe3LT9q6UXnwppTmYrpqX6USPt7mZZmZmBu9u9r7fTX1+5W5V7X6nvbmZnmK6UWZ8KaU5mKqaonhEj7e5mWZmZsNAAAAAAAAAAAAAAAAAAAAAAAAAAFnXw3vhuvqN8fuE7g6P2a+m7o/R7l/jP5pl5lbR/D/Z6aG/13p3j5fit74b3w3m1I1HcF3B4/7N/Td0fo9y/wAX9mrzMtJ/2f8AvVY7x+v6d4+X4rfbbEQseK/ugIiFjiPsegAAAAAAAAAD4M7Nxem4T9RzZhcOtWex5+yrWss0z/hCxMnzkXfiU7sY+1HaB1V4lfzbqNf5VjIzQs2T1aJrvhf5zKYH4iziIn9z+UczAUY75bkZe8G8XU9zsyZls3NyL64biJSqy2fkVzxER+njxXX9ueF98zzJg4AAAAAAAAAAAAAAAAAAAAAAAAAAAAAAAAAAAAAAB9vo/V+paf6vV17ozzX1iixLqLV48qraHh63jnmOVdYaOYn3B0w7Ebp9L3t2c6but0iVnGzsSq51VleKbpXxyKZZfp8qMpbaXj7w9bRMRMTEcyZcP8F3e2NRbXZ2xXVH/wBJdOu/F4Sz4xzidSafmqsfvTFWbDO08evxKR/QCyEAAAAAAAAAAAAAAAAAAAAAAAAAAAAAAAA1l3Ddw23HbPtxbuPuRb44a/RjYyeM5GffKzKY+OkzHk7ccy08JWkM7yqrMjuG7htuO2fbi3cjci3xw1+jGxk8ZyM++VmUx8dJmPJ245lp4StIZ3lVWZKAe53ud3H7qNx317r1/HDXyTp/T0Zpx+nUS3MV1xPHk7cRNt0xD2vETPiq111g7nO53cfuo3HfXuvn8cJfJOn9PRmnH6dRLcxVVE8eTtxE23TEPa8RM+KrXXXqIAAAAAAAAAAASV7JeybWvd5rfxjzxdpMZ1/NOqQsevUN+ExfKJSzLsSYn3DJjo0W2Q3NNV4OyXsl1t3d624j5mNtHjWLHVOqQsf0hvwmJ5RKWZdiTE+4ZMdGi2yG8qar77dttttEbQ6Jx9u9usdMXSOMnhRQnPr3yzu0zL2W2PMvZa8s9jszNLTMyNttttE7Q6Ix9utu8dMbSGKnhRQnPr3Ms7tPL2W2PMvZa8s9jszNMy0yZMAAAAAAAAAAAAj/AN4neJoDtH0DPW+tyt+vr1aOldKVoizKdY4+ZZxy1WLW3HzLZj3+4nkzRA7xO8TQHaPoH87634369vVl6V0pW4synX1NlkxzNWNVMxNlsx79IsMzRBQTu9u9r/fTX1+5W5V7X6nvb6m+1dKLz4U0pzK1U1LPCJH29zMszMzA3e3e1/vpr6/cncq9r9T3t7aeYrpRZnwppTmVqpqieErX7e5mWZmacNAAAAAAAAAAAAAAAAAAAAAAAAAAFnXw3fhvTqVqO4LuEx+NN/Tb0fo9yzE5cxPKZeXW0fw/2amhv9f6d4+X4re+G78N/wDtP8juE7gaP2b+m7o/R7V/jPs1eZlpP+z/AGamho/W9O8fL8FvttiIiOI+wCIhY4j7HoAAAAAAAAAAAACnv4029Mdf3M6fsX0qyJwOn0TmZyKyTEZXUo4pSxY+pbKcJYsiJmOUzInj3ElvHWer9O0/0e3r3WHivpNFdl19rTELXXQku7tM+ohUWZmZ+0Qc0W/263UN8N6Opbr9R5+Zm5dltazxzXRE+GNVPHrmrFSqvn+fjyBgAAAAAAAAAAAAAAAAAAAAAAAAAAAAAAAAAAAAAAAABv7sT3xjt/7n+ma2zn8NL22fgupTysL+F6lxUzvM/ZKLvlZU8TE/oR945idAgDqnVlZfJf3f5T/U9IxfDn7gJ7ge2HD6p1V/PWmB/o7qXPPk1uEi/JtbmI8pvw2psZo5X5s2rE8o0RJ0AAAAAAAAAAAAAAAAAAAAAAAAAAABrLuG7htuO2fbi3cjci3xw1+jGxk8ZyM++VmUx8dJmPJ245lp4StIZ3lVWZHcN3Dbcds+3Fu5G5FvjhL9GNjJ4zkZ98rMpj46TMeTtxzLTwlaQzvKqsyUA9zvc5uP3Ubjvr7Xr+OGvknT+nozTj9OoluYqriePJ24ibbpiHteOZhVWuusHc53Obj91G476+18/jhr5J0/p6M04/TqJbmK64njyduIm26Yh7XiJnxVa669RAAAAAAAAAAACSvZN2S637vNazCeeLtLiuv5p1TxjmOYhvwuJ5RKWZdiTE+4ZMdGiyyJ8qarwdkvZNrXu81tKrL4u0uK6/mnVPH/AIN+ExfKJSzLsSYn3EpjpMWWQ3NNV99u222+itotEY+3W3mOmNpDFSK6KE59RzMs7tPL2W2PLWWWvLPY7MzS0tMjbfbfRO0eisfbzbvHTF0jjJCUUVx6j+bO7Ty9ltjzL2WvLPY7MzM0tMzkwAAAAAAAAAAACP8A3id4mge0fQE9c63K36+vVl6V0uG4syrFjj5lnH1V4tTTE2W8e/SL5M0QO8TvE0B2j6B/O+t+N+vb1ZeldKVuLMp19TZZMczVjVTMTZbMe/SL5M0QUE7vbva+3019fuVuVe1+p725mZ5iulImfCilOZiqmqJ8Urj7e5mWZmaQbv7v6+301/fuVuVe1+p72+qftXSi8+FNKczFdNSz4okfb3MyzMzNhoAAAAAAAAAAAAAAAAAAAAAAAAAAs7+G78N6dSTR3CdwVH7OfTb0fo9yzE5cxPKZeXW0fw/PDU0NH6/p3j5fit/nw3vhvf2l/D9wfcHR+zP03dH6PcvP4znhq8vLraP4f7NTQ0frenePl+K3W2xELHiv2ARERHEfY9AAAAAAAAAAAAAAAIUfFl30r2r7Y7NDdMs8dWdbs/B1rEr5xiV+Nmc/jPuUanxxWmInj8VHHE8TFFxLf4nfcBO+Pc9k9L6U/lovpHl07D458Xtx3n8bdETEe3zIauGjlXqoqaJmJ5IkAAAAAAAAAAAAAAAAAAAAAAAAAAAAAAAAAAAAAAAAAAABNv4UHcWuzvcNG3nXn8dF9chMRuZ4WrORp/BP7niPmWO+NPEcy19cz6QvNOVzDzMvp+WufgMyZyMr12I0o9b1tDKysswysrREw0TExMRMHRl2Ydw2H3M9v2FuMzJOqYX8N1atOI+VnYirF30+TSi2xKZCLMzMV3IBvEAAAAAAAAAAAAAAAAAAAAAAAA1l3Ddw23HbPtxbuRuRb44a/RjYyeM5GffKzKY+OkzHk7ccy08JWkM7yqrMjuG7htuO2fbi3cfci3xw15TGxk8ZyM++VmUx8dJmPJ245lp4StIZ3lVWZKAe5zuc3H7qNx317r5/HDXyTp/T0Zpx+nUS3MVVRPHk7cRNt0xD2vETPiq111g7nO5zcfuo3HfXuvX8cNfJOn9PRmnH6dRLcxVVE8eTtxE23TEPa8RM+KrXXXqIAAAAAAAAAAASV7JeybWvd3rfx/Uxto8Z1/NOqQsevUN+ExfKJSzLsSYn3DJjo0W2Q3NNV4Oybsl1v3d61+nzxto8axY6p1Txj16hvwuJ5RKWZdiTE+4ZMdGWyyJ8qar77dttttEbRaKx9vNusdMXSGMnhRRXzxHvlndpmXstseZey2xmex2ZmZpmZPNtdtdE7Q6Jx9u9u8dMbSOMnhRQnPr3yzu08vZbY8y9lryz2OzM0zMzJk4AAAAAAAAAAACP3eJ3iaB7RtA/nfW/G/Xt8MvS+lK0RZkuscTZZMctVi1TMfMt49+kWGZogd4neJoDtH0DPW+tyt+vr1aOldKVuLMp19fMs45mrFraYmy2Y9/uJ5M0QUFbvbva/wB9NfX7lblXtfqe9vbT6rpRZnwppTmVqpqieErX7e5mWZmZgbvbva/3019fuVuVe1+p729t9q6UXnwppTmVqpqWeERft7mZZmZmw0AAAAAAAAAAAAAAAAAAAAAAAAAAWd/De+G7OpZo7gu4THn+zv03dH6Pasx+LmJhq8vLSff4f7NTQ0fr+nePl+K3+fDf+G5/ab5HcD3CUfs39NvR+jXL/GeuUy8yto/h/s1NDR+t6d4+X4rfbbEREcR9gERCx4r+6egAAAAAAAAAAAAAAA0H3w9wtHbV26Zuu8dojVtq/g+kpPHL5marQjRHMcxRXFmS0fzWmY+8wb8KQPi1dyMbtb7xtTpy3y0R0TzpfwaZS7qNsx+LaeGlG/DwqYq8rDV2JkxzxZMAQYuutyLZvvmWvaZlmmZmWlp5mZmfczM+5mfufyAAAAAAAAAAAAAAAAAAAAAAAAAAAAAAAAAAAAAAAAAAAAAnH8J/uajZvfT/ANl2pbPHQXW5roiWaYTH6hXMxiWRy3gsX+TYr8Ly7PjzMxFRBw9VmRvNPTR9p/nHAHVOCNvYJ3PU90GwNGoeqvE7i4fGH1hOfqa+lI8Mnjhfpy6fG76Y8Vsm6uJb5UySSAAAAAAAAAAAAAAAAAAAAay7hu4bbjtn24t3I3Ht8cNfoxsZPGcjPvlZlMfHSZjyduOZaeErSGd5VVmR3Ddw23HbPtxbuRuRb44a/RjYyeM5GffKzKY+OkzHk7ccy08JWkM7yqrMlAPc53Obj91G476916/jhr5J0/p6M04/TqJbmKqonjyduIm26Yh7XiJnxVa66wdznc7uP3Ubjvr3Xz+OGvknT+nozTj9OoluYrriePJ24ibbpiHteImfFVrrr1EAAAAAAAAAAAJK9k3ZLrbu81rKrL4u0uK6/mnVPH374b8LieUSlmXYkxPuJTHSYssifKmq8HZL2Ta17vNb+ES+LtLiuv5p1Txj16hvwmL5RKWZdiTE+4ZMdGi2yG5pqvvt22230VtFojH2628x0xtIYqfLooTn17mWd2nl7LbHlrLLXlnsdmZpmWmRtvtvonaLROPt3t3jpjaRxUiuihI+382d2nl7LbHmXsteWex2ZmZpaZnJgAAAAAAAAAAAEfu8TvE0D2j6A/O+t+N+vr1Zel9KVoizJdfU2WcctVi1TxNlvHv0i+TNEHveJ3iaB7R9AfnnW/G/Xt6svSulq0RZk2LHHzLOPqrxammPmW8e/SL5M0QUE7vbv6/301/fuVuVe1+p729z7iulFmfCmlOZWqmqJ4RI+3uZlmZmYG7+7+vt9Nf37lblXtfqe9vc/aulF58KaU5laqalnhEj7e5mWZmZsNAAAAAAAAAAAAAAAAAAAAAAAAAAFnXw3vhuzqWcfuE7gqP2ciVu6P0e1Z5y5iYavMy0n/Z/71WO0fr+nePl+K3vhvfDebUjY/cH3B0fs39N3R+j3L/F/wA0y8yto/h/s9NDf6/07x8vxW+22IhY4j7AIiIjiPsegAAAAAAAAAAAAAAAAAaI71e43D7YdgMvcGuV/tc8fhek1NxPzc3KVoraV5WWShYfIsiJjlKmiJ5aDnUzMzL6jlv1DqDtZn2Mz2WOzO9j2NLM7s0yzMzTMy0zMzMzMkvfid90K9wm/baa02/ltr0abcTCZZ5TJyGZfxuVHqPT3VrRXMSytVQlizHzWgh4AAAAAAAAAAAAAAAAAAAAAAAAAAAAAAAAAAAAAAAAAAAAAAAABJLsF7o7O1nfmnUfWXeNtMyIxOs1x8x4imxua8mK1nhrMS7iyG8Hf5LZFaRzdJ0JY+Rj5mOuXiNDYrLDI6zDK6vHKssx6mJiYmJj1MHK2XMfCR7uE3H0D/8A05a1s/bfpdMT0x24icvp1cwsVRP87MKZWvx4iZx5qmPL5VrQFiAAAAAAAAAAAAAAAABrLuG7htuO2fbi3cjci3xwl+jGxk8ZyM++VmUx8dJmPJ245lp4StIZ3lVWZHcN3Dbcds+3Fu5G5Fvjhr9GNjJ4zkZ98rMpj46TMeTtxzLTwlaQzvKqsyUA9znc7uP3Ubjvr3Xz+OGvknT+nozTj9OoluYrqiePJ24ibbpiHteImfFVrrrB3O9zm4/dRuO+vtev44a+SdP6ejNOP06iW5iquJ48nbiJtumIe145nxVa669RAAAAAAAAAAACSvZL2S627u9bcR8zG2jxrFjqnVIWP6Q34TE8olLMuxJifcMmOjRbZDeVNV4Oybsl1v3ea14TzxtpMZ1jqnVPGPXqG/C4nlEpZl2JMT7hkx0aLLInypqvvt23220RtForH2826x0xdIYyeFFFcTxHvlndp5ey2x5l7LbGZ7HZmZmlpmW2222iNodE4+3e3WOmLpHGTwooTn175Z3aeXstseZey15Z7HZmaZmZkyYAAAAAAAAAAABH/vE7xNAdo2gfzvrnF+vb1aOldKVuLMp19TZZMczVjVTMTZbMe/SJDM0Qed4neJoDtH0BPW+tyt+vr1ZeldKVoizJdY4+ZZxy1eLU3HzLePfpF8maIKCt3t39f76a+v3K3Kva/U97e5nmK6UWZ8KKE5mKqaonhK4+3uZlmZmYG7272vt9Nf37lbk3tfqfIblm+1dKL+5TSnMxXTUv0okfb3MyzMzThoAAAAAAAAAAAAAAAAAAAAAAAAAAs6+G98N5tSNR3B9weP8As39N3R+j3L/F/Zq8zLSf9n/vVY7x+v6d4+X4re+G78N6dSzR3BdwmPMac+m3o/R7lmJy5ieUy8yto/h/s1NDf6/07x8vxW+22IhY4j7AIiFjxX7HoAAAAAAAAAAAAAAAAAAhz8Tjurr7edjX0jpm2U3V6wluNhSkvFmJj8KuXlw6MrVOlVny6HhoeL7FdYaKbPGVms9Y6c2+0lk641datOmMSmy/Jub7V10JLNPH3ZuI4VY5ZmmFiJmYg5zu6zuH1B3P715W6nWolMB5inp+NPH+aYWOzfIp9TMef1NbZMTMTdbbMcRMRAaiAAAAAAAAAAAAAAAAAAAAAAAAAAAAAAAAAAAAAAAAAAAAAAAAAAAyja7crVuz24OJuboaz5eqsO6LqHmJlZmIlXrdYmJaq2pmqsWJjyrdo5jnkxcAdLfbjvzpLuS2hxN19ITEY96+OTj88vhZVMRF+NZ9p5rf91piPmVtXZEeNi87NKC/h194uT2ubsR0nVDtOz3Unrq6knPK4dnPjVnKszxHyfLi7x+p6OfTtVUpffjZOPm4y5mG0NiOsMjrMMrq8cqyzHqYlZiYmPUwB8oAAAAAAAAAAGsu4buG247Z9uLdx9yLfHDX6MbGTxnIz75WZTHx0mY8nbjmWnhK0hneVVZkdw3cNtx2z7cW7kbj2+OGv0Y2MkrORn3ysymPjpMx5O3HMtPCVpDO8qqzJQD3O9zu4/dRuO+vtev44a+SdP6ejNOP06iW5iuuJ48nbiGtumIe14iZ8VWuusHc53Obj91G476916/jhr5J0/p6M04/TqJbmKqonjyduIm26Yh7XiJnxVa669RAAAAAAAAAAACSvZL2Ta17vNbSqy+LtLiuv5p1Tx9/yb8Ji+USlmXYkxPuJTHSYsshuaarwdkvZNrXu71v4x8zG2kxnX806pCx69Q34TF8olLMuxJifcMmOjRbZDc01X327bbbaJ2h0Rj7dbd46Y2kcVPCihOfXvlndp5ey2x5l7LXlnsdmZpmWmRtttvoraLRGPt1t5jpjaQxUiuihP5RzMs7tPL2W2PLWWWvLPY7MzS0tMzkwAAAAAAAAAAACP8A3id4mgO0fQP531uVv19erR0rpStxZlOvr5lnHM1YtbTE2WzHv9xPJmiDzvE7xNA9o+gPzzrfjfr69WXpXS4aIsyXWOPmWcctXi1TMTZbx79IvkzRBQVu/u9r7fTX9+5W5V836nvblp+1dKLz4U0pzMV01L9KJH29zMszMzA3e3e1/vpr6/cncq9sjU97e2n1XSizPhTSnMrVTXE8JWv29zMszM04aAAAAAAAAAAAAAAAAAAAAAAAAAALOvhufDf/ALTfI7hO4Gj9m/pu6N0e1Y/zz7NXmZaT/s/2amho/W9O8fL8Fv8Afhu/DenUs4/cJ3BUfs7ytvR+j3LMTl8TymXl1tH8Pzw1NDR+v6d4+X4rfbZEREcR9gERERxH2PQAAAAAAAAAAAAAAAAAABFX4hPeFidqu0k06eZW3c6hD09Lq5WZx48eLc6xZ/7OiJiEjifO9q448YslQhl8XPvDXVPXJ7Wtv7InT2LYr9euX3F+VVMPVhw0T4ymK3Fl0e/848E+icd4as4+bMzMzqOY/UOoO1mfYzPba7M72PY0szuzTLMzNMzLTMzMzMyfCAAAAAAAAAAAAAAAAAAAAAAAAAAAAAAAAAAAAAAAAAAAAAAAAAAAAAAC2H4TPeymdiV9qm59s/mCQ06ey7H5+ZWv1N01mafLyrjyfF+8TXDUx4RVjo9Tx9jp3UeodI6hX1bpLvV1Sp1spurZq7KbKmhket1mHR0eIZWWYlZiJiYmAOqAERvh7d7vR+6jQEaa1VYib5YNS/mFE+CTnVLwkZ9CRxEo7Sq3okcUXMsTCrdR5S5AAAAAABrLuG7htuO2fbi3cjci3xw1+jGxk8ZyM++VmUx8dJmPJ245lp4StIZ3lVWZHcN3Dbcds+3Fu5G5FvjhL9GNjJ4zkZ98rMpj46TMeTtxzLTwlaQzvKqsyUA9znc5uP3Ubjvr3Xr+OGvknT+nozTj9OoluYqqiePJ24ibbpiHteImfFVrrrB3Odzm4/dRuO+vtev44a+SdP6ejNOP06iW5iqqJ48nbiJtumIe145nxVa669RAAAAAAAAAAACSvZN2S637u9a/T5420eNYsdU6p4x69Q34XE8olLMuxJifcMmOjLZZE+VNV4Oybsl1v3ea1mE88XaXFdfzTqnjHrmIb8LieUSlmXYkxPuGTHRossifKmq++3bfbfRO0eisfbzbvHTF0jjJCUUVx6j+bO7Ty9ltjzL2WvLPY7MzM0tMy22220RtForH2826x0xdIYyeFFFfPEe+Wd2mZey2x5l7LbGZ7HZmZmmZkyYAAAAAAAAAAABH/vE7xNAdo+gPzvrfjfr29WXpXSlbizKdfU2WTHM1Y1UzE2WzHv0i+TNEDvE7xNAdo2gfzvrnF+vb4Zel9LVoizJdY4+ZZMctVi1tMfMt49+kWGZogoJ3e3e19vpr6/crcq9r9T3t9TfaulF58KaU5laqalnhEj7e5mWZmZgbvbva+3019fuVuVe1+p725lp5iulFmfCmlOZWqmqJ4Stft7mZZmZpw0AAAAAAAAAAAAAAAAAAAAAAAAAAWdfDe+G9/aX5HcH3B4/7M/Td0fo9y8/jOeGry8uto/h/s1NDR+t6d4+X4rd78N74bs6kmjuC7hKP2c+m7o/R7VmJy5iYavLy0n3+H+zU0NH6/p3j5fit9tkRCx4r9gERCx4r+6egAAAAAAAAAAAAAAAAAAD6XWutdH030e3UOoLa6OhUVvdkZFrrXVRVQkvZZY7TCIiJEszNMRERMyBiW9u8mitgtssrdTXz+HQMWuW8F8fm5NreqselWmIa66zhFiZiI58mlVVmjnX7hN9dZdx27GVuvrZp/H3vxRjwzPVg41czFOLTzxEV1J95hV+ZY1lrR52vM7p+IL3p9Q7r9yI6bphrE2WwGdem0N5J+Lsn6Xz7q54nzsX6aksjyppmY4Rrb4aKAAAAAAAAAAAAAAAAAAAAAAAAAAAAAAAAAAAAAAAAAAAAAAAAAAAAAAAAAAAAZhtJuzrnZDcDH3L26umnVGM/kje5rtWfT03JzEWU2pyrpMxzE+pWYVo6Du03ui0V3XbU16/0zxV15OKup9Ol1azAyYj6lnj21NnEvRbML8yuY5hHWytOcE212x9y24HazudXuLoVvKj1Xn4LtMUdQxpaJamziJ8WjjyrtiJaqyIbho80cOk4Gutg999v+47bOjdHbmyW6PdHjbS/EX4d9cR83GyEiZ8La2n+UyrrKWIzpYjtsUAay7hu4bbjtn24t3I3It8cNfoxsZPGcjPvlZlMfHSZjyduOZaeErSGd5VVmR3Ddw23HbPtxbuRuRb44a/RjYyeM5GffKzKY+OkzHk7ccy08JWkM7yqrMlAPc53Obj91G476+18/jhr5J0/p6M04/TqJbmK64njyduIm26Yh7XiJnxVa66wdznc7uP3Ubjvr3Xz+OGvknT+nozTj9OoluYrqiePJ24ibbpiHteImfFVrrr1EAAAAAAAAAAAJK9kvZNrXu81v4RL4u0uK6/mnVPGPXqG/CYvlEpZl2JMT7hkx0aLbIbmmq8HZL2Ta17u9b+P6mNtHjOv5p1SFj16hvwmL5RKWZdiTE+4ZMdGi2yG5pqvvs21210TtDonH2727x0xtI4yeFFCc+vfLO7Ty9ltjzL2WvLPY7MzTMzMnu222+itotEY+3W3mOmNpDFT5dFCc+vcyzu08vZbY8tZZa8s9jszNMy0yZMAAAAAAAAAAAAj93id4mge0fQE9b63K36+vVl6V0uG4syrFjj5lnHuvFqaYmy2Y9/uJ5M0QO8TvE0B2j6B/O+t+N+vr1aOl9KVuLMp19fMsmOZqxa5mJstmPf7i+TNEFBW7272vt9Nf37lblXtfqe9uWb7V0ovPhTSnMrVTUs+KJH29zMszMzB7u/u/r/fTX1+5W5V7X6nvb3M+q6a1mfCihOZWqmqJ4RF+3uZlmZmbDAAAAAAAAAAAAAAAAAAAAAAAAAABZ18N/4bsam+R3A9wlH7N/Tb0fo9y/xn80y8yto/h/s1NDR+t6d4+X4re+G98N1tSzj9wncFR+zkeN3R+j2rPOXMTDV5eWk/7P8A3qsdo/X9O8fL8VvttiIiOI+wCIiI4j7HoAAAAAAAAAAAAAAAAAAAAeFOfxPe/u3cnq13bps7d/8A25ofx6tn1tEx1S+ueZx6mWZ/zOl/Ttz+vasxEfLrVr9n/E3+Ib/Z5cjtp2Nu/wBPzE09d6pW38Krxw+BjPH3vZZ8ci5Z4piZqWfmzbOPUqAAAAAAAAAAAAAAAAAAAAAAAAAAAAAAAAAAAAAAAAAAAAAAAAAAAAAAAAAAAAAAAABvjs+7ttcdpW5a6r6F5XaMu8a+q9MluK8ymJnhl55VMmnmWpt45iZZJ5SyxWuw1P3ydvmm+3dO5OMuLdGXL44mOnj+Mycvxn/MVpmeVyUaJiyGnwqWJsZvCIeedc+RsjIbHjEZp/CrLMqcz4q1kLDNEfaJaESJmI5mFXn92OA2z3O9zu4/dRuO+vdev44a+SdP6ejNOP06iW5iuuJ48nbiJtumIe14iZ8VWuuvUQAAAAAAAAAAAkr2Tdkut+7vWvC+eNtJjWLHVOqeMevUN+FxPKJSzLsSYn3DJjo0WWRPlTVeDsm7Jdbd3mtZVZfF2lxXX806p4+/fDfhcTyiUsy7EmJ9xKY6TFlkT5U1X327b7b6J2j0Tj7d7eY6Y2kcVIrooSPt/Nndp5ey2x5l7LXlnsdmZmaWmZbb7baI2i0Vj7ebdY6YukMZPCiiuJ4j3yzu08vZbY8y9ltjM9jszMzS0zOTAAAAAAAAAAAAI/8AeJ3iaB7R9AfnnW/G/Xt8MvSulq0RZkuscTZZxy1eLVMx8y3j36RfJmiB3id4mgO0fQP531zxv19erR0rpStxZlOvqbLJjmasatpibLZj3+4kMzRBQTu9u9r7fTX1+5W5V7X6nvblmn1XSi8+FNKcytVNSz4okfb3MyzMzSHu7+7+vt9Nf37lblXtfqe9vc+4rpRZnwooTmYqpqWeESPt7mZZmZmwwAAAAAAAAAAAAAAAAAAAAAAAAAAWdfDe+G82pGx+4PuCo/Zv6buj9HtX+L/mmXmVtH8P9npob/X+nePl+K3vhu/DefUb0dwfcJj/ALNfTd0fo9y/xn2avMy0n/Z/71WO8frenePl+K322xELHiv7oCIhY4j7HoAAAAAAAAAAAAAAAAAAAACu74knxEMbabAv2E2Su53VsX5fUeoVNHHSK7I+qqp4n+OdJ48o/hlbyiYs8flviIfEkwNpse7ZLYS9bN1Z8quodRr4evpEccPVU3tHzv5Tx5Lje4n9SPGum3LzMvqGW2fnsz5zsz2WO0u9j2TLMzM0yzMzTMy0zMzMzMgfxZZZbZNtszNszMzMzzMzP3mZ+8zM/wAz+QAAAAAAAAAAAAAAAAAAAAAAAAAAAAAAAAAAAAAAAAAAAAAAAAAAAAAAAAAAAAAAAAAAAAAAAAAAAAAEleyXsm1r3ea38I88baTGdfzTqkLHr1DfhMXyiUsy7EmJ9wyY6NFtkNzTVeDsl7Jdbd3etuI+ZjbR41ix1TqkLH9Ib8JieUSlmXYkxPuGTHRotshvKmq++3bbbbRG0OicfbvbrHTF0jjJ4UUJz698s7tPL2W2PMvZa8s9jszNLTMyNttttE7Q6Ix9utu8dMbSOKnhRQnPr3yzu08vZbY8y9lryz2OzM0zMzJkwAAAAAAAAAAACP3eJ3iaA7R9A/nfW/G/X16svSulK0RZkuscfMs45arFrbj5lvHv0i+TNEHveJ3iaA7R9AT1vrcrfr69WXpXSlbizKdfXzLOOZqxapmJstmPfpF8maIKCd3t3tf76a+v3J3KvbI1PfPtp9V0ovPhTSn7tVNcTwiL9vczLMzMwN3t39f76a/v3K3Kva/U97czM8xXSizPhRQnMxVTVE8JXH29zMszMzYaAAAAAAAAAAAAAAAAAAAAAAAAAALOvhu/DenUs0dwXcJjzGnPpt6P0e5ZicvieUy8uto/h/s1NDf6/wBO8fL8VvfDc+G//ab5HcJ3BUfs39N3R+j3L/GfZq8zLSf9n+zU0NH63p3j5fgt9tsRERxH2ARELHEfY9AAAAAAAAAAAAAAAAAAAH0utda6PpvpFuoNQ210dCore3IyLnSqmiqlZZ7LLHmERESJZmaYiIiZmQPuFYXxDfibrp6btje2nIiev/VX1TrtMwy4v8nxsB45Vr59rblLzFMcrVM282Y+sO/v4nvVtybbtne3S56Nufqrz+rJymR1SJiVarHmfrpw/c+VkcW3+oia6/Jb65AP6ssstsm22Zm2ZmZmZ5mZn7zM/eZmf5n8gAAAAAAAAAAAAAAAAAAAAAAAAAAAAAAAAAAAAAAAAAAAAAAAAAAAAAAAAAAAAAAAAAAAAAAAAAAAAAJK9k3ZLrfu81rMJ54u0uK6/mnVPGOY5iG/C4nlEpZl2JMT7hkx0aLLInypqvB2S9k2te7zW0qsvi7S4rr+adU8f+DfhMXyiUsy7EmJ9xKY6TFlkNzTVffbtttvoraLRGPt1t5jpjaQxUiuihP5RzMs7tPL2W2PLWWWvLPY7MzS0tMy23230TtFonH2727x0xdI4yQlFFceo/mzu08vZbY8y9lryz2OzMzNLTM5MAAAAAAAAAAAAj93id4mge0fQH531vxv19erL0rpatEWZLrHHzLOPqrxammPmW8e/SL5M0Qe94neJoHtH0B+edb8b9fXqy9K6VDcWZTr6myyY5avGqmYmy2Y9+kXyZogoJ3e3f1/vpr+/crcq9r9T3tzMzzFdKLM+FFCczFVNUTwlcfb3MyzMzMDd7d7X2+mv79ytyb5v1PkNy0/aulF/cppTmYrpqX6USPt7mZZmZmw0AAAAAAAAAAAAAAAAAAAAAAAAAAWd/Dd+G9OpJx+4TuCo/Zzlbuj9HuWYnLmJ5TLy62j+H54amho/X9O8fL8Vv8APhvfDe/tN8juD7g8f9mfpu6P0e5f4znhq8vLraP4f7NTQ0fr+nePl+K3W2xELHiv7oCIiI4j7HoAAAAAAAAAAAAAAAAAAAir3hfEJ2k7VcRtPUzHUN3GWfldLpdeMblZlbM62OYor+3FcQ178xwkLLWKG8N5N7dstgtFPr7dTKrxegL9KeU825NnjLLTj1R+pdc0LMwiRPEQzT4qrNFIHen8QXcjuvz20v02GwNlks8qOmq36mX8pua7s91+mx+YixaF5ppbjj5rJFzaW317hN2O47WTa23Xynvz+WjHojlMXBrsbn5OLTEylVcRCxM/VZZ4w1j2vy865AAAAAAAAAAAAAAAAAAAAAAAAAAAAAAAAAAAAAAAAAAAAAAAAAAAAAAAAAAAAAAAAAAAAAAAAAAAAAAAAAG5e2zu13n7WdSfnO2uRP5E7Q2Z0u7yswc2IiI/Uq5iUs8YiFvqlLV4iPKVlkbTQA6DO07v/wBlO6fDTo+BZGDup4RN3Rsh1h3aImWnDtmETLrjhp+iFuVY8nqriYmZOHK7h5mZ07MTqHT3avPrZXqtRmR63raGV0ZZhlZWiJhomJiYiYLEe034u2u9AtTofuNRuo6MjxrXqyf/AOSxV9x5Xr+5nIv0xMz8rIhYdpfJbxSQuRBhu1W8W2O9+lV1ptVm0Zunm4hnpfl6XZFf5V9U8X490IytNNyV2LDRMrHMGZAAAAAAAj/3id4mgO0fQP531zi/Xt6svS+lK0RZkuscfMsmOZqxa2mPmW8e/SLDM0Qed4neJoHtH0B+d9b8b9fXqy9K6XDcWZVi+pss45mvFqmYmy2Y9+kXyZogoL3f3f1/vpr+/crcq9r9T3t7n7V0osz4UUJzK1U1RPCJH29zMszMzB5u9u9r7fTX1+5W5V7X6nvblmn1XSi8+FNKcytVNSzwiL9vczLMzNOGgAAAAAAAAAAAAAAAAAAAAAAAAACzv4b3w3Z1I1HcF3CY/GnPpu6P0e1ZicuYmGry8tJ9/h/s1NDR+v6d4+X4rf58N/4bkanijuB7hKP2b+m3o/R7lj/PPXKZeZW0fw/2amiY/W9O/wCn4rfbbEREcR9gERCx4r9j0AAAAAAAAAAAAAAAAAAfi6x1ppLb3Tlur9c5NOJpilfK7KyLEqqrj7RyzTEeTNwqrHLM0wqxMzETFPus+Jxsd28pbpjSLp1jdVJlJwsa2Pw2I6uyPGXlqtlSPUytDY1cWXw8QrrTDfMWnruH7rN6+5/UEda3Uypfp6TzjdPphqcDE9TH6NHk31cTMTba1t0xPE2THEQE0+8P4ufXdURbt/2tS+Lp2Y8LevOrJmXxM+4w6njnFSV9fPsj8R7+lcZkh2rVzMzM6jmP1DqDtZn2Mz22uzO9j2NLM7s0yzMzTMy0zMzMzMnwgAAAAAAAAAAAAAAAAAAAAAAAAAAAAAAAAAAAAAAAAAAAAAAAAAAAAAAAAAAAAAAAAAAAAAAAAAAAAAAAAAAAAAAAADMdq9490NkdTLrDanNvwtQR6l6WjwtWOfouqeGx76/fPy7q7E54njmIktP7YfjFaM1Y1ek+5When9dnxVer40WWYFzM3HN9H15GJ/d5dWvqmfJm/DrEQU/gDqW07qTT2rui16k0rfTk6fuWHoyaLK7qbkaOYZLElkaJj+cTJ+kc1Gxfc1vb249a/ONps+3HoZoa/Dmfm4WV+7z87GfmhmlVhfmwq2qvMK6cyWedufxkNs9YLXp3uExm6ZqOfFZ6jjxZkdNsbhY8nT6szF8nmeF4yUVY5a1f5BY2R+7xO8TQHaPoGet9blb9fXq0dL6UrRFmU8evmWcctVi1zxNlsx7/AHF8maIPyu5vvx2Z7f8AaNNw+kZOP1LrWYjfkuJi31WrmtEe7WsrloTGqmY+bZ9+ZhFiWaIKIN3939fb6a/v3K3Kva/U97czPuK6UXnwooTmYqpqWfFEj7e5mWZmZg83e3e1/vpr6/crcq9r9T3t7afVdKLz4U0pzK1U1LPCIv29zMszMzYaAAAAAAAAAAAAAAAAAAAAAAAAAALOvhvfDdbUjY/cH3BUfs5Hjd0fo9y+8uYmGrzMtJ/2f+9VjtH6/p3j5fit74b3w3W1I2P3B9wVH7N/Td0fo9y/xf8ANMvMraP4f7PTQ3+v9O8fL8VvttiIWOI+wCIiI4j7HoAAAAAAAAAAAAAAABoPuF74u3TtqobH13mrbq2I5TpOH45Oc08TxDJDLVRE8emybKVn+UzPoq77kvi0777ufM05tTH5JohvJfOl5s6ncs+Uctl8L+H8klZ8cVEsraJ/XsgC0nuN71tgO2HDmvcHLh9XePlV0nF8b8+zmJ8ZauGhaEaYmItyHqSeJiJafRUj3QfE8387hK303ptvybbdolWwsS1myclZ49ZOb413OvqY+XSuPWytK2Lb6mIhZmZmdRzH6h1B2sz7GZ7bXZnex7Glmd2aZZmZpmZaZmZmZmT4QAAAAAAAAAAAAAAAAAAAAAAAAAAAAAAAAAAAAAAAAAAAAAAAAAAAAAAAAAAAAAAAAAAAAAAAAAAAAAAAAAAAAAAAAAAAAAAAAAAAAAAAAAAAAAAAAAAAAAAAAAAAAAAWdfDd+G82pHo7gu4TH/Zv6bej9HuX+L+zV5mWk/7P/eqx3j9f07x8vxW98N34b06lmjuC7g8fjTf029H6PcsxOXMTymXmVtH8P9mpob/X+nePl+K322xERHEfYBEQseK/unoAAAAAAAAAAHwZudhdNxpzeouteGsctY7KiLEfzlmmFiP8ZkjLux8SntA2px5h+q19R6t4syY3SuM+bJWP3Yvrn8AkzPER8zIT7/0iZgJQn0+r9Z6Rp/pz9X69bXR0muJay+50qqrVY5lnd5VFiI9zMzEFQ+9XxpdzNQLZ0nYvp9PT8GYZUz8yYzcyIZOFsSmIXCpsV5mYW2MxJ4jmJjmCDW62/wBvRvhn/mO6/UsvNs58lrtsmMeuYjjmrGTwxap4/wD9dS8gXJb5fFl7Ytq1s6ZoeyzrWql5iK8KPDDV/HmPPNsiKWSfUeeKuVxPMccxMRXL3AfE77nt8ZfpXS8n8o0W3r8H05nptdeYni3N/jHmeOGit6KnWZhq5iZ5iQAP6uutyLZvvmWvaZlmmZmWlp5mZmfczM+5mfufyAAAAAAAAAAAAAAAAAAAAAAAAAAAAAAAAAAAAAAAAAAAAAAAAAAAAAAAAAAAAAAAAAAAAAAAAAAAAAAAAAAAAAAAAAAAAAAAAAAAAAAAAAAAAAAAAAAAAAAAAAAAAAAACzr4bnw341PFHcJ3A0fs39N3RukWr/GfZq8zLSf9n+000NH63p3j5fgt+mPh/wC13alR1dN5+5/rHTa8aiyZ6f0G62JsttoaeMjOr8Zj5KtHNWPPPzp4Z/oiEutOs+IN2YU/TOoMH1/T8S3/AJeNMx/5ASGiIiOI+x6Rf6t8THsm6OnzLet1vH9KcXqN0+54+yY8yYn1n4t/Zf0yibsLLzcmyI9JT0/KVm4/lH4iKE5n/Foj/gBMwFeef8bDtyrj/RfTOtu3/vKumVf/AG51prjUXxxljIanSenOcX/s7cjqfizRxHPlTVhNC/VzHEXtzHE8xzxAWpgpX1Z8aHuV6tdK6Uwuk4eDMfT5VZeVcs++Z+Y+QlMx9vU0f+M8+tK6y+I/3na2ZlzOt30YbTzFWHXi4cJ6j0tlNS5PE/fhrW+8/wAvQHQZmZuH0/HnLz3VMWP3ndlRV/4s0xEf+Mmltfd7fahtpFiap690/wDG18xZRj3Lm3rK/dZpxfnWw3/4ZWJ/wOePVmvNc69ylztc5uXm5y8wlmXk5GU6Q/EtCtc7tHMxHPE++I/ofhAXNbm/Gk2I04jY22PT87qfUI48Htmvp2K3LTE/W8X5UcLHlETixzzEcr74inuZ8Yvuh1hNmJoWvA6V0tuPlNTS2Xl1xwvPldlM+M8y0NxK4lfCtxxMx5TBEAZxuTvlvFvBlzmbndTzc5pnyiu/ItelJiIj9OjmMev1Eeq61jn395mTBwAAAAAAAAAAAAAAAAAAAAAAAAAAAAAAAAAAAAAAAAAAAAAAAAAAAAAAAAAAAAAAAAAAAAAAAAAAAAAAAAAAAAAAAAAAAAAAAAAAAAAAAAAAAAAAAAAAAAAAAAAAAAAAAAAAAAAAAAAAAAAAAAAAAAAAAAAAAAAAAAAAAAAAAAAAAAAAAAAAAAAAAAAAAAAAAAAAAAAAAAAAAAAAAAAAAAAAAAAAAAAAAAAAAAAAAAAAAAAAAAAAAAAAAAAAAAAAAAAAAAAAAAAAAAAAAAAAAAAAAAAAAAAAAAAAAAAAAAAAAAAAAAAAAAAAAAAAAAAAAAAAAAAAAAAAAAAAAAAAAAAAAAAAAAAAAAAAAAAAAAAAAAAAAAAAAAAAAAAAAAAAAAAAAAAAAAAAAAAAAAAAAAAAAAAAAAAAAAAAAAAAAAAAAAAAAAAAAAAAAAAAAAAAAAAAAAAAAAAAAAAAAAAAAAAAAAAAAAAAAAAAAAAAAAAAAAAAAAAAAAAAAAAAAAAAAAAAAAAAAAAAAAAAAAAAAAAAAAAAAAAAAAAAAAAAAAAAAAAAAAAAAAAAAAAAAAAAAAAAAAAAAAAAAAAAAAAAAAAAAAAAAAAAAAAAAAAAAAAAAAAAAAAAAAAAAAAAAAAAAAAAAAAAAAAAAAAAAAAAAAAAAAAAAAAAAAAAAAAAAAAAAAAAAAAAAAAAAAAAAAAAAAAAAAAAAAAAAAAAAAAAAAAAAAAAAAAAAAAAAAAAAAAAAAAAAAAAAAAAAAAAAAAAAAAAAAAAAAAAAAAAAAAAAAAAAAAAAAAAAAAAAAAAAAAAAAAAAAAAAAAAAAAAAAAAAAAAAAAAAAAAAAAAAAAAAAAAAAAAAAAAAAAAAAAAAAAAAAAAAAAAAAAAAAAAAAAAAAAAAAAAAAAAAAAAAAAAAAAAAAAAAAAAAAAAAAAAAAAAAAAAAAAAAAAAAAAAAAAAAAAAAAAAAAAAAAAAAAAAAAAAAAAAAAAAAAAAAAAAAAAAAAAAAAAAAAAAAAAAAAAAAAAAAAAAAAAAAAAAAAAAAAAAAAAAAAAAAAAAAAAAAAAAAAAAAAAAAAAAAAAAAAAAAAAAAAAAAAAAAAAAAAAAAAAAAAAAAAAAAAAAAA//2Q==;fontSize=10;" parent="1" vertex="1">
          <mxGeometry x="590" y="330.00000000000006" width="50" height="50" as="geometry" />
        </mxCell>
        <mxCell id="6ewWvkbA7y4lwiOxdqUY-21" style="edgeStyle=orthogonalEdgeStyle;rounded=0;orthogonalLoop=1;jettySize=auto;html=1;entryX=1;entryY=0.5;entryDx=0;entryDy=0;entryPerimeter=0;fontFamily=Comic Sans MS;fontSize=19;fontColor=#3D4C53;" parent="1" source="6ewWvkbA7y4lwiOxdqUY-18" target="6ewWvkbA7y4lwiOxdqUY-19" edge="1">
          <mxGeometry relative="1" as="geometry" />
        </mxCell>
        <mxCell id="6ewWvkbA7y4lwiOxdqUY-18" value="&lt;font face=&quot;Helvetica&quot; style=&quot;font-size: 8px;&quot;&gt;AWS CloudWatch&lt;/font&gt;" style="sketch=0;points=[[0,0,0],[0.25,0,0],[0.5,0,0],[0.75,0,0],[1,0,0],[0,1,0],[0.25,1,0],[0.5,1,0],[0.75,1,0],[1,1,0],[0,0.25,0],[0,0.5,0],[0,0.75,0],[1,0.25,0],[1,0.5,0],[1,0.75,0]];points=[[0,0,0],[0.25,0,0],[0.5,0,0],[0.75,0,0],[1,0,0],[0,1,0],[0.25,1,0],[0.5,1,0],[0.75,1,0],[1,1,0],[0,0.25,0],[0,0.5,0],[0,0.75,0],[1,0.25,0],[1,0.5,0],[1,0.75,0]];outlineConnect=0;fontColor=#232F3E;gradientColor=#F34482;gradientDirection=north;fillColor=#BC1356;strokeColor=#ffffff;dashed=0;verticalLabelPosition=bottom;verticalAlign=top;align=center;html=1;fontSize=12;fontStyle=0;aspect=fixed;shape=mxgraph.aws4.resourceIcon;resIcon=mxgraph.aws4.cloudwatch_2;fontFamily=Comic Sans MS;" parent="1" vertex="1">
          <mxGeometry x="690" y="201.17000000000002" width="50" height="50" as="geometry" />
        </mxCell>
        <mxCell id="6ewWvkbA7y4lwiOxdqUY-23" style="edgeStyle=orthogonalEdgeStyle;rounded=0;orthogonalLoop=1;jettySize=auto;html=1;entryX=1;entryY=0.25;entryDx=0;entryDy=0;fontFamily=Comic Sans MS;fontSize=19;fontColor=#3D4C53;" parent="1" source="6ewWvkbA7y4lwiOxdqUY-19" target="6ewWvkbA7y4lwiOxdqUY-6" edge="1">
          <mxGeometry relative="1" as="geometry">
            <Array as="points">
              <mxPoint x="560" y="210" />
              <mxPoint x="560" y="237" />
            </Array>
          </mxGeometry>
        </mxCell>
        <mxCell id="C9uzuR9SwBI8yeOS5jQj-8" style="edgeStyle=orthogonalEdgeStyle;rounded=0;orthogonalLoop=1;jettySize=auto;html=1;exitX=0;exitY=0.75;exitDx=0;exitDy=0;exitPerimeter=0;entryX=0.5;entryY=0;entryDx=0;entryDy=0;fontSize=10;" edge="1" parent="1" source="6ewWvkbA7y4lwiOxdqUY-19" target="C9uzuR9SwBI8yeOS5jQj-4">
          <mxGeometry relative="1" as="geometry">
            <Array as="points">
              <mxPoint x="590" y="240" />
              <mxPoint x="570" y="240" />
              <mxPoint x="570" y="280" />
              <mxPoint x="715" y="280" />
            </Array>
          </mxGeometry>
        </mxCell>
        <mxCell id="6ewWvkbA7y4lwiOxdqUY-19" value="&lt;font face=&quot;Helvetica&quot; style=&quot;font-size: 8px;&quot;&gt;AWS Lambda&lt;/font&gt;" style="sketch=0;points=[[0,0,0],[0.25,0,0],[0.5,0,0],[0.75,0,0],[1,0,0],[0,1,0],[0.25,1,0],[0.5,1,0],[0.75,1,0],[1,1,0],[0,0.25,0],[0,0.5,0],[0,0.75,0],[1,0.25,0],[1,0.5,0],[1,0.75,0]];outlineConnect=0;fontColor=#232F3E;gradientColor=#F78E04;gradientDirection=north;fillColor=#D05C17;strokeColor=#ffffff;dashed=0;verticalLabelPosition=bottom;verticalAlign=top;align=center;html=1;fontSize=12;fontStyle=0;aspect=fixed;shape=mxgraph.aws4.resourceIcon;resIcon=mxgraph.aws4.lambda;fontFamily=Comic Sans MS;" parent="1" vertex="1">
          <mxGeometry x="590" y="201.17" width="50" height="50" as="geometry" />
        </mxCell>
        <mxCell id="6ewWvkbA7y4lwiOxdqUY-26" value="&lt;font color=&quot;#000000&quot; style=&quot;font-size: 13px;&quot;&gt;Save Lyrics&lt;/font&gt;" style="text;html=1;strokeColor=none;fillColor=none;align=center;verticalAlign=middle;whiteSpace=wrap;rounded=0;fontFamily=Comic Sans MS;fontSize=19;fontColor=#3D4C53;" parent="1" vertex="1">
          <mxGeometry x="575" y="301.83" width="80" height="20" as="geometry" />
        </mxCell>
        <mxCell id="6ewWvkbA7y4lwiOxdqUY-28" value="&lt;span style=&quot;font-size: 13px;&quot;&gt;&lt;font color=&quot;#000000&quot;&gt;Trigger&lt;/font&gt;&lt;/span&gt;" style="text;html=1;strokeColor=none;fillColor=none;align=center;verticalAlign=middle;whiteSpace=wrap;rounded=0;fontFamily=Comic Sans MS;fontSize=19;fontColor=#3D4C53;" parent="1" vertex="1">
          <mxGeometry x="675" y="170" width="80" height="20" as="geometry" />
        </mxCell>
        <mxCell id="6ewWvkbA7y4lwiOxdqUY-30" value="&lt;font color=&quot;#000000&quot; style=&quot;font-size: 13px;&quot;&gt;Call Api&lt;/font&gt;" style="text;html=1;strokeColor=none;fillColor=none;align=center;verticalAlign=middle;whiteSpace=wrap;rounded=0;fontFamily=Comic Sans MS;fontSize=19;fontColor=#3D4C53;" parent="1" vertex="1">
          <mxGeometry x="573" y="173" width="80" height="20" as="geometry" />
        </mxCell>
        <mxCell id="6ewWvkbA7y4lwiOxdqUY-31" value="&lt;font color=&quot;#000000&quot; style=&quot;font-size: 13px;&quot;&gt;Save ZipFile&lt;/font&gt;" style="text;html=1;strokeColor=none;fillColor=none;align=center;verticalAlign=middle;whiteSpace=wrap;rounded=0;fontFamily=Comic Sans MS;fontSize=19;fontColor=#3D4C53;" parent="1" vertex="1">
          <mxGeometry x="145.58" y="173" width="80" height="20" as="geometry" />
        </mxCell>
        <mxCell id="s9d3rNNhCT-wultPV47C-3" style="edgeStyle=orthogonalEdgeStyle;rounded=0;orthogonalLoop=1;jettySize=auto;html=1;entryX=0;entryY=0.75;entryDx=0;entryDy=0;fontSize=10;" parent="1" source="s9d3rNNhCT-wultPV47C-2" edge="1">
          <mxGeometry relative="1" as="geometry">
            <mxPoint x="260" y="328.6599999999999" as="targetPoint" />
          </mxGeometry>
        </mxCell>
        <mxCell id="s9d3rNNhCT-wultPV47C-2" value="&lt;font style=&quot;font-size: 10px;&quot;&gt;AWS CloudFront&lt;/font&gt;" style="sketch=0;points=[[0,0,0],[0.25,0,0],[0.5,0,0],[0.75,0,0],[1,0,0],[0,1,0],[0.25,1,0],[0.5,1,0],[0.75,1,0],[1,1,0],[0,0.25,0],[0,0.5,0],[0,0.75,0],[1,0.25,0],[1,0.5,0],[1,0.75,0]];outlineConnect=0;fontColor=#232F3E;gradientColor=#945DF2;gradientDirection=north;fillColor=#5A30B5;strokeColor=#ffffff;dashed=0;verticalLabelPosition=bottom;verticalAlign=top;align=center;html=1;fontSize=12;fontStyle=0;aspect=fixed;shape=mxgraph.aws4.resourceIcon;resIcon=mxgraph.aws4.cloudfront;" parent="1" vertex="1">
          <mxGeometry x="160" y="327.53" width="51.13" height="51.13" as="geometry" />
        </mxCell>
        <mxCell id="s9d3rNNhCT-wultPV47C-4" value="&lt;font color=&quot;#000000&quot; style=&quot;font-size: 13px;&quot;&gt;Get Files&lt;/font&gt;" style="text;html=1;strokeColor=none;fillColor=none;align=center;verticalAlign=middle;whiteSpace=wrap;rounded=0;fontFamily=Comic Sans MS;fontSize=19;fontColor=#3D4C53;" parent="1" vertex="1">
          <mxGeometry x="145.58" y="301.83" width="80" height="20" as="geometry" />
        </mxCell>
        <mxCell id="C9uzuR9SwBI8yeOS5jQj-3" value="AWS DynamoDB" style="shape=image;verticalLabelPosition=bottom;labelBackgroundColor=default;verticalAlign=top;aspect=fixed;imageAspect=0;image=data:image/png,iVBORw0KGgoAAAANSUhEUgAAAYsAAAGHCAYAAABBIn7wAAABSGlDQ1BJQ0MgUHJvZmlsZQAAKJFjYGASSSwoyGFhYGDIzSspCnJ3UoiIjFJgf8rAzSDEIMigycCemFxc4BgQ4ANUwgCjUcG3awyMIPqyLsgszcMqF25Ib90luu6kxA8GlzRM9SiAKyW1OBlI/wHi9OSCohIGBsYUIFu5vKQAxO4AskWKgI4CsueA2OkQ9gYQOwnCPgJWExLkDGTfALIFkjMSgWYwvgCydZKQxNOR2FB7QYA3yj/c01UhyEfBx9mFgHtJBiWpFSUg2jm/oLIoMz2jRMERGEqpCp55yXo6CkYGRoYMDKAwh6j+HAQOS0axfQix/CUMDBbfGBiYJyLEkqYwMGxvY2CQuIUQU5nHwMDfwsCw7VBBYlEi3AGM31iK04yNIGweewYG1rv//3/WYGBgn8jA8Hfi//+/F////3cx0PzbDAwHKgGzwGDTP6jhNAAAAFZlWElmTU0AKgAAAAgAAYdpAAQAAAABAAAAGgAAAAAAA5KGAAcAAAASAAAARKACAAQAAAABAAABi6ADAAQAAAABAAABhwAAAABBU0NJSQAAAFNjcmVlbnNob3RDLj4dAAAB1mlUWHRYTUw6Y29tLmFkb2JlLnhtcAAAAAAAPHg6eG1wbWV0YSB4bWxuczp4PSJhZG9iZTpuczptZXRhLyIgeDp4bXB0az0iWE1QIENvcmUgNi4wLjAiPgogICA8cmRmOlJERiB4bWxuczpyZGY9Imh0dHA6Ly93d3cudzMub3JnLzE5OTkvMDIvMjItcmRmLXN5bnRheC1ucyMiPgogICAgICA8cmRmOkRlc2NyaXB0aW9uIHJkZjphYm91dD0iIgogICAgICAgICAgICB4bWxuczpleGlmPSJodHRwOi8vbnMuYWRvYmUuY29tL2V4aWYvMS4wLyI+CiAgICAgICAgIDxleGlmOlBpeGVsWURpbWVuc2lvbj4zOTE8L2V4aWY6UGl4ZWxZRGltZW5zaW9uPgogICAgICAgICA8ZXhpZjpQaXhlbFhEaW1lbnNpb24+Mzk1PC9leGlmOlBpeGVsWERpbWVuc2lvbj4KICAgICAgICAgPGV4aWY6VXNlckNvbW1lbnQ+U2NyZWVuc2hvdDwvZXhpZjpVc2VyQ29tbWVudD4KICAgICAgPC9yZGY6RGVzY3JpcHRpb24+CiAgIDwvcmRmOlJERj4KPC94OnhtcG1ldGE+CqUI58wAAEAASURBVHgB7L1Z8CfJcR7Wc8/svcAuFotjcZEgiIsgQRAEIEEUD1EUKVmyHHqQ7XCEHQ5H+JAj/OJw+NlPfrFD9pP9YNkvtsMRkmxLIkWJFAWSIAEKIEEQ930vgL1nd3bOdX6ZlVmZWVldPYsdygpNx/y6s/L78svsququ+Z3/Ey/Qtt3ebvfA7R643QO3e+B2D+z0wMkd7DZ0uwdu98DtHrjdA7d7gHvg9mJxeyLc7oHbPXC7B273wLIHbi8Wyy66TbjdA7d74HYP3O6B24vF7Tlwuwdu98DtHrjdA8seuL1YLLvoNuF2D9zugds9cLsHbi8Wt+fA7R643QO3e+B2Dyx74PSSQYT3/aU/qmknTgz+4DmxWIuMbEbUg5s+2CtpCk5whUbUQctgMaypzMERgly8BiS8uccuScKp2dUWfaUnMI3vSlzslCfAWKePn55MJLHUCa5MP389pD2SqOlEcdflQbTop4BDJTnKZnIOYStcqxWesc1QfBAeyhOmC6zNJthAx/GZzC6uPYRgnDj0yLhAbMHr8KQgSQalehvCZD4NZOMV4w+y4Ro5ONp5K14EjSGjcMlJWlNO4+3iJ4s6Eec3J+BMz2C7D440MwF4unD/0X+bSb096flOmFoosviKhubmuBduTMMFhwasEMUQ7+C28yk4cOljpqFqFi6GNQdcHTg6FkzXFNbgKLokcVJTdLBf9JUmR7w+enCyiDDN04Ap7qSK8XVoy/ECp8J04CkRCNRYaYDPtYwFmccMkIt+Ah44oSGY4wiaOJAOLhcADFvAxaVOg4ow5WhEfTSFQHfeFtY8IxBli2sPITZGR8YFigtehycFwd1JUIwb494l88l72Db5YvxBMFwjB8dIyZ4xZBQuOamAKafxFNejlszHG1IVMH0EHA0HlBotIPX7QAWuF+6QY3S8+MUCmXnmDSXEISgm7VAGS4w6zGtuOe8JB8Q9DU1o4WJYc8DVgWNipeaAI2LFGXDNN7kQFM61mL8ypkmILBfkWGehsyIhDXE0m92MvNRKA1wWUJUebB4zgE36KXBCows2S9CCM7iSIzVFTpwlZJkdCtM1jeKdJa7MBu5ykGPsJ4TYGB0ZF6Rc8Dq8U1AnQXHcQmifT4FonPG8mGe4Rg0OOZXgDo31uEA6hWi2AEw5TQC4DURXEKstGGhMOQBbkr1cqd8HqscHEDn69uIXi65B1pgleIpJG8KtEaLMq4ac1w6HoR1chfgovIE9OEKQNAbO4FgHTUMmF4IpTgONYYafCOZUQ3R2KUo9dGwL0Ix7ONHO+QVo0k+BExpDZYIWnMIVgkt8quZCU2BqCtE5nelEmrkLdvrOtccKL8W4ULYus1fXHtZLFuvWLRisH0oJjep2lovb4SStMbJ5iAcqFoNycwsG8JXsHt4Hp8zkBq/Gm/cHWyxCgaExJt2ZtEzeCwfWOlXOe48MtR08QNIIrjJ8YBQpIie2IIoteVNTONhPboRGaIHTeCNSSiJNeQKs5tKhycRS00RS0CqRhZvBcaEVGqt+QngIkKZziekcUmkKW+ExiNlFiLASkJoDh3BQShq8NaAFNTnqJ8eDqfcodq/GBSouXkTHfZeZkOHupEIgu27NgmHVmYG8oTE0C0fpkjNoWkkynx0L7HJowQCugzUKkMcJOHOgun4vacB382zb8cWizNBKAsaPSIotcBYXNwew0HCurI+ToYec96AuMRY+wcEKkDSCa+CUDjjT5lTIdOPjeI4Db2p24qKvNBDxUw1VI8KU04Ap3jTqk9EEcmSNLtQtT6u9xjDYDIZCKzSKfgo4wgeHpetowQmu0JD4wqW5GMJOH0XG4BoaTryZzuPY5K0Bx4EZ+wkh7XKS8EPju07UZfa4OxigAN/CBWO4OYbExdglHN1auOA2YIoLi3nK0aNCfHQLRomD5ABnBhmmdbBbjtUHzzm7eWyxgAg6FhnKLOS3mRcJQ8ihBQMFRh14LD/lErTgMFF3O3iAJmqB4wto+gOuHM1PdRJnHIMUmJo9Ol7g3a/WNFAJ7ohCXDOY7SWkKd7I44kEFW6whuiVUwb4Soc5UIsFqZu9ASr6KeCjls2lxpPDEJRKWOHIg61QG0KdA6ZrsgTvnLOZNZW8NdClYOHaazrcbKiO03JcOAi5nEjT8IcOT3hwd5IPndi3aMHgOlCLTxsaHmi2BjloGtKAIsRFk0kEcGwgIoqFft1dLRdCnZmVvNAebYgjx7HFApGoFiczOyFktuxmIJK34DmyYHBAiFIpyUOQoDucMXPXgIVQC5+oGe5DndOZnTE6x8FOnNTsWsWNsINktcBpvCfvkQQb6/TxSEe8FYml+oKBKTNsKw0ENJ0hVh1ScmsV/QQ8cEJDVYwjaMEJLjSCY2iKsHASs+dkK6Gp6XUyfaQ2zwiknLGfQMfDLusj4wLFBa/DOwV1EhTjpoWZ9xYtGKTPFYYyQ0MIydWirLo8JUpg0Ogs1gNeXizgHXkPAwItyV4u1+8uAkl2t+OLBWSQZK8ITcWckRg8qwWD89lOleORBOW8g3LnwM3QBFemwWJYc8DVgaNjObMzRufSMxKaXLzAew61WiAOU43G3R1DCXZzSROMxxWJa5ELfFrSSgNZOXhUYHnDtbxVPw0BGmj9JpnGfGO/Jk5qinBS2+H0QirLBdZmC2qg41Rq1cvBIWR3jjjFxfh1OKg7ATI7Kfq1hVALvzULBlK5FC2zeVrbk9SVOKmpLKcezI6rRQLQmOq0ZxhT3OnA3OOlft+jqurNLRYc5WSdqYJ2BJYKAhZCjiwYLBii2ON3gu5wGNrBIWawGNbURIMjBLl4DUh4c48yyZOaXW11I5wGdgmz9riCFUNn0TdnNL1Z0JFELLFTc4CKfgo4ChkcoTpBC07hKgKDS3PthzrUmVHIAc20ZwOB2EBHD7A20ktS5iZDQmm/0kDQYvw6vCPWSVrGeLTwW7hgIEf4n70lHesxT+KkptF8Z045YO+ChKdnGD1Bbe3JpX7fo0L8RSwWCFvJgqPbgrtaMBbhOrhC2yEztINruXycqK3CS9w5nRnS5f6c8oobYRBqgdN4R04TxSFkHtTZ1WiKLCV607KO6LDcVMFKlqxFPw2hg6MVLAdBC05whYYPDFpaHLOLkCHwB+JAbSqQ6qJ+mlDFPQGTyqrZh3dPbw/LGW7dgpEzDR10pMwpZwqktMQDVR8JtQVjV86Bzhyk+uAMUHYcWizKXEhS/9em51A8FTToHVowhijJA3d7SJoJT2uZXR1QC6HSCK6BUzgQsBdEWOoOiNCWglJTONgXN8IOktUCcZhqtIC6EAU5fJcC5pIATuSVZa10LMgMZI+nGKCinwI+RLc6WZZ3Qh+C9pJKcBGiQQyVeKoHnJLXndpl3SPprYga8CSyx37S/1xzOJKsdLSQpOybSpnc5luOVaKgWJdlEuN5cbThqhUdXGd0ETE50Ayu0BDhwhWAKS6slECd7uieYUy1HOBMJyKmDs4ARMehxQIhZS4k0ZtwRQi+0GC94Dm8YISofjaogx5y3gUnuEKja8AKkDSCa+CUDjjTFlViS6nJm5rKqi7wjsGaBkYaU4k7pb8gwzvFm9zByYZEu1IrHQs2gwtASx8xQXHDiKEtsp2HHkxMu2YIUqBFrHAv3EKLEGFNARWho+M0EwfnbVzyjE6no7TYTwhpl1MLP6CDsVuMH2DoTotC4j0N4GGbzCfjxfOyUMPVEx2hZQ0zNCgdC7xwSVADprhKO4IzFeVnGKW/M0Jf73H3+r3JHV4swC9z6QyQWeCrjDaCi4KC5qEFA7IhSvKwPpl7C4aGcnihIUoib7AY1vQctfkIhmM5s9OikyOiK2ogcMBVbXIhKKyB03gjSpIJTy/HYui8ANVJAisScjTOJJ3hUdy1WAPtqUKCin4yDdUttNx8FrTgBFdoiHDh0uIYwk4fWgofXWCJg5Q4Ld55u2eq0Sg44NpzwWMIeRzuIqO5mAM8TThiT2wHA6SPplOyzVmMP+IMZ5HBwXWC4+bBEFRqJGdqajbTAj7lgE0g8FAH/Lq1ZxgrDaXv8RZjd2yxcCLINeTTGVCCWiUd+YSH6Kh3ZMFgiVGHM8FNeQSdcKykBW7wRM1wEyTDOZ3ZGc2JgzM7DisFpmbnTi4EI7gEUw0l7xEEc9NAg8bjMdIYFzx7tTQiU0aeecwAf9VP4IQAacLV3HJInCHMBQDDVoSos4Qkagwsyc5Zm02tgY5jaYJR9xPCJHQpIGqrOWAyZoQqJNkE80yj6H9pPEi24fV5dVzjLEAd8n+b4A4NyZFcLrHoDLjKO8CZivYjgYrrsYNkuQUDeMlxQIkHwbJxbLFAaJoAY77mma6A0GiP4myC3mrB4HpsByNuTUxKDsqdZ24zOuYtg8WwpnIGBwDnhOmaEpYc1EzdOwalENHBfnIhGGEaaAwzUMSULsBYp0V3Y0ViKbnAy3RwrjSQren0xGKZphnwF/3EeXx0COhAc8uh4Ayu5EhNERanQWb0tMNgrDgOd2YTbJ4R8AkpJfVTwcFlze4j4wLFBQ+wpCmScbztYBzYbuGCgewo00o1o9c1uJIjNcvAKQdsAoHbQHQFsdx7GFMOmC3Jbq6sLe3jiwXnWWVY4b6IBffIgsFy+zqC7nOsA315pT1RW8lDa+AMjiJj4qRmDyhuhB3syafxnkykKU+AxX3Ai81tlmp6M9bhRNOC07lM+imEh8ZQ2bTi/bBUh8pO1ZRAxyScmkJ0Tmc6kWbugo4+6SdisMLhcXGSlUliUtGkLklWRU58t27BGBNOah6J3TMNmQI9li3igTr9D7lbMFJk2TyatgXf3GKBIDdRylyKl6ArGbhym3sIWS0YQ0DSb50qtIKsLj5qw2moGSBpBBd4a4equWMMii2lJW9qKqv8n3MHyWqBOEw1NIAIU44Aaeg0sB+XBK2jJ+pWl9kpREgWZAb7Qys05jfCnjUEpDxa0T5HWV2TrCJEnQxht8MxrRWn4SUNCWrA5NlI1x5C9B7F4Rjflc7hOYCMEzG493SGsFuzYFgaM4qaA1bgExfcdv6DhqB9T4RdDi0YwI88u4DorlbPCuvmFwtEucErcwHfK1ZPJmlxEzu/pUnrIba5AOzYiLC66SjohIMohgpcFQMkjeAyDQ0oHAjYCyJsgFkueVOzZ1zdCF2gM3u8t4gw5QjgpoEP7PaSQFSWkgu8nDLAVzpWpxlcQ2iFRtFPAUf44GBN3QlacIIrNCS0cGkug8zQbDgmZ2oO4g0vadCqAZ+QONRPjufM5j6gsxo7nJkJmxHr4NYOBijA/5IXjFTLcDIB92gDprhyiQCOPtRtx7ZgoD3VcoAzTaIwXtxiwUX0DN1yGTAD9OqvCN7XZwsLAPJw9fMELpMjh6hAQUPSTDiolbcJDixA0giugaOOgQXAbQ4nE3WmLiGu4yAyNbtYcSPs4F5gYEkDhRRudgkw1pn4SwLxWSouGEPalQ4Cmo6vIOiERtFPAYdKcpTN5BzCVrhWK7yCrYRlPUJ0Cs3EwXmbHnlqoOF6KPqJIL20K2WNtCPGbjF+HR4rZR12TzBL5I1bt2CMpazqAp44qdkrb0AR0jmwGs/uWxG1N72zO7RdEc4MFNd48YsFRPoI1/MOOE5mekKtEp55Y7XBc+QZBgeEqJYAtUodghYcuPShA9Gju2UcuERH9p1ShztW0NA4hzeX6171KFmOY0jD6wu8B7dArWOqgwgCp3gDpnjLiBMZT6aX09IgEaR0ygyyKw2n48WhY1pmgFH0UyCDEwKk6TiCJs4Q5gKAYStC1MmQhgy8wSF6Ye84tdnYDXScIKON4tpDCF+24BwZlwO8LjMpCO5OgmLcGPeuW7NgIMNYYfKkplSVnKnZK3eAMzuuFoGK61EhPrb3MIDpI+BoOKDU6AE/2GLBuWKG2EItzuPMXgI49HgpFgyIco5JouaWkiaclQZwbBYuhjUFdbg6QpA4DwT57iuDBg3NV9wIFeLjNDCwpLHHlQtyrLOS2dMhPmASUpbdjLzUkUQsoCo92DxmAJv0U+CERhdslqAFZ3AlR2qKnDhLyDI7FKZrGsU7S1yZDdzlIMfYTwixMToyLki54HV4p6BOguK4hdA+nwLROON5Mc9wjRoccirBHRrrcYF0CtFsAZhymgBwG4iuIJZ703vKaTo5NLWPLRa7xZLicvCaAIpdbmOy4CkmbS0ZojoFbqpDSp5wwGZoB++KSh7H/Uj4wBkco272jCGtusmFYLVPA41hBjpsShdgNQ1Ma2m0BWjGO5KIS5oWnM5l0k8hPDR6Zc0th4JTuHowWSU+VXOhKTA1heictdn0HOgyDCauvYJq96Aj4wLRBa/DRTIrag8zUjNu3YLBCVCKlWOG5E7N0llywHSAM0XD7wkEPr2/ugUDYbtaXjfaxxaLGFO3+gjXtTi8FAgnEBojfbVgLMJVUEpakXfwAEkjuJBo7TjG0aLtmIRT02iz/zkboQVO441IBpGmPAFWw7y6UXA2lpomkoKWibTuqBNaoTFZMFSmF9Y9IV67JjnBDq7QEK3CpUEMlfggrCGiaXsXTKZrGUOMXdBx44Lh9dg+PC5OsjC7jM/giHB3kgOaOYTdmgVjSMPpkzc1x2LJM+VMgSRDvF1qe9N7uqBAblfg6KehVoW0ut3glWkVL0HVaDUr17mbKYdDC8YkEdyt0yTNDo+hCY5KAiSN4Bo4pQPOtDkVMlN3NK7jwJOaXXB1I2yBOEw1VI0IU04DpnjTqE9GE8iRNbpQtzyt9hrDYDMYCq3QKPop4AgfHJauowUnuEJD4guX5mIIO30UGYNraDjxZjqPY5O3BhwHZuwnhOBywoPDD43vOlGX2ePuYIACfAsXjOEmHBIXY5dwKjXWCodujVuEKEOORFCOHgPBLRglHshD4yaeWbRCVkn6CFvdIStwnVUzLZt5kYBW8BxeMEKUlANXyyNowYmFh1ZohNCJWuAgOjlSU/SjE13nureVEDlZtpHoEC/w7lcr6ai7PKKQEiBnewlpire48URGQdYQPZ0ygQR8pWN1mMESHIpwtAJU9FPAhwCJV0GTG4JSnhWOPNiEF9ih0TlGH/CC05RHKnlGJ0uHXXpJSkNsnFbjwiUhl0YGdWt0eMKDu5Msbm7cogWD60AtPnNoeKDZBV64hNwAHKYcMAkEbgMBn9/aguFdB+2bWCyg2KrcLRa0ToDVW9CgDXi7UY8g8PYAtyAEvUMLRq1jeUhQNIMyZ+educ3omFqADBbDmp6jNh9DkIv3pEHFd28jJk5qdrXiRthBslrgNN6T90iCuWngA7sNworEUn3B6MHOOqLRdFxUNKXk5iv6CXjghEbXam45FJzgCg3RKFyauIQsc0JTcxB3uDObGnngHAHLJkbsJw2x+9RqXFRtwevwTkGdpKr9OITdogWDMnKqkC80in4FXnB69c5yPGc6QjMJBI6BKLcX9x7GTS4WyIwqWjFlIc2ZBg9RYQM+OANDGswZicFzZMGY6FhGwqXkoGywnvayaAsXw5qqNDgAOKczNSTgzTnSkic1u1a8wLtfrRaIw1SjcXfHUILTNNAk8bgicS1ygU9LWmkgIwePCixvuJa26qchQAOt3yTTmC/2q2Uf4ruj5zI1MzyrdHoC2Y5Tm43fQMdJQtIsrr0QsjtHnOJi/Doc1J0AmZ0U/WghTB+M3poFQ1O1FHwIfd48fhjElc4rNTUsaE05YBMIfMppzzCmeM+o1otYLDR0r5DGSYM31uU8znQZxASWtACEkGLSSnDeh6gI0kos6A6HoR0cigaLYU3NNjhCkIvXgIQ39yiTPKnZ1VY3wmlglzBrj9uwPYrqFOOrUD+K0FTuiAYHTxVS3xf9NIQOjl4uWYIWnMJVBAbXoFZqOKczo5ADmmnPBgKxgY4eYG3g2is4cImb9gWu4XZcjF+Hd8Q6yWQHw8Jv4YKBHOF/9pZ0KKc7Eic1S96UA/YuSHh6htETlNYPsFisCmn5loN3UIflFtzVgrEI1x4S2g6ZoR1chVzNA3twhKDJOLsgZ8bIBKRm5xY3wg6S1QKn8Y68O8btgjyi4yRLkzVEaCq3W4tXnSrYqQu76KchdHD4RP2GGbzUCGGhIczCpUElZPoOdabBbDjAmZGD1i7o6EU/NVQUjuo4ycLsw7unt4dl0Vu3YORMQ18eKXPKmQIpLfFA1UdCbcE4IPcDLBbI2goZCkiOPsL11ANe/9emCynutAAO53howRiiJA/c7SFpJjytZcwuOtiHUGkE18ApHAjYCyIsdQdEaEtBqSkc7OcXuHBaIA5TDWFOClGQw+taGwWHJQGcyCvLWulYkBnIHk8xQEU/BXyIbnWyLO+EPgTtJZXgIkSDGCrxVA84Ja87tcu6R9JbETXgSZRj7Cf9zzWHI8lKRwuJyqGllMltvuVYJfKSEyWTGM+Low1XrejgOqOLiMmBZnCFhggXrgBMcWGlBOp0x2PPMH7AxQL5qFIUuypYR3hGBW43YeimLeiHxpi+mLRBjcOxizrGQR30kJILTnCFhkmwESBpBBdIa0fUHIVHiYIzIRFzciFY1qFAQwYDHTal/2v8J1pbR0nXFB0UXKEhkYVLO5qhEkfoFGgVJU6j4zBGkmd0Op1mpmsPIe1yauEHdNy9YkwgHr1dTItC4j2d4Vxu0YLhT8BymuFRZxd44ZKABkxxlXUEZyrKzzBKf2ccWiwWGqTWGCuiG7yS2mdAr7CyEOy0lBI006RVjh2NbIZBfDpw7y0YYIPD4YUGcGzG0UYLYbDthvAQVAR0LZVBd4xdkoRTU2MPLxjT+K7ExU54ejmOdfp4spcEcDpvkm6twxrIPSrgBsdbgIqF1TTKAHXaUeSCqGDBFRoFrnJODaY+FOaj0ypxkBKnxTtv90w1GgUHXHsueAwhj8NdZDfrCd1xpDGZPbEdDJA+WFlnaEjjai3GH9QhRXTYqdikKoJiSBNNztSEimwNwGHKAZNA4KEO+HWbnF+DDy0WyLBbA4uB0YrR3NXR3QhaRGTpDChBR+UTBiluwXNkweCAENUF4aY8gk44xl7gBk/UDDdBMpzTmZ3RnA5zZqMlT2p2rf2JYrUgfqqhansEwdw00KB4tCssusfWXi6wV7hSIg8t85gBvVU/gRMCpOkEBU2cIcwFAMNWhKizhCRqDCzJzlmbTa2BjmNpglH3E8IkdCkgaquJYjJmhCok2QTzTKNM7nWG1+c1jo0FWBY+leAOjT5PLAJGwQm4NhzPmYr2I4GK67GDu9bBxQIak04c5F0xA9YcaQKMNTfPdAXkctpJT6Ml2WrBAIslRh0WaG4peZ/TR0FSD3sLF8OaShwcAJwTpmtKWHJQM3XvGJRCRAf7yYVgBBfoTIO9gSKmHAHGOr1As1cklpK5WaaDc6WBVE2nZbWDaZoBqOgnzmNhZISADjS3HArO4EqO1BRhcRpkRk871LPiONyZTbB5RsAnpJTUTwUHlzW7j4wLFBc8wJKmSMbxtoNxYJvc60y+GH+oGq4pBkc7b88dOUudIkQyOsCZWk0/EgjcBqIje9ZNLBaQmXRilWG3WEgtCV11RR17N3qOLBicbT+RoPucYsb08wjWRG0lD42BMzhCJmkkTmr2gMmFYIRpoDG6QdwpXYDlNOhic4ulml5jDWkPJxoie94ATfopcEJj0BG04BSuHkxWiU/VXGgKTE0hOmdtNj0HugyjOeknIrLC0XFZ8awcM2Ipkiz6dluTe53JT87LcBUfHAq44xGOo8OchkyBUQDUvf+Qp4ibXCwQPenEIHywYDcBygiHB/ncQPCKu1owygJaImCtU4VWkOHSx3wk0yBP1Ab5wdEK84fIiS3lJW9qKqv8n3MHyWqBOEw1NIAIU44Aq6Fbji1SsdQ0UStmgRtsBseFVmhMbhgtmxxCQEDQELTgBFdo7Mg6NZhF2OBccUpcSmCtXbzx0rWHEL1HcTgmwBEdTTs59nk0EYO7k0aVIWxyrzPeZPwN1xTRYS0zwAuNoVk4SpdkbFpJUqvpRyIsOZ39IhYLBE86sesy51AhbvDKuoHvPV1CkM28qBBbKGkyuFo3B2A3RIqrQYIWnEFHHekYQidqgYP45EAzuYKDsAHmMpI3NZnCu0VfefWphqoRYcoRwE0DDYrHJYHoLCVzs5wywFc6VqcZXEdohUbRTwFH+OBgTd0JWnCCKzQktHBpLoPM0Gw4JmdqDuINL2nQqgGfkDjUT47nzOY+oLMaO5yZCZsR6+DWDgYowJN7nXGK8UcOwznh4DDYjCII2B5ehMAlWwsM8Yr5IxHA0YeHkv0iFwuoTDoxJHCFBH9q9BGOfaM04Hr146Ty5n1OCzRAHj62YGgkjmlrC5OkCcqdqItXzNxxWCFUGsE1cEoHnGlzKmSiztQlxHccRKdmF5xcCEaYBhqjGyikt6IlwFhnZBUnkgjUZKm4YAxpV4kQ0HR8gqATGkU/BRwqyVE2k3MIW+FarfAKthKW9QjRKTQTB+dteuQZnQ3zh7GfcKnopX1IpJ7QPombJpOi2D3BgpI2Jvc6kxjPiyMN7zpq4WiwGcHrqc4GOQQMzU5uvCKkc2A1nt23Iqqt44tFqk8EJp2o6nx0BQd/argLuDw34DqzUmho8swbiw2eQ88woBqiJA1ceFAeQXc4DBW4KImAwWJY03PU5iMYjpWaQnV4i3Xdq552rJsdnFwIRmi5tI4xtTG57inudFzEYB64WUj39AUDGkPasUOGVKrjAeiYlhlgFP0UyOCEAGk6jqCJM4StcARgc2ow9cGY7gothezoOLXZmAQCdxyT8Ea69jSEL1vwjozLAV6XmRTEiScY66MWGLpN7nXGKcYfoYZ3HbUUHig5aCSMwiVHM7SMU07j7eLbwb9nAREbzZbYDpNONBwGBOixKCZPlIHeZ8BcC0Ev1YLBBQxV4IQsv5Q04RhvBzdONwb24OhcWLwNnMGRu5fCEic1mzIdJheCEaaBxujGHlfmkh/mHpesFQlpiIMDpkM5fVcaSMnljjWbxwyQJ/0UOKGBoLAJWnCCC43gGJoiKpzEDPlCYCHrddjeFWvgLodU0oIBXYTYGB0ZFw7aT9Rl9nh7WCsMuXib3OtM4sj4Q8gCRBYeuII7NBKmYUc44DqeM1WlH3fBg4sFkkEHo1luk06suPv1UJ4FQfFpLZTUJMywSoKnmLRGDEaI6gjcVIeUNOGAzdAObpxuDOzB0bmweBs4g6N3jcZkzxjSmJMLYaZj/sJAh03zCKDDXER31zESp5qnmyIuD8wdXoAm/RQ4oSF54GpuOUw4wq73RYiKlpCpJDQ1heaczcTBeZuaA02/MHDtjcF/+gsGn0RRSFGyuCb3OpM4Mv5QsgDLxB7sDDJDOKlZOksOmA5wpmgc2x9/GQrJdpNMOjHUsSvQme4mUEY4vAfNrFKhk1cLxiJchaSkFXmFmxobA3twKN8dB87gcGQ1Eyc1lTX9n7MRWuA03ohkEGnKE+CmhtlLe5ulpomEeThR1Amt0JjcMHxd85NnlsgF0VarF1nhynVqRUghrIHp6IKdmUjU3AUdPS4YPortw+PiJAuzy/gMidhJCaDmEDa51xlvMv6Ga4rBoYA7Jk5qOmI3p5wp0GN3rJtYLKBCyTSfHoP4pBMTxzSCPzXc4NWpmrcEmxYwfkRSbIEzGVwtiQOGKEHhbs9ypOQd3p4O1EKoNIJr4JQOONPmVMh0Xet4jgNvanbioq80EPFTDVUjwpTTgCneNOqT0QRyZI0u1C1Pq73GMNgMhkIrNIp+CjjCB4el62jBCa7QkPjCpbkYwm6HwyIl3qvynJpK3hrg0L6L/YQQfdGAww+N7zpRl9nj7mCAAjy51xknnpedr+HqiQ5uaQcoJSaWOkJYaEhU4QrAFLekg3GTiwXiKQsS4YTKhJNORKhtTaOMNxLpd0K3Eq51lATiAmdOJKAVPIcXjBAlxcDV8ghacITZ9jt4gCZqgQPJ5EhNSRqdrmtbTUd1wJtcCKYUc5m7NIg7pctcqmt1YksCcTmH6OmUcQqCr3SsTjNYAi19xHMp+imGamG9FBVqPDkMQanPVrjKJzU0h1DnKHFoJU7zOC9ItJFndArk9+klKYTYZQvealyUs+B1eFIU3J0E1cU2udeZfDH+UDRc5aODS+BaFC+DPEh21GCwcElQA6Z4km7NF7FYIJKyIBFGtNwmnRi4Bwt2g1eeG3CtoyLAZ34zrJLgObRgIDREiRZc7SFowQmhE1w5Bk/UDJf0ltw31bZjDELXue5trMipTlWIkwsh50pyBgdjjyTYWGcQkBNZkViqLxhJQZpHNJpOGQ9nOJ2in4AHTmh02eaWQ8EJrtAQjcKliUvIMic0NQdxhzuzqZEHzhGwbGLEftIQW9hX46JqC16HdwrqJFXtxyFscq8zXjwvEzJcPdGBFnuCOzSKfrUoFd3p96ZVhPTgaL3IxQIilGU30aQTQ/4mgMPe5gavTOnwPZmi95ke0h9ZMDggRMW0BElJEw7cDE1wVTNYDGsOuDpwdCxndsboXHpGQpObXAiWrAXiMNVoZHTYlCPAoWFekSBFHD5YnclYaYDOJUldPtp0A7TqJxP0UmI3HTkE0YD3RuKkZue57t7hCH+2d4G12QIb6DilYnHthRCMS3CUKjy+E4TdfXh3xDpplEKYPkSxLsvkJ+NvuKYYHF3XIDM0qOiTxEnNMnDK6ewfYLGAyCrDkQWj6SylIiG2Ui0jCIJswIqJEEKKSavhduSAEGUQG/RfIkF3OCsNCFn4RM1wn945ndkZo3PpGQlNbnIhWDIX6EyDg7FHaNgeRbWK8VWoH0VoKndEg4OnCm7skLXopyF0cPRyyRK04Ayu5EhNERWnQWb4lM7pTM/QqtjXOPZsIBAbONVpZFx7BQcucdO+wEMqNBbj1+EdsU4a5M1h4ZN7neHF+HOdptQMCzCAy9BXT9g7coxsRuKkptF8Z045wv4BFwuIUAYk0Yfouv2kEx3DzEWxqwkgRTS1lZbvpCrkyILBcfuJZL7tcBjawa1zYAhvYA+OEKRhc+c0PgGp2QUnF4IRpoHGMGP3Am1z6SbkTDcbrCFCU7ndWrzgVCH1fdFPQ+jg8IlmMyDlCSHSKGXFWUIm4VBnGsyGA2qz0R0YBVKr6KegcFQnyaZmH949vT0sCdLolGxzTs7LcNUbHAq4Y+KkpiN2c8qZAj2WrGOLxVJrRZh0YihlpdHIfYQnA0M6YRUOSaSh//VxWgWLLsDJ4Cp5r2RgDZc0BRl1aC1KVm1/DKHSCC5wVw7gexzC6u5IQanZy1z0lSZH/FSjqdWFKMjhuxQwlwRwIq8sa6VjQWYgezzFABX9FPAhutXJsrwT+hC0l1SCixANYqjEUz3glLzu3O8y4nWq1FXti2tPL2sOR5KVzn4hnFUp0zuUJKsqnPgmSlZrMf5QMlxlo4PrjK4xCHjghIYIF64FIDDtjy0WoE+TqJYjOFNRCJTuTpAkIK2IOsIzKnC7CYcE0gj6oTGmLiZtUORw7KKOcdqCICUnzhCWcBPJ8sIb2GuHV2x2DIotpSdvaiqrfKmlg2RNAwOLG+iwKf1frT/RKufjT7G4YQznOjhCfwi6zwkBmr4IUR5DJY7gKaDKkdPodRR5a8BpQS72E0La5dTCD+i4e0UU7y29XUyLQuI9neFcJvc648XzskoMV090WAtGaCi/Ohqxg4VLwCnA8MHFoongsKtHIHD9L4BU4PaTTnQMS7CbhwLc4JXUPgOC+tBAsNMCzi5PTJPWQ2xbAWZ0irqoTySNOjrFNBia4CAFSBrBNXDU4VjOBCpbdKLO1CVEi5zcVKXDC0aS6/HeQiG+3W2dSWOdncPWkkAs5Gi8STrDk3pvsgaaU4UEFTcM01DZHS3LVHCCKzREuHBpcQxhpw8thY8usMRBSpzmcV5WYt5Uo1FwwLXngscQ8jjcRXYTY7uYB0zhiD2xHQyQPppOyTZnMf6IM5xFBgefhq6YSslBpUZypqZJ7RgHFwsoOHVnjtoEKq7HQNLLPDhTA4FOJ6HWdBOgRRjEhs6AEnRUXtxAilvwHFkwOCBEiSBceGDBYE/BEWbb7+CADBbDmqoxOAA4pzM1xHCHObPRkic1u9bkQjBCC5zGG5GMPZJgbhr4wG7zPNjTUeqKs8K13MhDyzxmIOeqn8AJAdJ0goImzhDmAoBhK0LUWUISNQaWZOeszabWQMexNMGo+wlhEroUELXVRDEZM0IVkmyCeaZRJvc6w+vzGsfGAjiLTefgDo0+T3xdWTiFBGrROLRYdM1u5bxRm3ig4ibsQjpn0omd0KymM/idI02AMV3z8ILg4rwJCtOm0cJeLRhgTXRYoMlLyWMuz5l0HFMq3qA2OBDlnDBdkzWzg/DUvWPQoCFK6xthC8RhqtG0+OpQ3XyU4LHOzKP2isRSMjfLkuBcaSBt04HpN9M0A2hxw+A8ZaR3Wr+JXBAV3uBKjtT0QQaZ4VMnZ2p6HbYd7swm2Dwj4BPSuVI/FRy7xRwZFygueIAlTZGM420H48A2udeZfDH+UDVcUwyOPs0MMkOD1jpFSA+O1qHFAiFds1vOGVW5RTxQpzfpSScWSvt5KGAxAXz1S62C4M6YpCaDO9Qdojra3HKYcIy9wpU4USvDkzM1Q181+YGS+2gktMhVX7lAmK6pZ9aPBE5xAZbToIvNLZZqeo01pD2SyOmUyYLopJ8CJzS6ZHPLoeAUrh5MVoknNTQHXnKkpuRwztpspTTQcRqQDnU/hQVjqUGSq/EzDTNiHeyeYJHZWpN7nUnU57Xsc5zKkG/0DJQcdSSERE6PQnMPNOXe3605GwjxXqCI3QXjxBxm8YO5MAFO7FTn8N2akQ51N62SiwXjxM46uyq59YfQCjJcup0ocMUCJI3gAm9waPDe8UhQ4qRmV79B16b0FSh4YMGVo7IIJwf74KL+qa9nME50Hlo2twTjcPN5XG28OU6ExlGbm+aDcNeD5ritcI2IvNAKDdwwduYUy4UATWBHQQtOcIWGxBYuGQ3p69YtlqcbKTA1B/ESV7VdUElUVrz2fJTYtN+953SpPavfLnwGFwE3ZmKfgA4USOeYAFgwinudyU/G33CVHxwqb3Nax04j+IKZD2IRb5HBuKnFApG91GZ1RxDuDSJg8HRzprgmnah8PjaNITaQKA/xjiwYs5rVj6PTQhaFLGOatOZXgwOGKEHhxkbnI4wJDxyGVjiI2CZqQ3hyoIkt9K/jkFlffzR2bmz9DZ4lyYHhOHnyxnaSFteTJ09sp05R+9RpsmWo4KN/9KALibnkJwcPI7XpH+/6UZyME6Q5+5GZiOLeAAHYDboW+Ug7sU9sN3BewAm7zg/CrjcuojmV6PH5SGrWNq8Wwt60QxATzWBCaIVGccMIOMIHB2vqTtCCE1yhIaGFS3MZZIZmwzE5U3MQb3hJg1Y90XxC4rR+kkHgCpQgugd0MBn2xg5nZhRR1RzxuIMBwtbqRF/digXDKjADSUNDmqkWVxiQzpHWsD+2WBR57WJBTwDHZp0izb5vAjt42YldgCzS0BvTVAc04rVJ0LIGFcMBYsta6gfmtLiJHW0WcnjBCFGs4XeSpqzWJ/OZfTh3jSuKeYPa2hE1ueWCyEQLm7/GTpwUDvqE+4UWBcZbJ507s2133nlyu+fuU9s9d53m4333oH1yu3D+1HbHhZPbHedPbBfO0YPad144wb7z1D579uR2mhaVk6dObKfpgYXmNC82/X9ouOFfv/YC3+yvXqcj3ezxuEb2DVoBLl95Ybt0+YXt2Wdf2J67fGN77hI9nqf2czfY/9ylF7aLz13fnnr6xvbkMze2p565tj1Nx6tX+zMYPkPa4RalnYAx4y3NkebtBw5G0wzGQis0XsSCEeI1U3IOJaxwLtPqLthKMI45SrJzNhMHbHY9cYu8RxYMHo34TEx1RL4lYc3JTgfRT+hE7cM70WP3BEta0vyXuGAM9dxM3TfzMlTS7c1upeshlUY8nQQupJMmndgJZLXAMt4R+wjrtR0npMNd1Ghi9hXckP7QggHpECW54MJGeQTd4TCvwFmAdk5rqjaEh6CkIcL8P28aNxzlf+KSC88M7r379Pbyl53aXn7/qe2Bl53ZHnzZ6e3Bl5/eXvEAHcl+2b0nt/O0AJzCMwXc9Ok8T9CFiWuTH0gBG0fgaDaAfdwGON/4WcmZExutSdv5Nsp8VryjlYU2DKH42rMKdoqPMeD04PMjJp5dPHfp+vbEUze2J2gReeKpa9v3nrixfffxa9t3H7vOj+8/do0XGOhiWZFnQ+7c9ARaLhzyS1sSy4gUYzGTBYM1Gp/PyALaCTaM3FpX610NUqC1QwXiK1waxBB2urn0ylGoPjrx2mxhBB76jyH1k3s5WEtDWSyPQcV8Wm0LXodZdVTjxDu5hrDJvc54xfgjq+FaQnSghS2eceTUGmMUC6XdsWcWGjTN6wBnalg/EviSLBikqDpdPFp9hNk/lOXxAWxS6vfcBIl4nLSN0g/QwTZ7HbzlkTSaVELCnqEdHGSDxbCmCg0OCcLLSdfpbikvw8j/1PE/+XvuOUU3/zPbQ/R45Svo8eDZ7eFX0IJAiwKeFZw9TTfqs9t2Bscz0j57lp4V0A38yHWqZb2UR75Y3BXT65BnJ/u5JPBeeubzyge37So9a7lGjytXN3rQ8Rr5rtAzFvJdev7G9hgtIt9/AovIje0737u2fet71+l4dXv8SVpxqK+x+PGChsWQnh2dbM/EtAYMBzbOGsbmyA0jBIiQ2wtacIILDWyuwwIuqE6sElJKn3xCT7JCcwrONAkzGrjLIXLxnzUN4WNx7VoKbyx4HVZ1H6z2DgYIm3XzrVkwkIJrTblcYh1KMNy2U3tj3dxigaCk2ZvdyhxXkQjs3ugnnRhFDuiAQjX1O8VYFnCMng3gkETOl93u/BoteIpJO6hxQIjqlOaWkiccYy9wg8WwZovHa/ZYGFAyXq7BduH8SVoEzm6vePC0LAwPntkeoAXhnrtObnfjcefp7V46ystJJ+klob1Oa4n+FT9g6mDRw+OOC/5k5BkLPHg2cvHZG/Sy1gvbU8/Ky1lPX8RLWte3x568sX2Pno18//Hr/MzkMbKfeIoWESwgtIKcwgJCRzxLsy0M1otcMGRIeV6LXBCVVIXLaoBR4klth2NaK07DccAWZ5UDIyBk3WMi43mp42haPqb7gIYNxwWvw6qeFOBGx7l7TmKkfp3c60z+yPi3nP7kpQr5vylg7hcThSfVIS5xqj0eb36xgMY0bwLGfM1DvJdkwRhrGVL2ER4gcRytGewF98iCwUn3daTkCcfcZshpTPfy0gu/qUtz7wbd3S7QM4IH6GWi++8/s91Pzxzuu4deMrr/9Paqh87ws4aH6RnEqx46u+F9g9vbfg/gWQMW1Hvu2raHt76IIArvlXyXXq76Li0W+szj0e9f54VEXt6il7ievLY9S++boKfD4mFdP7lhhLL254KgBSe4QkPUC5deAyVkNe2jg/gufRe0jPKOkl91O8QKy/tA5+9ZXWanrk7ak2rYrVswxuSp5tQc+dFzcLEoJmxK1JvN6o6Y0VpE0AWj5E460eJhlIGBwQ03eGWE4iXY5IDxRob7n8MQslowhgDVpaNidBRTHY4DE25sk5e1cDoo4wYZKPXcOXoT+QK9eXwH3kCml1foZaQffv257YfecH574+vObY+8Cq/4292JpW/vfvAewJv2r6O+xcNvWDC++I2r2xe+emX70tevbt969Dq9yU5vwOPNd1o48PIWnhXrp8JOnFhffzpjfB5vT+dTmGKhIeGFS3MxhB22Yfq4QGcKWfcOaKbzKImO5NV7hfMOZrr2VAtHtvU6HwKd4wCnUzSDizdzBwOEzfpscq8ziWL8EW84Gtiig1uWQxiZwyGABp7y+/HgYoGAouBYmyu1AQnvadUigk6CkjvpRA3nY9OAvXfCfYRdnU5I8bKOxoM+cOU2N1zYLH2atIK6PecYooTAmDedw0l0s+MoC0XgvQa8THSKXt/AJ5Fe95qz29t/5ML2jh+9gx9331H/D6xr3rZuZQ889MApeqnv1Pb+d53nNNfppcBPf/HK9oefubJ98nOXty987dr2DL2UhfG8Rp/owqe7cP2dcG/mcmAfem6ubgRCH4JS2ApvqdpVZGwY2OwiQMNQMQe84FB8KQWv3isQNttw7bmXpFwFUk26dkuZA5xO8RmcGp8E7dx/LB1amJN7nckX91+oGK6S0cF1KmRjEzkKr443sVhACgVjczeblLc3m4UDNitUmn1PhN1JMOnELkCWyzXNAxrx2uC1iKBiOEBsWUv9DI4KwXNowYBQiGJldonVuqbghFDqI6LgpnKW/jf7+tee237iHXdu733Xndtb33yBPrV0yk7t8Nxt+W8fbn0PYGF/2w+f2976Q+co2d38sd7PfOXK9pE/urx9/FOXty9+9TK9x4TJOFkwUKLN1WKuwIWNOIJOOCsNw0VuUBtw8FKu1BQl56zNlpBA3CuwlbkEyv+xhSQ2hLC8uw8wUO3AwbZzwXQZVhV+3ndSRoaugQMvSA6nZvIvcsFomeMLESYqaDvdscjuOUEfiVzSfurnfr8YHLdgQC+dYW92K3N6GU7A0TM+hQKRWCtimgAjvXlGIGSSPCMpePL/BqOCtDggRA0sKblzMGr4lA7eoL6X3nf40Tffsf3Uj9+5vettd2wP05vT5+mlJ7w3gTdnb2//6vUAvjNyiV6SwstSjz19bfvYJ69sf/DJ57dPf+EyvefxAn0KjT6STM8gbSoPwzw4pBOaWw4FZ3AlR2p6UYPM8P3unM70jHDhOo4zG715RiDJpXtUjKYWCaw0EGOd3ATSocM7Yp2Uol3TwosFAzTD6/PquGpagDrkVMI6ETm/9rfl2a4FOOMmn1m4yPyyVCjAL5oOcKZXEnsXJMpk1R2ESGf3mQqkiOMGb8zsPM6sUvGZOi1wQsjqGYYFhKiYisYTKNb16/TRTSwQeHnpx952Jz3u2N78pgvbq195hj7OSm9Y3xvfZI1C/3Jaz9CX3i7SyyrP0KeG8Lh48Tp/Qe55egMYX5q7jCN9Ye55+mgq2+S7Sja+VY035OXIHUB9gO98SH/wtU59w5cOHTEM/VNGeCnuJH+s9xx9lPf82VMbH+k/71hIz9Eieo6eheG9nLvuOLHdQ/1591344iB9N+T/B2/sn6FnG2fuorrojfNXPnhqexX9B+C9P3Zu+za93/G5L9NLVp++sn3uS1fpo71tTIfpMzjC4AtacAZXcqSmiIrTIDN8Sud0pmeEK6dxaEjj9cQBDZzqNNX0kpTmQhg2+dolMiy2dL/I7A7vFNRJOby3LXxyrzP8xT3DQKKxDBPtdUys44sFNLGFvk1Fp7y92a1i5EWX98TTp5lDLjgmncixaedSJkSaY68lmhNwZiJNtULIkQWDlUKUpcJr2lev3uBvOL/2kbPbj9Di8OY3nt9++E3ntx/9IXmZych/igb+93uRvu38NN38sQjgI6PP0MdH8Xr7RfqG9PP0Ru0lLAL0wP+SsThcev46f0roCi0IV9p3GLAw6PcZrtL3Ga5ek9fp8bFUDBMWDNg69ez/Xc2BXsOGJhaME/ReDX+3Ae/b4KZL7y/z90D4uyD0bXB8HBY2fT0c3wm5gGdh+BY5HvRs7A5qnycbi8ad9P7OXfTBgLv5W+iyqNzTFhVO+qe0u5++9X7/PWe3N79+2378Lee2d/2oLBj/+/97kZ5hynmP1xZ6RnvNFdrccig4hctF4zIsZKdqLtQFwsQ2lBc5ejtwXomri2iYP6R7lINYc3kf0HTETv8pdFLuJjxW2nl7WGeJNbnXmcTkvAxXvcGh8q7vJxyVaMfji4UGrnQT3pvdUqn6uOJNOjGIrTQa2U2UMkJxgLMNk53xUqFHrRaMFI7U+C4EtHFzesUrLmxveoTei3jnndv73n0nfaKJvgn3p7ChDtz8n8WzA/60jnxi5+Kz17bH8e3mJ67KN53p+wP4pjO+R4Cfznjm4jV+1oAScePmmzgfpaFt3Czon1yH5FQbzwroPj/eS+ycwWybM9UlY0LdR3145fIJfsZCSw73J50SX9zg6jMVjqOTRZfjgZ8ZwTMPfrZBX9C7/176qDG93Hf/fSe3l98n305H+zwtLnfRwnIHLSr4pBkWFSw6t3LDs5/3vP08LWontv/zH150NyqcED1C+uRA022CJg7w4AoNiS5cGsRQiQ/CGiKatnfBzjTYDAJXryKAW1x76CJIszwmOTot9Bu5bnKDDOb19A4lyUj1aKKJUis3vzdj5RqunujgOhWyY+SY2xk3v1i4YDGLFS7l7c1mdcegJg5HcGYnTzqxE8iiwEMTiXgYYYkYh7HPgHqMUR82rpN30laXteCgvtp7D4O15IaFl1PwUdf76Ib0rrffsf3Kz9+3vfud9JrELdz4G8r4Xz4/ZFF49PvXtq988/L29W9eoY94Xtm+/d1r26PfvUoLAr5cJi/7cPeRrd9WxhH/o7/zTnsOkKpOF0tqCrmYV0El9nWA0GiacmhvG7ZxzlxUyWoJx9A/g2dOtPh97ZtXiSMvgWExwYpygs7xfvpJk1fSt9tf/dDp7bUPn9le+6rT22teiZ87ObOdoVcEz+BZDD34W+5Y/V6i7Tv0ctTf/SfP0cuSkze9Q6qir5xLTOfQGoMrNIRRuNqFUF0OqkrHMtDhMB2nmc7juOQ9dJ3Ha0+1cBT7gI7eC1z2bHaKZkgMuJExzTVjDWGTe53xJteJ4aocHdaCgY3nizbElfcHFwuTlvjULFe4xOnNZuGALUxqccmeCLuTYNKJXgKDAg1s0zyE9RH2U5TDeOfw7iwsPifauYnALqJa+tWCQdwXiPOy+89tf+79925/41fup4++4lMyL/2G08KGl3nwEtKnv3hp+9wXn9++SJ/E+eJXLm/ffvQyvY8gp2P1k4GbK16u4c0Aaea95nBdQhQkdoGp2TUmF4IRWuA03ohkEGkynzCTUE8eZq6Zzxfvi7R67USk/Rx9P+KL9H0JPHhrteCZxmto8Xj9q09vP/Q6eunwjWe3N9JHmPEzIrqZlDpu4oifGPndj1+Sl+dm38OAnnXzfie1HvABUk0IC40CF5eOL7Ox081qgcNpKSfgBYfwmkreydhqaj7i2ksfqw34zhwxXj2hDYbBFKp1/z0Rd/4hGgLOwX0yudeZxOQ6MVz1oiPPd2XNjgcXC4THRHZCNsAoGFu/GKoQoTstZ0q83xOok6DkTTrRS2gRZbwjup4DFZudGho6A2BjC6C4un9MFjzFggF5vFb/cvof6S//woPbL/3sffRlubO37NNMX/7a5e0Tn7m0ferzz2+f/8rz27e/fUV+rZWG8Qa9F6G/E+VGk8/52Pi1s8UBGwWF82dn8qQmU3g3uRCM0AKn8UYkY48kmJsGPrDbPA+o6e70MNWt8wJfrPsSLSBfpS/f/fZHL/Eb7+dozX8lvVH9I284S+81ndne/uZz22voW/M3uz1Fz3bwBvfT9JIf3n+RbdVPYKXzR1M3G6PEAR5coSHRhUuDSkhzRmENMXQQd2LObHzyHPmPYf5gTo9ma/8G38g4rCaKFWiGC0Y8PeJnWSOuLQuf3OsMn4y/4YMgO3Te8izSqaTUdDy2WFhCM7rM4EpFJ7w3u5XnTBeHRbyXZMGAFPXGXoekCeAqbCU1z65GoxYTIei1BYN/p4k+7nPu3KntV37hge1nP3j39pY33fGSf6rp67QY/PGnL9FHL/HM4fntSXoZ6Tl6HwLfGsaN7TK99ITTwktI/eWkdi44DOfszgYmtsAZcfbMOIh3IWj2Lc2pDjSrBeKALeQQl+356iBCyRGdNA0sNBiJ5NYOoZEUPrWGN59BxbPFExc3fj8jD/GgAABAAElEQVTn69+6uv3ux+S9jQfoF3tf/9qz21vomQe+Z/Gah9afZvsyvST24Y8/z+MU+6zop6FP5BzDuaDR3HIoOMGFBjbXiQEXVEUNMkNxHJMzNYXpnLXZBBvoOA2Ih/QMQ0GcDYemsVV8OC54gNFF0wVIkglpEK8ct2bBQCYrpUrbfMcWiyDQeiD4ciNN2hTSm93KcyYqEm/3Rj/pxCgiLZeygvP/GEa68zjziBY4PuTKlev0cc5T21vfctf2Cx+8h964vpu/UFdq3aQTC8Bnv0TPGr58efvK1y9v3/rOFf6dou99n96Qpt8jwkTG+yJ4CwU/IY6Pavprf0jnCzcwOVMznq0EDZTQI8QZCS1bmlNWgxouECY2dy8Th+6JMJ1PorO4D4jQgsTp6Vdm8bIdisH+Gr3Vg/d7nqBfpcVHgr9EV+Bn6aOwH/skPvr8HP82F166evPrz25veh19X4Y+rZW3L3z1Kj0jvNx/gNCdevmSMAQCJzS6fHPLoeAUrh6ccyiS1NDEFk4rCaemBDhnbQpNT9RxGpAO43zSED72O32KS83FHNBy0gB0ESQDafjfRqdEa3Kv0+Inz5x6HapmAepgijUK4/hiEbRDY9oPId80JAEhyDeIN73AwZt0opcYeyyg1lhOAKrl6OAWWnDhJacHXnZ2e/e77tp+8Wfu3z7403db+hdr4OOqX/vGle0b9CziS199nheLL3z50vYo/XQ23rzGx0fxxjP+qND+JmMie8ccHA6bmkeCEic1u/R4gXcM1jQw0rhF3Ol8Ep1i6AqdhYulel2YNvipcnyhDi9AAcEb6I8/cXn71BfkU1ivou/M/NAj9KCXq974Grx5fmp7hN7/wKes8Mb2p754lT+ajJ+It62nINeqnxAVAkxGDUELTnCFhoQWLs0VoNBAaHKk5iBe4sIatNSdj8XLwUoRedpP54gy18c+j3aK7qRRcAib3OuMNxl/wzXF4FCgPB5fLBAetENDMHDsfwxFwUWI0BuQcMjFjQgYPN2cKa5JJyqfj01jiA0kykO8tiCUZSlegqSlfhyV20z00SsfOkfvS9y//Vu/8vLtIXod+8Vu+FLbU/QN3+/Sp5Y+9bnntg//i2e3T3zqOf4YK/5U6WkaYfyVOSwUvO2dt9bMRGkEF/wrB3BsIY8LIrO+/hwH8akJl2zFvFKIjy7QmYFiDSLUxRBDgt3QWVQwlgSV6nPTl4VuwrM7Xr9pvCD3HfrE2Te+fXX7Z7//HH0a7uT24289t/3Uuy7w9yt+7xPPb5/54mX+UiHq8FqxUfRTIA/RcIRN6EPQXlKJL0I0qIQsa0JTcxBveElDZ0zH1hISp/VTm6/Q0k10D+gcmAOdIqqaIx53MEDY7Lrq80mAtjeJYvxBMVyjBocCw/HYz3387O/FQCsY7tAYmuENb1WZhjQg4RrWj0TY5chT/s6vrIO52oIBhTIl8KP9TVz87YIHHzi7/Wf/wcPbz37gHnnduSpvx4eJh5/6wJfdPvbJZ7df/62nto98/CL9IZ6rtDDI35rA+w7DFlyhEakBkkZwgb1yDPgYVJU4CJc60HL/q0Zz2FrgNN4HEGnKE6Cu1WksCcRlKZmb0ymTdDDWuJ/h/Y9X06/XXqNniE/RlyBv8G9F9fyh/NAo+ing0EiOspmcQ9gK11qFx/siRFgJSM2B43BntoTkGZ1aTD+mj7RriI1TGpce6KwDnE7RDC4eJrsnmOE+ZnKvM4li/Cc6cP/j/yH84RafaLu5ZxYhVBvWneJITXlKDMgVnTi92SwcsNkJS7PviaD/a+jBHaa7t75S7JzJdLmmeSik/5egXhMcnhL0JunjjezT9Kb3G19/x/Zf/63X8E909InTqUes7z12dftHv/nU9qu/+QR9vPUqLxzQx/sfvc+KjoFLt+INeIX4RNHgfhGdQa10WJAsoK4JU5y9s9F12GI/JOHUlAjsJ/9zMkILbDnY3VMbSwwi6XxKiNU8raMFHJkHrNHnppYWyko66JsTNKxn6dkh/pQrNomLBYVWaBT9JALzuaI4klF+kQuiQBQQu7o6ihANYgg73WInkDc4lOWOTrw2G5dAjC22Pcn0kpSWhhCWT+PCenlXT+jA6jKuaM/gxLSLF0VnDGF9PnUSWcYrxh9EwzVqcChgxxe3WEAXm3V+SpSaQk5FJ05vdms8IVGSPfH0AnchnTHpxE4gC4E40InYuYgr7PsIa0SkO7yq+To9CzhDb1S+jd7I/i//k1dvb3jkfH9zMiTab3zuy89v/+DXn9g+8ocX6TVu+qM59BMbeMMUxeBb0ry1vpCSyo5xvB0cLIPFsKYoOFwdIUicB4J895VBg4bmS3NK3XacBhqjG3tcmUvoj9k1zDo4EWx7JKaQHnHSkEks9mOHMIYvA2oMO9KC37ILBw0jT/opcEKD5f1O0IITXGhgs8S7cySESqDbO7SQFWLiuLROiMzGc/SIt1ZaMODVED5OxmXQWvA6rOqDgstcYAjDZuc7udeZ/JHxh6AKwx63g4uFZY0Kqs1FJ05qSmAqOnF6s1s2WjFzaxFv90Y/6cRBa6VDAX2EOdpVKGrAMXo2gOLG9xXwpvI7fvTu7T/991+5ven18191lIhxjy/I/do/e3L7xKef275Mb1w/8SR9U462U/SbFPhE07C1UqTkodJEX+AGi2FNVRkcAJIzNQd8jBg9gwbyYEtzSpxu7wKd6QjdnIyhECQ4TYMe661jJOqlYuxUp9AY2FzSeFLmMQOik34KnNCQSuDCRskFnXBCcYmTmiKY1HY4wqf9itNwHLCFkjS41BA+79N7GPBpCB+LcXHR3VzwOqzqPZQtuJF59R8PO8nJvc7kj4x/qiE1Dy4WrfDU/UmLmlaZQKk58vdCjgRDkXgvyYIx1gL1sPURDu7ecDU3EyF4RvHv/PUHtre/5Y5OPWDhPYjf/uiz24c/+vT2B/SexJPPXONnEKfxw0XYeKK4nOINeyl5wjG3GSF2bAhvYA+OMTJPjWGuFCEDZ5pnciGY5jTQGN0g7nQ+ic5yGnSxucVSsa7YotDDiYbInjdAq35CWAjoOs0StOAUrhBc4lM1F1oGOhym49Rm4zswKcTmvJ9Y4ei4LHgd3qmrk2KJZevWLhg3sViguuKkbGXT6hMHTWzGKwaiCBF6AxIugn5PBL3AS+6kE71EdW4Bbw03eHUq8rb/DeA3ll732vPbX/2ll21/5r33VGqlD7/I+gV6yek3f+ep7R/80yfo0zFX+NNMZ8+4930QWRbQJBWjo5jqSCnhxpZe0hBn24fQiVrgIG5wBElpOA6Z3LJ5onTHgSs1lTX9n7MRWiAO2IY84pY9kXQ+eTfbTmdPw82TQUIdLNX01DccF7jBZrBCaIXG+vrb6WSnHUSl6uAKjQIXl+ZiNnbYhn51Ws4Usu4d4ExF+5HA6dh2Vv4dN5XEke0j4+vkZmaX0QwVcwcDhM36bHKvM4li/BFvOBr1dpOLBUSSqhYLyBXsGkDSVhRcyIpcAxKeBKlJBJ0EJXfSiUGoacBn5xII0ugjnHvDcLzEQH+fZvs3funl9IW7+wqR2oXvQ3zoI09v/8ff+/720Y8/w9+JOE/f7p5ufK7YYUtFu34Q0zkkIO138ABN1AIH0smRmpI8Ol3XutoiJ8t2YjGvOkhW0glYbhBX51OGSIdfQiLK3qsEh54ZcEl9bg4VwoG69xJZkBlcMYeSxbMiQEU/Bbzl9PMpiGlPDkEKcP7UEF8RojyDzGgyfHBOmNjSdFcdxhrdRbFbduSdjq2ntX5qebwW2/VkdQJkHuB0is/gZOBezQFHB7f8gI/JF+PfUgSZ1Di2WFgSjR4cAgR3aPC5MskGGAVjc/9bLkKE3gAcsJmGNPueCLuTYNKJXYAsl2uaBzTitQu4RQSVG/TxpF/4mZdtH3jP3fxT1wGcNPBM5H/8O49uv/YbT2yPP3aFvoTV+qZ44y1IWAFmdBiutknXFBzg5jZDw/oxQNIIrqCjYYmRmsKKTnQttnh/jJxer3D7fnIhGKHpJDmDg7FHEsxNgxBpjSWBmCy1mJsrHWhgO/wMsegn0xApNynUIS7Oo6j0QyeQFVyhIbTCpUElZOIJTc1BvOE4YIuXM3l37xUSk5+xakposb0aF8iAgy1OaPG1fZfRDAGWRieN4BA2mU/GK8Z/VA2eY4sFQiyJxg8OBRy34AyuVHTCe7NbYy09NSfHJMAWZ4f4KLhcdRsqh5bLpQywNtzggYpNU+LbtX+VnlUcfUMbPwHx3/z339g+/oln6Q8I0XsT9KZ4SH9kweACQhTXZDuCGJ3dUABim+HAjKONVGd3w2pbCHLzQ3EcuTLvWHvGkBaf5lRQRaMFTuNdAF/oNKo6sA5SHTcNIkr6wPC7UCzANwsk3dk4T/+kVGe6uJVO05BYxPXiOwQ/6sLm/sOGZqdTI8YDts14Wps5hGLNfRyf0cDXHHQmccZJyG49VhgrSKs2G5PA3XuF0qif3PcwtLSeriWx8zUkGrOJomlIRtaTphejpbWn4QvjWib3OpNfXSexgOOLBeIsiYoMjmMcDbdjKjrJ9ma3xlpMjAzH826zJ51oOAxo4ICZLGa5T4OH7zvg7xd88H33bW947bGfFv82/Z2I/+5/+ha97HSRftjvOk0Yulm0nOFMVgsG10u7vZs96YpmUI6nxtAObnm6MbAHR+dyshXOJK21NarAUgfENKe8hNdBPLa9Md6dT60AVwemBL5Eh5vgw/R3LvBHkvCJOE6lAytZp/vdco5oTDij7ujhogZ3cqCJB5+UnkbBUag4go3fx8If0frO967z2wSn6ccMsFRad5rhBZzTmZ4RZk7jaLmxygZOdZoqL/i8ooU0CMPmKhbHbJ/uF5nW4b2C9rCmaJTJvc7w1XXSK7y5xQJxlkRFBocAwR0afYKFUUtFFyFCd4AztZp+JFD/1wBnyAXHpBMB5W03D5H7CLPqKXoj+i//4su2e+kvqq02/MDf//p/fXf7nd97asOfKfULhcaG9EcWDA4MUSolR3QNWSf2FpWVBnBLIYY1Odbj6sDRsWBiC2Mz4uyZcRDvQtDsW5pTHWiWC4SJLeQRF+/dGDtvM9tcIg38Z+EkvcX01jef3z7w7gv8M/N3XaDfgqL7DKqZJ2hSRw+zOkP8SErPIQJ7aIAsRQ+QfzISKWPOHqydLB78jRB8tPxZ+pO7X/3Wte3Df3iZfi7/Gv2NDlpoaaV1o9MlzHKoyg6pI0dvB87b1JpnBCybGDjTsQeRlkMxRzCBhjok2va7c4m0SEbW+sk9SpJJLhPdM/Z0EFefV1Zc381yBNqtTzqUHGgOW+IAL1whLOG92a3AHxor3qQTg85Ko5FphPHyFv4H+dCDZ7d3vOVO+SXXoBUbz9EP//36h+gTT7/+OP89asRyn6w6ZrVg7JUMrG0yKQuyzn7wlguKqYE8Vl7Ia4QdB87gMGo3Eic1O291IUwDu4Ra/SpWjzvS+NPdCD8Q+Br6a3l/86/cu/3c+27uo9JO7F9L85GHT2//y9+7SL9KgF/klf848ehMh2gKuP5zHGc6QjN3wU7fufZEgfarVyO62tTqU21SF7snWKk6udeZxOo6qZbJMlHhRJKwDQ5B4TbIjBDZGyg4bSmkN5vVHSlQm47gTEVRXOnuBLKIsSbR0+gbG96reNfb79pO2R+lCUKhgU89/eo/fZz/rgR+JjzmiAljCyUVfeXVOWCI6oz2vx9MypR4aBaOrhNSSCO4CvldPVOOKrGlpORNTWXN/3usjGmgEvoRHTahX6PXVF5236ntL/35u28vFL3HDls//9Pnt7/w/jv4rwlep2fZ2tHc3ZM+Vw4nuQlOTSVvDcRzSNceQtrl1MIP6MiFF3VTixcM9k2KgntPZwib3OuMt39PGZ9TpYKlaWoRHdzJgSZ6UXuSowtOUC0KnoY0IOFBTnOCE+rwrEknegqmATR2cuH1V3zM9Z1vvbP//EbQ6A08q/hd+rLdpz/7LL3HkYZB86SJoG5TSZPW/GpwrUOUoHC3sZE0TNbIfrTwCQ5mgKQRXAOncAwBI4frHHjJkZpQka2YVwrxsQVO4z2ZSAUPrtfTT4r/jV86/p0ar3rb3ra/+IHztOCe5L/aKP0hHc177PQROks47CpxIInTPM7L4cwbnQ1zB1x7jufM4zqY0OkadxnYZIpYGXLtMbuBgPTBzsm9bkdCtdJdSt3VcaI2uJMDTX2Y7IRjOC7sdHEXIUJvwJDDxJpBBNXQY6BMOjFxuFnGY9xf4I/JvuGRc7RYTFcmlvitDz+9fZ7+ONEpvJg921hiTBY8hxYMJAhRkhEuPCiPoAVHmG2/gwMyWAxrqkbpcE5naoiJNgzP8Eda8qRm10pzqgPN0iQDUDhiEvwK8OtooXj/T96xnTnwrLIQvO2iHnjFy0/yf57wO1h9k0ZwdbBZCU1NITlnbXYt4I7TgHSo51MPXQqI3mLB6HVM9Ng9wXzFRpnc6wz3Qd3euVN10rFiHb8HeKd0vhVkRucMrjQYCe/Nbs1SSxLigYqbsAvxBZTuTmiBTSf4SZLcp+nvRjxMf6uCcyTcN/+E/vbEo/TNbLzGPd1QDBfEu0ALniMLxkSHRZuYzNmg3HOa24yOectgMaypnMEBwDlhuqaEOUfDx+vLcZKkaOg+zSl127HptDzmrgwU0ej4MuVb3nhu+4UP3FUxb/sO9sDz9OsF1+kpOv8/KcRIR7futn4PFB0MdRpZHTg6Z202cgMdx6uYnZ5hqN9uMeNEVUo8Lnh9qk0KYvcEi5laa7JglFxxHlsswLU6zIiyg3twRD63jnDSxZ1CerNbvdYiJUBQx9nYyEc7sem4FBhQvEl97934nMf+9u1HL29PP3O1//osatrbiskUQlYLBrQ5IET1jHBT0YJOOMZe4AZP1Aw3QTKSMzUHfIwYPYOG5ktzSt12dIEwXdMoZryw3aDX1x959ZntXW87z3+syKDbxk31ALr5jz9/hT8dhb/7Mm4yEDYcMKyh7ORITWE5Z202sQY6jmaJx3E+ISQsGEsNCiiu8ZDHNMwIMPfFYQ2EHr3XSZpySGIFrmU1muFAMgf34BB+cIdGoRFTcGsakoAi1ArYpd5EJyYdvE9d/hJsquXy5Rf471CERSVppZByMoWQIwsGi4aoMc2MgzB9jIM96IhDcg0ZB8ckPLiPBCVOana58QLvGKwUmJqei2cV76W/ZPeed8z/cIzn37brHsC18M8/enl7kr53MX7gQ2NkIMJwhAZ4yZGaouSctdkSOrB5ysPOtScKtD8oVeprNaZhxkhfLRgh4vi97uY/Oosa+Q5nRkjNHTLcAYND+CE8NHqnWhgu7LSuFSFCb0DCY5FoEUE/eI2m5UIDGzqx+iatoLIvkizeq9DoO+84ya9tY1z5A6eIg1y1aRocOWAotkdh0rpvm3agWao1AOTQ/K2U4oOwPYp1dsQCJI3ggtLKARxbOF0XRGb9KUXHQXxqwiVbMa8U4uM0sLOIcv+9J7f3vPPC9hr629l7G4bu2Us36C8cygUaTmsvcIpBATX+ANvB+fpiM1ynv7dyz10ntgvn1mf79MUb28c/fXm7+Cy+Z9EylkMgzhKyQhOamkJzTmeahBkE1hPNGGzwgkGFt1OFpG4if0BndX2TYKeIquaIxx0MEDYbkiP3OnqJXaJucm91mBEFBvfgEH5wh0bU41ZxYaeQ3mxWdxR6cDWCdVqmHelE0vCLTpaYtF/18Dl6yeIM/S/q6naKFwrS0QWjqgel6tZnC3vaWShK9RxZMFSwSiZSkmZQF9DCJjhYAZJGcA2c0gFn2pwKmdyyepTqOHClprLWX0iaBrIE0A/+9J3bD79h/W39Z+hm+Bsfpu8RfJf+LCoFDiX3ohYgETl4V8Grze3JYnFYWW/qnCFGoW/wx7l+jj4S+7Y3nZ3XQAj+lvxHP3lle/zJG/wdC/zdeNvKIRBnCc0CS7JzNtN5TIkn0JEFo/iCm56J6NbqLhGlIs5kXJTXKRM9dk8wFQlHudcFV2ocWizKlOY0I0oP7sFRXBCJk5r9E1JuhiZObzYLB2w6YtJyeyLoJOjBAT/8DENzueiZ+a633bl9/I+f2b7/OL3JTX9Fj7c+A2Zh/TwSV1PbaR5aMJCmOGknJugOBxJ7X9wLoRO1wNGaWBg7KRFHOzl1dge6A1u8xpJwakoE9sV/RDpIVgtsORhqqfEBhb/4Z+/eHnl4/1kFYr70jSvb3/47j9PLj9TopbPcsIsnMsDsYA159js9tZvQ8UlCeaHhrr1FAL7N/pqHT20/+bb9hQIyzz3/wvYbv/889w1eyh228gTFyXvsdAvxZaAy29FxmqlyQQrzQP9jGIGol649VUcI2+najcFaUqtgZ/y6jGZISixBu5nGEMYBSaQ3Dy0WOMXyhmnJzOjKsAZ3cqCpm3V+wTFMyeninoY4wJmq0o8EviQLBnS66p71Z9979/Y7H31q+8QnL0ZanwFF/xFV9XnmUSNNBMDWXWnSxkReK0R1WnNLSRMO2AwtcPC4MOEN7MFhwjBkGziDo/hPWeKkpkofXjC0FNI5Q598+wB9VPaRV69vht/4ztXt13/74naJXoLiZ5LQsYHqVXQLhdKWxlecfk+8xImyI+6jzZ4s+KZlBq49bHuLBmo/seFXlN/9tnOHFtInnry+feyTl7er9BFkeQmqnb/vJJHl7H0nzhIykkNhYrPzkWa42Bxd0X5s4C6H2Ona82k51F/nXXy0FrwO7xW0g/nCxuzBMxnxwGkNLBjFZk4zImlwDw7hw22QGR2LqtTSSduAaYgDnDnIITnwYRIpc3L+CttxN4mx8Cb4z7z/vu0nfuxu+vHAfC6rWkjG0phh2sGDSbvaOCBE9Qi4qU8wKV3SjgdroqEcg8Ww5oCrA8fESs0BHyNGz6CBPNhWfdUDb9DrSGfov1p/9S/cs72cvkS22r5Afxr3n334WVooiIkbc5tnuM/vPuj8d3GOX3COaKAsqivnQp3sY3xRK3VDj6f+oSdb73nHue01D+19PnzbnnrmxvaRP7lK1wFdY8MQ9D7nPk5N9rU5YpAZgnqOeVachuMwUh1ogoWBk0nBaGLo2S0XVRGYXAteh1MylYEbpAnMtD2s6axnOYgmNLlhOrzpxoPh6h4cCrhj4qCZXMPFnfDe7Nao4VICdFSPiD05/5F4yPOT77xr+0u/8LLt4Vee4/9RxSBXiDMjh1rA+mwxOISMV6DxohGiIkQzXNJMOFwHQiZ4VDPewB4chebAGRxFlyROavbyhrtVh9iiOUAdcf7sye1tP3Jhexv9YCD/pldi+eaj37+6/cEnn9++9xi9/oQ7BW9SQDF0Sjh+ZKl4QrFFUkcSFTqhiCBa9FPDkQqLxpvfcJp+SHF/oYD+o49fp09BXbKFZjmFQh1aoTgDFBrgDQ4NdkfHqc3GbaDjOBFnFv1E6J/6gsEVLYt1dY/mscUixE1umFaHGSFqHKeCZxeShhacwqVsPia8N7sV+EODeErVY+BMzj9wjjXO0nsVH/zpe/jvXtx37xl+Yy9c06Gx0iyL7UGrBWMv3GFiOkfPIBZDK1yDJmo74Ro5Hl2QMyMvAanZufUFrvi1aze2++gTUH/55++hn3cZJq3S7PjRTzy/feSPLm2n6GWruLUCpnU09pF5wBpLoZh+2oo6oRUaRT8RruX+zHsvbPffvV4svka/OPuZL17lxcJKCnlCQyiFSy9chkocoQ5wpuVlwwHOjBy0dsFOT9eej2JbO6xHvCiry/gMWWoH24Gg8iIWC4RNbpiWzAyQ+za4kwNNfVhU4phfjXrCKopjV2hWd3ias4kAji3/DmJzcv6ZdqD9wP1ntr/51x6kv6p333YvfToKafugt8a0jpZA8RDoz7vx0qRt3n7gfuFd96ml/UFtYUx4yne9bi41QuhELXAQmBypKdLRmbqjZY+cLNtIdCjmVfOeod/ywpfwfvZ9F+INrgebden5G9vHPnVp+/JXr9Cf2c2LBWgyl+paTYZoqW4HmckU0dMpYRgM4CsdS2MGS3AoW01H7Uk/XTh/Ynv/u87Tx2b3bzHfok+GfeJzVzb007CFEkJDqIVLTlL3RNvhsAjwI5wZDcFlPKv3Ha49x4Ops4Hdq3GB0gFOp7hkvQqpoZM8srT3R9KHD7knN0zjmeFVQocJcISXOGgG12qieXoLHDRimRwBjo5ohqmAUMKAH3fcQ38c57/4j169/covvpw+Tnuaf88/RGNw9eqvkgZfaHCNwXN4wQhRUg5c7SFowQHT3GZIvN8HSBrBFXQ0MDFSU1jRWV8XkdPr1Tx6HOcVnlW8BgsF/6zHdHKowPaPP/Ts9pkvXN7/WZdWQF2rSVG/prodZCZT+oJhfm+sdCyNGT5a7AD1fsInoM7TM+a3//DZ7aEH1p+f+cyXr25/+GlaSPlZVxAt8qxwLVN4BVsJdExoag7JG47DSCXP6HS51Oz9BA9CMIP00j42vsi1n6zDO7xOQimHtuOLBeSQWx8sP7lhWo1mMNt2g3twGLUPQsEJLgxEHIweK3Kd3q3M6YlhEQ9UR8/4FIrEZQs/Pvcf/3uv3P7Wf/jq7fWPXKBPzdyIc0IHd3V/4oLGqoLn0IKBkkNUPAeCpKQJB26GJrjKGyyGNTVb6XBOZ2pIrhuUkZY8qdm14pzCT3u86ZGz21/84N2dMrVe2D700We3r379ivxtE3TYNI8AOsxzSWhMRSQMMHH4MBM6pIHgmEs12Rsg6Sf87Xk8q/jZn6YfVFy/ArV94WtXty98hb5rRFyRC6JSfXCFRoGLK6ghpAibOFWgHV1gbXbeNI+TTNfeEIJxcXlcZDQX49fhHbFOitqT1s0tFl7EariFCwZyhJujJfWVJDte3Lnju0K3MicKrnju/B01ahxrYcH4uQ/eu/1X//lrtr/yiw/wX1y7fMUvGi6BMwd1YMVECCFp0tYa8IaoSKOxEXSHw9AOHlJM1Mpw53RmL9A5m+k8jZY8qdm1ZE5dpWcVb3r9ue09P3YH/+ncjtfWr33o4vbVb16h96IIt3k8TUKkhu1RNFUxvgr1owhN5Y5ocPBUwUqWnPIDgPfec5L+SuC55a/vfuZLV2ihuMJ/XVBrnlYcSkAjOIam6CW1FOI5bJc4EAc0E8PpvBxunhFouNJoQhQcuMRdgFFBWovx6/Ce3h4Wk66fJ0b+pIUbZvHTGKiDLxIzYvzgHhzae+lisyuvwJECV6dbB5Nsb3aLR8nJDoXql3FcSOfI+ff2i7fOnzu5/Tj98aT76f2LN73h/PZbv/vU9keffIZ7F0/V7adBdLbOamacisXHUtwWyseCsffTIBYXosyrE57Ryef0IznW0jGyLIUY1lTS4ADgnDCxhRQjzp4ZB/EuBM2+3eDvDfzE2++g71bc2d0TC98x+Ie/cXH7/mPXx/cqcBWncekybS7tUZS8q0MknAt2lAsmTluPQHhbaYDEQUNk12oQ/7QHvaT6jjef3e6mn7NZbR+l71V84WvX+PsqLIYAKlLkxnw94US5CBnUdjisChxbmCNwuEAy57eDxnN0RI9bukc1go0R3+mpNdSRlBbj1+G9e/SyWE76Ei0W0NorRvDyzIc6BwcXGndHODHCj3Ws5qhW400HD/hLt72e/ibGa1/9IP2NhPPbb77q3PYn9EeSvvHNy/SzCDfo4jpJzzqmhaQiFue3WjAs3IykL02ZlAUHZcKNbbmgCE0vzEFtcCjfHQfO4HBkNRMnNcHCa/Gvpt9+wi/LPkB/DW9vw195+xd/8vz2uS9f3p6n8Srf2O5XcSElBexSiqi5q+nNCIcTFR3jNLFAPviyk9vPvPe889Ym/t78Z750bfvu96+XHz3uFad5HkoIDUlUuKbzKZRWBgaG6rBzl74Lds2da08UaK9fFu5RN21heLHo9P8yJAnGGylBvvmDLRaD/i1eMEK+0AjjKCdYrNzTkAYk3HeU2ETQwau4NCo8MGPgi/Lg8/s/8/57tvfTt73/n199bPvN336KPlXzPP20+TX6Mbob/Ou2/GPo6XriZKjPtlhsbBFpZ9KyxBBgwmK0BUHuOYmMZtgS7rEASSO4wF07vGKzY1BsKT15UxMLwJ973530xu36Rvgk/QbU3/3Vpzb8sjD/eqqmyMd+FWfELmzp0wHujiWBqHwu6YS6glgrHQs3g+PQ4o0uN7zv8OqHTm/vfuv6d7I+9idXtm88eo1/O+q0vws5eTGdQ3MFV2gIo3DpxGGoxBHqAGdq2kG8cWoqefVeEQViK117qoWj2Ad0VmOHjCrcjVSHkqLbt/wweX+yLVPyUxOQbnzTukULRllCcqbm8HIU6kyc3mxWd+hZpSMRdicBBF7a7SwtGn/9lx/YfvnnX7b90w89tf0/v/b49pnPX+Q/PYkfatudK1YOGe6lD3XbOpMm7XAGCOBnBkAsSmiMNZPTOIe4Ow/W3jOMECqN4EL8yjHgY1DdZynQNe+8QN+J+am7tlc9tP8bUND96jevbr/3sef42YjrchRRbBRQzCek1hOta3VSS0KTQse5l6ScgpgrHRTVrvE8B7CYPvzg6e2t9CmoIz/R/8//4BL9LhpeghqqCA5JaYk7FlyhIZzCZf1JDJvKYIfp7AJhYgs4HIlDeE0lbzG2UAgbrj28bN7yqFbnHNBZjR2JgYIc02cYPWFpLYaqxXCSlqmU8TzYt3DB0Pw2gKkuNLEZjoHA5l5DLUKE3oBBQxT6ngg6CZJW57z0Ft7P+OWfv3/78x+4d/sU/aW9v/+PHtt++/ef3J59Tt4x4t/UsfNO+dk/Fhs8hxYM6IYoSQQXNsojaMERRtvv4AGaqAUOJOHA1jpgwIE1Z6OmCBBoi4HaJT//wXu21x74sUD8BtT//etP0ULhcs3GRBIOOc3Nhugs7wVLgqrG81NvPy5wwNjSgn+V/tPyptedoR8NXD+reIZ+1uMTn7m8PfU0vZ9DL6nmPreh5DyKFnUFV2ggUgPFtr3wjF2OjaESlZqD0+HObBnJg3sFtjKXQOV/bAmCHrZDN3heDUDeSWQFmsH6R3bHFgsosfbNJLhFC4aeFUrBxv1S1DW40stSCe/NbqX7huSzPfHygrEzRhbWjI9+/JntlQ+d3V5L70fc7HbHhZPbj739TvqI7bnt3/0br9g+/AfPbL/14ae2z37+ue3ZZ+k9DfqcO17+CHMGp4UtXeRwuTOmBvXT3pveOzrQUjG5dwVlhj3HyB3pluWBS3QGtcHRuSwUNNhjWh5nmTB2XRjWOfoS3l/5uXvoewP7zyqg+WX6KOhv/d6zLK91c/nwhByNoge+0IlQcqSe5Xpw+GYh12ZZElKh4DB5tEh35JJaXeTGn5L/oded3X7kDfs/qoj3NT5EP+3x9DMUi3DbRMuaajS3HApOcKGBzXViwAXVcWGoCBFWCkzNgeNwZ7aEzTMCWlCTi88wFMTZcOhyArSIBY+nCU+1VUFagRyPLxbgQ1vKDuMBr20h/y1eMCwpjJA4IL1xCxeMnuSQ9ffpPQj8gODf/Dcf3H7yXUc+sx9lz9BLU/j2Nx6vePnZ7T2k8ZWvX94+Tc84/vjTF7fPfvHSdon08WwDb7DipQG7/ovJFHpvtWCgFA4IUb3A5pbDhGPsBW7wRM1wE9TivCPZY1DlwUdez589tf30T9y5PfLac73/kpo2v/qtK9tvf+wiLdjXt3P021GyOWWY2Ny9TBy6J4L+B0RddhSdYuiMYcaKxFKipzGxBe/oUa4dm84L10/QR4rPbj9MzyxWG/r0n/zOc/yjgSfl52VdyCRnc8uh4Ayu5EhNSShOg2BgC2NjqGCpOTgd7kyhaX+OQMP1kO5R5NYQPvY7vQbUx0NzAKGqXst4780tFhZ5IIFRbvGCYXlQXGgMTSvfG9MQBzjTh4pNoF7g4B3cvvnty/yR2EvPX9+++Z0r25+h34h6+X3ri62Sv+/eU/RbRRe2t775wvbud96xffYLd22f//Kl7avfuLx941uXt2/STeyxJ6/Sm4kvtIWDXpSje9kJWz1ENZzmkQWDw0LUUJ6gBQcu3YpnOwrF40StkA9xJT46swdfwLuLfq7ir/3ivdud5/XmH5RD4w8/9fz2u3/w7HaanonELSmn5sDV+RQBakng6j4whFUOlorXZiir4enuWSltl6/e2H6CXn56yxv3n1Ug+JuPXt0+S9/axp+i5bUiJAVjcMBpm6AFp3BZEIwSL9QGXnKkpuRwztpspTiwecrDzrUnCrSfzhGnuJgoHT5W14tcLFDQTgJAYYuT0iCTMMMgNgb34BB+cIeGlAmW/Y9hXLnzqXSFbkmi2Z54GDzQ8TiwnaebzxX662Af+RdPb1/52qXtW9++Qp96und7y5subOcO/DjdLMVDD9LPLNDjg++7Z3vsiavbn3zm0vbHn3lu+xJ9iup7j13lT1I9ffH6dvHiNX5d/SQWDLq34ZjWDjoX6qvVS1LWr6ki7YfWLbuvuYK7t2AwrvrSCC5AKwdwbKFeF+RM0PhnK2iM8BfwfpL+ZOpq+x719R/Rb0B969tXtzvvqD5amxLsChJ3ejMQnX6hT4SWBIpjqX5tohk2dtBumBiORfAd9I1tfLfilQ9W5925+LOpH/7Dy/JT5F4WeWbj0sPNEvoQlObACle5qZoS6Ji0UlOIzulMJ9JMAqdj69i49iZveov8QR0nWZl9muwWzaEvfrFg7XWCXmCflN1HlkmYEeCOq3vCU5iPK86LWDBWkigUEz5M+lBUbBAdr/PiD+h8n27i//P/9i3+Y0j/9l9/aPuJd965/X/kvQe0X8d5HzhEBx4eOsDewN57E0VRvVfLjiXHjhXbsb17NsluvHs2ye5JnE3W56y9m7NJnGTXTuLEiW01yuoSVSiLEimavVMUeyeIjoeH9/AAkPv7fdO+b2ZuAUBIinfOe/fOfOX3fTN37sz/3jtlDZ4yOKP7cMJavKJ60zX8XyEwTz49iw1mpt39D0/Lk8fOnQewM9lrjh8n+S6ZM5QlGzAbLR/FCY6DHcZA4YAtEl0dQjRWX+ycfWPCJwyJksOEjJdiSglRScEfbsJz8gmL3PveOu4V4XduRbn+cNZxJeHuoGx1CwUOnQFWE87j5Bu9A2xQAHoCle/NpocdOJSl/nlncoOj4aZky3a/FDk/5h5V1qnKcEFoJgti8CeX2RCfCgxeriHt2UomEZrCihiiipJUxV7ntVVi5eRisGJ18LhtdI3QP1TSS+bLS7zuMHyFRbfDKcHGoeuXR6WWK6VxKcmliGGHa6loHXJKIlaARKpUDrHDIGC8Ygk8RPhrgHbGBMoFWX6MZsfx2BN73G//7pPoLFa4j35wPZYvXzlqWYkx5iiz8ZQl8v+z718re0A//ewsfg1Pu4cf3YMJZHNYw2gGnUZeXoTZZEUa94QRM14UDsmB5KOKAJaEqMpEV4dCnlHtQDMylVIq8+gTJQpgearg9TgV3yne+obhzmIWK6befu+MexbfjIafCoODPMVQFFkki1+djYrC6dQHUm4JMmwZE6h8b0bXDGwLJwi+6Yql7ui1w03JC1hh9pHHsKgiVyI4quP+o2/JcMhj9Dc6FmQ8t5Ahz5BMwiM1SFFJWDzEkHwhoakYJcNZyYRohDNQxOq8tgqyeLqP6MSSeOu6KHWJyk2MWFc7TSyA9bAFZvgKixgP0c1EUJEeHlkMqaRypfSMcEwQKWLYtflCLtqhlrKlEo0ssMIyoGWIoQHr4RRDRaNaPmtHMrWKJR8zhyQOgr3/od3uR+g4PnXKUveR961373nrKlzIhkJWPegY+ieMplrijj92sXvH9avlCWN25gD2id7rnnhq1vEp5OnnZ/G9Yx9eZ80B308CFD+gOw+/DOlSciuVSYpkn2KRQN5XyoZMlBbWAJ+ywIoXtJJuEpISI1HVxwsCn7LOOn2Ju+6q5YrfHf3yTVMoq73qAazREBr1ykHDtYk+WX8v8d5I18Eq+9SIxkLuLxxeAxCLllYry0WLQpvcz4O74a2cVPdQwwcOKb79vln/4yPxO8rJGDaJpBkjntuQMSST8KoNUsxxkxUN6lKhIIPURR/1R4WgoloiybHDYKgwPFmOjQ4jqgh8cV2Upo0OyMVqYpVyalRnkW105JzkWIhdmTaqR6jDiPkSf5AQX4zh5GYU9eei0naqKIaKWqxxKaq3Al3mK5C5Xfvdwz+cdpu37Hdf/sYWd/XlK93br1vljjtm+CNiC7dFY4exGK9N+C8B6/qsxfDQ885YhrkbB9w0RlNxxNZO+PISPsK/uBnLM2yec6/gtRlfnW3Ha6xdu/aFMuWIKxQ5QInL1wxsTNi5+DMshDLz9WmoAAf4ie0jKRkzWhHIKIhFMvI5R+KCs5e6668aXgOKH2pvunWX27R5n1/jKNpvvEJILIko4ypqZUJK7mIWZovrlfM92pJROLwYvSF0QF0ywRC/6bDeXH7BEgzMGG5GnsYGR7ehs5AJeya/xb3XtGsUvARJDMhOKAGfEGI4GDWlEGUM3xITK0Uin+eCWCS9pCKGKE8M9goopmV44XgsvmGQHC3IeVQFoBKkB+tANGrPw1c5yGcb0UUL5FN9PEiQzSCFcoQ7DFPwhV/GD+9SNSmmoeIhFUNFI8roMwo0ulHqsLHlZs3sNJ57fgYjmvALHx/A77l/N0Y8LXMXnjfhzjt7wi0fsVhbiT2U5pDcleg0+K8DN6fZsXO/24mP45xMJR/JMadjN4aJTk2BBvoudCqk80PmHnQ27GioxyG8c3y9FdoF6TwA7s/sVHzJpjqMpI+jhCJPO8N4FOZrKxELnZWWYwF7aEUtiEWS33C4gOPF5y3FUtv9v5bZYP7Fbbvds5ixzU5jUfWNaaghVMYZZaj89WTJZOdrC4+T79Go0zgPCQmU8gsQNkXM1/yrOtSVd1w74ZZhdntfOIDO9/Fn9qEOo0ONZWRAG+Vk+N5mT+EEHyullvPW1YZKVEosRhhMNhPX85pHJdOOBq3AVDJNuI4fIHRLVIeubQQdKxflw3l0Z0H5bKMvV328wjqyeMRWqy1NhepUkfsIRVZyMsf61Mfw+pDYaczDzUWZFzAE9qmnZ9zd90+5c+5f7i48d5k78/Sl2LFtsSw2mJ4Oxhg9BBk2nEuXLHLHHl0rs15sw1PGDgzP3bZjv9uGzmRqih3Jfjyh4Iz/GbzimsVaSRwBxqGWfNXDVUq5TASXLOGwXm4sRBobbNKJy7zLmXH8s4HmHtgMPPFJhp1NxBGacMOBouYm18w6zv0Yrr1iwl2C8h0KU+gsv/iNncinH5Lclm80hEbwYByE7ECHcSjV3LjDhLjU7RfLmOtArVuzQIbM1p2kReSWqY887pdqN4PDjYlGORl+csyCq5QXr5RCfqLgEN/KGWmToJwiqGhE8GfFUFErw1QvM4s3XknF6i0IcgNESlZ7PWIH1VnQYPalI3MkM+Pxlx+TveEIdRjiRzCcyq7wuUhWTxdUL2RyMsQyoTeXbaa/QZodplKg+5xYtwBDMvlL/fa7dri/vHOHW716gbvykpXumism3Rkbl2EE1XzMC1hwRJ44lDtVlJd6LWzz/7SKawm7+BSChRB3Y8kHfhiWJw+cZ2df83EskDgrTyIcpeV/wfK1kHQsPO/3HcarqIisi3z1xaXbn8eT11PP7sXQYD8RMV1ymq+uUUEISeKtw4faKy+acOvX2icrmws/euyhx2YxARKDAtC5cdHH2k7UajSEkSXnwh/DKxOQ7ekwWJcGb798E5fgOS0u5XtTe8j5J9zdkXMrhrZNJeC9j+51jz65zy3CdWIgFoOkNHDrl7PhU6sgGLDILWQqtSE+FRi8XEPas5VMijLisykkf1AIIaooVq7z2mqxUJ+CnYjFs8RHXV9Ijm6jve2D7iyoln2Jbnowc8xChiyJSi1XSiOc5FLEsMt6Ey+uFULKqJuE51EhXeDGjd1Q8eKBUfAr+4OEjvwbPRhBReKLkUVhdjCX9rjpe9vc12/ailncC90F5026N1w56a64ZNKtx7BZjjpZgDZvzMJuxtQRTKyYnO/4/3qHb31/l/vjz25123fMIL/z7CWnseoaWYK8IsNFfRf2Qj/1BPP7t+nqpq373Z9/bQdgObksVZ6GnajeqFeRJefgj3XLSOREn5Dn9d1+3hzkhhoLgarrJmdhr8FE0LdcvVS1Bdk7HWOH/6Mn97oXX9nX/VrPZKdRTuQzpGI2Cp6nZDy3Q2YII/E9bLygDbQogHPBLZLZwQAe+DwxWJOgjukwio5Vm5T4YAWAYZGpPSClFQ6psyBQ9kW7WZjIQgWDAIokpVVXSpFI8CmiFAOOKe2GXOQnVopkLENihWVQ76wN37vvYQODp8MKHfk3mMoWjPNe5ysYjkiZwreC2+7Y6f7yrp0y1v/005a5i8+ddJddPIGPtXyvrPJiMP9qJNhe89WIr1e+nEJp5Qw2CWT7j/Asx3e+cRKTGoc7Cy6tctvdU0G3AC6S2YFGQ5iZiAXFTn0lzHuLzQz+6uB5fbef6IgAY00QD0so+MVRUhKQ5tp/nIB36bnDy7X/4O5ZPPVhzwpRDz57JNsEGNZQORHAKATETPbchowhmYTHaJCiLWE1+VTtZHhcOSqZdjTIgskOg6Hn0pRD2glpQm8dCZKihEO8vgbAJg65syBMroy02JWrPl5wJol0NJiK37ST+AGvvHDkMxgXKyUvY45FpS1UcjLHjPpBJzryb3BoC6H49UEq3/u/hv85DFB6+JFp9xQ23/nqt7e5SfySPwkLFp5/9jJ3DkY6nXvWUnQer/+ve/HrJ3TghlD8OC/3h/jgr0l1ZSoCvpvg9RYXC3zbdSvxTWa4o3jimTl348278W2Fr8BihgvgIhmlmq86MxOxoMgTg6mznpSPnUYgonD6MMQODoONhcdjHTsOm0BdMqKjoJ+33LPHcdgsXxV6l4JfORM5ZljFvUcpw28SMlYSr5QKHPIZVCE1VKKSsBoqHkMpqqjnxaNiIBqLXVGDYKDUjAjkz2nUSEEOyd6VE7RKbsw11cRTVTfUg0hkGx0NnWR2KMfaYB8O5TqwKnJF8KqESPWikGGSIfGZKCptQ8WLk4H/iEHVQwod+a+waAuWla+seH6UvJPROXvn8FFxB56PNuGd/guz2ANjD9aQWoCRTgvcBgyRPREfx085gTvyLcZ8i0Vq8bvK2E89YSFGFKcGiddAysVHUjLmoiSgEk9MHOU+/O6VeAc/3Ik+8tgM1oCasq+fBLsALpLRfFWnMiPElCKjDOo6e0I45hvQkH3C1yXWydgoNYSC6ICQuOQHKHC29hsv718CheKcsf3EM/g+hdFxC8woKAEzriRKipBd3HskGX6TkO9BlJkXr5QigwAhFDJF0gsVaD0yIk8+Q3XtsiIvX+SrqKglJ2tG4MdTo5wCrKhGI5UfUT+cRa6gqeRhdxbEyr505Mp7DMkhb6NnHQ1mgk+RqODPFbkiWHlJjZEp1AqVIlkIH0qyI/8tqA7j8hodLQRnIrPcuWvb81i88FlMtOMHyiVL8EEa3zmO3YBVa9cvduuxntR6jG6RlWxxXoOP51ygcA3G0MehrS3zPy20hXgy4CAAFocNvoCqYgoEjqLiK7qLMRz5LKwDJYvbWQCTeub5OXfHAzNuGxrCiebQ5cJSkcxg7Rs88zsVs0iM8Qbs7A08Tq9IxBk480csh8luPHGRO/m4gScwmL3lrhlM6DzQuCY01JM/w2qUk+H3YAU5f6qUel2QomioRKUmS5R6/En8QkaBqWiQrikGJiaKUVKRzLNHwLH4callxsRHdhYjHE4iKWLtk0y3uyp1pdbRYCa5FKntmD5pjFwhUyTH/MKhig85FimD58oeNTryb8CaikbCJ/xHWPkQi9cBLB42Hlu2zLlNr+zFSKPdkuYYeHYcJ+CVFXeEO+boxXgtswAjgxbJ4nhsVLkA4lJMxlqC11hL8Y5fRgE1LP64SVxjS54sYiNkisYnDIkOgsBRVuvQaX74XasaTwp1Lr5/17S7+4E9WNbDfwOqMEWloBbJjNpoCDMTsU5FIyWJ/Iut4rEL5SipwQ5jQIAd65kbF7tzTh+eGMp5Jzdj34opPFVUdSRlK0V8FoLncvsaVqOcDJ+KFSGg+ZPnNmQMySS0osGKtkS6oVIpHpYM0QAwpqEvOoxolmcfH4njM1AdR3YW1IumK4xEyPW1T7aHR1YMocY0h5UmiBSJWv5ckQtCkWwqVTLDFZYq40OQruxoBH+TS9GTjDKRYtEisSIFvmHphGoIxCSAeBPLjRx+JLKst27j7Ow5zOdAF4l3+VRjI8yVbI87hp0HOhHEY0dyDJ5MluEpZT6+GfApRta5wpscdkz8lU4a412/EbSLhxPnPBNu0Sl1MAKZsvUJTZJZyOjwTjt5ibviouF5FVt3HHD3PTQty77rlWVV0UbLOGtLdTILNupVZmbFAs6IpASEGo0KVaM/bV8TgC/AjovFUVAXnLUE+5D3b9hFGy9t2ed++MRe2Su+6iyyO8kv5UGOmjw3yslnTN0URiHjhJjnNmQMySS8ZoOUyhMSspwZJaubUykyyjAkA77S8jpyBLVxbZWAjxbfMKLZLDcSJyuk2EF0FtSJpqscJ8CcU8o25ITcwcsoqsQ6fmEniBTR2ko/kgs5JmNIbnbIJD4rLIP/VSnRQkVoow9Uxn+sBE2s19AIzpOP192wQbGpr7RUS9ES5S9QeeWExkLe3POjZAjsRPj/wCOeIJzQqKycxGsrvsJa4zdjWovz+nUL3Fq8ylqN1XM5zHI1vpVMYm+II/VKKz9ZRI/D2WTUJyJpP379cmLju940vFgg0b5y0w73+NNzYWXZgMITQjgVNT5a8jL53gjpdGo0hInHiLKVL4mRyInCZmYkHFUNDDclGgJE5Wixc09fiB0D+7/r7MaQ7m/fOiOTKzv6HW+KoAzF4pEmByYxVE4EMwr5woidyC1kKrUhPhUYvFxD2rOVTCI0hRUxRHlisJcb1NhWeHbHsV1OGTMY6dDuIh9kZxFh+o2xrjGX/g2yza4gCL8fI1ry5yPUYUQjdIVBXG34VZGKi1HxPdz4IwBiJVBYfOxfil/tv/DRY9zpG5e4b3xnuwyP5TDZRXgNIt8lkhEqIkQcn6qPqiEIGnWF7LjD5bpGMzQVbpYdWOZjCvtjPIv3+Ry+yqcL7o/BJwtZKyo8ZfAJZWJinpucWCDfCfhaawKvs5aBxqeTpXgfzieERfj+wNc8XO6baX6LmA+weXxiwTXikwrt8IUaR+eQ9sKmOVlmpNkZmYwygYXXcToKGGedtsRdf83wgoFcuuTWO6Zl2RX/uotF67EYk2ikmCqvZKKc4ZPIUNQpT1THgFPAKYEczTdgpqWYB1DVIHFMRDBACXWBP1gvvXDJ8LcKqExjtv53frBHZuk3s2oMISEu2YwxxSD6htUoJyNMLaNAgg+B7E8NGUMyCaMf4TRRpHlgqDJdYBVJr6SI7agXY954jzNUdjxZjsUTRuRQReAHK0DUyOdD7CwIoHKU8XIssVMk8xgjOWJ0ZdqoHuEOg+6kYAwnqo0UlVbyA4muvFjlRgoAqqHnteTjO/fp/sj71sr+Fmdj2Ovb3rTa/eD2ndh3e6d7GQ2kfNjFt4Zs1uI0DMEOZFSHgJTSR0LzFVOpCKykIfsa/OaSHa9huQ7pQKjDEM58vRUDX1ctnL8XDb9/BSavrhhHRyKdjHpt5Tsadg7QxsKEchKo/FqLrhKey4fsxNpVHBXVGVJeMDscw4s5hPjKi/n6KfvXpfuVm3ZhR8N9pmi8bAJNqoOUWiDoFnUqIcZIUOQphk7XIaTqUxT3Z4+jL7Plq1QQmsMs9TdctgxLy/R/2OYkvMcwAup5rAOV8YPfCraKikgtPASfOgAAQABJREFUlygpQs2hcqKMUSDBh0D2p4aMITHBoArZ8D032kqshlqUiRpt9xKCEVfUoB4oNSPB+0hdTlFFzvHmUdkrAEzyMDoL4kTTBjMlxlWWfozY4PjrdYQ7DOOKSfisMmemYIuLQRX+H3KAcrjB9829ilc52HznnWvdMRt8C3giPjzz/0zspnfRhcuxKu0e99Cj01hOfEaWzuAv3nn8p/3C/cqlfHEqlhAin/ntwgr0o4Ks70xyAeUYMMJmNxTdh/kJDo3Pa6+FkTLECQHPCT4GWiT7MzbMEU7gSypKAB7G56M2N9+PR3CeqSJ5es1dhY6CS3sMBX6k/fp3djo+QclTRcRIihUhmUkiJaVWCaJFncoAIVYoFkkrDubr0GGwuDasme/OPQ0DHQYmd764aT/22J6WpzyuHhAKmxcouBbPIalPwurOkLCTOn6dSPCEqMVqRrvz8SvkqOL1ljbFuNeJmorbICluVDSkSDSqJkHxglAkPaAitqPBbmAqmcCwp44nDAp5VRw764iFOszOwoK1UrHNia61ZPp5pcZPsMOgK0MXp3T3oNPI36v4WItXMWdsXIqx/2srhI34IMv/t167D69Gdrm77pt2T2Pjopexv/G2bXNu7xxmzPJmwS92vqLpDPnitLOl+J0YkTEky0qbli2PSrHhD2nbGkShcJb3ThL3WeKxK3P9F4kjoE4+abGsLDs5MK+CCx/+4J7dsu4U4/w2IqEyoQgq6oXjsWAUySg1/Mu5UzFDpBhkOxsDj9N36cibN+81WYp8w/rh5oKDBpajTN989TJ/deIlSi5HQnLQRoRdyyRKimg1T+SAjBkMEd+y41X3MpaM57Po69NhJOez0QYpNg5NVtIsuEXSiymiiiaIFOllJimpT6/hXgtlR60YPAKOnXUkSqITztFDjQ07nCtjh6yQO3hNt45wh2FsDvk19EvQgI1KcLe6U09e5t78xtWY69D92E/ee9++Vv4fw4ZF371lBzqOKbxX34tF+bBEOFZ75ZaprMTxRVX6gRc9yRenv8PoKgbSY1BYJFUqocOI4tVZFCotKwa2SAz8amxYzzjw8x3XrXBn4HvFUNiKVXT//Gvb3X60gv6Xcp+G8j35WcorGbKKZJYeqledihkixegMWopmQ+txikuXNOkfO8i3XD3hVuDb0lA44diF7jd+fmV3WdHcUGj62afkX0tyuO7L2P/lzofm3Ddv2eOewx4afD1adRg+ywkwlADShWEjZxJet0GKF7TJKix2JSvwANbGBLXz2iYLiNT1ibklpsdto2uE16GzIBwNMRSF7YlyzJWxwymBwKFqzQJIpfYT7DAqX+oLobLejhKD/0XwpFfdxedPuA+9e13B7U6egT0Yzjj1GPerv3iMe/ypGfed7+O7BtaKeg6T8GawoitDXKm1QskXJ1ScQkLxC05OxktfyMYsRna5nk0GCDEqdI1FFJ6X81FFiEAkxdDoUOjHaozOuu4qv9hiFG2d+R3k0Sew9eyDe+RDfVU1o62UOaJYn4riCGasTKGiXBmqVwEn+kFN44uCopHORkXhKH3xHf3D6tVcYXaJDDbQiK34QjwALsSot59EWLoEe7FMLsLkykXujZctdv/w/9ru+FpMBjOUdaEoM18CoRy084ZkEl6qQYp1QFg8xKDKNspEVvuswEM0whmo3murkIsfawrdV0Fe8J4wrrNo1/gGrDZfszNMn1wPr2IdoQ6DdmJIV6UwXiR9z60VI0DPmeIFDodzXnjeCvfGa1aFIZo9+g0W3T3tZO5zscT9jZ/bgJsFmyY9sNvdcc+Uewg7773wMj4uo9XzH43Va6p8cUqXvJXIj1lM5RKciPkgPcoGFk+RLaSi0ioxH03CKZJFSGKAHW+mIeMlgtHM5ysSruX0/nesHrVY4LMvzLkvfnOHdBS5EVYOGDsxwXO2KamgYjsbK1OoKLCRHQY1ymuiUHy0sGn4/l6iH9FPvtbhCsHXXrZ0VEdh4H7CieM2LHA/957l7o//fJd7BU8bC/Bat7wu4qIqM186jTIyJJPwuWyQoq0mK5WN4jLKoPzxhEIG/EpEBCHHHwMMbQHPK+49bTbGvWB9HNVZiLuNBqCGI0Wk2yxywfaVsUOOZF1jSyThg5gK5Ah1GNGusVf4XCSpEjfmiepdZ24Yw+GfAqFwuPnOWzHi6a1vXNWlOkhnR+A3Q8LSDPi2sQGT6K69coXsZrcJ3zUefnQPfjHvkX2+OXcihXxxxC/SUzEzofhMVoH5SEFlKtAMpai0SS1GIlb5i1Dz4Zx3ySBHCXX2YPwIvnxivnvvW1fK3htKoBnlU8Ud90zbMkiShc0iGa5skmakEikptUDQH9lhUJ/BXDRPSkcWGAWaMp4XLzN/kfPX+qXnL5XRagnjv4IIF5W89tIl7oYbd2OhSP2+PeQ/5oHJGFifEG8O+TdqUUkVouFHwAKtRyZqlFXC05UiorFPIE95gFSQU+Jevzjy3uNAEqU8pEKEUZ0FMQUs1iJq9oZ+0xmmRy4LtS1RlUEyfIQ7DFWo6YJ46z4Z/YAcf73uxUimxWHPiShWnrmYH5fMOIBRQfIVOhTFAgwtvRVDY1eB/4YrVsiIqFL3YNPcfnX5Msy63oB5Bfhofs4ZS7HI20rsGz0ncze+9u2t2d+i3KsrpPkVU3lGHmtN/JkaWEZlqMMIEOWkrQCVLoV3ySAnEam4SHE+BtdyetPVK0btY/7ok7Pue5hXwS1hucRJvA8zMGOFzSLZ4ovIUH0y/GhxZIcR3eK5iRMExrySgrMc4rwOm1p1QhHupzSsX831wnAVWOgmVBeqwW3IVKSCUCQ9qCcmFiMMpkAT1/OaRyXTjgatwFQyTbjGNwyq9IVRnUUEEPu6sYiMQzhnmL5c9fFKo0e4wzDm2n7x+nNr0M1Yc+n4Y5eU7aRBOBWvitZgg6KX8VpoAWebhcAJZ3ffh0dnrNn0yI/2uEsvmsR8gGXuhGP7l1iI+mPO67HiLP83nrwYr6b2YGHBQitfnIIRkprfLgqlNyAwpsMQtH4cz+2Woctr8O6da0ClEU3KyzJ65/0z7s57d+NVIF9fhNANHyUa5zFKhUyRzKAH0WFkpY4YjPR0GHFuzKv4MbN1O4Ytb+yA+Skmc1SUfOCmj1WZVgSTE89tyDRIDUVDisaNqklQXBFU1AIphopamQKrZmbK6HvPq6g7IWOUMe0X442uulShUINmSbyBfUiRSMjkLGR5zRQ7jEZIxBSxQhW5IDAZ/5NmLcMf0XPYFvSpZ2ZRRAU/6fnIlZdOupNPXCp7R6eyggox+LrkGWyu86k/f8n983/9jPvTGza5WzBE9jmMcuLqsa9XYEfB11Gcn1AF5X/TIvnm11GF4PlUVliUqvDksbihH0mVQmQEsOCHF6uFOROeT1fnnsmnqiX+e42CKKPPvDjn7nt42m3GK7owPSSLVPAFoUh6RUssiiNgW5m6kKIL7DD6QoHTJ0ojneJcfJKzsTF0+N5pPC13CvZa+EkxWcbfu3MW+6NzIcPgRZWFgsCkIvmoIsTMGJJJeIkGKQI3WRG3NN4UVsQQVZSEJPbaDCWDKO+9MXIQHdVZEJ14vCf5L9jtGg+uDsNeZJge2SykwX28UjtCHUa0bOyZhHw4nkVnwUYY7VNvOP+c5e6Ccyfc0mULcL3YAAQFnNhhLOSyF4vmYyns/e6Tn93k/v4/fsz93//2eXfzbTvd5q37ZL9qfoA8nPDci3uxz8VemTndxFHl3rREfqoQDQSjZBIxt1lpVIdBDIsjAJGMs+daGc6rOOmEJe6Db1+T7fXEvnnzLvmu47/7REylYOHBKAhF0mtaoirabmCrouRGdhid+gqq9F2x2Flw+PV3bp12D2If7TiqTon81Eaff+WA+9w3pjCRkp2FauZYJqZcTMLnR5F8VBFijg3JJCqMqBINN6SziHUuqig+owohRHlS1CAPSk0MPH0aqk9eVpWiVm7HK4dY4wedqbQq8Hzj9IBloUpffDBmjmCHwcaRIbmaIvgldhRurgPunvt3Ysc6L9Z3fOub1ro3X7dG/WoLWCov/GXLjoPLLdzyl9vdP/qdx91v/r1H3B/85xfdo4/P9MEP8l54aU7mZNDvzqDKPedUSSu+otZRUbYIKpteflSHQVGLY4yB5V3yMuxPucYUhxZfLkt7GOkqsXX7Ppnk+BIGAvg1oDyOPyrxJkERVTRrWSJTlkLJglIkM9bQDR4UO/UzkhRYlxwGGOyefs39k3/5ivv013ZhHsOIiq2gfxLR53HtfvcPtrkXsTwLB4zwx1d/aGSepED2pw6ZBDzEj4IKraHipToZEQRnJdOOBlkwyVcyCiRHh+49SLZeQGSAGKOhosCj7ebIgahnzg0QxecN7i9qn1wfL4AlkSP0DYP4DKY8vFE27Hv3HnCPP7nHPYOd6U4/ZWlvRT0Ly3Z84F3r3NPPzrhHf7RbZm37qxrAU168Sf8A8hqGv865z395s7sRW6aedOJid8XFK92brlkpM7695PCRrxVefmXOzWLRt6VDW6zmi5PqnMm+UNs+G0+k7HAo7l6TTVba6t2PQhEMpLtGSVEUrnhMrAGFfF6CpVGuf8PwYoFU/fyNO7EEORZEZAeaHItoAk0xHxI/EnhWRBXNEooYoooSxApKkcxY7DD6fu8pA1SyFy3DSKzTiLxS5S/0T35xp/vCN3bJ6rO9AziK61sYSn74qaK0WwSQZuecuwRzOz7xkRVuw9r4HqmQayQfw5a3f/hpPBk+hn1aWJUkz41yqrJbEQy65zZkDIkJBlXQhu+5sY4Iq6HipZSiikaElkws9lo8UGpGAcdy6g7jOgt9AygsFonYl59ySKkyUmIq2u9tbpP6Gvp+DGVMvMtzlxUnQaSIYopakZeGHEkMKc9BBumZ2Vfd1761xX3iY8fJOHUv2D5efvGk+9VfOs796z94Dqu2zqCRAqSfBOEVlGmpDDiw0+AqrzuxVtF2/BJ+9tm9mIS3HR/VF7uzTl/mLsTrLf6bj7OF+Scw45v7VvgKBiOdHzuDYr44QlBuBT9BIRjLo2IGDJ6EH2QV2agMdRjUEwWjldFIRuCJYwcuPm+pu+bS4c5i564D7ru3TeGDblgDKoLQ55CpymJFyLKMiRrPgsEIg1JiNFK6ZJKAiBaHRkNoJGpb1hclXFxjxUH0Nbdr6oDbvtNfZgyS6g66HrSkRNcDSP2Di8pLtwf3zxV4Crz6oiVY4r6vM7Tgjzw55/70S1PurgdmZaFIfRu1ZjAbowKlvQjYJDHAXc/tkDHlUcgUSQ9YoPXIiDz5DMYOCVkxNsOWyhRDkMvinnwQx5GdBW3Bim9ZDDx99/ZxHGpwRLPf25jhzicWUe/HMA7CuyPWYVhDUhL8QXoAP2m+ieGo78BrphUYydQXON/iTVevcnumD7g/+ezL7smnpjGcFktLYAhtqhlFdnkZuGAeP9zx4+0mPCE8j+8Pjz427R54eLe7/e4lsuDgiXhPfzL21z7pxCUymoo74cXw2FN75AOuWXivsBNl07mjDjT5Q1ix8iblWI8CYUyHIaLdhvbj1d3Z+Kh98fnLpLyUqSrK1VK/8b1d7iU8tVFPl1UW9rYqixWBGgWxSFb8WqOmVBi0w3AQHYZX6D7mG7CSYePb+8pSa7CqNdoLLcKGT5aUZ74QqMJh55dduNR97L2TmIW9dHAwgijiwCeKT39t2t12Dzdc8mt4SXGZMmuUk+ETrSJ4E4HsTw2ZBskrhmOT34mmVJuKis+okmlHg3xgKpkCqDc5vrMgTNFYaJs+juOoDqPXJ5V3bUHpkMwC6qqMldoR7jC0PdR4tnPPvTDjvv3drbIJ0DpsS9oX2GF8EEt7EOYLX9vsfoiZ1rN7OeuU49t5C3UHvrFhv7IAQzx5eV5Bx/EiRk19Hx0WNx7iiKszNi5zp2F+xUlYsXYNaMces1Bmc/OpJI0U0RWu2xwyByOh3HW2k0rkk9kKht5EyFpDHcaAOovuzdeucOcPdNg0yIEEX8JsbQ5QyPtVBFeMHZ8wJIpVhKDbexqjVMgUyQzfaAgzE7FORSPlE5DtuI/5Iy4Oq+26/RJgf9UNYrBFIJw4YIPbtv7ih1Zi1vjwqLVo5zl8m/izL0+5W+/c66bxzZAdPXObAhPJl0Y5GT61KkKCytyGjCGZhNdvkKItYTX52aKAHJZMgeW9Gn08uM5CbAVvQ+EzZQMoHRUty3XmOImwzeEF7nzCEMkeHLIYUiU5Qh1GywW8T+cGPp//yituI75bvPed49Z44lpQx2P/iv/8mZfd3ffukg/f4nW4mXJefNbMEQXGjmU+bhT+L8a7bA6zfeRHGMmCpw0Gzl4+4zS8pjp/uSwBshubKHHPiByQmcFrB+nYITCKf40gWIov6dYhXh8iqFanwhvVYVRa4uIJxyzCaqnLsV5Q/ztv/hK9B+s/Pf7kjKwjJN8rSp+NCZ8wJMoPESp+rdQuukKxSGZXGw1hZmYHO/W1MIQadYGqMaNtXxXGoICH4jBz1sP16xe6X//YKveGSzBjnA/WI8LWnQfcf/jsLnfLnTMyzLf9RAggk+dGOfmMqcpsFCpPPLchY0gm4TEapOicsHhgqG+qTBwrA4ymOVIb11bs9hwOvrMQsE4XhNvfwEdvOnMcBVRO2/Z8SXTwIooxcwQ7jGgvXmR0GFuwXPhXvrlVltu4/JIVUaL3TLnTTl3qPvX5ze6GL74s74lTQZi8tGAgECsBov6pAzvNhWW1+arlISz1waG9bJ/lv4IJGKTHvFQyIKiGgG5VouRHasUMgImuZAldsXFzD330lg/eVETtAwDz9oF3r8bruP6nOmq8iFdPn/vqNv/Kg+1IVzBu+oQhUW+IUPGVEnkI4RRLzxNL4CYORRsNYUDwp6DYqa+F+4Q8L5a11jLxQQHkF08U67Bfxn//idXoKJaop12DVCX40f3f/uku9/07sJ8LOnyu+1VeAJMDkxgqpxorXRiyUL9CCfgEaTEYOybhJRqkHrSIinOhWCQr8MDniSHdbpICNbYVkh4+jOy/G0CsBNELxaZDQiZ/VOiXy2Y65LyxUZa8EDuMRkjEFLFCFbkiRPhULny9dNvt29wNX9qMncP2WryeFF8f/covHOt+75+eKUNrOQ/jAKaipiLtMJ0cID9dCGtIlmsGT/2YtwKSCgZ67UAwOeSzXIuDYmuotUWF+N+4KgaPTxh9IQjz6vJhafWqBe6tb1ghK8z2qbEDfeQxrCz70B55fejLxVi26slfkr1cJd0kKCKjKukNKELgq+L1IqWSUgkC4TRQVhGnU1+h5RtQEWPUA9R+Rn44C0bb2CxGqx177CL3m399DdZywhNF75fzjLsZs8r/3Wd2ub/4gZ8wKB+zaULMWFuJTHXDapSTEa4USPAh4PiTATX8RqKTFJ0TNB4asBVxSEbxVdT7QAMk1ozAt6dDfLKIILRiW4NIkbPUIrZMUb7rHLU6+ImdIlaQZOa4rwU0qkfoCcN6lfL9/R9sk5FJ/9PfOQkziftfiUQIzg248Nzlbi2WBHnzG1bhW8YWzN/YhbWKDmDo4gLZPzrK1mdktudXAzuM5kd/AySF2osj4rzGqtxNMVNA8yumMWhlA8uojHglxcEFizHR8b1vW+XWr+3eCyRa/tHjs+4bN2NeDNuNeGnEqLEcxfM5sX0kJaNERSCjSYwaTX6tUVCKZAZjhvp+CwZFnmLovE8h1FmfPI6+zBGuOhdC3Nf8zNMWu4+9b9K95Sp2FJVGk/DS5gPuU1+dct/8/m55VSsdhZYUl7xfFZkEwxoqp0ohQwYcfzKgXsaQmGBQhWz4nhudS6yGWpSJGjY/kZoQjLiiBsFAqRkRKJ0Ps7MADisAC6AoA1rwHBw7KxqlYuj3NtezHrksFEHtmaoM4mtHg5ngU8TrxGNFrgheMpC5t/Tu6f3ue7duc8uwIN2v/fJx0gFEuL4zfyFzG9Xj8O79OAyLvfu+lRjptFO+QezYuU9meBNftdUKDg6w3GNQUU/qyH+U1+eOLCaRotwr8cinDxUzoER6lE3ghUpPh0FVearAfhXvf/sqrJja11j6kWQ/uGs3JjvukjWE9mEUlNQN+sKQyixFPD0eDdknDCnKVWdI4Y/fRrjUygL+mk6KsSCy0iClFgjKQw1hoVgksweMgdl5H3vFxqWzEJLysrPYY+WMUxe7j75r0r3j2uX4xpcKoKGTSS+jo7jh676j4Ha3/d8o6gwlSooQu1FOhk+ZikBiCp7bkGmQkhIjTX4DrZIrCEXS21DEdjS4Epg89YTD7ywEXHlSGPMcHDsrWqHQk8yVsdteR+l3oHY0mAk+Rax+Ra4IXj6QWaF37JxzX/raK27R4qOwQdHxg/MvtEE2Khedt1yeNDh/4hasSvsw9t5+BpP5XtmCWapoQBfgiyBXCLWhw68k1JH/xGckYAxCQaDda3m0fPEMejMxJNvRYfCpYsXkAncl5q6cfMLwwovTWMpi5coF7qrLJmVFWvGF+YwhFWeKRE4+C8sXTmcRVerzZHj1LjR2L7y0D/M6MFscdSSLKSQVzUYZKxhFMss2GsLMrHEMr0zASOd97B0Yc+n24xvFSScscB9996R713VY8gbLoI8JW3dgCY8bpzDEeTe+B/IJu//HgMfsLJiiCBvlVKlWBON2KAHQivwYNZPocbETTdkssIpkBd7kR7hepgiN6yyGcVDwECoaCxYZVb36KBBIFwUtbuZDNtOBJ+QOXoZRsY4GM0GkiNJBtCJXBCPP0R0H0Mjd/9BuN4stT7mpzMEGFu9laAj5/9Szs+7r39qG/RZ2Ya2oOZmgR1wub8HNjfL34H6/mJFxr6T6r4vkJV+cungoEPldLpEeQ5QN6Uql0WFQhU9gH37P6ojSe16MxuZd169073rTuMEHvWBDzHgzhGLciyG6z72EJ87bd8v/S9ikylZ9lWNEJVVdAiVD+0Uyu9RoCDOzT9FI+QSdgSOVL+R6B4pLlzBIZ1iHpcP/2ntXuPdcv9xNLG0CeUF1nELHzrWevn7zbrdpKzoKvKZN9UnJmWgqjxQRtkmZRKOcDJ/qBaGZLIiV2hBf3Ey2GtJRIMkkQlNYEUNUUZKqz5tKFtGjMGyNer3hsjfcBD5auzHXtdFhEDw5V/DbhocNZZge2SxUm6nU9C87JZ7kUkQxEa3IBQFJljCXxT77rOXud/7X093RGxaX/arFPIgUt/787q073Y03bcUopynM7H5Vxqtz/wZ708IRupYuRGmkI/9GLOQtnAxLJ1S5N0UVX6uleFQSX2MicW2Rh14RDxVYtuQo9040/v/w75yQhf8riH33tt3ud37/JTeNFVJt5ui8zX+76KxMoaJKYOiXuMJRUQWgohDolAl1qeCzPk5iy9VfwDyKn333Clk2RAF2Rvdg5dvPfH2X+7Mv7XK7MAKqevXULpSMl/xIEeGZlEl0lJORMQlvS5F8VBGiN4ZkEhVGVIkFbaRNgpKKoKIZoy1Tin7733cP8x/3ZCEWUZFfC4VYWtAe2RZK2qboptz7BV+r5jglGboNZRhB9eLVsYdXsTp+YSe5FLFWKrIl8Afwq2i4z79ghfvtf3Da69pR0BHeOG+9bpV725tWylpPt9015b57y3YshrcL6z696n8E4maSUVDxF6F1MeSnI/8mt0Gxqa8E88Vp902RTxyG8jJHfNKjrAj6Q2RLKjxh7MdosTNOnTysHQaViR9r9LyzlrqP4mnoP9+wVZZyyU+FdMPkVoqDVNs+WplCheIhoDKO+egdxXvPhU0j6+sS/Yh+clY89xP5GXQSfKoY+42CS6R/6abd7r98HvWZw2NR3yvLjTpSuOOTMrw6VzaDYxId5WRkTMKYY8JzGzKGZBIeo0Gq0HIWlF2lyChDJVfIVHyv1nU8iM6CEKEQlc0mMC8ePVXORBU5D13cBBq1EsFEMkyHHMm6xhptzxJS8rOjwUzwKWKRKnIm7MHopWuuXON+81dOwIfq4ffoFnhcyo8GOcode/Ri9+63LJQd9nZiHZ8HH5nGR/Epd+8Du7AcCPbYwOWbj63DOOqk/r5BWx35N24wbwix4/Gp+pgvjtw4FEjFzITiM1mFYMbTc3lGOUNBxrjjIAcCXHJe//IqUf+n6bwOjehVl01IZyHFYjJHTyvCMKVWCVnuaAhTgQRFnhjMRfOkdKSzxX2eeMFDiszh6ffo9fPd+9466T7+/pWjOwq+evrqX+x2/+mGnTKzvteZofpEx8Td4HNwlCkGyaZhDZUTtYyCT5LMAEDPLWTIMyQmGFRBG77nRiVhNVS8VKFYJCsZ8Hkbx6CikWTOB9lZUHdkh2FLRIxG3+U85uIaLUlUhwwT0SsRlAh48SdOgy2uki6l1dFgJvgUsUgV+TWZQX3euZPuw+9bLzveWYUjk1q6dB5exyzCzYn39+icLsFs7U1b1srEsyefnnGPY02oJ5+eda9gS9X9eHfDD+McUcWP6P4XbUf+K3eR4YPoMKheFxEo8bpUTGWQPGpH2cDSKpzYtQx553eI/xrDWmxd2h90biGJpFDMHV7L6DYo4w81hAqHUQZjx5P8EQKd9QD3AD7FHL0O+55fP4knipWjP2ZP46n4q9/Z7T715V3YkwJLeKCOxpWGoyvKy+BQTdGeSlxEarlESRFKN8rJ8ClTEUhMwXMbMhWpIBRJD+iJicUIQywQSSSupNoHJVNE2/KeegidBRUbhdiy0tNIi489fAuncmQZksowfXJ9vBK0o8FMECliFRWZPi1fPt+9523r8Ypo3KY7BHsaH675wfpYNPSHu5Wq7L198hJ3Kv4ZuOc2P4w/9zw2Pdq0F+tI7ZNOY/OWvbI20hSX/+A9iY6DC8bxozwXeivaaMFKB5XnRNORfHE0Ncc1/xCwogp9nMG6QFx6PW5alI38dMdYBFsxuseEmLEBYi1WUIpkhhu6hzsVM0SKQbbRYfC7GWdmvwcdxUfeudytXjGuI+frpq/gieJz39iNyaz7sQd6aA3FJXtvGi8Dv2g9k5c2YjR7WI1yqlQrgsHz3IZMg9RQNKTYORlVk6C4IqioBVIMFbUyNjWqs2hjoRD5DcP0ahZcUrwTKKSvNyikCkc3FqJwaIcM0/ZWjPHQ2/Jp27ZSJk6CT5HEkgjJCFwN9porV7m34HsCf+2PCewoPvm5Te6Jp/e4009dhtnbq92pJy1xG9YNL1kxBv/o9XziWOSuvsxLb8GQTW6g9MRTM1gefda9iA5kCq+vuDva9J79jh8WOcJq/35fbCw6KT4cJO6v4LDpfHHaGpEfyq4JyPoj/Ha58+nomRfmMA9lyl139Y9hdFPTyUMjcunvB344KxmU8i1vFgNb5L9IetGCWCQzXKMhzEzEOhWNlE9ANnYYjOJ/BT5mv/O65fgesxxPFwtHobGz/xpGPN3w9d3uyWf21nNlxKV8bzJpghBw8AVpWCkhGEyliLBEFTFpqgyrUU6GX2P5uhrBoqVKKTLEfpHwtIZKlGuyAlKUkSQFGUIb7BM8KgQVzXwbG9VZFLAKYWSHoZ2CdvSLZ4nHxkIh19GoVXMiJcP0yGahqJbPlVqulFkIsSSXIobNBF+JfOxnjnWnnLS04pUEusTG+l/9wbPuVsyh2IOG+o67dribvrdNFiF899vWopFf7CYn8MqomktRoo1Pr8Ps8HVXLHTXXpEbV76i+hEW1HvqmRl5yuG+3zuxWNt+LJt+AK962AnyYyXPHIH0Gj+ESCOBDqQwbe5XVe7NUov8JhPApDMI3woxtRBL73IhwC9/c7s7/+ylbjnmWyx8HctKbB+hw3a8Zrnzfiz2GPOo7disBo4lxqLTaqGgMsmqZPrgW4Kg2KmvoJgB1gUEjkx78zUT7pc+ssrFV2xl/dCajM+ho7j59ml8zN6BJwpsytU1qVJ86bg3I2i7UCJXFU9Pxgyro8MgYsqYUfC2FMlHFSF6Y0gmUWFElZiBhnQW8TdLTjeFFZHRnjBq6Oyl19ykCsREA/SIJwxKmtYje5XKmqWeE1mgivULZTM9clmoQk+EpF43hCKj+FGHGxNxG9R3vGW9+9u/cSKWnBh+KngSDfM/+70nMdFuCiOngBR9C9dxCW6at1y3zn34/evcuWdO4DXLuCeV6NPhnjlp7GlssMTd/55Bp/YCfsG/+DJeY22Zk21keV+mCxfKxNMalmPeskYhBIBUrgVLJ0XGCrLsWVbnnrnM/eovbHAXnL1MvmF0+qLxjlBcZbfTwr0Pz7j/8X97Vkb7ZCGbt3aZKJkQVZQAVVCKZLY3VKc6DWQIxFjWbOSvvWKZ+61fX+cmRz5Vs6O4/f4Z93/8P1vcdky+myfvQA10OxEKuDNbYy6AKLcRalajnCrViuB9D2R/asgYkkkYfVsQCq2hUikOyNz0H16PobOoBLHcQxumfMZdOnZYbaNDkLYGaI1BccqGjtYeGG7ytU+ujxfQkkjHrxjFjy0c1+Sfh+FJH3rvetk7QvvViv8IW7D+6z98TnUUSooXFja4xwL3xvge1pjaeMoyDJVd495+/WpZzVZJH7Eo16datWIBfrEvwxOFw4dxPlngjKeNXVP7Hferfhkdx9Zt+/HtY5/btgM7+O3Yh13V/JmvtjgfROoP8iQb3iDB7JEWz8wA07LBDompfMkpAnkUEFDP46iwOWye8+Aje9z/8jvPyrvuJViLi8tpDHcYjUaAsPQjn0xMGPGQhmXSls/rR7Dq7TuuW+FWruj+eM3XLo8/vVfmD3B2fw6SQSQDrVkWihiiihKgCkqRzPZwD48ZVtup7+sFv5O94TJ0FL86vqPgU+rt2N3ud//fLW7nFPbMxvcyubZiS5dJ9jbHvEOdbvHCqzqS9VRMlDsRinrYKKdKtSIoYxGuIWNIJuH1GySDRj5DVWRKUUW9cDx2MqLAyD24g7jccJ11NxTioM22QKgeGPAQ+FWGk8/RG5y7hWIdYTNPuUpSyG1fSks+Pdxh0OZC/Oo/Ga+ezjx9YvCVEXe4+8qNW9xtd2x3r/K7QGpTlF+hYPbO4hvCHoeJd7vdCxgGy0l4p+G7xtVXrHTXXL4Ck52Sctv9w6T6nfnKUpyPzZ0WYumGJdKhze17VToF/krci86BHQSHTXJf8t34+MxtS7l43Az+uXXmDL6HMM7/WaRnIceZzDvQyXCdprSLWmk25kXKBmVVNAb70Inx1ykDhwh7dkdnoLHqWhK5cs5mCoeKJJ9wCHXs0QvdMrw67AvPvzSHazoj8u3OUdUFRhmMvZovlC4Z6isVJnNoNISZiVhQ5CmGYIc/ILj22RuvnHC/8fHVMvkuivSdec989/YZ9wef3IYfGn5/lVzO0Iw3cheI+IKDUiLJZt/ym1CiVGnGHKese91GOVWqFcFjEADOeW6HTHKefIZEiIqenI4FWgPWKDZgPVRkJGATGfnNQllvRwPoyA6jowKwSDw8jvFjmXG3TChnShaxwPZ1qEOOZFpUFa0Bo0j9HQbf6XME1EXnrZBvFkqxGeXkuRu/vQWN6auyWZIIJVdTRMj8tYUpEm4/GuSXN81i+89ZbMG6x/0QW6nedPM2dxo2WToLGxudhVcw/Ij94wycGLgQu/rlZVvb1tl5sBPgr+m5OYxcYpodC9OIczvZL964FZ3nlNu+i7v4oUbkSlGDyvUjuSgr6MgCi+SQZdlU6Ag9gsDs4SYmZTiPhU9jG09cPPjd5PkX59wDj2Lv9fh9pWmkIBbJZFzlqhIpva8FgnajIVS4LVus90vwVHT91RPuFz+8yh2DTYzGhm/futv9yRd3uaee2+cWox41Q76Rm2xP9Pdmp8AYDCmTumBIYUgPj5JqlFOlWhFEM14Kz23INEheMRyb/E40pdpUVPz+6MjOgiDKkIrW8I1CrIUABxDVSNeQoIzqMFrgmZbN1BaSVBZKpBSp1Lo7DL6C4jtz7kSnfwwkLBV5+ZW97i/v2umee27GTWAHu3YojCPJuRB8emGYwdarDz8y5e57YCdmxy7Ck8aEOwffNM48fakMvT12wyJ3DHbe+3F/42jnBX5Lp3IUOlJKtPN89/3TmKW7OzTyzHBHA1IZKcoq8LM66iULry/0mSKPJhBkNnx5gYMuq5JfXp4f2dt59Cj++CyeLLh/utmdr50VrdaIj1EqZIpkBh26h7Oi5Be7Qr4R3yh+/gMr3caTxv9QufmOPe7TWGr8QYwEG7coYPawiolL2a+KT0LffW4UenAMq1FOhi9GceiuWF68UvJ1LakN8aPzCq2h4qUUQ0UjQt/5IDoLwij0EFUUZQeFeIjDaq0VoA92GG0PlDO+4UHB938T6cEhi0FdvObie8g2K/1p2POai/n1hZtv3YHJcXvkY3iSa7pQEFWS7/YXYVL4osUL8RrnNXffg7swY3unvKM/beOEuwD7YVx84XK3EfMsVq1ciEXb5rll2Ovhp3kewtQ0R16xdEMYc4On66MKB+o2RQIuUF+HIQqVlnckknH2LkVC8DOcuLTLIozMuvpSLLvNiWQ9gSsGP/P8PscNgKoF9Sr4glAkvRlLbBedlakLKTrcaAgjS84ehyPOLrtgqfuVn8Mw7xPHdRT06+6HZtwffXYHdm5ERzFmwEY7M8Yj35kDHPdekcssN4STFFMk68aYYTXKiXyGdPmNguepo+c2ZAzJJLx2gxRrvbB4YEh++GSUkVSnTJTN54PsLKioPAzRtj0U4pgOQ+Nlv/x1R7rnsjelFdFGk9sp0uB38KKkyWj9hIEHC9nClBPqBvoK90Psjf3K5tn8+qG0wXS6yIVfxg8K8qPgPLeQ/+ENwNMYYfXkM9Puc1962U1OLnSnowO7EMucX3LBpDv3rGV4p7zAz9rGj1/+qpVvioT6CQd+34jv/JMrvMFjYaQySVwfSXQlC05VVKM7DMImUG9DQfuoIngJ6UgW4+nyyosnBpe1eBg79D313CxeVVXw4wi1eegFIk855RPpWCgWySTWM6yWKovQepx1+mL3W39rrTt2w7hXT/yY/fgzc+6f/7st7ml0lPLqKbzfGWrHX5cnA8lcZ4Z91hM7RWotw2p0GB5JHY1CrpiUQDXz3EKGPEMyCXILvidFYkM6CtSK/cKidwidBfUUcjsq4DLT+zBGSfFWFfjBWhTMab8iSZ1jm9PZAXlj0CgaCYVhWUWHAX3+2p8csRveVuzPPY2PvpwfYMpT26I/DOKOOOfT8WhIrLAM/lULf0DPR3w+fuztxQihR9A5PYrvG5/74iuwiU2VTsA3jjOWu3MxwolDTU/Hvt8yCsmD/MSO/H6xX3qL0gVktq8HjmVFNftyWYBMUY3qMKhmtARHSIzxBheXsowM3cXT2yn4VrEBH/6HwqNPzLpnn8MrKLkLPU5GC9pNAnmhjpLPYKqsUkI0iXTJUF+pMJlD3RDyRxG/y5y+cZH77b97NPI6/LpN8KD35HNz7h//i1cwkGG/f/pOPnkHBm91ESBaUsyuxphA5W8YlST5zPCY+lTUJe9lMGQSdTnlgjeOxUQ+Bxx/MqBexpBMosGPsAqtodJUpFxPGNdZNI0pYjsazIZCVDJtf2qBSJFzbunb6okatRLBRhI7RWp+X0WiGkOqgbbDGPsLnUNPpc1SOArU26iOHT4buXal5esR7qeBtthxrvBjT+yRiYA33zpfPk4uWTrfHX/sEncyGrqTT+QZy4SgQ1mJXed+nIEdGz+YMlS51S1JxSy81LKBZVTGdBjUKxqLZCWA+ZM/0u91mAx48XkTSawrwo7laSy7sm07l7OI31I0mtIMthQF0SZRidT8QUotEPByneJETA5RvvCcpe63fm0dBlOMrx8PPbbX/Z//bjPm6Oz329imuh/d9g40Ll0U8GeK9d2jgV1euzp7NcUbUEcRsXJMMYj7hpXLyUu0jkYhCwSyPzVkDIkJBlWAhu+5sY4IK6oUalEmavSdx3UWROhxRgwovooG26EQa0bgh1OjQ6AKg1fFcfAbRpYWxcYhV8Yeh7JQAwGk6FioMXzLHkltBUvl5kdc9I6NBm8+Hzr8MWSTKPyIOI1KCz+PwuNGrF4c6rhv9z6M78dOexQH4zlMuHvwkfnyimo5XlNxxjh3nluzBjO91yzCpjUL3Frsa829rTnZ8FA2cIoedp05Muw1GfXqPS1yi/yCwl+EZFfMgBrpUVYZiywhDXUYFBIFo5XRSEbwVZJzT16T8uL3iqHwAIbLbtqMRjMKJhM+kpIVPxJ4VlKMMvhi83HNH0tRkEElnLhPyjwU/6vu8gsn3N/8a2tGf6MgwD0Pz7o/+sx299iTc97Fzl/13oHGpbPuMDUkJFD5x1xVZaTMcOj0JZgMOEXh5tIVfnSvce8ZvjiOg7lQUVnOXrxSMpfbKxQyRVLLGJZJUKoieNXiOL6z6MRUhtrRYLJRiIUzPqlACr7n4DiqwyiUi2SuZ932xhZi9ptY48LGUybc2jVTMgzWvv7p8MeQTWKcwVIFdZWzZOfJD0NfcTm0detWLi64V375vYpCImf58oVuBSblrVyByXnYhpT/K5Fes2qhW4nOZHJyHrYlnY8lHubjQ+18fETHh3R+TGeaS5SMfdyCLRlCy5+vPTeTaSTKfJWlkS904hiVMR2GaBqthBUjNMNJxxvWLXDnnOEXboy81pnLe2zZhu1Umx/Bva3KYkVoIFcyiqCiVrNgFEnKMn/cvveKiybcxz+4yl109nAeo417H5l1f/qFHe6O+/b4uiDVDYCd97F3oHHpIuT4s0DlDoOKHl1BjDZUaWYQw2q0dYbf9CJjIebFK6XIMLIm0VCJSk1WUu7nUuzgOgtqNDEVUUUpbgMKccxH78bFY/0itIfvNRJMDstkMx2yQu7g2YxJipL8HxOuwL7Pd9yDNXBewIgoTqDw7XVQHWOzkCmSzZWBC5mc9DH+wJLlyothrexENmPFWk4i5FMIy40NB8/Lli5wq9F5rOA/Og52KOxAVmKF0ZX4sL4KS2+zY5lAB8LvM/Pxz+yyA+Gy0zLZD7WQ8cWL5rvd0/vlF7ovDn/MfqqSjRePzFbQ9CjbkiNtqMNoOmDB+KTGTvTUk4cHN1DzQcyt2I6Z7qYjNXZ8wpCoOEygVBGUEqKSMvWN4kqmSLL4GM4/a4n7pZ9Z7a64cHi9M6/h3I+e2uv+y5/vcLfeNS15tT/i6QwcqXyhtvdn6NKZHw7RaHkWqNxhhOxYqSFD3p3kV1ROZBJM4hA6DKMf4QpiZWeIbz1tSEeBkAGVLKIjO4t+Ex5TyYSooiizh9ZhaCyJD11csai1lAsqmmE6ZElmLbC1PCMoNf8iShQyvyN20XmTMrT13vt3YjJaeBVlbhoF3IERq1NiVyrDFTarhFgmJFj5WI7GPb+d5g2On9GQpTiX9diG5T1YlvLPux+RmCYQ5x4sw3wSzvJlByNPH3ga4dPHMpw5rJcjtDZjOCmDFDcBQrnTjikeCik+k81AJSoXshXeqA6DWgyFJyDzG9Txxy1yF2IRw75ANzhk9rkX98nMdb6KNME45hOGROEhAvkMxk2rVBSHly+BoUItviY97piF7u9+Yj2WfBn3REH8l7EE/u//p23uHgyTlX3hjT/BJC0MdBilW1EznduZSWyJMCP4/hSHvEvSSlR1pGRnP6y2SZlEx/1H4FQWRsEXuOJ7biFDviGZBLkF35MiUaR5YEh++GTfcWRnQQjlUKehQqbTkdBhELZThiaBpxrpiE4ViRd8wtWBkgzdhjJMtOA17LGH18OyGDbFfS74neDr39rsJ85VOAWByRhSdhoyiUdhVlgG1Sh1qgRGtGNwPIo/QiDc4PL9F9D1gir5+0jU5Dav/OdHXR9goGFDlvmISvni6BoYubmOdPkcsiQKCovpSmVUhxE1reMH8OrsBOzUdwE+/PYFTtzkr2wu/W5fPyot7XPItSE1XahyE24ShVuUIIuDQd1iSGVLUly4thzZ9U/+h2PcGaeM6yiIuW3nPvdPf3+zewQftYtiJ7sI2WbBQNI38HTL+llIDhsJFxx4AOLVC9m3VXAIJylZn03KJBodBl03MiZRZCyKNmQMySQ8RoPUg1bZLQmqBSlZrTStq1AkPUcREWUq/itNREMjpsQtP6R48ZRMxEoXm/xRoV8uw3TIieEOHu1Hlm1Dej0756zl7gPv2eDOwDpSXAZDQsRJmhUhyyVWimRe0o+R2GmEdKeKYqhoRMlnMMnvzC9v8u5AHiW46J5cYsJ1KSiG1ytwyacfXb4YpdqIobDD6AsJK2vRPFdaPRFPFmvxHacv8AnkjnumZLXeefMzRqWT7JDj5SrpipBlE14lUxEa18lfE36w5xPFP/q7x7jT8XotD8RI6M3Iy5v3uX/yLzZjr5RZO8GyKR2ILMTatciUs6oGbSTB6ARROqx5PWHQEHQFwKIwlSgpQjsDdYoiWVNSklSAHs6AZjkfCxiFTJHUSsLioSmTQFPkIDsL6o1BVjLtaHBgZIfRsElYtg0CP+biikXlTPBAnzJMn1wPj6wetrYV41dcusL9rV/2+3PzvbeMTKowKoJXN41jIcNkQaoqbcHPyRyrMaLnPENOiWqOj3fflLFt92f/IX3wl6MyUJnNF6/fJypq2YBp8IY6DOqIgtdio3oShhyfctLwHutcQPEhfK/gjHs/y99YDt6oU2L7SEpGkYpARpMYNWo+xHWRMM7Ve888bbH7259Y5y7At4q0dpVCaUWffn7O/Su8erofH7W59lfyJUZ57gxgdvIDo5OvQHVmFDlFBcMDxVuohq0pST9GFE4k8Zw0U4TURodh+EaTiSp48UpJGYwqhUyR9FIFGpNNuYhp3k1kYhWrQBSh00ghE0AVNVBGdhisALXyj7/DoA9DlbEqwG4C12168xvXuF/95RPxcXQZoP3mQrVGI/MUMmSTqCGEUlTaQiUnc8zaKGEhF0Xj2Yh0dxhGjImmvpIaKvfIZwtwCFhGZUyHIa7heuEV1NmnLcWv7/7XNBzp9Qh2JtyBJds5J0MaKjFqLKsMl1EvV0lXBOopoopmxJoYi28O25qeh28Tv/Dh1e6Nly/vf/2TAd2T2PPkv2DU0y13TMuottgQG1+UfDsKv2rXgqivS9HPtv5IqtjIdbOqMuSPMRRwSquiTqLwI7e49yp+k+AxAo4/GVAP3iBFq3Ju8jvRjGpMHMKTRVQtrBdJL6WIKhoR8rlRiJmpYgBROCrqyWMurkLrimYYbaGQzkIF4+CT7DB+5v0b3C/87LHugvNXYq2nefLLTufVoxb+xGQ8i5BJmPLq9KxTpWD0AVC0uuOiQr4pI6U+j7Slyr2pofi1jUBJrVgTIasNdRhBnU9EZ27ERMYT+tdGmp5+1f3gTr9IYr12WI8vhuUThkSPK0LOhsSa/JrIDu2M05ZgUcDV7l1vyjsoFmhV8vmX59ynvrzTfRtbou7FisJxEd0sWNvKvDLWJ+t5g5d5UAA2BWqgbo7BEfd7fDasRltn+ASrCGIhHjy3IWNIJuFVG6Roq8mKBsP5MDoLIhQmiqS3oYghqijBDZ5QiG2GkmHUCjEV733hjLq4FqMwIMkM0yObhVoQB0376IeOlldSl1+yChPiFsgPG3ktZZB6/ElyhQyThjRcYbN4iGVCsmIjEKBMvBiWidTATSnyAaPSLQiq3JtukU8/msySboVsirKNslLukL0GQ2ZPxiJ6Q69qprC8y90PTAMSTxW6nJLRFFEWQtSwfMKQKDZEqPhZiSwW2zFY4+lv/vwa986D6Ci2Y9vd//jZ7e5b35vCSsgHMDS6q1kJDjT9oC8qqGusqCHqAXpFKDkoQBkRlJO+JKSmMIST8pMiSTVFDKtRp8g3MibhYRTJRxUhGjIkk6gwoko03JDOIoh1XVUjJCCdSJ0MhaFkQpQnRQ2yKMSaqHBCtLh4lQr5FbGEoUC/UDbTI5eFSgOHlL72qpXut//+RvfzP3sc5i0s9B8VK/MVIdtKrBRp8EjqqLBZWpVOwGpAKnFEIUCZTrmD6DA6MYJFVe5NUcW3PqpU8tUiJHIU7ekwaOZCLO+xYcT2uVuwk+ATT83KdynTWdBOMmp9iS7I2bB8wpAiTrdSx7Xxr8S4F8vf+1sb3JuuXD56YUluWvUv/2iz++4PdmNDK651Zow3EsHjyvGWKIQ65Txj8DIPCsAuoSAnp4YbQhrCSX6miFcjdPi3eWncf6KhDxZLOAksFk2HTIIZ4kfBhlxkhfOozoKyAtWJpxgqam0pBqLsxds//kKHocQtTkjx4jVkSPLkBrMN1KRGYq4jfXiR1/nbJMKNOq9Dw/Prv3y8+71/dqZ749VrZBtTLtudfSFMtBkgmeS/caGQCaL5xApbVNpCJSdDjKdMzFApppgqmthQbpKzAGJBYkhQFUhbVOG0BbxV8hRWdMWoNDoMqnBy4sXno7MYWDhwK3buu/fh6bDulUGO5rIvMf+Wk/lJ3UdSMso3CYqoolRh3eJOi//zf7PBXTVitdxoZgZLs/we1nq69c49sgMit6/1oahTUSGdgwOFH4ltIn1CI3F4oRrX15iRhMfrtDiEQUVR7kRIVdvbbpRTpVoRzD3uuQ0ZQzIJb7pBKpzzcuo4+DsgI4e1WqORWC8SGBmBOEJGyl2JWzgWIvoxBZnMmEhbgFjCiUYsuEHwiTZOFCQMfwmymavnEyRjIRK1Du+8CN8xLsZy4lyD6W3Xr8FS46+4+7FfxQx+yXEilx/G2PCbJIaU50Km4lM4lDejDA0VD6cYKuqV9BFMzsPoDJ0lqTRoAKFzwpZnSyMQfqYHjZx10Qc1/oynQJdbpMcLHaBFXauww+BkxBAIy1npF56zDHuU5ymLka/Pr2AG/H0P7vH1SFzqcEb8gGbXAoYRNKn7SEpW/EjgWUkxisD93U/AkN9f+9g67J29XBaV9Jz+I189/ftPb3Pfv23aTc9gO9SqXIs6VcEFX4Ifwq4wglLjumQ4X5eYtdqHLCWxXhxIiC8WiCTj1hAGDYlSpZlL37Aa5WT4CZARH8iPAc558UopMoJkVFK5aahE2NZ5ZGdB1cKlpqEmsbCrZNrRIB8KUckUQD7ZuHhRxZ9xHGpwBClqNa2odqRDjuT434Y4aConbZ2I/a2POXqxO/74Je6ee3fjA+l29+DDu7Cf9X6ZyLdArqCqANpKcjVFNLeIF5W2UMnJHMu1v4CSpJJjukiS0NH1FmBQHLp+RR2oTYHCloTFVDGDOdIl1AKGEjoMmuQy3aeeguXI1w7fRpswm/mhH+5Jy3J7lw1yNh886XY2CCR1H0nJqF8RyMhE7oe+EfMnfu59q93br1sx2FFEzVewfthnvrLTfevmKcfNqvjDpd1QF3Uq+pXOETERuiMsMF5AXsMqeF5RDSopIYwTkrrZBgB1DIa4VOePFAb7W6BRTpVqRfBAgexPDZmKVBCKpAdtH4drudHzyP34iquiBkZVWB21Mkw1CrEWGnHx4MhQg9PCLWi5jnRljHT+v76B25FefP6kO+8c7D+BX7E/uGO5e/iHu93Tz+6RRf94B8kaS70L9hU+F8mmx4VMTuZYUy8RIcdyZ+i4ycd1GNAfMpkvjpirDkN8ozBgDB0G4eaht7jiYu633v9UwXkYT7+w123Zvg/LnWRZ71KHrUROEeNhnfBylXRF8Jp78YR68gmL3YfetdJ94B0rBzsKavESbt1+wH3+xp3uqzftkmVeFsV9szvsDN/DnYreUXOEbMd9zPcerEsHdZkNtkqISwN+jTbUg2NYjbbO8OlfRVBOR25DpkFqKBpSK3GQnQUhvGU58sBQNQTKu7EywFBaHleOKMSxiw/SkeBLNJsxEeuoaNlYls40G2Md8Wa6ZKvCsAAhtWfPq24hNrnntpRjA2Wvumyl/D+K/Si++e0t7s77dmE9pTm3E2sz8RUVveKwTHlNVaGpC0AAAEAASURBVEEXPhfJ5o1dyORkiGVCRzaGBMY8YQxhBNPqBm5qKH6Hs74Skml/+lV1kyOa5HpcMoHOIr+aauE+/sxe96MnsStiFIvO4eyjkVBok8xQ+OKJ4WhUO9CMDL5RYF7IOjwNffS9q92H371y0P9obxpPIp/72g73pW+xzmGXO9RfEwo7mddoCDMTsaDYqa+FIdS4j6kacQYv86BAgKJfuJc63RrCSYopIl6ag2E1yol8hlTURsHz1NFzGzKGZBJeu0FSsBI9hM6Ceh65H7/gFknviCKGqKJ4ETmO7DA6LisxGXouuxeQY9sDJRCzD9IIWaOYE7fctg37RCxyl160ouMRPsu2YmedtsydddpJ8s75ppu3uRu/s1W2at3DPazRGBzgB3EUm9QxHroqWy6cYKajwiZ9neuQ/8FigEC8wZuyIzsMYjAoXzxBHdUN3DalqF04ia5kYSKmxASe4iaXH4XZzUuxlW1SUI7k6BNYefVxjIKa7z80eUYES7iKkFVVrIdvWD5hSEQJBPrOpUl+8efWuQ+8baVbjtWAxwQ+Hf3JF7ajo9iJfTh0R1FYKpIZu1GvMhOx6CCi/cWZZY1+THgcVQ0iw54HBaJ4Z4aCwAA/sVNE9EzKJIbKiepGwSdJDuXmuYVMpdbBp1xHGNdZNHCjw8Jq8mmxYBRJ75MihihPDLbOoBB/bFu0tj3wXvkj6xodHNcBaU0f/7MbXnZbt+11v/6JE9373rWhFhhJWYKP3e95+zr5f+GlWXfrX+50f3HLNnffA7ucbCQED+XtlMlScF7bMCRWWAbVkBi+vrKBwRODvWieJkcIvB4dBg0UvigjPqoagrYoqO2X7EFfIRa/6onH2ddcIfci7Gm+cKEqI6Wmo089O+OeeW4GrwrzKyjhK+e8y4qgARI5RTTXxw3LJwwJUmzwOXDiV/Axmx3FiuXDvhOcc33+0w3b3Be+vhOvofY19hYvLBVJ76Ag4dBnMyh26mcked/EutCsbx5AVQOlqKKDApAVKP9jhpqVOfIpNKY+NepSwvMuEwyh0WGIHbDaCqIlvjIGGQ9nQLNMH4aXah7HdRZUbdiNRGHxEENyhoRCsUh6FUVsRwNyKEQlExjFqRaIFDmzkrBEjZ8FhCSjVosHWmLHyCBgAmID/sQT0+73//BZd9d9U+7X/sbxWLStf7mIpFxEYj09/rgl7gPvXuTefN1qtwMfwO8FLl9T3ffglHsJHQm9k28baLP8oJ4hf4tKG7MZ7OdkjuUyKZyUJORih9FiQ3n4GwZtIfTikA+5UDBBw15uxe/32WLRNPoKbPQ0D98rJuUjN2ldwS9HPocZ+a9Bh54UZa6c89yGTAQX1gCfsmLCotH+SozY+vkPrnEfesfq0R3FXiz98emvbnM34IM265TsvwH82ouCUiRjFpoNYWYiFhR5iqEoskgW2c564HH0Zc56KiZtAdLxJlKsFBWo4Fcg2hSJNSXpx0gHDtnqkgXp4t6LGObcYTOQ/akhY0hMMHQWsmfjOL6zoIoxEjE80bBMoqFY8QsZxVfRYHBkhyGVAAWgyoBYDB4Tx86K5uX8sfbAcMH29Yxy/B8X5uH7A3+hvrJp1n3rO5vdM/j1+Zbr17oPYxVaTo46lMCsshFbunQRxv0vcsduWOwuv3Sl27x1zj3/4qx77PE97vEn92Bi2B4sEz4nvzQXYOgnR12xEUijQlWZVTd3URw5mWPtehJzBDmWewwq6kljOgxKBpxKPwJTBDKqEVAeeqHIJ0bFDDiRHmVB5n7m3Bnw6ksnAN/ngHP3Y/vUFzftC0OdiRkBA348kYzgq2RDJvC9eoPv1f0xsX2E37I4D+T9b1/lPoqRTyuws+GYsBvf1b76nV3us1/eIR+zmVfJbsBPZhJYQSmSSaz1yzkzESsUi6QRpWznfewV1aWzqjo1JCRQuW5WVYZ8+jJQH7qun/fUQ+Q2q9FhJMHofEWIDDl7bkOmIlUEg8PEwXUW1GhiemKTRR0JBbdIVjKKr6IBq1GIgWNPtWbkew6OnRUtSvLcjSNcsHMdoey4wEaa/1NT+90dd23Hpjh73dPPzLhrrlzpLscoG+46dziBE634vxEL3F2F1W2ff2mv7J/x3Auz7sWX92JLV/xj9zvOAdi6bc7NYDkKaRDQlrAz4wdZaQyPKsq7KI6czLH+IlNyzQzmm7LJ1sRBKAjki6M1fVw3EiOw4lPFiccvxkfi4etzPybivYSylglrCT9Fan9A8dx+mSjVBFBEvopcj61e3/mWle7n3r8KuxqO+yHCYbU3YmjsZ7683b2Ezo6bVxmbwT1dfN5s4XeRzK4VdSozQqxTsZIUvzrvY49T+9mAGSIJlK2blZdjDAUcVMy2RQPaKCfDJ0RFMLie25BpkIxikTj4zoIATSOdLimThWKR9IKKqKIKJERRiGNHSRWNRaz2Hr7XSG22g8I6wmp0KIENCf+fe26PexbDYR/APIrH3rjWXYmRT6eevNStHtgjYazNE45d7Ph/zRUrRYUdxmMYVfXk07PuWWzCtAl7b0/tPuCmsbXpNDqO3fhYzk16+AQ0D+9b4y9LFudRfAxhQYb6nksxx/r9GpKzN2UbawgjaKkbuKkR+WS2gqJz86J1axZjk6NlLUlD4x7mLNsd2EmQT3ASmg4YNbm/Op8wjGgPGFh+q9f57h3Xo6PAE8XQLPMIvRevrL6BjuKGr2yX5Um4q2EOyiajzaBkyC+SWaXREGZmn6KR8gkYOdwOI9aDBnoiSV5y3WSyCmNwRMkWjEmZRKOcDJ9gBaGZLIiVGvndYWRnMWQkGvBycox2Q2MSJapMZYaKKXshqihK7tA6DI0l8VEXV2spF17HKGcDMzz6o934n3Jf++Yy96H3Heve8qbVbs2qBfJRlU8ir1c47pjF+E6y2F1/rUfch9crTzwxg5E70+6JZ2YxjwOvUF6ak86DmzNxhFU8syHiRj7YgSP8cA+dh0D5skrf8zpdhly8wZvFm2/K7jwrjG4h2IFc+NHQNpX5nTDIB5fGYKN7CZb4GAr3PzKDuRX78Y2DHa2SFgeaXpjbw0s05EiKIRVyJPgzs8vBD+9880r38Q+udscdPfwURE12hlwQ8FNf2u4efWxGtr8t2yHjJHRU0Xrjciz8LpJZsNEQZiZiQZEnBl2OnqKOEIr1SVF9VOH0YbQzY9EEKtfNgFzIgGouumXHbKX8BbbBMolGOZHPkPJjFDy04ntuIUN+g0RyGUZ2FlRrIDZIUa7JStYVl1GGlGGfjDiSUuKRm8+H12HQrMCPqSQiScuVs+IOcQhzuGHhAuIf5V7Ad4Z/84dPuT/7zAvu7W9e5z743vXu9I0T+JUa3h0frqFCn/MGzj5zmfxr1ia8qnoCr8eefY5PIHvl+8eL+GC+FQvj7Z3z48Eo77OOo0R4AI8nH6VII4AZb/CmXL4pG8qBFDCYal8aL6eucdsUqLzByWQosWgG/0dvWCBLfHih7uPtd+92u3Zhue5WB08b0tBTvzAkPI/rXVYET87HhJMxqDMfdeSdeKL45Y+udUevH9lRQO+mW6bcH316i1xn80RRuWAJtMlsZC/oopUpkzkTjYYwM2scwysThU3D9nWJfvS14x29n0HydQR4AGKem1b9xbN6OpWUUkS4JmUSHeVkZExCW1PYDZkGqVQ+iM6Cqg3EBinKCYsHBluLQCgUi6ToaBnw2abEoKIghQ6DTMuI4v5c1GjtmpgfurgJrels4o6KiC8dksExabcQ37lrzn3ha5vcjTe94s49e4V751vX4Wlg1WF/0+iwXpE3rF/k1uD9/GUXTuKVlB+CyeGUnM+xbcd+t2nTnNuEiYGvYEkLvsp6BfHtoO+a2ieNJScgco9qjppknvClRq6TXCpJI5O86eK1ExrdiAR/U2pKYiVv2RAg6EpCihDDSczglVqYHRdYFqqnDnDoKQcObDyxf5/t6NJd9++W71HRXqSnMx2QLKZIYkW/yfcuNWSyNGKezyc+PlG8+Q0r3K//9Q1YW2zcNwpez+/fPuX+zR9vxnesfWHuSGGzSEab2o1KJPiVZGqBwIIDP23DaulZqpTBzeoUOqCKHgg99UkkWB4MxRNiIpNnymyonCoFr08yA+uTnAyosIThY83jQXYWxDDZ8KANu5VLDbUo0/QsERV4OxokQyEqmQRhIrVApMh56OImrKiVCIcQIUZPAJttCW/k2dn9bmbmKHfPfTvdkxjN9NnPv+TOOnPSXXvVKvkGwcUFj1Tg/SIzzfHkYcN8t3b1QiwbscRxd7W9+w7IEFF+VJ3D65r92EhnHzqJfeDxG8gOfMjfhV3ipvA/PbPfzeIj6ix4XMyO/9SbxXaeXPZ6H96bH0DG+VqE/QzLwP9z61n84xUYAz+dcDgw57vJgAE4Ow8JTpTjnIJFmGW8GB9n2YByTgRtPPjINDo66IbsVFdS1wHFpB8nn7gE2432D3GmOjcDehEDCvZyf4eFPQ028RmKxsITcQz2vUvKmSSQZfah7CYm5rtrr1zhfvMX143uKNgJ3opNmf7Vf9wsE+4IHcsmOaDtmbjyKeRFKKaqKBnqFskMhwIe22FEJWMnEnmGkfjEqskSDw50+qEUdF1Q5BQVDAtkU5SsKUk/Rho4RtNANMrJ8I1mtGDOXrxSMjJl4hA6iwhRGCqSXqrhUiWnCIwyVBWgkOm6yeOQPCXuAYsjKwCNKDtRRc5DFSTBRa1EOPjICFu8ceeHu5cfnPkB+sWXZuSbwsM/nHJf/9Zmd9qpmNF9xoQ7G/98EvhxBq4PxH/sgtBrlt9EpINAZ7B336vSmaROZT86CHYuqZPx+5Fzm1kWETsKzkhHP4E0OhGeYY39F4tmHnoNno8CQcoLr374Oo8LLfLMzoMdy0sv73OPYgjxPtinbAzEyikk4nUhMTDZGHPhvXPO7H+y2Au5O++blmW7BV+m0veXjchFQz6Rj8G+P1Weihw712UT89wbrljufuXn17pjjx5XB9jxsqP495/ciomDe6Ws9ETzyq+m+ZoYi6/KRCTUKoHTaAijjpw7FY2UT0C2p8PgnB4Webi1GvqBVGfGyopL/gmD1UVVGS9H/hhDAaeoiVIriGB/TzTKSfQpGUNF8HWZbJ91nBoyUb04H0ZnUSAx2bTriU1Wgii4RdKLKaKKJogUaRRi4ulIN4hwhiqIhjrUOA0xHIQt/wvaNzzTu/e7B7Fs+b142liL10SnbVyOX70T2BZzmeMEvWM2YK4FPmDzV/VPQ+DTycIwnPcn5c+xG+bkCYSdkK+vvLU7groujC7FgoGnnrREnqY6NITM0US33blLOr40IGGow5BKR/UUaZrwXCsjr54wv+YaLDH+8Q+vlQ6tqVwQmadb7pp2f4ZlPO5/eE9eI8rCF1pINvlNYqFbyBTJLDx0D3cqZogU65P1PHWZk9ZBRwQqdxhN/dGGenw2rEY5GT69qAjGNc/tl4kKh9lZNIw0SNHhJit6UmaqKayIIaooCQm/P2ESDWRPOyDCxcWLWDxLvOArAyoatRTpUKJ9tioTnuBnY+M1C+xxTah77t3h7sR8jQX4FX3m6ZP4vjGJIZ7L3amnLHVr8LqIE8mW4zXFEqwN9P/XwPkC5pekKveqmFlIgc+JeKdgGPMJmF8xFDj8+AEsR74PT0vWFuolH2+6QtOBIExejKJex1+EdI9PdVdi06KPf2SdOx9rVY0Nt9+3x/3p57e5H9y1202UiyFWvhSEIultWqIqWuWSlSlv+yzYaAgzE7GAU8AZkZhoOxK4HqBXhJKDApTBP37+965CMIST8pMitG6DYTXKiXyG1P4ZBc9TJB9VBC9RHQ+zsyBew0iDFOWE1eR3YFUuK+UQVRQlfegdhgLxlYSlngrecEOi7UFLspfWV5FoIgbxxVZK/oJdxFE3HPiC0xNP7saM7Wl3wxewjtHkArymmnAXYTOlC86ewDLnk24laHw1Qz2+qkm/gKONv6LnpYsXYE6LL6OURVXuzSsJPh8MLjxnwp1wTP/rHb5KexKrzG7Fng+8DrwkBnPUE0a82FBuBbAFEw0TR1pxp75f/8UN7syN/d9SIhSz+8CjM+4P/+QVd++D06mjEMwoxPMQoeLXSk2RErgtBLBGQ0gTKQTFTv0kOHAfewBVDZSiig4KQJZQOHCUFEPzCg7hpPykiGAJtMSAa1hD5UQlo+BRFMlHeewOIzsLhdrEavAbpOiwsJp8giuGilqzioEorwspDPbihA6jZohsOvDiUdMqK0xlLymVEchEJ0rWQaVH2EoitsNIZsBn489XVpwMxnftjz425X70+G53A2hswI4/finevePp4yx85zhrmTsDQ3K5Gulf+YC8TyxbgIlyB+yPRXUDp+JVhcHRXBecO4HXe/2dBRfau/3eKf8AQaAQDOaoDoOKRitCyZnNA6flnH3GUvdbv3GMO+XE4SceKjKbj2Gi4O/+m5cw4W6vDAIQwGCrstgkUCPcLBWfPEVENA5Qs7eXkilUmMxhqCEMOAVc1texPqGROKqeaOQ67vE6LQ7hUJHB9gqeJEccDHijnAyfShUhIsk5mjRElRjZWVCj35DnU05ViaaKJ8qRBwal4glKcYQMyz1iqKiHir9Oakbgx1NbgK4JJxqpfI36PLNzovRw6JTyxgDQa0gZ6O4wPIQAyugh+VjM3ODv6Wf24GPvrLvlL7fJKCF+19iwfjFG+yx1G/Ha6hS8m+fIn2OwvtRftcD5Axw9y9FNJqgbmKXGEK8Ct7dlgyyjwjyredyGvbbvvh+dRawvSspfiUAY02FQtNFYcPQSXzWedfoy9w/+u2NlEyNlpjf6ODqK//1fvCQfswWeh+SYj6RkRKoIRsnrkxQLS/SUEqMIQumSSQIiWhwaDaGRCLaCHWEZO0pYXWNFDVF/L9FR8/qwFIz3eJ+Q+GKBSDJu9fqSXKrqgEBHLAPaKCfDJ2ZBiGBkGedIsGFUZ5Hhc8zC6FQhUyS9pCcmVor04GhWiivFdjRIhkJUMglCRxoXL6r4M46doys00HD8KOnEiNoIQvYWOy9gYHvt4Q4jLtURawSHnk7j3TqHsVKbf8+/OIOnj2l811iAxQwX+G8c+CDN4bFHoyPZsGEh1hlaJPuCr8fmOatWjpvs1cjhT4zE+2ECnQXXvtqPkUDV/VHUAY66YsdyHp4q1qzqGQIbcsS1tp7E3hXSjjQaenvZUC/7vmEQUxSyFjsKfqs6H0+D/+0njpZ1v4LpwdPDj8263/+jTbK3BkeXmVFPyYSPpGRErQhkNIlRo8mvNQpKkcxgjYYwM5u2DFsnpLHHla8uPoX8F4eiGmjtHB8nJIhZqYiNwZAyqQuGFAZbzRrlVKlWBA8UAX2qOo7qLKiV4XOsQusiNFU8sclKOIqrooktEcVoR4N4oxAtkE8NXjwYeT06jLg3hyrZ2h2fIa7NxBiHz3b/mBnuMPTdQRz5QE6jAZQNyI4dc7IiLX/40i4Dtw3l+lQrVy7AP8743rECixyuXIHz5EJZ7por5U6wk8HwTZ4n8SGdH9T9r/jmXSnYP+4DP3DT53ls9/F9QZdJ8kXVAUYpddWlk24V8tsXtuPV1mPYEY/zRLj6ryjyUFw0Y3XoCSMZ9PNN+HrxwvMm3C/97Fp30bnD61NF9Qex+u0ffxY7K2Ifd7/ScOS0zt5D4yfFKkKh2+Q3if2KnSpD93CnYmGPSch23sceR1WDhv5IkkAN+DXaUA+OYTXKyfBD/tu9ZWfG+mt/oZbt5VghEpINfoMUa5+weGCo2hWlOFamwvDQBzVKio4EnGg2e4JYZ0WLtvrPxIr/cWRLS+Mo/GzgCCY+GUxjxBPnKixAgyHtDwEYUn4PrsPwyjgSBxj8ljEPcxJ8iGeUGvhbsMw5V6elhTg57jWUASe+sdNYFTsSnFehI1mFtaxWsiOZ5Mq3C2VYJifILeLcB7xC4TpYXJKCr3XYafEjO8/yrQUNOXeVk1Vv4ZSc6SJdwkE8C+7xPuOrP57lH0n6y21PuXYVJ/bJGeXGMIOJgFzfKaAIrXkgGA3ijxMe+RGZK/j2hacwT+FBjIKqd86j7eBwC2Cow2B+8M/rc+7ZS93HP7TGXXv5ZAupSfvhE7Puk1/Y6m763k5MUvTzUZqCxk2fMCQqDREqfq0Ui9b6UCgWySzbaAgzE7Gg2KmvhSHUuI+pGnHaviqMQYEARb9QnzrdGsJJiiminAhRw2qUE/kMqSoaBc/rOY7rLJSRDJ9jbfwGv0FKF0XnoQIsFIukF1fEEFUUhYhCHDOstuOyEpOh57J7gRFHeXxMTqZI0uQCdIsxdOfqK1fjF/pC99AjuzAZb1Y+WPN1RHq1ZFQPr8NIxlX+2Uhx9pvf6A2JVNlAx83GTmw35nw8h5VrWedlJ3Cc6RbT/OeoHXniQIPLp5Bl+Mi8jE8e+AU+sRRxnJfgCWYJZ13j17+feY1Z10yjlnJf8fnoYHjmmxt2IAzSEQCfixy+io8QfLXEzmL/HGa9Y/Y0Z4bPyCxxzC6ffU0myj2Fda72c1KeyYjH00fZZxs2Tzh+CRbiG/528+zzeI2HVXzNyLJUVnBK2bMpsAY6DPZbp2BC4K98bP1BdRTPvjjn/uiTm913vr9LOnbi+CuTHCMhB+OYTxgSJYcIFV8pkYfQFCmpbSFoNxpCQY2HoNipH+V47hPyPNZfX25aT8UHBaJsny3KDPATO0UE2KRMYqicRtgUC/4wrrOICnQEIXfGxjPPNMcGv0GKhSSs/4+994DW47jOBIskcs6BABjAnMUgZkpUoEgFW5JtOcqSLa01R85zHGbH3vHanj0e7Rzbs/as13mUs0RZwZSsRJEKJMEM5iwSgcjxIT6A2O+7FW+F7n4IsnxmCnh/37r3u6Gqq7s6VFdV5eIVP0kDr+ISpiO5YUo0kRvYYbARUDNR9qRIBjcSRtBO0Y3z56Dk88r8V37pFHnZzAWMvnjLBvlie9WaPXKlWbd69DsM5YdhMrEy0ONJp5VWUlZngsXX3fw6m3NJ8c8ct8+y3W+sV1C+Gsj0vhQaGX/0emwuRwweQpG3n8Kks2jqwzV2wETcDV1+8XS580l1a/TzazBH1oZ98vFekKfx64fLoWghtkqHwTbAdwsL5o8zv/3eJeaS84c/etqKl+1/9tfr8DU5Hz25+gjlDUQINRBKZDOKRWAfg3KmUDhmEiWQAdLCZCrMxtR3InS+EpdRN6PiAZgJmLUGCEnbUwHsBXhT9tikvio2GXTFny5HggGs0paCPWJCplJPwQb9MSkFy6r8jq2z8AZg+5h3GN5XKDQZWaGyrFVJmHXSWXYdBnPKhxOHTWIEPOaYqCKSzoYm0GE/wY0leGLlh3Q33rDQLD3RXtUuWTzJvOvnl8qa3Svu22Zu+eom88DKbXJVzUc6MrtpKMsx7jBUqULwiqszWaOlSpJi1lFsYF1me+sd5YcNf9xF++nudg4afjhaio/Zrr5sWmXd6SR4kI9jOu8XXtgHf2EHaIDPVU4qyn3SYUgRocdFlv7gt5aZ8/EIamjahtlu/88/XWU4TXrxMptGxKnyrE1TxCTFsbgCXWUEJVEvfzKl6m7OMFk22szaVBQ4yily41Nz9wAUT2oe7bbWTmXXaZzfYV1tQExZe15Z58gtOR4btg07lCe7zMH76omwfp+H11m4EKL5SDlRtqGcKdlTVRXLVCKVoY2MkWWJUJhEnpAW5m9nS4GTu400AsSehU+pVcUvG9oRptgYae8QHn/g+fSPL5Zn+TTNNsjn5ydhSOucufPNhefPMM9hUsG77t1u7rpnq1mNuw07rPJ4WUyJ7zuqT+dDeQOhIy/YBcPiFVtlbMVI0KnpSqPNqi3LWuUqk6LMZ4Gz8oKdhiQ2aAqoBMh9wUddXFnufHzIyPcpXemRJ3eZ5/EYjlfweVhBz4cbd3QhEgY6DD5K499JmKTx379nsbkQHUVfDN4Y1/3+0795EUu67sZEhphlV54jeim2jINJ4pEfm6/9BrElQtZjCwYFCZMkk6q+TF6tsgRD/SxLlk2VNuVFss0Us6yC0knWDqLcKlZ2XYR4qg8kpuKxyapRYTFDTlen4yD5HUZgK4KZSj0pp16B23oa2FkUVoO1KIlUEPYRVRXLrIqCvUyaZS0sYdZJZ81VYoIJbhRRB8QdjdMyIUeY2M44yd2JmNvp+uvmmkWNZ+XT8Lz/TMwBxb+zzpxqrsTqd1z17gkMfX3mmV0yDJaTxJ2AMx5PMsWaCqE4gdCRF+yCYfGKrTLaXshljTZTidlI6SMpGHJEgstFko8HZVWcMhNTfATFGVz5LcOQubWeeJoLRe2VR0ZyYkxspS6kLGRUTihehSJ2+qcvn2ze8bYF5pqXD3+ZvRqLVX3gk5vMHXfvNGhG7lGlt6wiSTI98iC2RMh6CwWDgoyZZZWcMq/R6lQCQKDZT9amMqnyVchyBoL5YegwGFaljeTR2mouKjfClKhST0oe1WrUwM6CqpnVJBvJSNWcFTYqZq2etdNtrVua2hG6E16pRGtA/3bsPJrn3/Akr4ELuISJK9qLLphp3nTT/EJeY5xyEj+im2xueJUxjzw+Yh54aKd5/ImdZi3WmdiI9SU2bdmHuaPsPEUy2ghXmnKxGeokENp8wS4YGi+5DJNlKwpFs4gqkarqBWYfbkiHoW1wcr45GC78cqyF3pc4ZHY1XiTvxjTsnGxwcKq0J99RLD9lknnbj8w1r3/1rMHm2FF88gtbzJe/sVU+OPTfUdiS6fLRKIdGy2qHvIWRk7Q6U4tfPlbj3ZLYEnHDWml+QNxDlDJMlo1O+o7hpmI0EShgj0aHEew1CAmpp21W2kjdmi6fyqlMpZ6UvG6d3DF0FoRnVpllQiOKkkhZYf5bkVdY3qKI+MNUtOVEMSEt2P8mAkcmHA/CFpU4ZJRUtvO8LW4lZsoHJK5hXbvL5BXlScummquuwJrJ+BBuLIn2zsfEgfwzZjGeo+/GuPrtMistl0jdhUWI9mIdiT1cL4KXnQiVnYf9LsyXJPNYsAtGpsBshsmyQ26Jo4qjIqPiz/n0B3gV23NQilUo0gYSn/PPmTPeXHJR//Kpd2N6D07zER4TZW1EDOY/dMM4M+xB5DlT8E+/ZZ556+vn5lrNPP1/4vNbsEjWFll7O8TijhlbJbFi6HYmPrycPh2PLLHOR9xlUHA6vKAYxViErbDNNhMxuTUXVjRfZ1DO5OzbjFbKqsNCouOaisNwgxg7p8l3vqpxJGaEBMi3p1zk49GhF6h835YAcMRGbJtVk/VKieaCUiBEpnIqU6knynvSsM5COVIZZT5KIqUAIVORV1i+dVZFNVsEMqnGSEZiISEp0YkHBA6cQl+j8kaQmuRF2pA0ZRK/NSgH4PIk/spr5ppXXj1niJlOzNlnYIlU/L39bYtl1br7V+4w99w/Yh58aLu83+CwUvlmAh2ULXNaksR0wc4YzPoU6q6CCTKCGw02wUQLjooM7y3bAuAP8Co2HpSZYpIlhi+2jzOLOcU7/vrSvRhttAVLzHKQQUj+AK/GAVTK91iw+cHjv3vHInPTq4bfUXA//s2H15uv3bbd7MeHhqGjYDCJH+vGMvZjvrDrXjvb/NSbZ5uTl0wIi0HxUSovHjhSjHXARZze91frzIMP75ZHY/ECx9pJzNOb8tdg9GKS6rAm5DfzlGUjsNKuohBUU1GhbKYLa9sSzcU6qZnoA7iQYOiHYonWShE8a1hn4dFhm1Uisy75Y7V/p2Q2qF9heaaIqvKKYhWXMEG6C0iJOjnEkXcdBiVaINjwwxZNgMNIDq2GY/NH8DiC7xS60lzMNcQvnHfjii19nzABV3kbN++TIZiz8BjkaCV+tXztlXOwqt4cvDg9hC+1R82jT45gKC7G4N+2SUb92LIk9ZQ6L9gFw6LJZpJ6yTBZ1nYYBOPs5FOGiVlHccPU3DcAxEZoseq3v8PgNxvL8GL5XKxH3pfYDB55YpfZtgN3FvJsL9Gon/UiwJcFHBmmO2mc+d1fW2quxTsK/wgpgusUXbzv/12DOb524q4R6337D1BSuPeDOrMh2a/BF2E4LmfRZZub0Ghq3DNyVyEHJzKJLZspL3jK41gp2cjIUvtQMyoaznmipFWsXfkd2GE09RNTrDAGmriNUivr281S6VTq7FUIcB0QyVrqc8RwmI5kWK21UP1NjtKqPDJ9IIFTMCqSNsaCKc8wWTbiHNKrFLiCEeKJRIKpkw7KxoaUYCwj/80AaFCcovpFLKcpbSyHJ/nzME34woWTzEE+Dkoc8arwu3duMb/3R0+YP37fUxgauyPROjKStnm1yBe2fHF+Lmad5aMuP61HDCMrl3dbsAuGRaoDK8Mwm7Fip+EcZfKYjVRpwwfJLXAe6repGMIq22H4hfcyDDDgdO5diQMIHnx0BGukH5Q7NJ5QCrtpQyiE1jofPfLi4j/88hL54G7o7L/70Xb+5L+vNXeswFrfI3wn5Q/nhiOyGSO2M/D46eSlE3tnGuZjqI0bR8v2HFxYImR9hRUMCqpMr6HlhOIvrT4LzGxk2WjMHcORkVFOkRv/lyFiFgAHjzxPOUFT7nHYloVJhJQzqw3pXCknp0gNO8FWIKjZV0/R+tjuLOikOBEoRihrvLgrlKL3QGWYLGthlqlEKkNUwiDJlIVXYJw80bR6/jFJKXByt5EGACP4z0N17/4DWEdixCw/FUMdO64krrlyNjqFrXgRjS9rRTM62om1qvm3YdM+TCO925x95jRzDe4KrsCIp4kY93+00pat+83mLXbluGAzhBGIIBKiYBeM0AZi3Vcw2ipybLRJ2TKVmI1UursLcxT6RpioRFz7DoNX+cuWTjDn9CwkxBPpnViSdA/eA6V3AoU7thG2Bba1TMglWDmz7zt+cr559bUzBi9MtR0TQH7w0xvNbd/dZnZIR2FdiH0WMru69OVmKLxzuhp3L6cs63/ExrXTt2w9YMNm/GkKZbFEyHpMwaAgYSakV1Fyx/TV18RU7RCdtalowFFNxQIpcfn2VEjdHQHMdRzyVqssjLYmIcW2WTQZylmHfY6cHQCVfVEHRzePvnqyJsbWWVBHgrDK9rdgBHas2wYmNZPTVRXLrIqCfibNsiE4X4mJPCGdtWGV6CvleDwC4NxDDz6809z42u6RTAtxgrjislnm4Ue3405kr30M5LyOc2P62WHcd/8289jjO2QtinsemGHOO3uadB6cSvxI03N46c0X35yBVaVQEYFQ4rG0AV/Nvo6CoYbpICeRYWI2UgpfZICLjbCQ0kH+HQrfOfHF9kmY4qP4PiGzwDuCux/YIeuK9x27clWZgdhRnIiX2W/Bi+y3vmEeLgSy/ZD589nNeIT4T7dsNV/6ly1mO9qIX3/cy+NW1xNzrNOpmOzxxlfNRBm7B1DwXchz+NCQdzCcfDALP7oRyvrSHq2/2AYyFWYLhSYzU84Us2wE9x3DTcVoIlBdWCvr6wuCqS5CTJVtU6kMdtQRsxL11dOYR0O5cOmEKbRt5dXK3G+UREoBQqYir7B866qKWraq4ISZkMFEIFCJA1968+pyD67EHnxoG4ZRvoSRJt3vLV5xzRyZT+kTn14lj4Ls1WmoVPmwjh3HAUyIdw++2F6BJVPZSVx9xRxz+aWzzMknTTUL5o03s/Gl9+Gk1Wv24tuAxrQhoU4CoV0U7IKh8ZLLMMwyhSJXGmxFxcKdIJNbg+kvAGPoMLh8Kr+t4HoefWkjPn579vt7zH4sn8o5q9IOoRqWP8Ah5NBcrpHxo6+bY97+E/MHdxQjuIv44r9sNZ/6wia8dzpgRzLVAq0EwI/Dx6NDesWVM8zlF03r9bkej5/ufYhzXWEXhX2UOVN+bEaxCO9jFPJSyVed9p4pZtmIrbSrKATlFJv6KbgLZGX1WBMbvQAf0hF2GCHUQCRBOFKJWE/tNPDOQllsWKtgHCtKIlU3UpFXWH7niqgqp/WmIHGdYByZcBIcKnFAh8HjiaOZnsfCQlyZ7uKLZuqRKYlFknxv8KbXz8cJZ5dZcfcW+WKXX10nZ0/R4HtT//jpxfX7zCc/u9bc/IUXscLddHP9tXPNtVfNkeGWkyaeIBPwFS9axUr5w8WPtm3fjxft4+q1FUIJhDZSsAuGxZPNJCecCkaxKge2kqd71gkyuXWW/gLADoPJbWzG/8aDkncLZ+PF9qkndV91j+Bi4B4scjS6n86TlJwIqmFBzmlIJmNNjZ9663zzkz86b9BHf/TAdyTsJD7zpU14NDQqo+kSzyUpAdj4XoLP8bimOO3kSebXfnExZgruvpChsdXrRmXZVekI6y3E+lQFtRnFIqqPUchLpSokN1wHwVilXdFFSE6xqe+AlHufjbbERpY0g+BBEb0A5wa+juUSra1DUsXqMslD4po45UktpQxbZ4pTwTh5lERKqYZMRV5heeciqsppMBEkZHAlRCIAycojJ+E6ODuMqsDJ7YZXYDzhfP5L6+WAVsJK5qwzppnf/NXl5iyc+DmQhW2oyxHfg7Dj4AH81FMj5h/e/7x51y8/YH79dx8xH/r4GvMYRubUos9dP/XsHsMrY3sisD7LMqemqtKKqwzHLCtVWiX9MGUYy0x+eWDzL0mZSsw6ipvITBQ9mQgT0kupTDavos8+nXds3c/z+Yjw7vtGbAevCwdT0UGkoif6+qW3LzI/hsdP09BpDE1cM/vmL2/GdPFJR8Hbha6EACQc/JyO92h/+FtLzNw5/R0FR0A9inW6v49p1+WuQgpSL424VyKbUSyCqoyEmZCxSAkTJHMJx8EyTpaNtnrqyltu6kdLtSii1Bnos5O0k6hbo6yhprk+O1QU5aaF7uK4kAbeWfgC0Jk66q0TxcowSXzxaUCG8ebD1islhqsqlim/FRVrLlEcgJF6d24TTRcZGxvP6NgkoTmhbHiy4XrNX791g3nTGxfKynKpvEbzIP7j3z/LvO/Pnzb3P7BNZmeVOYa6HMEQn68zDE63/eRTmJsIU2/f/Pm1ZvacCebiC2eZSzFb6mUXz6yuaMf1uDdijQo1Jh/+8mf4Em8obyB0MQp2xmDWp1BvDUyQU8HVt9etqFh4IkhIrxa3EPo7jMgMFF9sn7Z8Cl449z/W24Fp2e/DSDXqyMk0WHEEG5IT+JA46ozTvL/3F5aYN7xmNvZL/0nbm2VH8aWvbbUdPB5NepsiTyYf9Hi/ZVtkKFdfPgMr6w1fq/uOe3eZ2zEc178/k4YmTpVn78ZuKWKSnWJxBbpgUCFhkmRS7aCUC6eFoX6iwmxMWZuKAkc5RW58Un48E9tkHydcR9pjiXFU24dXoA2mLpBAtCGyVFidsYgHVydaU0x7Wz7j4PlmWGeh7KuMtVewCkbADe8wqJLZybLBKKotiAJhpSkm5ZR0olgnnUp/h0Hg7t2j5lOfWYsr1Inm1JO7X0ZzSoXlp04xv/3ry83HoPP1b240WzFFx2Q8HirqwEXBjW8svNs4gOfm/NBqx04sVLRl1GzAVNl34dEWV7TjPFNncA6p06eZM/E8fh6elT/3/d24Qt1nX+Im5aW/Y9JhJHH37KwUCTo7uFWsae0kgoTMjCGbCV1WjlnQLzt/mszyWupFDu8cuXTqVrwz0J1txAiVHMD70KFz8aSfevMC88bXzZalajO0yvoo6esTn99kvvTVzdJREOTPKx4jipUOg+2B81vd+KrZ5ifeNMecubz/PQxtcSjwHRjl9TRW/bMXLWDSWUjKc+AGIogtEbIeUDAoqDK9RlVeamScLBuNZW0qChzVVCyQ9rYNR6I/GBXCHklJM1BSlRkGQi1VHVlTQ2xI0crykdOXhnUWtKLsq4z14b2FslQwLpooiZQT9W+qKpYZRCSYQizMBGls+EpewTh5okkQUn+HwY+jvnvHJiPfU7ztRFma1Oq2f8/EI6l3/uwyXNlOMl/9xgbzNK7+OSJnnFzoFsEGQ76NYJ0kJPu8dCtGzGzGnQMXA5ry6An4XmMivuuYaBbNnyQvyb+DYbsjWIM7vN9QdXYMO4yiMjNGlrWFzA7uDBOzkUp3d6ioQADn7zCSauU7gctwN7YAnWlXWot1tlc+hkdQvFPgC6XERq7HyxguvjQXd3s3YZ6nt+EdxbwBAxJoko+CvnLrVvMZvKfguypeVOQjtJISo0y2ng7I6oB2IsLXXDvLvP41s8yyxd1lSuP+/Fe3mhX375A7Vq6spxIdMlXerVlB/msjVHESUjAyZp/cufFt32VLw1U7RGdtKhpwVFOxQEph4lWwkvNI8sek7+QVYCwZmqK9LkNlhZQeJCQbVylsc4Z3FrSh7KtM9KDYKhMxylQbYxUq8grLB1cVBc+ZNMsW/qpyb6y7sXF/joyMYs2J9fjwbQJeZC/0ip1b3oW88+eWmhOxdsU/f2WdfLPBk/7xXIY0/0I4tYRYbXvlYxF0MBwOiz+eInBOkxlRV2MlN67RwGU/edLh+4p2uzuGHUYat9BZRWfZAk5GhonZSFX1AlPjWA9cCvYMPBLkh4tdaS2mwHjw4V3ySKkLRxmHx86G3ddcNxPrZi/ACKj+R1yihw7mG7dvNx+7eaN5Yc0+eZlt95WOO/XPuxB8m4010cebM8+YbG68Hh0Fpg3pK09q426s0f3lb243a/Fym6sVNpOE0Y5F7x+LK9AFI/NWlVeZ3YpNle5jODSypn7qtgtkZb3n8V6A8+dwTY9D7eidlBamSo+ts6AJFaHKVB1kCjZLJNph1I5U3UhFXmF5i1VRMJxJs6yFJUxHJpxgSa5OOkZJTcTopEcf2Wo+98VxZgkeBXF01JDEL3h/9A0LzMvxvuEjn1xjbvvORsw9NConHsYRX0pn1kKQgRAA+xj5loIdCOsdvUqzk1Cqx6jDoA+fEI9NyrFqJ1ZeObArKtacE2Ry7yluAUBd8Nji2uAXnjddViaM8jrFzoIfS7JTlkAbV5WcVmXypBPMa18xBx/dLcAd47Cre8bz9du3mY9+biMeBe2Jo6UadYU+Qi70J8LXfE5+eOFU84s/vQDfcAzz50v5AmYe+NuPbMQMuvtkniuY5X2q/HpMue2QK1HDmsLQesbIsta/Y3KDVIXk3DoI2pV2JVb9T+Ir1L+XZdvOk7S10wmhuV6A99kskAP0yIM4EN5wc5vdYzZxWkD7IamM5ZKl2CqjMFESqWBaERV5heUdi6gqp9FMkGWt24TpSG4SroWxsZVMJzNYV3q8uffeLeav/vY5w6GqbAtD0+LFE83v/OZy82f/5QJzFb7gno5ZQrtuLmiX9q2LhiOw7fDcoVHYG+kCHcwHQkMKdsGweLKDKBDRlmLxwM6SkiemvFHKM4y2gPLxcRLuJq64ZIac3LVc5zgd+bMYSMB5mOK5Aw5qfsB70+vmmp9HR7EU+3Jo+vI30FHcvAHDr3fFjoLK3ge3SaE4im4ypgu58tLp5vd+Y4n5/d/EnekYO4r1G/ebP8cSrFyXg1PW2G9+4CXzRc8hiYy5QARRIJTIZhSrqp4hmM1YigFZ/bjKlLJsiFE6jJgrKafY1E804gGYMD1pDdRj9RhsewHEEG+PzWpYZPbZCYqBoNFmGvudhTdF++FoURmPyLYNDNjxwqyBCZYq8grL1qS7JqLcpxAvGZlilrUqCbNOOsvsMFy/q3zwxIw/HHkrMdPrf/hPj5o/+aNzzJLFk9tX9s5iujnjtMnmT/7wbPPIozvN5760ztz27U3yclUeJ9VuEUKsgUjN2aKz/DVdIgu1Y3SHoaNyucJ5hvIdRnKdk6nEbKTKMkWzfPcwDr3wVZdN750r6UkuLoWrfTXDrJhyvrBhhBwl9ZbXzzM/9+MLzEluWdzosU39yze3mQ99er187McJ/lqJMbOTm4jJB6+/ZoZ5y41zzDn4PmTIQk25zedX7zN/9cH15t6Vu+RjQekoWBwmtF9bMlc+y9W/IuqRO1tNa4U6GUHJ0flGK9U1NKbdDrjX2vXt4xZ9H0Z2rHu2YONJLbKFsvHwPN46/CzMlaYLJKasPeo4jXhaTvwJWfsJStFODUbe4XcW1Fb2VYbSTF5lCExLKnYCyiO5TfZUVcUylUhlvK1hdohOy1uY8rezpUCu0kbxGfbjj+80v/cHj5k//ZPzzAJM9zE08f0Cp4K46IIZmLNoMtbgXmi+t2KbuR2dxtPPjsAMP7jSq+HFxlgJKDjukFHkk1TRMe4wVCgq0zgKsoO7omL3bCJISF80vhPmUrX8YptzNHUdm9R58pk9qPPdcUipNyTbQ3KyHY/3Sze8ei6mhl+IZVGH7+dvfXe7ef8n1pnnV+2V1i2xZDFzv3L47YkYBHHtVTPMdRgSuxQvr/kupHNkloozZp7EiKeP4XEXZ63l+6zizpX+key5LwtGBCJ2x0ZF7sSyCWJLhKzHFAwKEiZJpuSQLeSQJRoWn3NKgMNlbcpx4yZTzLIRRwrCI+0wxAzsdDVKiUEfmyosZhhLlw0HsYMWmKmngZ2Fcq8tKZHKWFzBKhjBXpREKggLIsNk2dR5VRTsZdIsm9oROpEnpLPmGlspkFlJ+d7g4otnDZ4sLoToCJ4M5uNjMf5xZbzLXjbTPIoOiHNRPYI5pjZjYkDM4IPRU7bj6O0wJM5KsLnjkNeNMmG7A7hhq2AXDGtKsVUmuNJEdnBnKjEbqfy8wSv0aXi8d/EF06TD1fbLHD9S24SPGYtRQoDy8c0UfGR39eWzzDt/aqHM6lpaKDmM4XtYBvUfP74Oc3XtxYAEN8qKUJ4Yk/A5HPaSi2ZgudX5GA49adB6G6XHyOEHeqdgTffx43eaA5jX7BDamDoXR6g81ajNMJBAQCbBaoHNBbElQtZjCwYFGTPLKjllXkMVJFPKslaLv1mbigJHNRULpMT1r9BhZE3GxhVPBpU4k6K1pWO5s+ioJCVSGRcoNgN3XNSOVEf8WlRVscyqKGh3Sy0swSRkMBGIsrGNjh7E/E0TzU03LDS/+PZl8u1DgB8mwalC+HfVlbPMg/g47IGVMzDZ4C7zwiquBb1HVjfjxcTxeHHLRyzNg1zK0lmgLMJj3GEob1lcWVZBfSbDxGykPJRbfp8yDd+zXIUZffvSk3j8tAbvnTivU/7qmNOas6O4/NKZ5h3oKE7DsqhDEhefuhNfgvPR06OP78IdSzLqrXKAo1+RiQBPP/XIOwrGNxdrprwBQ3o559Q/fWWzrKYoXweo4zWWxNZivS5zVMy3qIa1PvNVc0OUMkyWjWbLYzjKSDUVNUxywB6NDqNiWbEkpMax6YGV9uRFQ7bD7ixC3QSitK1EKmOxZDGFRphhEnmURMoq578VeYXld66I+MMU4rBZj5Fc1QYlicCRCccbwhaNzY2S4slo6tTx5hXXzDO/8cvLcUIZ/tVuYrBJjseVIL/S5h8XXbpzxVZ8jLfdPP7kDplobsfIAay/fUC+Cj/+eDuslteO6q6UhWDZFDNxWRSy0SgDLhCJEetC13sDp7QyTJatXglmmJh1VLLh8/k5c8aZC8+d1iy+D+c+LJ+6Huua884t2kQEOINzeCr3wdvxjuK8s/oXTfI2V8DmxzE89s67d0jbKJslPCX7hY8bOULqS/gW4j3vGDYc2/tqbTkZ5bt/dr7hy/tbMeX5btxh2JFeiUZSYEsmDA8jy6eu7zCUasOawtBoxmCWSVWYxtTPjRqTm7VG+Tuww6jGEa1YCqCeDqMdh7NVL4x2JEWLx2ZWUhcKuEl70ga6c8M6C9oIngNRWlYilYlYxVaZiEndRcdKHjMVGxWWL0BVFIwlUpJMqjGSkWEKOTFMuKV/CWci7ORrr55n3vOuU456R2H9xF8uoPPa6+fJHyc0vBOdBtfMuH/lNjsSCyc1XgEfxCy2vKL1KbadpGxe6LeFKDZKD5FtwAVCidPqs4IMx6xPoW4rmCAjuHJgN1WcABu+IJ45c7w5DV/P8yTclx56bBe+okZnIf29Lb/ooAL5Md87fmqBuRhfgA9N960cMR/59AZz+/e2om3YQzEL25ryJwoI+a3NBoxcuhe6Lx1cUE4vP9R5huNw7d9+7yKZAuaBR3ZhNgCOiMrqJAnOhpQwMnt2P/fJvZLFFeh+hjocrTWt5KvOe6phyjbp0ZV25UWy1b6UqMh0YV1bAiQei4UBOZd0A6BDN/g5oiVaK67JGt5ZEC2BYDvGqwaqtlNWid4HFGJnnGEKYxV5hWULkIySyo4FazZTzLIFBnLG6VNC4hn2AXQUmFn0x06UZTo95gexHY+RNNdeNRuLJs2Su4o1GDu/4u5t5h7MPfUQ3m9s2XxApkWXK0iUQRopy8qd3GqxlKcFZKMEQ7GcCcssFCj1u8HSdYaVSTwgxUFmK8vaDoNqyYiWDBOzluKcWgsXTMUUH90r4tEqp8B4fvVeM4I5oSbixGrTIZywjbkMQ27f844l5vyzh99RPPz4bvO3H3rR3Iv1MKZMRu+TnNVinM4NN07OqiC5AZ3Wt+7YgZFQM8uX0onaWEh2GP/7r55o/o//utqsfGQn7pbYK2Z7l8ExgW1DqkZrMfLbIVcim1Es6lcZFCRxVTFRTjFT5DCXKWVZImwa2GE09b0dbFlhjEIH4gBW5nZzopSRvQCPTy5mPCvdDrYTlcbWWXg9KVdH7SiRylgLBatgeE/JLm1jolFSyZ6oqlim/PLHp0StaEgeo7aJ8QrJfTF37kTzxtcvMi/H2hND070PbJd5nbg63qmnDD/51OzznM/OgCOp+GU4Pwp7LUbp8KpxDRZceuzJXeaxx3bKwkp817FnL74dAJ6jbTjclx//yTDK1HhRZ8e4w+jaLz4WhckO7mTfsBgxa0cuLZo/3lx64fS0hAXNfXnnPTvMDnQYx7mrbd6VsFO9CC/Gf+3dS8y5Y3j09DhGVP353642j+JORS08lRzAjJNJFc3JecW/ddtB85VvbTOvQmfRSmvxyOz2O3eYC8+ZiiV0u+cn8zb4fcZbbpqDuc0Omqcw6osflmZRWKirSBuSy3gjfhsK0ZATFzA+ox/xiamqepUpcPuTyJ0P4egKBTRhJCqJIZBZm9JC5Jyi8yPixKyGAxSvgrUotdPUpzvnCO2vmSQk+QkQnSO75ARwhTi8ziL46XCmRCpjwyhYBcOWBehYtxVMUagMk2VT50qkMkQlDJJMxb7JME7Ofbl//0Hz1jefiqVQZ1vdAb9fwwSCn8BEgus37MXL60mie+Nr5puTjsKqeGxXfF/i35mciI/EOLngtVjedRvmkdq2YxSPqvbLC/LVa/fI6n1c1pWT5TFJJ4ILap4s2YHoqUKOYYdR1H1S5806zQ7uTEVM4mfypOPMUqwWx+lY+tKd9+0wO/Huh4+guCwpJ9g756yp5lfffeKYOoqnMFT1L9BRPI6p5GUW2uJRDwJLTgJZ6GiWdqQUO/ZHcXeyClOBLEMZEhVM1bHf3IIP++55cAQXBfvMbUt2mLe+fo553SuHXbTcdD0GS+C9CG3zceVxeNeF37KKHNtuGpig1SMP4oa1IA8GQSTMhIyIkmk7t4hQNsguVRw4a1OpCaGbigVSnMSTWiZ3dwQwl+7TDGSzZWE0TEKKxyb3oIqSGXJ6HVmzh99ZOD9H9EhKRR4M2sjSX+Bi3RZKKbJOV1UssyoKVjJplrWwhAmSOZ5Ml2EVuxtePW/QFOUccsmJAz/2KaxHgSVU9+JEsApX+t9/fhfmhtplLrxgOqYcnylLqg7dsaEIHcQsPK/nH06bguKL2nW4Gn1x3T5Z/3vTlgOYwXY/ZsDdb7awQ9k+iqvrA/gblTXC92ABILYz6UC4RUZoWBM+87QsP0k9iTf3U7ALhgUqtsrYSidK/Di7+dVgpsKpu5dh6dTlp/RfcXOp3IcfHZGrbZ48+X6DHcW7fnYxHmF135X4aLjlHcU/fmQdHj1hamCk5lxffScBtDJCduwcNbe7hNqzAABAAElEQVThzuHnsdIe0xOw/8BDuwzfOTyIv/WYeZiPCdfjkRUfn+3Ze8i8+cb+i5cJWC/l2sunyTcl9z64091dZBUoHt0PRPb4bGACOxCpdoW2uAJdMDLVqrxkltWbYbJs9HKUOwzdYKMbOYvgDgtx8Dg6oiRl0R1GYW+goyPrLILXZu3aAzkUuIIji6kLYxGuCpmp2HEYu6nIKyxvpyoK9jJpls39HcKwyhNw+XnjDYtw1do/fHI/Oopvf2+z+fv3f9889xwfS3DqBqxcBz8b8SLzn7+y1nznjgnmqsvnmqtxF8DFkhZjksG5A2YuDUUYSPDxBu84+Jcmdg6cL2gtTj7r12P68437EJu969iLcf/79h2Uv72Y/I7fAezH2s18wU56FFfhkrh/feeBnS27Gz9+tx/nXwNYGH9Fzf+EXCAqO6LC8vqyTeR80X861q44C1/HdyVOzvc0pnPfiLusfSgXP+A7+8yp5qffstBcd2X7EVBukyfyj392vfnarZvFBjvWzpQcwEnYQYU3JFwC9huYQ+pk3FmwM/j2XTvwTgojtjAr7iS8f+BJn9XIDu7RJ3abD4ysx53l8eY1fM+R1HcwmhB8UX/N5XvR+eCjz1oAHksZE7ZH3GEoPzajWM6PbhoZIstKbJ0FsIiikFU7xA7sMJr63h+3XSArS5pBqhjpXoB3EzuMqJxQA+wceWcRyhuIJAJHKpHKlFjhVDCOFSWRqhupyCssv8NEVJXTelOQuI6YyXhh+cabFmAup/4ZRrm29t9jtbtnnxvBFSufDyNhx/FUwiGa48aPM7yy/ZdvrDPf+NYGc9aZ0zHaaT5eXM+Wr8CnTR132B/5ia8BP1wT41z+nV2O9OGqbXxstg4nKM4vxBevW3BHsm0btlj6cwRDd9khsnZ458ITl/0DDeYhZNhO+Qcq0J4nitBlnuk46FtrzJFp72aYk2RZLlM5sBP56cunSofhwNUNh5F+FydhjiDjIyh2MOwobnx1/xW6N/jc83vNJz63wXz+nzfFfZXE4XHFloV2nUoOJ5sd2RNP7TZ/9tdr5A6QsXKKEK5hERIU2TFwsBcfT/3l363F198TzDmYlbarw+B7rnOB4SMuzkDL9tj5FIFy+JI4WwNgKGRqySkTAySYbEaxIlsQ9idDZNkapgrRzr37xI8nK+3Ki2TrrNedRCTl3qdUcBRZyhpImkEOcDDgei8+CMWR43B1dxJQ3Qe4wzqLvmhtmSQYRF13FjAUq4zFF6yCEexGSaSCUBEVeYXl4xFRVU6jiSAhU3cy3h4vBM/AIkMnL53Su/+exLKoX/zndeahh7biJFLZFXKGtO8IJsrIFCNTlj/x5E7zgY+cgBfnc8yrMVT26iuwmA7WS2DqazNpvEeDnodpJvh33jl1a+wYeGeyZesBjOPnu5GDZjs6ku07XsI7gFF5tMN1G/gtyAhOdrx634f3PXwJz9FK7Gh4d2KH+7KDcR0KTt6HZP0GfDktdN1/9UoQMXHI7Kn4Ct6vbd7S3o0JA+/GiKVRfC9zMvDvfvti82qsETE0sRP9h4+uM1/9Ju4owigqaqMR8VKcqXHIiCw59urN7pAMpSV2kruTEL30B4rWxSF5nPjf0GH88e8s651scDFedl/58hnmM5/fiEEP6HEkAP4wVYJ2LBun/bXY7DfYqdggVKk2rClMoZTZ8P4TJZD16k8wFbPeUrVdRSEoZyczpyAh0wUaaCdpJ8FslbD2ujxW1cCsnKEa0L5g6J1pjFcNVsn9FiXIGN4H4PaWl3oZxpmKm4q8wvJ2RMQfpqItJ4oVDCeP4wvkSy6abY7Dx3J96Wvf2IhV8dbbxwVNcOKTIcEsHxfxpHrHis3m3vu34kpynDn/3Jnmumvn4OCeZRbO14+RmqZ/AAJevc7CV8K8Ozn50CR7V4F64nmeTYp/ckeR5MkTrmxBuW0eLm3sR4fyq7/zmJ14jydLJo8PuwBASVb+Enqwc8+egUEE/Xd+7OQef3xEXoL/+/cuM9dcMfzR02a85/nTv1qN/bRN3uWEcFw0vs31N2EUyF0FFEUTW1HeZYuP+vjo6hF8Kf7N7+0wb3otlnadkdyFhLgssRAXAReeM8V86nP27kRCYABSkEBELR8cOCJtnQuoL4CKDW/N20p8FegqgwZcTSsbqWEtFzOOZVGZ4SzrLbGNomZitqCcIjc+KT+eiS0bffNKj/fSUOyC0JQ9cDrsECNAhSGrFRbRPg3vLKjRWSBnUjx3uFcilbEGClbBCLixdRhUS6qkatYygygQ1mVwnNpJRBzdwmfF5+Fr4L6+4sGV2/E8eDuurA/U7yoSu3m9s00xtFG+L8BVOR/17Nx5wDzy2A7ziU+Pl7UzLrpgFjqt6bji56OjpNyp3R8gbR952GG5w+Jpn8TSsNlBc84sbvuTPbg5XQdfTC9Z1N2p8tuKlZh3azY6u9/65ZPM5fieYmhN8i7qff/PC2YFRlHx7qg9yZ+LOzbmejGyY69oml7OAAuhM+lc8fHVV7651ZyP4b4vO689PJsv8jljLh+r8h1PSJ5sdQYEso0CV51mxuuLQWY6ajWILRGyooufgkFBlek1qvJSI+Nk2WhsYIcRFdqUtGHURbU67BdNfje3jUAyDIRaqjpqmh5bZ0EzQwKRim3WbrYvKziymEJZKhiLSJpFG+Og5aaqYplBRIIpxMJMkFrSyWUGU1zdnnrKVBwkSoEIlVbcu8288ALmAsIQTEmJSQX0mUpD4sgjPh1gYqfDDmP1GsyKiuVYn8DQzNu/Y+ePWrZksjnl5CnmNDxv5/cWxZe51sS/yd99eFwVqy5SUpgsawvI5/on4AO6qb1rbW/GglMb8U7mve9eiiHGM9ujl7Ka43ubv/7Ai/g2YztGtr2EQQtdV5+JcjXeVA5A0q4KuD82u5uetJknn95tOCliV2dBz1OnHo8ZbcfhndSo3BUm7l1gRRSW79g2pA4M0V2dDuVB3RIhSxlTwciYfXIxAjPA6fJlilnWqWFzFDsMFqZx4eBbehlnjCRQfSCWhb50gYN6jRh7ZyE+hjphRI2Wq0QqE+NUbJWJGFBREikFCJmKvMLyFquili2CsYPGYXpqTj/etw+exUprW7bucy8Z+xqbd9qOiFeu/JiO9c2ppl9YvQuPZjBEEyqzZk0wJ52EjgKdGGerPXERRlNh5tp5WGuaU1vb4bPex7/BLaslpKyO0ixoPopZiqvlJQPWpOZd4jl4qf+a64a/o3gRQ48/8U8bzC1f2ySP2uxHd/YxQuNIcJGngYbClETvSYCF7PZEo/swPJvreo9g+PM0jJBqJTRnvA8bj8ELoyVkaMjQrHxqF+2JnYHG3NFeoAtGNC9UVV5ldis2VfqOYafY1E/ddoGsrK8ZpNa6aWcPoL5Wc3idhXjvKhAAQRyIMmYlUpkSW/NJFSaUMmpHygrz34q8wvIWq6JgMpMiy8ctQxag2bZjv4xy4lBMm9DYOpZojS7hpHIyYCRMPCh553A8AuGUH0zyARceUT308Da5OuQIqpNOnoqP8qbJh3nL8aU4Z7CdhGU5p+BvEh47cOqHIfMliYMfup9yvzBEHmAnoF5ejsdJ09IRQ434+TXzWFac45xNn8OIp49/eh0aAkdppYYHdhiNq8rUUnoJnJXUwlhQf+g3zgCcjXj7zpfku5lpU9ofJbItsS3YO2XazZK4Svyl4oRtyYSR4gLdIVeihjWFodGMkWWtW8fkBqkKybl1ELSPYofR2RvYADohUhjgKucKikISU80CBRiJQZ1F1RSZrMSuYIJiIKikkxKpjMWRxRQafRsTj7MKxlpxvxV5heWbjoiqcpqLAkupM4Tymmbk4GMnB6VYhWPoMFghoU4iKTFoo67z4AJJNjbeeTyLRZOefmbE3AKasUybdoLhnQeHky4/darh5HonYUEg3nX4aT+45d0LTyAx5rRU/3o0iyy7giFIvdi9kUYk7zcguxzTr8yYPqjpp+qd9MjIQfMxLIX6iZvXs0LTXZPojaHDoFayfxMjlkz2cVlSQsDt2klO3AVxjtyjTnppJAnAy7OgRWb1bMgJIzUX2IFIpc4ANsG8xRXoPgblTMEOM4kSSMkpeYapZMmy6Sh3GAy0iIWebMxJM3D+s00vwJuybTPTVtkxHTEMj0nHboO2kspvUOrAKZHKVAyS1cCAfcw7DB+RqoRGPB5b2S6YN1GmLt+37wBehqfGXIdBnZRd2NA+mWOiikjYSJir2KA7dhDSdbhHV3y2ziG5T2A4L/oC0eOKb+ws+L5jyYmT8JHhFJkQ8aSlk/AYZ5JMyw3kD3HSdcTObgruKC44d6p8GHe0AucIo7/6x9Xmlq9vltFGfJdUq3frb2CHQQM6/DLc5ERQhXo5hUzcry7x/dq82Sfg5X3fKcA+QJJYvHJtGwIIREQl/q20gvFoEfXIiZWyNKwV6mQwJRVgGcmvVqpraEx7/4yhw/ARNEODz3hS82i3tfH43ZwJY7YXAKiY4k879bUUp6kbuA0xiECAo054FYchmEatFEYznJLTfsEITqMkUkGoCMqZEl9VFctUIpWhDTKGp3POmm7uw7DX554ftVfqStU1tsKHAsGlA2ThE2Ul+G02tNSWRfOOw44qwv4Gi8Nz9+A7A0758eDDx8kHX1x7ejy+TuP3CdOmn2Dm4fuOeZgwcT7WRJiPIbvMz5k9Dos9jcdEihMM19s4lqna7GxxnFub4cmRj9kuwEg1TuV+1BLMv+8vXzC3fnuLfDNih0yDyXr3KSEtSx9PHqa3jBupb/8lJwKnkbZm7tB4bBLgYpmGF9ecF2vII9MQPitRP1uTEMNPCCBxFIQgnNwWqYLx+iKqyHNbEpjFFeiCQeWESZIpFI6ZTA5ZwiEAKeNkWYvhrzuGIyOjMsUsq8EQNtuBVUx3s9Z1OQKYqgeMFUnRHFnbDOssJJ7YwFm/NsTEZG+0XqnQjEaUSGUspmAVjBBYlEQqOsqpDJNlU+dVUTBHKRtJf7rumjnme3dtwZX8Dnk8VNp1ja0UZMbrgLiPIG82tNSUHZpn2xK0aQCJ1jmdx969oJlB4jmDiR0HTzYT+Z4Df5NBT8CW72H4ESE7FL4knjIZf5jCZCpO0lPxMpXfhXBa7kngTwKOz8QnYlI/znDKL5D5rmQ8OyVsxzGPDofvgviyWC7akwYvd0E2HP2rqoUf9XFY83hzJR5BMe6jkfZh6PL/9z/WmG99dyvmzTqQfUuhAqi4i8dTRZiwYKdv/2XHXuHZy12j4NDhK/C9yCm4QxySaC+kvg6DQAmgiCKYEAjE1WG1GoVcx74KLiwRst5GwRDP3TbTMxv1kcSMCiMznGWtFn/H2GFExQoFJ812YAPwu7miHFmDQBGeUsM6C2pIPLqBF3U0OJBCM8akRCpjMQWrYARbURKpIOwjqiqWWRX12cvkJ+IxzuWXzTKPPLIdI032dHcYmW6R7aj3sUVclozHiH+/Qr/xPM1vG9CR4ITJL7APHRrFH9oHeOHPBcp3Jew0pPNgJ4FOgV8zc3W5iRjGyjmMJrCDAI5DieWPy4uSllFefEeCP74vQUCMwcfER0Cc4LD9HYMNgl9+s9O64rIZ0hG50A57sxPvKD6NL5u/9JVNZie+c+Gjp1g33mxZn15it/p40rIs12sKgDKAaIQ7BSde/k5Gh33Tq2ZjloH2i+2oaA/9NC9XC113GAHcHXSMSJ2Jg7Ylum1EcMNan3pVXmVGV0JlmCwbwT+EHUYMbkzU8M6CZqVCYgNntkhslJ2NFhrSNpq16/x4yxWcdxzaWIZJ5FESKW9ZbyvyCssHJyL+MIU4bHbo76teMc+sXr3HfOqzq2S66vr3D2hshzFKyofOrY0Vv137ZWDQcffiTgT2+I+TH9qUVETiizr8gJATC+7AtyCMhz0Kt5TJFRO2wpEtAcy7xCuqVoJoMjoB3oFEhQwMQ+yoOOKL71uONO3YeRBDYzebD39qrdmFtavZgyXFzcyzQAiSRWCBiqLE4ylTTLJVxUTuyLhzqq44Hc14dNDXYUGsKy6ZOugRlHfCCFQUfXcYCuyt+DixdfVgYRUwWT51fYehVBvWFIZGMwazTGrfaExStRYrvxqTm43AgR1GNY5oxVIA+faUi3wAWVglDIB2gy3gnjG2zoJaUiA0cDlRFNVu7dZr1vtMlDpKpUQqU7FDVgOjJG2MNVqRV1jeV1VkDQ365d3Fj7xhEdZU3oX3F1tkWov6PjyyDoPBSKx9+0Wi7i9VNNOFjTKWSe4E0lopCspup5ICMxAa5NkMSpJnIONY/PqY3768DFO9H2lih8dvKP7hQ2vMCKYIP95+3NJjFoH4AzxWS6IzsMPwnWZSxMSIJePOUUcE5+gah6P9VIxw+5VfXCRfpRe6PQxfwwE2qMPwWlnQvh6wFbK3Q/AKwXsklMhmFIvIfkYvJqna6Ds3XPjx0IEdhod3bptOoGXbEsMqDrHUZr0wKaKg7VjKgj2EwaA6Ujh4Gxgqi4EOK0qkMh1GExFV3F/UjlSCTMiKvMJywfcWITFcJc89Z7r5rd84XYar8hsAmYkVyNIlO4yqCc1kvSc4T/JQFbpvv4g1Ir2mNu9z0UwDJyYaMhopRI32FHCB8CHYbcEuGPK+ghMtXvayGVr3MHIf/cwG8/6PrZXFouyX2c4fN6XrxAOElGfnzAholD8CQDkHnX4IiwBStkkcwqi2yeb3f/Mksxizzh5O8m0oWqdxngQ7UgAHIoLJolH82ZArmIgG1SFXIptRLNrpZ/RiaKIwk3NKAL0j9dSVt9PUt1bk1+7UhJGS1kDSDFJhpHsBEUrq8DsLiUeXSudovuSQq1LFTin3nIq9glUwvHISTRtjwZRnmCwbcQ5ZlQfXncSZp081f/KfLzDnnjNDnslzJTam0qTrMEpBZl8DmOOfP9jTk0mmmGW1nUyYmOnCdcgo8n9ivHHCDCYCoUMp2JrBObvm4SvkS192ZHcW//DhteazX1xvNm/djxfuxyf7J/GXkDpI5iD0cr9VoEb5M4xkq/oJ0J0IeEexHzPmXoqO8j/++jJz1umTu684ExOBrPhSrCPtMGisr8MgRpwqzyFEIQKGOYsr0FVGwdR2w05zZgEvz7OZjSwbDY6hw6CNph1ahLApd4Km3EXEgpSFcUK9OfzOgnYkkNjAw8nI+6B8SCDOjlcrtiL3XJWxzIJVMGysYEdJpLzlcpthsmzqPIgCUVprcfiu4gzM2/T7v3uGef2NJ2Lk0HizB2sgM5XmXGMrBdq8NIKMhWzYR0P2i6h3O4pmGjiyI0gHVM3F9qTEwXwglLisKIvjKKi5syeYU7EiXv2dkDbTyn3wE+vwMnujLCwkX6iwIpFiNJFKmBakfoEjNOwIJUSmUX4FowFnR/F1ho/M+OjpzTfNM7+O5V/Pw8SBnY8mtHrMSazlSY5RhDSkwxAFpRXUfZ1YaQMT0D3yIG5YC/JgEETCTMiIKJlls84wWTbaKusyykg1FTVMcsA24bYtlXHWzDSNBPDY31kEVUfQB5432oGX9hjIIXKy6Gulzk7Dgq0Qd4BmGevOl7ULQyRw/vFx1U4RfMaQODOe7C070sSHkSOG5Lmw0bvecZI5ER/AffVr67B2xU6MCLIjhEKxxBAbm3uhqwWZm2qw4Tx1HFtR334Ri3U73lk004GLIK/WsY3tSYGC+UAosdsNCQ9DZnFXsXTpZHMuVrc7nET9z9+yyXwOdxRcPIiPXY7jON4kxWgiVcaSKOhGmAoc3Sh/BVnzww6Sa4CcvnyyefV1c8wbXjPbnLKse4bdmumSl5QvRJocsewwjnSUFFzY47P0JS4DOxBlmOQEsSVC1qMLhlJK9L1CJnfssllnhrNstOaO4cjIqKZihmO2C2tlZZw1M8S205F3FrQt8fQ08EHRBmP1iFWdqEzEK7bKRAyoKImUAoRMRV5hWYtB6bCJ5Zhm4x0/h4Vp8PL7n7+8zjyBDmPLln1mHO4+9PDQvsbmQsjqvQg9kx9u4NFM4SGajKDI81Sh1mhPARcIb8FuMzaXd+XkiRecV67ypxXLHIcF3/rtreZDn1hr1ryID03QQYeOIvMTs5EqLaYc4OJVSypwdKP8Cql9cbQTq5hTt5x1xhRzwytno6OYI9+xKLWxZuiGSdxpn1aQ/PZ1GF3qiZ+j0mGEsKzTwnXBCAqWqMqrzG7FpkrfMewUm/qJ265jy53tOiGJqRY5sLPoKxTMs0D46V22r+tKNlRKIMq4lUhlSqxwKhjHipJI1Y1U5BWWq4S6iTFw+YXxW960CM+ZZ5kPf2yV+c6dm8yWzftlBTmeDeLjFOyXwxxWy3BCEdiKeL9xGHcpabFiYwyWU7GlI6gic6wQR+OEGcwHQttybG74Yd/JuKpejGGzY0k88X77ju3m7z+0GjP47pHvPYr6ydzHbBJAKEvNO3A8KzJVcY3yWw33a5eqZYYfQ87HbMIXXzDNvPOnF8paFAp6NDJStFhSmtQ5MtAuu+4wKjaK0IARWGuUFIVMLTllYoAEk80oVmQLwv5kiCxbw1Qh2rl3n/jxZN+51VmvO/FGXFgO1GhLbGRdh582VuYGdhZU7CuUN24DbpatL9qgGAhvOG6VSGUspmAVjGArSiIVhIqoyCss2yqU4mFnluGbgN/De4yHH11o/vEDL5j7HtyKhY4wVTT9hjSGDoNnpKwheVP2IVomDD48EdGek2/j7q1WjoN3yQBRbhonzGAiEDoUsHnCP3nZFHx8NvZvK7526xbzPz76oqzAF2ffrRwDmfuYdVRk6PhCLgEkZBCjMvwj3sjTFNcG5xfznE33J98yz1yGRa+OaWKc3EnJhZ+wwA0taHCHQVtBixmbHMtWif31IrUVUZ/cazSsFeoZI8taawkTZP0mMcFQKcv6qPrPrU6xqR8tdTiJAQyyk9q09Bg6CyrwYGHSz2wtz/0ykKQhSRYc1RziGcUpZZug1FEqJVIZa6xgZQxmXYo7OsN4QNhW5BVWgB8l4tyzp5v/+l/OMw8+uN185p/Wmu98dxPWsN6Pq93jZRoM2S+8w2BSFW1Z8bceLFVEwv1CA502aK1uhxImv3ubpznrDMheR2KP/qonzBBGIBzebvjs/lysR3Ey1vIYS7rlq5vMRzDNOGfl5bQjuriVYyBzH7OO4oapWVwA/B2GRWa/ZfkZxSF0hhMR3/V4L/HWN87FC+ypZgLuLn4giWXxOzpxGMtOOaLsvcOgstKy1nydeWnrDkLiAKglpzVvS+rf+io8VhlUdjtN2SCfKVECGSBOpcBkKlbuf7lHu/ad8+WdUE358XawreyXKLVticEmfX0Ud1Bj7Cy8pb6CEeeC8ir5trNADiz14yop12deiVTGogtWwQi4sXUYVEv2VMOsNX7kv3zsxGZ00QUzceKbbN7yI4vRYWwxt9623nz/+V3Y6Zwqg4+ncInZF0ul3r2K3eI3VkZH8F6rDoluGjiy+1qsUi1PmOI5YAIRAnoJA8rOOQudxbLhdxZfxsyxH/2M7Sji475gMiGyYyBzH7OR6t43fTj7uGkUS7TyIF+MBaxehUWZrr96plmGxZzmYREr/U4rCfVYkAxXUhJ3jTOkw6Be18ke5bXtqfQlder89jb+oG6JkPX6BYOCKtNrVOWlRsbJstFY1qaiwFFNxQIpFcZzVHKaiiB76RWP0Sjpog6zs6DJnoKxXL0nA4D6ujepn45KUiKVYQB2X3MbKq2CoRwpSiJlJbXfDMNsxqpped4mLL05HWsqxMWPvKS95eOQ+ZjanH+n4PEK55Z67Imd5v4Ht5mHH9mB9xpYeQ9zKXG1Po6iaia2kqwhkRMTckepw7BuOiqmr8X6wGT/ja3D4HxQixdOGPyC9zZMCPgxdhRY64OjoNTJt1qE7BjIMDEbqe42AlxW75z7il+gj+JbCc7uew7uHl6Gl/XnYnvaKZPGtDhT3L+W4rQlbC9dK+XlOkWeRasc50mJIUY9dd1hOBPNDsMZs01FWY7hSBzIdnU6wU8kCmsFI2JJ1fdfqVQ26wyTZcW2/GRtKgoclSgmZAETBgBZe/I4Hkk8B5RxekS5PYLOojRW57igIAzn6xQ4ONqOmlEilYmeFFtlIgZUlERKAfoyVBuQbv7CWplQ7403LZSpvAeoKMiiRVhfG39XXj7bXHrxLPPAyu0YarvLPP/CbrNm7R6zdds+ueM4gXcleFxV9sn18kUuqEZDU4H0ZYLBQFQ0umQOHiBj6zD8B44Vp4HFJnjXfTvky2yu6RE7iuDUYrNsMJASGSZmI5XCc5qTMfKOiDPDYteZ6dPGmSVLJpmT8HcGhsJeiLU4zj9n6uAOMLfP/E7MZ/Uv39oi7e9lF0xFZzHgi26G35nK8inOkA5D7CutwqOVdmBE1CFXFhvW+tSr8oRJspoSDOVZNqqMocOISg2q6SQEMPQUfISdRV+hfDxdAbOMPfIgDgSVdFIildG4kMswzDLhAI2SSFlh/tsnz/Ex/41b15sX1+01I7sOmDfetMgsw6MSLs4z1sQZWy+7ZJb87cRcRXeu2GZW3LvVPIlFjLbgS2NO3LcLPkb3H8TFnZ3w7jhc5YmrRiuJVTGkfP2Y6KaBFXZDVq2QYR0G7wwef3q3ueziUXlMUzUF5n0P7jAf+Oga8+DKHWGW24jN4mKWKeyqyjFQUbFwJ0jkrBs2OOkksOWMuzNnjJOV/Lj29al47HjZJdPN1ZgtdzqGxB5Joq8XVu8zt9+13bwfL++vuWIW3nNM7jEpwXVjQl0AGyum1OnrMLrUE5klE0bpCZwOuRI1rCkMHWSMLGtD0Eyds4hhdoittCtvQrbOet2JQhY+ldQaiMeoEqrMEXYWtNVXKEAkHnuAUyO0LWaYKOdP18nSlsmBCws0kNVJULAyL+c2qDcwkEdJpKKhlOqTp9hIT5823ty7Zot5/wefNStXbjP/7peWm9OxJvaRnBCmTx9vbnjNfPnjwkV33LUVf1vMgw9tNy+u34M5kjD7K7474GMNOUkxHBB+um8fna8eKdmQVpTUlreRb8UfDDdHXVlnUPPecwt5vr/D4PTm37ljqznztCnmDTfMyw1I/t4HdpgPfnwt1hbZGmdhZSw+STiVfaxYlWNAyXV7OsQ7NueDr5nkGxqu24GOgkNfL8QCTVdfPstccuF0tIeOx4k+xp4t657fjDzxzF7zcSz9+s3bt2B9kpdkWvjBFyhdu8WVxe46XXCdQ6CDOgxlMJYuMWabZcKIqKSyG3JilchmFKvAVBhUYFJ1k1gBKTklp0KCqWTJsqnSrrxIts5OZk5BmKHc+yxiiTI5RpltpEGdhd0xDQvC7isUQFKgWCqJH2wde5RXvQWlDpwSqUzVZKjEVOr8xKcwfXb65KlxR0OF7xb4mGTFPZvNyoe3mzf/yIn4IA8TveHl5ZEmvgt55XVzzfWvmCtTgz+/are56+5t5r4HtuMKepusAfESJg7iXUZeB7403DdCSytCTu+sLEQimTpA3rBvuFYh/ooJ/LQuGoK+V+nuMDghLN8/fBgf1XEY7ZtunO8VZfut72w1H/7kWnMv6qR/xbjCubJlL5rISk7umUrMkkJCA5uFu4jz8Fjp4gtnmMvQOSzHtCRc56P/mLMmhvy+uH6/+fQXN5kvYu2NkV14T4E7TPU+ZogRaQOImwcFU8duzoN3pY0qgzoMOok1xpykxJiVVjAptusdhlJtWFMYGiaDqbMClLyukRnOsuJCfvrOrU7RO6FOMzSA4kktuhCqGUDADeosiO5vvCwUU3KwWEb8lXjiAc6sCpEZclonC29JlJSml9itEqlMRU5WBWORiaSNiUad0oANrfnEY2fPngPm819ca+5ascXc+LpF5s34KG/RwiPrNHw18lHVaadOxbrZkzH31AKzH3cdz6/eax57bKd59PGd5ims1sfOZP9+3GXwHQd2ISfK40mFNmzJ8dtsaL4k3HbXU2xHXbgOGUU+yUER25Nny9aZ4Cp7z31/l/nLv3nefPYL66Ue+B7nme/vNqvwbmcHFk7iHUgzbhWKylgVOlMHpzu4AWVnzIn8+KKdf9wPJy2ZjHcPU805Z06Rdw8nLp5oVwrEglCTJrLurTG/76Qsh/mzbftBc/OXNplvolN8Afub+1dKoOIdg3Eq+8M7qwqxQh6TVCcyWSGUypAOQ2wpLTEvP86XbZIVjJPbAlfk3pLHSZ1YXIEuGFROmCSZVL1mcsgSjsXnnBLgcK5NuVy5yRSzrMZD2DyOqdhOAzsL6z0e6G2DvY+lxJQ+wK31xOYQR85OtoeiEWVUZSymYBWMsHejJFLRUUpRPjx5tBxTaEy7do+aZ58bNZ/69Ki5+54tGO00Byf3hWYZ5jY60sST0BR8Gc4/JnZEZ2O22+uvmyffbHC1uVVr9ppVq/Zhu8usWbPHrFu/z+zA9xzSaeAkIS/L0YnYDqVnwR995Kjw4+5t1KewGzJlyWd0e/JcHousW74s3oQv4LdtG8VQ4z3gHYf3OKMyf5LtGP1R3vCp2EkGJO9Y8F86A5aL33bgFyPdxpsl8zFaCfN8LcUfP7Bcio5h1qxxZiZeWs+aecJhrSkRytZBbERZb/k6HkHeg4uAFzjY4YDUATtF/jui5HcezbCoNXPkM3mszVkWfoNKX4dBDfHRciQmnZsGJjpLPVvF9DeoWyJkPaZgUFBleg0tJ9RzQkyBIzL5aZocY4cRLVYoOGl2GBW4Yw3sLIi2pajs/7b1lkRM6QO8qKMhjpydpPlpj8qoylgcWUxh51UwlIMd67aBIU6SN+rzXVt3pUcI1HgyZrG5zOrGTXvM93FF/OTTI+bC82eaSzD1x3nnTs8v1rqMd8p4Ep01a7z8Ya05wfK59oYN+82GjfvMBgzt3YShuJu3jJqtW/ZjWm5s8cJ8+45R/B0wO/HifD/W5uZTLNri4yxeFPNEHHhghKrNoom7t1Gfwm7IMls2q9tTgMAE45JPUOCU8bOu2QHaO4qAdIT1yfjKZWLhA3x2EGw0fMfATmHmTHQAM8eb2djOwQy3c2bb7bw54+QdxIL5E8xCvIvg46VjlRjXE0/vMQ88tNOsfGwXvvrfZVav3Sv7YxzXMpe7p6SIRxIInclOH2DEYxOorT0fC06C8ig0AVRJpRURZCNZaQXjWbL1GavT/rW4Al0womexRTmT2s2lUlklGSbLWqP8HWOH0bRDWxDGkxoZvWkMnQVtOe+dQRDXVyhvKh7gNFmkslYLiGV0BKREKhNtKbbK2CI7ZJREKhoBRfbgFMHBGggegxPwspNF34BO48tf3m3uvHOzueyyuRgmO8ucjZlpl2GEDKfdPtqJS4/yCph/adq6bT+G4+6T0VvrN45KZ7IZHcmOHQfNnn0H5GUpX5jybx/zeMzF6bE58yn//G6UYwg/0oUwIzTLbGuAZbfJdTJks1KFH4RSR4ITeVrtsT1ZO5AlNiQOGOMxIncEaKbOBLaWsrHak+t41AfXBZ/MR0STsF64bPm4CDws5Tpt6ngzb954s2DuBKzENwGLCuFuAncPs9EJ/6DSVtwtrXpxFKPfdpm7H8A3Nyt3YjDDfllGlo+9ysRyxros5QM5fqd2wemG7vqwfXcYfSG74lhYBUwWk4gqcit1cp0p0AXD45NtgSkYCdiTGSbLelT/udUpctObmk6qmmPsLGjDHpCs+Hhw12wP7DBoD4Z8uyqacW9Dg29R6ii4EqlMDFyxVSZiQEVJpBRgTBnasHZya6xbvgDnegQju/abr319rfnmrS+as8+agdFOC83l+L5i0YJJMsRy8uQjG1LZF/LsWRNwApxgzsedTZ64ENB6nJzW4W5kI+5K1nOLv2149LENj7B24YXqfnx1zIvxgwfxDB+PaeQ5Ph/f8GSN/Su1wO1Lx8njHMunJ0gotJTdkiV/ToB6krsZ13Dyjocy3kVw1I+94+HW3gUJH+dTu+VLX0vz48epU3G3MAN3Czjx8+vohbg74EilRfNB40O/Y9FZSwEH/LBT3jlyAHd+B8yd9+4w38DMuE8+s9vs4wgndGR81Oiqo2GNFdgQNdiE80/Z9cdmIXBGPF+U8cNGnYl8fvgoqWgj6oIiGy7EZe9LbUEFdUUokc0oFsH9jF6MrzrlOzdc+PHovnNrU9EbiNt6IFGeUIfRWVDbBtPvp69QPhLXAflsvu1zFOomELkFH7Ljd+CCZoZh1qV495ZhKE9wHt+/tXbkt2KSJ7OJePnJI+IpPJbih2OT3n+8edlFc9BxLDDXXTMXV7gT5HhJT5z9fo8cwZMm/zgHUyuNYCGnLXiUxatgeZy15YBMiLh7z0t4T4O7E5zk+IJ/z56DhjzS+/AyliPF+A5A/tC58HUAP1g7iK+Z+eEcq4oneD6+4xfrssXjFpu3I344KmzKpHFmCu4EJqFT5YmUnetU5CeDP33GCfL+QB4f4VHSHHQMnPX3hymx+bNT5b5dv3G/WXE/Oojbtpr7cBfBIdI8CfM8PAllsskeT5XTalIs1t7YUlVjyLEZ3NBCjMrbC5xBdxiFlrWemLYhJYzgPyU65EpkM4pFM/2MXkxhQsLLuFk2lqDv3OoUm/rRklx9cb+EHZHIEvIwOwtaGBoMC8XkG7LNqV8xFUtFiknHHuVWmv0GpQ6cEqmMNVawCkYIKkoilUU0xqy1I7/88UlVAk8Y9uqXcwTd/+AWDLndZv7m78eZszHZ4NVXzjVXXzFX1lr26j8MW558p06ebJbgRS9P9v7kJ8XEj+QRKEcM8Qmmz0vsri7chihpej4v1SM/tn3FvC0568uL5e4CbPL8seE7V77TELmAre4Py+863LF9965t5o67t+O9xG68dzkoj9EOoC6lo6gGOrTD8DVZNeKYFsOqIVVUEXeYVGoLkJpJsAk72BzUYVCxEglZTDBmQ6pgKA+4hlxhfKbyhVChHgxTqZESJZBBI1QA1RJMJRsNj6HD8ErKj2c6J7wK7kjDOoss9mjP3RFA7ttKlOVUT8HEh27gyi0zrMQ+R86OtJg8BGcitnblwaILVsZg1qXOOwwPam1pJ7FlYdaX/XWKKmN5vgo4FNIcwhX57gPmnnsPmMcxT9Rnb16NaUAm465jtnnZBTPMhfgby/xTzutR3zDmE/CDmUdc6m6YHlVuf7iu+sv4jpzDx0yPPrHLPPDwLtm+gFFqI3jstBOP9Pioie9beLcpj9V8r1dpJ2xguLyIzf1IQuPZ1yVPqT3oOwwyq7E4ZZED4BtxYjPYG9JhUK/1uMn5t5uuYGikRx7EDWtBTls+JcyE9NKaT199TUzVDtE959W+8kWHoOiknYZ1Fp0ObSnKwtac9hRMTMUGHhpPamqII2fniDoM+gwB2DKmYQgNtu4wCsRhMKyvhkdnz0pxvggH3V48uuFw0HXrDNZgGJGP0W7/zmSzYP5EuaJfjrH9p+PvFEzXzZXU/lf64akBPoZ77vm95tnnd+P7jz0YSMARafaPj+24HvvxfMyG3cZhy3zMFpNqhJEdqHg8BdbhEtmxV7RRL2d4hdA5JV9SCVCcvg6DNkRBaVnTXkYIYqncE1hcUA1E1E+pILZEyHpMwaAgYSakV1Fyx/TV18RU7RDdc15NY4nGx0wN7CxgtyxJ4syWohOSoDtJMdXTwAc7atZutq8aOMVWGVWEKCE1xhSVE0XLrIoCSks5eyj/mFg9L76426zGh3Z8tj99+gR0GJPxeGqqfLOxFB+GzccL2wV4zzEPM9jOxZYfr/2vdOxrgPtj8+ZRsxEvp/k9BDuFtfieZTXuHl5Ys09W5duNzoF7g8NdT8Ct2MRJ7CW6YsMOj1ctFWDP8VTRaLL6jr0+uTcszVe3YS8K2yEdhoA77ISqaWACOxDBfZ2wuAJdMDLtqrzK7FZsqgzsMJr6mdtKdnhnQWU2BLbaasO1sv620lco+hFnMkqKVN0dQNmtLLEhuVCtsaqFTBQUgomSqGAcixubIuU5vduKWR+ciKpyWk0ECclq8SOpWHujowfxsd8IXo7vQOeBobkY77/kxCnmtOXTzGmYj2r5KVOwJsIkGQE0ZQpeBk/FS+HJ445oZtPeMv9PAODjpF178QJ/N17ag+YIphfX7TPPvbDXPP0c7iKe5V3EXpFxAkFOwcHOYRI7ByTVapP9W686ANhhMClFy2JbOaqPpNyxVw3Lnye8686ttqBzUOzrMAqFijNgeu8wqNZ6rEWZ8mMzilVgKoxCocRUIdp5Fgtt+NR3bnXW6068keZ2bJ2FmOnyNDSYvkL5eK29pse+nikoBsIbjlslUhmLKVgFI9oSqnqkZphKtmrWMuW3KqedRJCQ0QOfb9uX4uO4/qZLL67DiQrTXdz+7Q1yDcAPzJYunWKWnzrdnHHaVMPHVqfge44FmKdqAk5gMqwUJzM+K+d7B3lmfphF9TH8W9+y+clUHhyhhTsGGRKMIVtce2LDxgMyhQofKz3z3B48GsTU8egY+M5BvoBH3bEOOa3KVHTOISV1GnenoyIjwDWRABIyYn6AHYZvl9U4XESUSQKRXPh5dqiKQR1GoeWNh86TiOYjKaIFYFFROaGUqGFNYYLRaKSQZxjI6zeJmWKWjQ76zq1OsakfLeXUYXQWMNF5krYNkhWf7P/cL/J9haIfqkVDkgUnNCIRRzmzRQpKJJRmhCqRylhMwcoYzCKxWhxpGWP9zcxadcuU36qcqERAkqkoaoKBmCcqDlDD5B0BuvZFXunuMd+7AwLuPPzncEzOKXXSsqlYcQ4jmrCuwlI80lqK7UJ8iFZxRO//UyQ+RlqDr6TX4h0Dp0rh9N+rVqMO1+/FEOCDtj24/SFtA7R8KKf2TXYc6N2U7FkncPbCTitqGgB/h1HIyLDHp5jxtqq4AczkPEBTqlhU93LvpwAkSh5LPZeUzUEdBhWVlrXk/Xtp6w6C8Yl6xYa1lJm3uAJdZdCAqwDKmVR9JEogA6SFoX6iwmxMWZuKAkc5Re+EXOWnUBDG4XUWVOXOpYeqE3vDW9n/4jT+sFBMyZWVZWS/rgPKuCHb78hVbLN2s4qv4ApWwbDhkD04EZzZybI05cfYi4g/TEW9VxQtMvlNMBWSV8ZMh3hgcou/UYzPfAaPUbio0h2cRht3F/LIBHciE5Gfi/mPFuC9B7/zmDubXzRPlHchc7Gq21xMd8EP2/4tJq4ix29DNmG6E3YK3PJdwxZsN0h+H+4S7Cp2vKvgUGZO/X6A34DIh4d2mDN3lL1oah0rrJ3s4E72DaUxG6mESUiW+nCQ2/+Z3mFkk2OPXplU00zk1Zi9kmgyo7S1ypAOQwIo7Yh5kbF9w0utw+iJJdjwOAnV+rK/AZHutD5mp7ywq2uk4YcmszaVeLFkabmAZIzD7yzEEBzW75lQJBtM2lYy30m2p2A0RXtdtypDHElINq7EeSSVSGUshiym0J4zjJdb1Bh+K3aCD5QcZduLZ998ns3pJ2QwjPeV4FTLqcoZUuIrJ52tWM22Ex/FyW8/3ntQldXMfeurexWurCdhGgxeMU+chL/xJ9gtPobj9CET8DX0xInjzFR8azENE+hx5bfJoKfgwzhOmTEZz+f5kdxk6PJZPafYmICOiO9VOO0Jv6Y+AVuOAGK5OVyUz/btOgz20Q/fwxzCCZsxcVgpHwPxq/ED+OO0I6T3Yx0PfsC2Bx/97eZ7BFz578XJXvIYSbZz5KCMJhvZRTynKzkka0BwvizO0ktd2tq7D/tiP+bFAm2rkndmtkNgvfnHc36wQbURJPUe5dkxkGFiNlLWf7SgKeAax6bF0c7A1Af1jcGZSyK0HC9XbbXiW/zgJzZAASl7fR0GNURBaUVnjm1D6sBQo9ahREvODxnWTmGtYESsmOmTCwjWgdNVkilmWaeGTdamosBbxtbtlKaNqHSEnQUNdXmxsrKwMYCxUc4elKrtbrCjjpiVSGViqIqdZKpBRbUxUTDL5+HsHK66Yp6ZM2civqPYgZeiI3ghelBOxPIoqTCaxENZlrXwhFknnVXb2KRz4ouKSjqIO48R6UiOR9N8yXYmsMkOjr7lmwCc3CdOGCdfUHNepQnoXKQjYcfg/iaicxiPjoZfYnMUEO9e5I8dA161HI9ewp6Mse/ZcTAWMGhfXDmfyILHBZ7sbLO82ueX4Jx5llf/cvLHqoG+Q2CnYDsBdB7oQCjnHZafGiR8qOd8Mgb6n4A4dSOs7HzEEjEqY/eLlIE/PmUHd0XFekkECemtxC2EnR1GRPZS9NOV+o69VN4ZM52UAMUZ0mFIrEqriN5KOzAi6pAriw1rfepVecIkiZRwLCPnlACHy9qU48ZNUzFCHHUUOgta6nJoZWlbKaIQRl+hvJsuXzTUIw/iQIh39aNEKqNgMTMEE9FCUYV/IZU2eGLgnEzveuep5swzpprbv7vZ3HrbJkwatwPzL9kPteQqGyevsV95JP4SMoQTCOyXQ/mJMQjlBa3PnXBcfIHueX7L/c+TMZ/lm0OjcoLnD/l0zz+OfMHreK8iTMu3LNJysjwubSv29Gl/HcCCRMmTvPqX/3YjnYEYQ8XxH6pQ7lZ4pxOSKDMXiCAqiRCdFUngIBVbZSKuy3ymErORKmNJOcD5DmOoSqoeaCr3pOQgr7qivK8uQ130YPs6jC71RGbJhFEtYodciRrWFIYOMkaWtSFUmVl0GSbLRnB6vERupJwiNx1pWGfRDMJZFicOFHZ26tXKkraUChO6r1CAiimcZFyjK9z5WPTZM/HhbZDlYtZSm1MilYlyUiEAcWxlQ36DXgqOfvgcfCqGsV5y8Rxz2aWzBPSm1y8yN752ofkuZqHlQkkrV26Xx1N7MdMrn5P7qSusxWhL8lm2wDh5Fcbb2Y4Ow9rCrz8ZJGULJAjuEvv4yGsEqWP4jiLne7zf4oROe5JtYIXdkFGvEEl34h3YbaiMQDTknt2BI0R8VjCKVTkGlDxttU6QyX00cQvAEXUYdMDU68i2AXfs1dHg9h2bdFWpq8LeoA6j0KL1WBSIBdF65BTUA2H1018lshnFSv0FvQzBLJNqlwkGpOSUnAoJppIly6ZKu/Ii2WZ2lMxmhnUWxNKWT0XAXgCQb5SeFbY2mKPZYfia9aHpsKy/4D4ngjgQOSLbDx24oEnMkSbrh49OOArpf/uFU5RBPsPngkWvuGYeFvLZbT73hTXmG7duMBswAkfmVlLoLOYsa6EJ05HcMOn6HNhhZI3XW6ctoSsdijhTP/UICogE6D0oqWuvkLVOTIWavQDRZYbNgAuEdlSwC4bGS64PUzmwM5WYdRQ3TEUBLFsK0jw2PWbAttcPbCQHeYwzse3lY7RFC4XK4A6D2lnlJMFZMmEQniYR9cm9QsNaoV4wvIFkqzHMMemSaExssxYbfyvtKgpBeeuKGTIDO4uhwdAusM1Gae34thKiKAgWislfadqc+hVT8QBn1lp3KGbIaZ0snFjQrasKjwl7RnkQVe3UK1jR4f5yKu/5GGV01VXzzBln1Gdz5bcTp5w82bz3PcvNO3/uJKyrvcN881sbzZ0rNmP462553m/H8TOKUICsknyESbnqpAO6DiMz6a2EbdYh0KRP1jx+m23EI7lNgknZjo7tqAvXIaPIJ6mi2J48W7bBRCCUuAxzCC7DMMsUdlXlGKioWHgiSEhrMP2FkPXORNxhJeeg0w8Mx50TXIWi0a+X007NFnlMVPJYYdgfpTKow6Ce0oqGLOWaZAdGRBW509cFtbgCXWXQQLZfdGVpOWSFmZxTAlyUfR2Gg1U2gzoL67fpvWIW2ObJwFnDpus8bo32FExM6QPcWk9CqjS0RGpJZyfssBygjKpMop8r9eQZF01V0j6sQHfeOTPM2358aUUaWewMOKqIf9dimvJzzplufvzHlphnn8VCOPdtRQeyDcuj7sKL3Zfsy2O+LObD+UoRFDORJ6Rz7PZJKYiBCVUH8Biwkro8MxLQJd9y4u5t2BN2Q1Y1qttTgAQTgQgiIQp2wbB4xVYZbS/ksmMgU4nZSNX3rzfocOpk5GX1bfmAjjaQmse4Fecn+SRCC4g7zzcKp5hsnKvcFhHK3pAOg0pdF4a0CaPVYbWiyx8m5dmy0t8gtkTIekzBoKDK9BpaTqjnqP2Y2ciyVou/WZuKgk5qUGdBC9Zv4p0kkwrWsuwvAM3G5Kxhc7Q7jHgySmJJG2XCVqSEZONSfJ9RIpWxCLL8n9fp2Mpom+OpoBMfP5180jRzFaYbPwkfwQ1NnFn2xMVY8xl/F5w3w1xw/gx8QTzfvIA1mJ99bhe+IOa62rvNpk12qU0O7eSoI47sifsgKVeddOEM7DAq9e7NyrYir5fXazWkENsyNHBkc+fEgtYNBe4x7jCCHxJZzFnWQrODO8PEbKRys8qlCG11DKkSvj9rpsRlFZPt4wLu5c3ziLMqBza0s4CVvb4OIwSotALX15mVVjBk+dTT6Xhbfv8W1goGDSdM70vVSyJ3cfjq82EpG5nJiCGVtSktrOYGdxbUtqGWAVctC7ML62RdkLZhLREbjQPcI8ta9ZJs2xGQEqmM2JD2jAPLTyGdGVZZ3g1wWKz/4M4L+aL6FdctMK+7YaFnjXnL9xpnnTlN/qjMr4offWwnZqLdhfccu9BhYE3tLfuwGNF+sxvTm7NqYkrKlZBR7qmBja2j3sV8h9x7GrKNZjqCjqDSZKHWaE8BFwhtq2AXDI2XXIbJshUFfzAGUVSJVBBWiEMYH8zvXCbh+5auxPNv+KakAA7zVbsrUKa69osCItOH7eswhoYMV0c0NYiK2zotXBcMpWQzBaZg9Cs1VQYew87DmDoL6li/Te9l4J071x6QNJpdMGR2BhSKIcHQv+oSregteBW2FUuN8ruIrjJxzYnp08ebXZhczo44tZcQ1OHazqw2TkTXdzBnFVXNLls6WWabvdFJH3t8p3nksRHzyKPbzQMPbpW7Dg7BjSnZvwkZ5Z7Cfhk6SiqpDG+SW6E724j35bV8vtxGM13YDlkhOkYdBv34FKo9c55lq1eCGSZmHRUZ3lvYcnfMx9rh/Oq+Kx1Aex7BOhry3UwVCCfNJwiJQtw57hySyEh6eStmz+fWY50JL3JZyNEueeveSqJQaFm0Z2MrZNcdhAC8QsWZEtmMYlGln9GLyarDBZIZzrIx2gHnVgfuqNFoLqfo15YgboTV+mFprFIF4aw15V6FhRqSeIB3JMbSlYI4ECVaiWKGw0L5fmAdppzuSxeeP9MsXjRFPhazWGtnHO42PviRZ8x/+L2V5lu3bZBlRvkx2dFM52BVvZ9462Lzn/7jWebGGxbZpTkLB4lPkMz5Pw1lh6E51VzWBqjC8yT/RL1vv4jRfkfRTANLdgSJVfVTqDXaU8AFQpkp66QDF0SBsLayrO0wtJvcT1RxVGQERRZ/FpbCPWXZRPkaPggqBNveRtyJVswkaEgJ6Aapeq9CGVjoPBPznlRKKlO6Z4fRlUSdP9qOqJDlGqdtKhWMst0hVyKbUSza6Wf0YgoTEl/GzbKxCD115YDDOouKE8tyAm78X4wgowBw8EzglOOmlHvOgEKJj+iIVMx5OyXHS2QblDpwSuQyaGCcFuKpp0bkUZSymWWufyVGOp0+QzqXaMrPJ2TwDcVW80f/1yPmF959l7n586vxuIhraB7d9ATi5KMpvZhO6iNGllZiwnVg12GUgtQYaA1gjn9j7zC0ncxJ0hd04TpkFPk/MX6MOwx1gsziUnEwGB4D2XFQUZGwfX1nNviY9PprZpuTl06ysI7fHbjz3YQ5sjiligqz0HFBZLGUsAiIVILyHTmFVYDDirwEKM6gDoP2lJZ1IPZBotCdHYbH1WxYS0VbIrvwWGUUTG/RbRM5SMbpqy8CEwyZWTbisjYVBYEa1lkQXnFiWRVBMJ8TwDbh9oAsC5vbqBwsOUR8WHts4PxTbpnpd+SU4XwDEgAAQABJREFUlKb2pET49hiO9mCeoZUYheQn5dMKMTdt2nhz3bXzMOpplhlFBxNNWQrHs9h6FtN7/M3fPWt+8ZdWmP/2l0+Zx5/cGY0cIcWX3y+sQmfBR1B0G4NILCfMOumwrrElmMRIJKVFxywpqoR9NGS/iHq3o2imgSM7gsRi988x7DAkltR7I+YUMtYOA7q+uJyf6403zMEU9N2dBefLeuLJ3dYrHsf0R+UK0gf0gTAm92eduF/K2SBCo1DSmBF56UxxhnQYoqC0og+y4cdKG5iA7pEHccNakAeDIBJmQkZEyUyq18EyTJaNtro7jIHvLGjd1Rh3UJKsxMnJT8gElpBdAGcNm+QRd6KbkixYR18nptjA7cC/LGxrSBplVRIdOTu25UZ2oGzIkuVJdzc6i/sf2CKzj3Kuo670ylfOxzKoe9EZ7MacRFg6k6OTRMF+jc1K4NxGmzbuMZsximkDHgfce/8WrDcx3Vx88Wxz+aVzsN72xC4XnTK++F69ag+G0yawpDyRmzDrpIO6fZJgoo2UKgGeI9sh+0XMea3UdqSjmQ5cBEXFlFKqsT2lkNjmFThCCnbBsFjFVpl4zlDNNTsGKiq+PbH9voS2NB5zcL39bYvN2Zg+pi9t2DRq7ntoRNqHt+OPp25dBNL3HiOr9yx06IPDkwAdF0LnnXxJJUBx+t5h0IYoKC1r2ssIkXA6MFJJDbm3FsSWCNlC7hncJqiEjIiS6auviSlVIrRBDewsqO2sV5xYVkXQcBoaQlXurGHT32FUDUSmmGoc4B5V1qqXZNuO8nkRGssBvLPgR3EPPLgN03TMwYgnaUGZLZudhtlXb8Sop9Vr9pgvfGEV3l/g4A9DWa1Rvqcbh7M5w9yE+aC4XOqjeDH90EPbzYoVW2XE02lYrOiM06eZ+ZgefCyJ61ds377PLtvZq+gLCWCddBayE1jLbl+998mD3SSYwItENNOBi6Co2KQa7SmYD4S2ULALhsZLroKpsJRiJvdZrpbI1Q9fdd0c85Y3zsXsv90XMrT5/Oq95n587MlpZGJqlD8CIuWdR46m+uq9T+6tiZ/SmeIM6TDEntLyHuwWIpG2XnoH1UBo/SJncQW6YGSKVXmV2a04RCWxMIbOglrOesWJZbXliU9LsiHwsiFthwHkrGGj2mmQe2LAiYmmEDdHSTHV3fU4suGInYaFUDW8SueaBp/De4bTsWTp/PndJ/ClGKn0S+86BSOo9pk779okdyb8cM6GGxxL3s7EeoI84nrsye3m4ce2Yf6o8fgYb6bMH3Uetlxfew5eXs6Zg3W1OzqqVbij2IDOByN1XYq+/G72krgdgiEa++UwR0lRO3jpbCNEDkvxnBMsl4oRVJE5Vmg8jRNmMB8IbatgFwyLV2yVqcgrx0CmwgsYzjN25ctnmfe848TeEVB0sm37QbPy0REs5LTPcKldnRrlV6AsCCVLMkm9VzV8G0hU2mTVQoT3dRg96t6QhTXAZDO1OhTKlGrDmsIUSpkNypm0ks5ZRI7JVDyous1bQRWkmS6ESiSW1ZZrO8xVjATQUDuVgyXYSAkVXSqwdNJoSyE4IdRAlDCI+JEbp8O+7fZ15sfevLS3s6CRE7Hy3B/+wXnmD/7wEXPfA5vNCF4qxnBKf+xIuNaDwajHg3g5snLlFnPvvZtlXYjlWFf78svmmiuvmCOdFdeRkLUm8NGefL3ton7siZ0Y5bIvGw2T+EpIXdBEAJKxkMMUzqWSG0OHUbloiDYTf2K39tOP6arPaLHHjhI3TpgBE4honlTBzhhZ1ipXmYndyjFAFZe4Xsgr8EL7ve9aYpYu7r548TrfW7HNfG/FdrQz3IFU3TfK7w3IFop8dsOkG4fl+d+4c+quPLcahzMSygvCXRhSUqgM6jC8sUrQjmXtFtZ9iZzjPrmHN6wV6hkjy1prCRNk/WlggqFSlvVR5dvD6CwS6xUnluUE3PhUqXcRJQ3FQ+PWNkgWJtn/URyoysESZI6QWKIhH5oKqzMW2AlKJJRm9OZEezB66TM3rzJzMJb9zDOmR3mDmjVzvPnT//si8xf//Ulzy1dexIl8rxmHOwPrpe2Pcr4r4cJIDP+ZZ0bk72OffN7Mw2p15547w1x2yRzz8stmm7Mwz5TvMJ56ehfeg+zPOgsGl/giyVQUNWLo08sTUtQG32GkPp2mdyk2vRPPdBi9IZKpDfK7t3mas846bYiL8NOwFCoiEEFDiIKdMZj1KRSngQlyHgNMyQsoqEyafJz5mR9bZH7mxxcatrEhadv2UfNddBRPPDEC/a5TRKP8yomLOwtfQZjxO4ck/kKxKGPycgqZCkDC81gBWntKZVCHQY1KJN6/l7buIBifqFds0DSTEtmMYhWYCoMKTKo+EisgA6SFoX6iwmwtHYePbbytmlx4F5x/c0PmvKsgLNSyEkFC1o0B0MDwlCllaci1veRg0YIkMGuoaa67Zyrs1NwIDw5+7VfONj/3MycP/riOX8veettG85GPft/cfc9mrDKHOwKOVvIGHdXa8AWkJOxWPmuWlefQ6YyfcIKZiY8AzzprhrkUnccXb1lrHn9su7xAr3+/5H3CWkJqv4mgTjq42ycJRttxuUq9UyW2Y+T6bIipblB004GLoGqoOg7fqWfQYD4QGlCwC4Ytb6wA6GeYLEsHL2GUNWcCOBdzhb375080V146Q+YP087bub/4u1XmS1/ZhC/8D2AxKjrAHzcqjlS/Uf4UIrSzU/ATRlbvdKuSlzdjcWhRLLR17dUbvnJnFUo7AiIbcdiQOjABrE2rXFC3RMh6UMGgIGEmpFdRcgcvYZrz7c+eEdUzquuyIUKbO8YJKnLLSgQJGQ2nFAD/f3vv+rxLdpWHNZqR5n6RNDMSIIGQuUgIcMA4tqHKxrFdSZQ42JUPKeefSFU+plKVyl+RrySVyqXKIq7CMRjbiV2IgLGNAVmAkLhIshiNRpe5aM7cJJT17LXXfe3d/TtzRgWl0+e8b6+1nmc9a3Xv7t6/994/ZqLxmGq0kmPFZ0b75FEGpOYIs2rMHl76y6RhzBNnqTBS8AG9j/zsZ+g1hLcef/fv7L8UUGrgKaOf+qtPHt9O3/H0T/7pM+Oi/gy9YI6vBrlnvCYZB1fyZK1fUUA7Ct29Rl9K+Mor1C794NCX6Ss+vkCPWH7zY8/RC9uv8QcCITf2Ca2DtNu2FkfFxJn5LgoSLXNMKsCw3I+/W0jE9SGlmULe4hgRCeV5kQiOP1IB675K+BWNuM8Wf2Hr9qoRK5VwCYRd3PblUvC9Ypgk8Gj2b/8nTx1/46++/fggvetp99pVbOg4fv6ffen4pV95/vjK8zJRgEFFtvt9sf1Z/FQHpaiWO8nd5rGa4O4YKWUQQCLunJaENfXsEYYmlC6AcA0S45Y2HHBXj0CAYdF0NtRl1OESCEnn+Nxo2X2mUioZlKxrk0XqK2rMYk1NDjVAFHDejjvVaJXG3+WLeTJhDNrUI1sPHknHuu5Vj7I9JFingvSSAv305mc+89XxdNTb6UXnn/prT3W0EsOjCf6E9/30NeQPHx/9/549/uWvPUsX+NfHjwfhU95XlrFdtLPGAxNaY5NeeulrxwsvvE5fYY6fKW233EmnbUsuE12wN6fexQnDzhrXB58LCIwL/PbCJWmuGQn5tcJqeHSefAvMM5WyuGA6vD3SFBfREmAghINzfH3+xjjeDfejf/6R4yf/0uPHT/yHjx/vfuptInpp/Zsf/+rxf/6DLxyfo99Vr0cG1dzu98X2d5Vj+5Vxdu4JDh0stVmOj/taLESuTBgLHS1C9VkzKCts6RscJIUXaop7aRd0pjFmEKu5VFqNCNevr08WyFpqTqDBObTGfTPDlgOhAAhMNVqdXufafBccUrMvF47mGS7sNQ+vEXz8488dP/O//OHxOP1E6n/w5/lX7yRzt8bJ/1/+3e+giePR47u/+8HjN37jOfoG2ReOr9AnanGG4Peq+/3Q9EMhcDFByOsWuj+H2qqTpJVcznJBZ1bFK5M4ZW2OAZbfFqllFxErs9Ab4QXWai4umCqhRswu4RSAi8WHqfmv09NN+DQ2Xpt6D30a+y/QRPE3/9o7jw98/4PMv8H9b3/i1vEz//szx+984qXx6CR+V5gIUQMyYfheBKYGzz+H0Saqgho2OGGzA76fJXCKzOWk5tmEsUt3GJsuIOXD+gwX8kLtLL3F26AUmutzzrXXLD6UXrPQQUj1ZHQanEMTaPCsNEZ6yZtqS1zULvwFPjSmnqTldX9FNpb2oYZhZP0JPTVwLz299EMfevz47/+7D413KdkFO1C3zu/SO5j+Af0y3q/RDxx98UuvjkcJeOcVqo5HCaV8CbgTyJdi3rhvUpiZgOQWzsRbGl6E7QHfFNlEcjyYOKSxjPDZuBhzWMs7LeOKeTIX85Fol7TFc/jKU+NUJxJo+2m+xSUZryU8Qt8C8Nijbz3+Cj2K+On/7Mnj+77n+lfae93f/t1bx//69z9//PwvPktPWd0zv9jSM7JN/WMTlteXxfYHmakRYo3jxrjdaw5vsjmkiWqMePQodPYaxkgoWVZjHpzc0obXV2cd3IdUdkKocNpA0qmcbtf90ke+H8R2uThZfISSU7vJNfUJNDiHEpBc04FF4BJnoNvgqHF9woBie/yPUstGuJzCaoQ2vkF/Ad5DTx/9ufc/cvyP/8MPHx/4gUfcX/iBeuo8Qz+h+nP/99PHP/r5zx2fe/oV+iAgfS06/hJrl6afJiQ7OkDBgXgKJJfLu2Bvzi4vThhpgEXSxokiEpzK/WpPsjIbnpFqiZK2uGAqT42oVcIxgD8y8NrVt7/7/uM//htPHj/94SeOp5642dNNvuC//a0Xj//5/3j6+Oe/9OX54cxZL5b1KdMmwpaz2P6gdLGW2+9tSeBy+HcEiY2DRhxrJEQuTRjIDVks5kJsuoCUQ0gP3gb3PLFnrcI+CxQcgi5IpvNGtTs0WaRCjTuqjbvZQu6EMA4lILmmA4vAJc6AO5ZiavBOJo0hxQf48ri7UmjqhNLOwTubnnzygeO//W9+4Phbf/NdtzVhYF7AB/9efvnrx7+mX8T7hX/8+eNXfvWL4zcq8DpJ/EEjFG92YBMSXoCC02gVPHEc7kyQaJljUgGG9Z4ICw6H17hKDGMhMkk2vAveCC8wX0gpiwumw32a2orTdYXGGt8zhq++f/zRt9FnaB47Pvy3njh+7Ecepbe1voVeF6Majq8aF4x/+ItfPP63jzxzfPJTt+ZTlJLkBJ0pqK0d6EyPt2EjkDUZZ0S3kS0V+PLEtTJ8oa4KIfJGJgzZNhJkzaAsKK8HtMHBUpgNdUWpBEISswrHBaYpkTs4WVxpJG2FdCFhWnPIAc50NGcSYclhwB1LLi+b1ycMZOLYK2WvFBpJJZObmaJP0OsRH/7we46/91991/grkcGb3+Nbbp977nX6WvRXjo/9u+ePX/6VL9FXjXx5/KbG+PwFXUzw12h72Wpb5KBCavjeUjC5zHTB3pyCFyeMZr9DVseowX3HZrtmLKiWySx4I7zARCXA7Z53B1Ygz8nhG+Odani0+Ogj9x4/+iOPH3+Znmr64R98eLxo/fij9463VEu5m67xR8b/9DOfO/7FR79yfP5Z+kZZ+pqZt8wvCLNuzKonga9IPEf1CNuL7S/EMx1KsMEZ2aWs4HpQlCIWEK5F4macTRjIGw2ULlgRYeqDyzScEAoO5/t7hdlQVzglAMAFnSkpAZ9B9HqHJ4vUSOOWhppmOZSA5JrOLLLE5wG5xL3Sn44J43V6ZPAEfRXIX/zxJ44P/6ffcfxHP3XtnVJ+S7L9VfqWUPwS3mc+e+v45O+/RB+qev74PfqW2me+8PL4tTO8AwovivPkMbPbfcbBAAUHuS7gzNiTA3pz0v+MTRhj890GxY1mL8CLCyZx/CMHvPUVjzzfTU8xfd/7H6Iv+3vw+N73P0hf4XL/8V30tTCPPjLeO91Vuxz71X/9/PFzv/Cl49f+zXP0OYrXxzC+hT7Q6Rdr3Sw/3J7LNvEctcO3sCac6RAxXeSLbsJV2htIGhNKyY6bcScmDLQ8atda2tKANjiICrOhroiUQEhiVuGUwPHRn12/ZnGzd0NJY/b3HEeWM/kEGpxDDaA1srHjzndh7ChZbuUPjZN3deAMv3JQ5v0kNWmM8LmJZ7/w6vHP/p+n6a2KLx+f/cyt8ZXl+LqO210epi+H+yH6/W3c8Nfjb9Mv4n2CJos/pN/gxpcVfuEZutHnLL785dfpIkUXJnrEgYvTmDzCccM7cr87HerM2LsDnBk58O7Qu6Quj0vtwEdMZtO0kXzqwrbjCWl4SgnvYsKH5+6hD0zi0cNT9IfDu57Cb6jfd7yf3vn2/d/7AH3y/6EDXzZ5J5bP/vGrxy//6nPH//vRL9NTly8MSXzqf1yE0maaa9a+B+K94XdJzQpnJc/2+xnuN6ThhvJn75JSrZClUTEY3XAGtMFFaKwXalfSC6cEQqXsXHqB+4d+8COLa2O4wrjZr5ThQKIjyKEJNHhWWjQyaVPtVCf+JVVqSIAmBEgtd+nZhKF9qCHKvKYwXvjGO5rw2Yr//MPvpd/efvfxwQ88eryTPlh1Jxf8dsW/pd/ZwE+p4qs+nqff336Jfn/7Fv1kJr5W/TX6VlK8owqbxJsFm/se92w2LSUgubqhkkl4Sxn4vHgJd7WefQkMPYwRlqGdcEby/boLYZrMgsvFhF7W6AmTMq5JmA5xNOE1hgdpAniIvkbjAVq/k77w8X3f9QB92voheprpEZoobu8dTaX4DHyJHj3gNYl/8s+/cvzTf/HF8ZTlffTOvPadP2kzzZ2WBRbliADO+oTh8Vlkc3hqbDkE2uD0msCXfSCfbsCxOK3hjqC7O3uEAa2+i1CHywyyE3fmTqeUYJ2idh5oWrWk3SOLy5MF9oVJug3M0Z5ECRNocA6tcV+NbeI2Ooqh2hIXtQsTxtBgoaXcWSFNVEMasDUgOnDxiW/8dvd/8bffS7fvoA/k0adv6fcH8HOtd3r5JH2H1G/R10//u4/TdwD93lePP34a76+nF87p+Wt8ClhusqNHB3TXt5L6Sy737oLTdBG3eRcnDBwATkBMvT70jbo6MCUrhZ1rMjsufVQQsFx8Zv5b6EEB3uJ6L14zokdw99NXruBbiD9A39H1gx94iF6LePR4//vu7OSA0picXqbfb//SV14/fvYffuH4R/SW2KfpXXP33U9viw2b0ZwDAfd7aAIJn5vqVkTYcjBlni2TcUZ0G9NSHb6tOJKjQvQo+9KEgSol00I0LtxSwwmpCzxwzCns84D1BJmxcNKdmSxEk9Z1DFJ3ybXUCTQ4hxKQXNOBReASnwfkEhel5mQRSNZDg/XkWhBkJy705fqM50Tx9MRTTz1w/PWfetfxX/+97z6+5303/5DVsg8H4KKCBU+JPPfCa/Q7GS8ev0NPXX3yUy8en/rUV4/Pff7l49VX8IiD95O0OMZfHJagexdwpsLDcEBvTvocF8eJOtNLB6LQsVnDTnirMYKS2TNMpufJcYGqvE/pR4bo6aX3fOeD9FZpft3hg9//8Hha6Un3iNF0+7q3G/3jz79Kn8R+Znxu4vkX+BuMg1bZjHQeJNxcs/xwB+3hEA9UHYjM+CZPGDJArv3cEbddCSHyzZgw0MgoGirHdgPETgipRkybwhwsCZx0xyeLIVuKpUByre0JNDiHHOBMy/cWEZYcBq6dkOlk8SVgD6nNhDE4y0ZMbepYIFlTAk9NfRu9O+W+++4Zn/r+sR995/F3fvrbj7/0F9+ZEu6siy8xfO21bxyv0lNS+OzGS/QU1dP0A0l/+JmXjk9/+uXjc/S6B/zP02sf+OoR7JfRMl77gE07G69/YBlPabW7lXEmjftszuDFCUObiFp6nbp2AFCy62tKQUOeRhrXGxqXb9BDCFqNz7Ug4zH6Jtd3PXXfeEfbd9JXzX/Xex843vfe+4/vpBelH6CnFvGUD16fwnd+vY0eJb6Zy6//5ovHz/3jL9JrEs8dL9CbHfATv5i85OlErd22kQYrccw1q9llWmLsT1Cx41yKEa5MGGBTcptvSrSBzmnogi974TLca9SCcIicTRiaELIQ5WWGebXnpMqiYGtNX6gpbilBs8E/+rM/4MnBvvgCd93LfBB6rcRJrjEn0OAccoAzLd9bO8JUo5UcKz4z2icvsA4pe5Ey5k6v7pBKmzphwDyLWx6fk8BZfuul18entF+k73L6xO8+d/w5+jnVH//xdxw/+ZNPHO+hC9OdXviCdhwPH/ai6vvoOfQfoq8bwe8xv0S/s3GLvnodr3W8+OLX6GmO1+izHa8dX/7Sa/TOGlrT0x5fodjz9Dz5iy++drxyi35bnA5ImUgwDmMSGQaPy/BpQ8ZxO3BsFV1Ivg1jAosuYgMcbnM3d5pDEMGJPxQwLnBpJXEYGM3xf8YxAQjvT+iDDWjxPnra6BF68fkx+nzD2+nLIPGjUmNNrzO8k+x3vuPe8SnqBx98y3gNAm8weOihe4+HH6Z3nc1Jk1XfvHv81O4v/8vnjn/1b54/PvVH9AaGL9D+p4kcr13jzQt87GPj3E6c2+pDvLfchNGksIIDnFm3kEB50buCFDk5nzTnTAdSxOENHVmlLcGxAQWchRAfSyWEyJUXvUdCyBJxrk8e75oNZ+zsBS5qCrOhbsElgLVjOdMzVvbFySIVmWq1Vook15qYQINzqAEsOVrjYkB7lo/kiM0dI8dKAm/moiUc4HRQtqUGTCR30LYFxqZttk8gKsJfD33QjyG9fvw2/ZLeH/zRV+m7e16gry7/8vEBehH8g/Qp8A/R71XgO6ferAWPFPCVErjl5XV6beMFmhheoInjeZrQXnyR7Be+fjxP61s0udyip7Bu0buyXqEb3p1165WvjfXLL9OjF/p8CH7q83V6uyheq3mdHsng7cT4VTesv44bXe2/QSfn+IqLMc7SgR9v3mHjHmGMD/Yd9Y31vffeM740ERMhXlzG167gKaK3IU5rvLHgAXou/0H6gaD76YYfCpLbg/e/5XiYLv6P0FtW8dUaeOsqHkngJ0mxP27yba7S+Z1Yv/AivdONXmf6xCdvHZ+gpwt/75N4u/TL43UKPIrRvmj7bZEDyyL+usHR9EdTSjHXrKrh9AHekQmDNF1JX0Hts5NcrhOasDBGnVosRK5MGEM+ZMWCBA109W20ALGscEbdPdfi+xJ2AZiO5cxEKu7FF7j/vkt0RyCZzus5iPYkAxqcQxNocFeMze1Feqqd6ri/rEoBF5i1lnLbXkhHE9Vw4tMMEDs4RscL0HSBfejhe+kv/sePH/vRd4x3T72Xfk71KXrr5Z1+F1Vt7OYRTCJ4ZIIJBRPLi3iEQk9xvUovwr5MEwomjlfpKTC8KDu+Up3s1+mGd4lhm8cX5tHJjvN9TB5jzYc8P2qhXUpPD+CT6/hsGSYKrPGXNZ4G4htPAm+jyeF+mhzuv48wmgzwzqRHaF8+RreH6cNuj9JE8Cj97seftgWfiXjm2dcPvB7xiU9+9cBTTr/zuy/Qa01fo8kQ77JqvkUYh025GIQDizczhJpzIODu8JUDOeF1303Ckrf5A0zFKHmZryQcCOqYpSEyLuhoohpDIHqQavZVKnXatLZT1E1pQGe40JlX2GeBie+ehrqNyQJNucpkOk86jpyU4kjGa0Q4NIEGjzqQ2pHmAbmjDMGTAwCcocFCS7ltL6KhYjDqEsSDMy4Cr9Of3vhL/DF6ZPGhD779+Ct/mb4G4sceP/Dc+fhrmS6E+Iv67vJnbw+8Ro+0Xn75T+hpP3q6j57q+7Vff/H4V/RaxMc+ThME/SgRHiHhXVZ4x1Vc0nGSXOamYHL1a1i8cOKYOy0L+CxnEwGcMnkJ5Zs4YeDcXPYh/cx1Oo/LZr6RCcOJsekCqQ1/zcnQ8EPqQi1wkJUC5L4Jk0UtlPbp6L9rZgJpNZtOvVuVBCQ3iPWNTAonbimDefECS0JQXB53Z4V0O9QImzKcAAWHuRKiP7vxF/jb6Hn273nfw8eP/4V3Hj/xE+8Yv4vx2GNvGy/I4i24Zy3VBu5Gvhl7gB814Ug6xiMvfGX4r9DvYP/6b9Cn8OmpJrxjDYPXvo1ajgFttAQYCeHgNHhzDqQUc83K1x9taRiT5+gZX0JKPNOYRHegt5rAeXeXy5RvlU/uqhAilyYMqIas2aituOWGg5BeZBpcJALETgiBdxL46P+1foH7Nh9ZNN3NJkovubtKmGJLgangEp0pncQ1ERYcXN7Hfl/gUac5YTxhaLDQUs4dtD412E4nxMUJ4sFhhoTmwY/v+cHz8Xg65qGH3jo+r/HDP/J2el//Y/R7Go8djzavP0ipu+tv/h7AmwZ+42MvHr9Fjxo+9vGXjj/49K3jq/TUHSaQr81fv8PxvLyYoGU5BrT9EmCOXnSapCalPMpIHHPNqr1oU9woqKGPiDslDzh7Ms6I6dwrdODznNn2PBJLdkx5oxMG5KmXa2Nce3E7xx0LzCvsEkA2B3eTxQ1e4A7tTKeOOA7wOEaJk1xTnUCDc8gBzrR8bxFh8cIa3oOBHVP79Plipxf8JCxrSM0RXrZ0pdBIXirwAa0D3PAQwjI5eDfP+ClVah+/jPf886/Sd0W9cPzCL771eOjBe+lpqvvpPf+P0u2R4/u+9xGaTO78O6u4obv33R749GdfOX7/j146PkkvUP8efYcXvmYeEwbe6voSvYPsFXrtBkNKL7nQuZQfDTbjjyIlXALnnCblT+e7pNAothk7iM32Pp17ZfMS3mogOMrRXbywxV1+9qL3bHn5gvVsjluaTm7oTEP4ms6GugWXANaF5cFhv8HJwhVBrbnUsimSXMnThhucQw1gycnacacardL4Jw24JxPGyJh6ZLfH7pWDckiwzpDMdwEKjjElTE3Qg4p5R7/DPV48fu344rOvjqej/uD37zk+Tt9Q+w76hbW3vx23tx34sNi302sd30m//f0d9GL5e+iG1z3uLre/B3DRxwvSmAyefvrV4+kvvDLe2voc/b41XrDGJ6y/Qu9ye5kmCLwgj09561te6Ugqx5KM7+rEVlx6LoF54SNcxRMHLhbF4aRzoElhugOcCYW4ELi90ONPumb7owh72zpESedeoQP3Gxu22xUc8cSFvM8+mzBULmRpVMQYXXCUfYIrvFBTXAXJQHC93IHJAuJt5VQ1cZJr5Ak0OIfWuGlMKx0oEZ9qtDqfMGJm8YbU7KuAEjjDL/CCRHAkOa2Zg3cJ0ZtlaOEzAV9k9wxduJ7+/K3xOgeQB+i7ivBuqne96wH6gBl9qR2t8eV2eFvuo3iXEL1DCG8bxZfePf74W+kHeFZnFdS+dRa8loBPST9PE8Dz9C6vF8nGO74wITxLnz/BD1V9nr4w8plnXiX/VXob9NfH6w7yBY54qvB+eleWLrpbFxdMHXY1NHUYJVwCzA/h4DR4LNHVMQWzmiwXIp5MGG3KYvudgl532nxH3F4HwDsTcFpn3LMJQ0up4cXVZnTB0bAamtcbC7Wr6VP04mRxRdVxyByeHviyCY6DUHKFpUCDc2gCDW4a05K/HEovwKcarfYTRvrLqhQRKT7AAZdyKIV6u0LcDvOqAgSkZba7HTjqEKwNqOjMQQv0Fyy9O/Qe+ief0MAnlfHp7H//uVv65YaYEB6lCeLdNHGM27sfoG9FvX98IBATy4MP4d1W9JkF+ilOrPmTyni7Kr8La7ep2syfYgOHjnyq/bWvfX18uh2fcH8NnwUZj9a+TpPua/S9Wph4aVJ45jWaGOjRAz2CwwcUMTx4QRrvWBrf8IvXkOgdam5wTrZ+ccHUIVUj6pRwCTAfYSzjWGk4IdScAwH3h+YEEs7F/D0R7tSE4WU7200YfVsU3R2wSMLS7Kuid3nCYMlwL2K0HubqcxbC664BIqgcBNgJIQtLxnZ9cbK4qhpbiZ70kaLJFZZsXLcvOGUmYiWLXiAlIGsiyUEpIV1PNVrtjpXyUFzznTGkWA9RsxxnEVWGJqmhkBoBCo5SotFwZkgQbDs+BEhfNTdS75sC+AzEpz/91eMP6QOBOAdwzo3zjv4Yfvyx+44n6OmrJ568fzwKeZJ+3vPJd91/vJsekTxF6yfo6S18syp+BpQumWP/4sIpz8OjEurCxzKeimFTY/sxGWntHXrEgkmQ1zSCuN7RMrYB4zC3BW80wg8NyfbhNZ9b9LZVfBr9Gbrw41PRz9CPBD1L9rNffJV+/5xs+uQ0PjcyrguyDbRP8PQfJgh8oA9bXZbRDt2tNgx4SHuTJ4zQYCke0PYcSCnmTssCSUtcIizPTXAW2y/pYz01YId9F0g88HO/t23hwADegmstIEjBouUvTRgli0VcfTZdgBl2P6AzXOgLtU26ZGJ9g8kCdKhi0V3Cbrh3lcnEcYAlZjgOwOQixMsEGpxDCUiuqKjW8qCcarRancOs0fx1FYvMbbEDHMpYdPtH4KSQJsHQzKGjdwEKDlNKqAQaqcoZ1WmnjGedxrMl1s9L9HUkt269fnz23780dpzsO6zlXWd4lPEwfeAN78B6nN7C+xg9hfU4PVrBU1p4sf1Buj1APw+KT1DjazMefJDiD9Gnqsl/G30aGT/WRA9c6N1d/BUa+AAanrrR3UInOD7pLe8aws/N4mk2fLcVPh3+Er1ofIteE8CHAF/Cp8jHp8npA4D0+YWX6EVlXPDxFNJz9BUZL+CpJPqaEnyAEI8csGCP4Boylung+XSY+CDcfgHL9lfkbjBAsox0O54kPNYqoUaA63l1hZc4cLHoZswZV34SF1iTwvQJFA0k+YUIcqFAWGsJZ7H9Ao+1q1XyHVEmBArNDAciSFEcwACxZC1JQly4g8h3Ag/v0oQBZsgyIbbmXLrhDKjBZ37cFuYVdglIsq1vOFlI4pmyw2HSMiJhxzuOEgY13U1eoltKAyQFc4l7RyYMKG4uFKOleICXLpsDzfqc1tSpR6zHJatUaI7BxHGumWaJclwDx8KDib/K+WBUw1zi4Ks8xgfL6Pl6eQH3HnoIAXs8NUMyeGQxnq6hXTp+Pxxrio1JZ5RhGzURw4IVbOxGLNjbGNvpjrV8CSAeUeDLGcEdjyCIh7XE8brD+JQ4rWHTf9VFoVly9CTVuA9BOOrvbXjRUcMb4QXmhdSOx5MLT/mFVgmXAEuFcHC0VDQwabhzIKWYa9YYlGZXhAY2+PmL3qhFy/IcZ9hf5GdGHCEbPNKinNyTJI1a5MhBKfI+5cqEgbzV002iOcp0zYRi3pmZbqXpbKgrFAQ2y7XJoqhCsQ26UhX3Y8DExEmuiU2gwTnkAJhY8gBzlO6JsDyYpo6T07RipJMl40PDTnC0U2TrDskqM6lkGi9AwWEOQlh0fySO4ESx3ZI4QyDfMUdlAc+TZsQUmN/SSn/lH/RXPy9f14sxdgGWsWJJsxliHxsw8RkeK1dGw3hUo9vrTBAEk69dFx5a16fDIIpHL6dL05DLseFd8BCWjVqVC6l2PLkyKuGMAEsJCwZRCwcrcZLL1HQOJI65ZtVefFHi2UHogWkvtr8wz3QowQZnZLsOWU3w1bhITeDClRhCdNPUswkDeSMhZCHKywzzquEgJMvJpGONLdVEqayvTRZIa3osaiVQk+p+TZzkmuQEGpxDDWDJydpx5wG5oyS1pTs0Tg7wukMWcpuGAhQc0wrh4BiHLEPMCoSd06bQ34M6iczTR88iL+aCzvQMd/qp2VPx0CRmtl76i1BSxmbciXGhoibT7pzZ1g7LnS+OJ5VQIyaWcAkwP4SD4w+OqO29ZYoDnOlTtQGZMFreYvur0Hm/Njhdth+829IK7V+ZMEYXIav0xeiGM6ANHhRP1QLbPY4M8d6BdlhKIKDs3AZnmTKBBudQAzQdnfeFA5KPlWX6AOQv5Q1rCmGFi1HbIQ7a3aKwGpUdoOAYN4SDYxyyDDErENRp8CYkii3UaYHYkl3QmSqhBo3LFp/EtN99yrATrvI3NEzGV8giG6xAfHxmBdvmksDUEk6B5LZJhdOcA4ljrlml9xAgHqjrE8Y2NeR552ItG5xe0+FeXW3pcwROamLC2C27dMFozS1JoBEc0BkueczbsIXon3TU2N4oqiXQ5EdO9ISeoskVll4FGpxDE2hw0yALOPb6ksfA2bHC7xAJygtncYIL+6yQ9qmGZNo6QMExTrASB+4MGWJWSFWnwZuQCA+oxSGYgORySRckE56LMGXc32DCcAIwcY3S69TZuIxaTmD49c5kFlyEjdQI5NDieFJ5NWJiCZeA7VSF1GCt5LbnQOKYOy0LxP7UIwI4GIh2WWx/4E6NEGsct9/btoAv+yA9SRprcbhO9MC9MmGULBObBye3vOAxG8XUKkaA2AmhkhBeoWrQGSoi54FGzCWRiY11Y9RXcilRcAINziGHw2x4pkfgEp/AEheVkwMAtKFhQrDME50aEWSsFVYjwJEDr+GVUAmopiFmKRiMBm9C0s+AcCe3M62Aw3Hi02yl8MljRy0yGogk8W4+YUimCgfDjvcdb4MBkttQXlwwVUKN0EfdJw1vXpQsMXHghlBzDgTc0ydQNKwaW0QQDVkHymL7EyfuswCaY4OjJQ0kS/Czngcemy0plyeMqDP6kRCND7ckgdAt77cBLXDQAxScJMbu5aehilQbKMFUtOIyBkZMnOQWXoNzqAEsOVnEXdL5gKx9JonxlQjNCeNpowbr4VzEEsrCOSs0OCUTAVuKqEHDCjgiKSA1aG2IWUltug3ehEQxQMFJ/QAreMNZdjEnjFZjJg05IjgOTNxuNmEMIdwtFxteV8yzR+EF5nlqLy6YKqGGZgyjhFMArtw0M3E0LgaO/3QOpBRzzfL7XZRsTTxQdSAMYWux/YE2a7mSARbHBqduOjjA0ceylyk08FosRC5NGKPoFHUrCOFGdVgzKDuimBsckMJqSGJYX5wsWKRIlQC026ArWnE3RpOXOMk1sQk0OIcc4EzL99aOMNV2FJVKJ4vGpzE0bMLAcVWWukMKhXfzpqEABYe1EArh4Fg9ChtilhG8BTxxkstsDraQyiU0uV5n2A535lSbY1IBrVb0JoIUvTZcGZeRty9kMhuekWYnaRVSFxdM5agRRUq4BJgfwsHh4U6hN3XCiFswvcX2By6apFvpNZAIj4ToQWJG9KBI+XA1SQ0lhciVCWMkhCzVGnUIYnTDGRkLXNROYNAuThagLlpqi7RBiMyl4qeRSohaDc6hBpA28hoHwpI+1Za4F7swYVAtSC3l5KD0stkeyUuFJL7ghXBwrBqFDTHLCCdWm8JBhdTwWm3QE8h2nN6c/IsTRrPfnSyVIy8EUjvq7klWZsMzkqoGA6mavrhgOjzkiqP4MiBAqGXBaRWddA4k3FyzbFuKOgWIB6qjR9Zi+yOJvaXGJKf9XuhXj4GRWLLjJpxNGNp/1fEQt7zgIDygBS5CJ/ANJgsoslrRLAGpvltfSUqc5Jr6BBqcQ2vcNMRqRASS7d9RlHvFCN3VhHTQVoJENg0FKDiSnNZrjiFmpeTpNngTWh5PQdQlOjNQ/Om35CAjXcCiiHmL/W7SZJljeTe0rMxGzEgX1BcXTJVXI2qVcAlE/vCucFJaSjHXrJSR3Mlb0hfbH1SWyYGljyBi1HkXdUbGCfdswjhJl6aYtiEPaIOL0GJ9bbII+uyEEMTPA00LLolM5zluiibXiBNocA6tcdOY1vYEvapz4cI0pEJ3pZXTg3a2s9p7Q1A58ILD9UqoBJgXstechWhbWoJDbSnpAGdqU8NwAJnrZwloXBw1ajgPx0DDQ4jDDejS2Tzn2KG24+4wbWhWX1wwVUKN2G0JpwDc8pxpwwmqzTmwTJlAwoPccBzBmcZbbL8RyKLENjeQiGMkszxnRnuQicDGLZKiB06zr0qpkmWMOTbM2PAGtMFNsVjXJgukBX12Qqhw2gCCaXEqZLrxcTzHQTS5RpxAg3PI4Q3HdFBjR+ADcksZYicHADgo44Taqg4fsvlOk9TIjLTPGl4JpQDceTPErFoQkQZvQsIbUIsnLXBangVll/XUixNGUwTnpE5EKGIl0WSznBJ0+JeXuSFxrmPFF0oqoYalwCrhFIArN81ccBRvzoEmhekTSLhKqUGELWex/ZoPY2psdUAzgllOCLgcEC2BuHrQRAK8ELk8YYQsbkbEaM0tNxwwpddYmTVO7q9PFhCShoYoN1NaagMlmNqKOLwYAT1FkmuCE2hwDjWAJUdrezHAN9XIwMS06OFkaU6YSCLv5AB3B21JRQCbNTZts30BCg5LllAJKM8QsxjM9w3ehGbzJ5vQJqaCjtObkz8nDMdJQuym/Q46bnrOwTvTGIQ9CWWguRRDeupl0OWuyC+OJ+WpIQq8LuESkEZdqw0nqDbnQEoxd1pYWTColUZb3mL7g5KrFeLJcfu9L0VRHry+ZyRpohpaJEQuTRhIDVmqNQzqhVtuOCEUnKjReDebLERAa7ChbsElgHVhebDF3RhNbtJIrglOoME55PCGYzqwiLDgyOFY+4wK7J1MGKgxhRblFO/UNTaSlwppWxoeQiEcHC0DwxCzAkEd4ImTXKZycNzjTm6qA4M5I9TiDWeQQ+aMzDFxkhOIK4xL4kS34lFAvJglUVlbmR1vgwGS2xCVI1QqzLVKqBEJJZwCcHGTC+TIbjhRlbx0DixTHODMIocmgIc+PGux/Z4iO2xbhxLcSQ5qoQNHH8teZtGRXLKj3pUJY0hUnVEFYeqDW95wdhqzXb+6vckCCtoDG+qKegmEJGGl9UzCypmRlISTa9ylwJR2ic60fG/tCIy5Y8knJjudLAlld+q1GIK7XmbSoGx4AQqOVQ3h4DAHIboZYpaJZCtxkmvCXjdrwE+JyfU6w3a4M5kmF7AKTFxWPQFRRui+p4jAXJ+QFFYj5o/wAvNMpSwumA73aWorLpES4O0N4eA0OLTSOdCkcEUHOFO6sTWBJ/gWVqEzHSKmk7zoAkdQbqqdjDGhlOy4GWcTBiSHRNUZ1RDGhKHOMBZ3C43Evv3JIggtWrrWQ1CSzUvB5Cbh5Bp5Ag3OoQaw5GilAyWBw91SYsLaGy1t+jrDg/KZjpA3PKHEQ1mjCFu2WUY4sdoUDraQyiU0uUxzwd6caukCpjWSsRlglndFUmp09zwrs+CN8AKLhab3Jk4YqBBaCQ7Xb0KzsRY3ulmBXxziCVXWgbPY/sCZTpvviDY4LujNM4E9N2RfmTCGXMjyBRy64GhYjZIvgTc2WQR9dkIIVc4D0otbuyQy+/FxnLaOyE1eolvKGhcFXaORRodxBvpeVYGMCxemIcUHeFsOwbNCmqiGb4LtAAXH8BAOTtAzxKxAUKfBm5Ds6AG1OAQTkFwu6YLO1HbUoHHZ4pPYHAPyzMNIPxsXrbc3rMyiKS62Fwno4oKp8mqErLpPNjyF1DCtEGrOgYD7oZhAwk1YLCKAg8FouYvtl/SxbhMDg2nGM8vTKCoHhQ+LjSRNVEPQuD6bMHbpgtGaTQnEEld7uThZLIqgZoAWLQVOSUqdixuTotdzYi/CwXpmNyIccnjD8UpDa8mZaktclJqTRSBZDw0TMksIWPdRZSishkJqBCg4SolGw5khQ8yKueI1eBOS7RsQ7uQmMmOdEpPLVBecpos4tYsTRtrv0JJrw9C1K73TzmbfQWApRY0A8/5YYGAWaHHBVJ4atU6ILHg34jTnQJI1d1oWCJXMIQI4MhgGTGux/YE3Nc5quT8KWqrgLegKAheudulwmJcmjCGUEpFLt7k/uBW+r8TJbQEOXpsshv7VIouWSjoCJZhadTiZfYbjIDu5JjiBBueQA2A61zTEInCJM5DGXxLdujlZHDrMIcUHOMYbbig7AiGSFVzShheg4LBeCZWA1jXELAWD0eBNSLY4QMGBaAokl8u64DSxclGm4ZFfDU7MrTDAjufMGY64y3Qmsnymg6Zpx9GOt8GkhFIWF0yH1y66NjUh0kM4OLypIYRzIJ0HAfd7ZwJYJU5pQDgtb7H9QWQmtvmOaIPTtwS8PXGnBvSBD04sBi9ELk0Y0A1ZCHBoCjK64DB7eX9tssDGjKUp4iGFFy0pLklYt0FHcDhMurkxmjzHQSS5k2RAg3OoASw5WcRd0qfaEhep5mQRSNZDwyYMhIts3SGSbeupY4FkBdHgMLGEUsC5ZpqVqk0XeOIk1xdvIRVOaHK9zrAd7sypNieMCmi1oucQuT6UbXOcaO4L2fAueCO8wGKh6S0umCqhRswu4RJgfggHJ+qpd8MJA3lb2QnqdUsLTWOx/YEGDbpt64BihJkRVAaOPuygSDg0ZshpCUmg4V+ZMEZCyBIpXXOZPUfJzrg2WUBXbrplTsWb2gMb6gqnBAC0Qclo8bpfk0ZyTWwCDc4hB8B0rmmIReASn8ASFw2s08niIdhDwyaM9rirOySrqE4FZiT0GhwmIBTCwWFscgwxa1k3iqYaksU6qgZDncgRr1+7pN6caXNMHKfVa/Y7UnSMGrzVqRsTaCazaAhhkBbwEAvY4oKpHDVCH1V/wQtZiZNcpqZzIHHMNav24osSz1E9wvZi+wvxTIcSbHBGdikrOA6K3TIOmpIdN+NswoD+kKg6ozTCVIfRBWcQ6921ycLnDf2TIgqzoa7olACANigZLS5jYKSkkdzCa3AONYAlJ2vH5QOy9pkkrrgoQ0JSTS9GPvdKoSEgKj552gEKjpFDODjGIcsQswJh57QpHGwh1XIoTOcqxQdbXJi3P2FAQcfoyriMkttm3DVpx9thsl2ytuNJIrGNhVYJlwDv9xAOzmJc3sQJI5Xn7V1sf9gZ02nzHfFsjD2+07pTE8ZobVdIhmDPcVt4k2+ddWlD/2oR5hV2CTj9pXklKXGSa9ITaHAONYAlR8sfCBEhb6qdyqUTpejMANXaSm178aIblQAFxwRCODjGIcsQswJBnQZvQqLYQiutluyCzlQJNa6Pi6aQ4SWHfXlcvEq1TcZXyLwNVqDF8aQ8NWKREi6ByB9e4iS3SYg7kgiWYlabp0HigaoztwLTWGx/oF2sZYPj+nRCDndRM0OZ4BhHrLNHGLt0wWjNLUlAxPv1zR9ZBJ1NkQCxE0LQOQ+EauzEpOgJPUWTKyxtoME5NIEGN41pYa8veQycHSunT0dp0ZMD/KyQ9qmGKqsRoOAoJRqJA3eGDDEr5orX4E1IhAfU4tBLQHK5oguSCc9FmDLuacLoAcdB8hSZUaTgGoVlpJ+NizGHtbozmUVTCBupypS0xfGkPDWiVgmXAG84wgqpwVrJbc+BxDF3WhaI/alHBHBkMDQuxmL7BR7rqRFijeP2e9sW8GUfpBeSghMhlL40YUQN7Rjh2Qe3vOBpwo1+z8JlwYT20N8UCRA7ISQ6WOtSGIqY4ThkuvExSt61LsWRyJxAg3PI4TAbnukRuMQnsMRF5cJfskPDhMwSDaz7qDIUVkMhNQIUHKaUUAk0UmvOQnSxKawz7nEnN60IgzkhVBzHmWYrdfVdUqkmtHBO4jbk+4M1ddV34EkmM1Q95OwNJiWUsrhgOtwJm6m4hErAdoBQ0j4abkhrzoGA+5GdQMK1lBpEEI6sFYOx2P7Eqb0GAjs2OFoysARHH20vMz7wSCgplyeMqDP6QWgenNxSwxlEvrv4yGIvst5iKoJUTWdDXWmkDZSgsOc64thYGQMjRo71YQy2Ji/RgXHIAXM2zgrmE9fRLQ6LD8jaZ2TxX1fNCeNpowbryYUolIVzVmhwIBoyfZUENbwSSgG482aIWbGYeA3ehKS5AAUHei4A07lSLQQd7sxJnY8wKmBSsMbBaCHQcZNxOh0XTd0XsuFd8EbhBaY1vLG4YKqEGj4p7D4GEg+u3DQzcTQuBo7/dA6kFHOnhZUFRcitCQSuA+GgYS62P9BmgW0dSrDB6VsCLteSndbotRJC5NKEgY0IWbxVCOFGdRqUOfP+0mTBIgspDasRCqijMBvqCqEEALRByWhxN0aTlzSSa2ITaHAOObzhmA6sHWGq7Sgqlk4WjU9jaNiEIcdeoNUdEuDhTJ0KzEjoNThMQCiEg2OyFDbELCN4C3jiJJfZHGwhlUtocr3OsB3uzKk2x6QCWq3oTQQp49yHf2VcRt6+kMlseEYaiuUupC4umMpRI8qUcAkwP4SDw8OdQjeeMFClaPhWCQTeniycvE0fUmBMneEv7tx+nxmRCBx96EER4eEhMRoSiJt5ZcIYWiqoOiq/gIR4abIY++VSoZNqCrOhrnRTAgDaoGS0eM1IkeSa2AQanEMNYMnRwoGwpE+1Je6lLkwYVAtSSzl30HrlYI/kpUISX/BCODhWisKGmGWEbCVOcpnNQYXU8Fpt0BPIdpzenPyLE0az350slSMvBFI76u5JVmbDM5KqBgOpmv4mTxgo7GqFPgImSDoHNJdxc80yfdHwa+KB6ugeBbCEAnHqhFhy0n4vulePgZFYsmOfZxMGWlvopK5b99pkMVO51dqwKt+okYXaRl7rFONKUuIk1yQn0OAcWuOmIVYjItAc5nQsKXpzI3RX0y8X2vQcoODUeiOy5hhi1kKkhtsUDraQKjjUmQoPwwHOjBx46QJWCRxZ7HeTJsuclcpp3MpsxIy01tP0xQXT4a2I4oKWgABufYXj6DBTirlmpYzknvEW259UhnsqdUroVGtsyJxoXZkwLjVdy1+fLObDNm510/DZBoXUhVrgoOkSqFviOUTvM1I0uSY6gQbn0Bo3jWltT9CrOhcuTEMqdFdaOX3qY7az2ntDUDnwgsP1SqgEmBey15yFaFtagkNtKekAZ2pTw3AAmetnCWhcHDVqOA/HQMNDiMMN6NLZPOfYobbj7rBcdHHBVAk1YmIJpwDceT2xxIZjIFnNObBMmUDCg9xwiCAcWQfSYvsTJ7grxwZHS0bqbKDtwzGBOy0gJeVswigJTn9jXp8sRpPcGfe6qKhn1gJHMwFiJ4QKpw0gmBanQmbap5PrOIgk1wQn0OAccnjDMR3U2BH4gNxShlhzsoQiqBNrtVXPCmmSGrlK2mcNr4RSAO4MGWJWLYhIgzch4Q2oxZMWOC3PgrLLLAINWS5OGE0RnCp2upB6X0AK0fqUoIfa8jI3JM51rOhCSSXUsBRYJZwCcOWmmQuO4s050KQwfQIJVyk1iLDlLLZf82FMja0OaEYwywkB1wPCxb0JHIvTGu4IurtLEwa6aDtxQmZenywsZ2wQ99oUCqHgeIXUI/MKuw2UYNRNGw92zUiR5JrgBBqcQw1gydHCDlvSb/ITrVG2904O8HSgFQ30OXpdNpy2peGVUAmwBoUNMav0NAIN3oREcUAtDrEl4Eo7zjSxctHJnRNGBZwWEiNBPLs+UESCMdN5IOxJKMPXlAVvSCwwVCrQ4nhSnhquz14nEsjTi58gCy2BxyOMNGmkFHOnhZUFVckMBzrT423YCGRNxhnRHQMtVQYPYEcIseAMeohcmjCwESELgXa5vckC2jTIvN2LQggPaIGjHeWI07TdprdBiMyl4m6Mek5NibwG59AEGly6sTWRFjw5HWufls0WTpR0smQKakyhRTnFc2rwR/JSIW1Lw0MohINTS43ImsMJRTTVEFnWGfeSwiEh0NoFhONQNhNn4i46I3NMKhAVMS6OA9O57MVAzFdvT7IyO94GAyS3UVOOUG2ADZVQIxJKOAXg4iaTxshuOFGVvHQOLFMc4MwihyaAhz48a7H9niI7bFuHEtxJDmqhA0cfy15m0ZFcsqPelQljSFSdWUVXtzdZIB3atDFc4qzQCa7wQk1x7Xs24P1szySsnBlZSTi5xl0KxO0HbakhajsCY+5YkqRmnU6WhiHNrCuuEZUblA0vQMFRiWg0HIToZohZMdd7iZNcZnKwhVQqocn1OsN2uDOn2sUJw22ptkEG9FbTrjwAABIoSURBVFizKnue2Sc8hdWwVFgjvMA8UymLC6bDfZraikukBPzGT1LiwE2hN23CkDbLerH9Da/2mkjpJC+bBly2uYBOa0wolRAiZxMG5EZCyHJF2Lw4WewvTFxiUUjDapQmYmCh1qa3QSdX8TRGxE2c5JrYBBqcQw1gydGSAyFGpzfVbiDXyiA4NDZCZ7gIn/FCieCwQgmVgPIMMUvaOF23KRxsIRVMaHK1OeE73JkTvThhbI6BoVkPVKme1rUDT7AyCx4X8ykn9uKCqfJqRJ0SLgHmI6yQGqZVQunalHBzzTJ9kzWLeEKVtYFkLbY/cKbT5jvi6RhPgSuPMLRp0w/lr0wYltpaFyeLNjfsVG4stGdJGlbDMLECxE4IgVcCkrxbuyRnxowEJNe4E2hwDq1x0xCLuI0Oo1NtiYtGOlEk7NdDgw/wVg7B04NWBFsFBgMUHMNDODhSYKwNMSsQ1GnwJiQ7ekAtDsEEJJdLuqAztR01LozL4JJI0pHrwghfHhct3BtaJhUTNhcT78J6ccFUeTWiVgmXQOQPr+E0oZCYcHPNCvziEA9UDEabstj+oNMmBsZw3Bj3GX1UhQIcHKWocTZhnKTfYLLACdCcBCgwj3Cutak4oDNcNm2hVtJLQATcOnKiJ7QUTa6w9OhpcA5NAKuGYzqwiLDkMOCOpZiqXjMmik1jSFkhszyxjypDYTUUUiNAwVFKNBrODBliVswVr8GbkOzoAeFObiIz1ikxuUx1wWm6iFOjcekBx4EZSfDKhBEpKb9qNARXZiGG8O5gK2mLC6by1IjtlHAJMD+EgxP1htecAynF3GlZoNFDiAjgyGAU1mL7A29qhFjjuP3etiV4Czo94MKd4ZJyNmE4uWzeYLKQ1MXAjEZ5/8q9ZIy1dD3W4gQGOwFiJ4TAOg/shSkfEkUmRyph6k6gwTnkAJjOrY0RuMQZSONfJbpJPLOGFB/g8gdTKAvnrJAmqJGrpG1peCVUAqppiFkKBqPBm5A0F6DgQDQFkstlXXCaWLko0zAuNTgxt8J+dzxnznDEXaYzkeUzHTRNG94db4NJCaUsLpgOr110bWpCpIdwcHhTQ2hxXXKKRp8WVhZ0TDEJFE7LW2y/pI+10wjx5Njg9C0Bb0/cqYP+gA9ObBZeiNzmhHEbkwWaawYG4bnwdof2BHIz9QIHM2wd8wq7DZSg1R2Ww2HSzY3R5DoOIsmdJAManEMNYMnJIu6SPtWWuEhhTPbjwjVswkBmka07RArwGgkjqWQaL0DBMQ1ji6BFXIqZZhnRWw3ehGSLW0jlEppcprlgb041GhPgjqNlgtET5PpwQWCq9TpSyoZ3wRvhBSYiYb24YKqEGiGr7o8rvAVHlZtzIKWYa1btRQXJmDwMRLsstj9wp4YrGWBxbHBG1UIHLn0UkEQQk7jTUnkxsL6NCeM2JwtUW1yY0CxtEPcsnYM/F4TkplsmYFprOhvqCq0EALRByWjxul+TRnJNbAINziEHwHSuaYhF4BKfwBIXDawX4yKUoWEThl2MhEDrukMcOM2pUwGPC9o0jlAIB4exyTHELFGO65ngg20KBxVq0lJzXtHZqhDoLjq5c0wq4LTIbPY7UnSMGjwKiLcvZDILHsJGEtG4DqmLC6Zy1NhoAFrwQlbiJJep6RxIHHPN2pcmnlBlnXpqw4kzRM6Iab8XOnAcELjtlnHQlGzdjJF6wwnjDUwWKJcGRZqfPfJ214aFxp1vcBAVZkNdESmBkCSstK5JaYyInzjJNcEJNDiHGsCSk7Xj8glZ+0wSw12Mi1BRhoSkml6MBMf6SqEhICo+edoBCo6RQzg4xiHLELMCYee0KRxsIdVyKEznKsUHW1yYf8YmDLR9dgyE7bXjSbZ4rJWjRoD97mOg4SEUwsFJmMinc2CZ4gBnioqtCQTenixgLbbfBMza1oFUJEQv4QWcZRC/wxPGG5ws0FgalNmrrHi7V1tErAFtcBEaa+YVdgmEpIVzJSlxkmvCE2hwDjWAJUcrHSgJHO6WEhNOvJMD/HKhzfYFKDjWWwgHxzhkGWJWIKjT4E1IFFtopdWSXdCZKqHG/lxR2ma/D/kNrhoXDJPZNb3DcpHF8aQSasTEEi4B5odwcGQoo272likJyHnqEw9UXITbZbH9gXuxlg1OyFbnDFcijJOaFx9h3IHJInRljtupvF0nDe82KKSyE0Lt/igM602tyImekFI0ucLSAWlwDk2gwU1jWthhSx4D58fKhQvTkDo5wM8KaZ9qlM2J27LhaWbiwJ0hQ8zStGA0eBMS4QG1OEQTkFwu64JkwnMRpox7GpcecBwkT5EZRYpco0b62biMvPNCJrPgImyk2Y1blbTF8aQ8NZwIakS3CTAh8ILTpDTnwDJlAgnPXY0iW85i+4MQCWw1Jtnt95YOXA6KoC/5PhgVoke8CxPGHZosMCiLgcHG0I23u7TIW4PwgBY4WAFiJ4QKpw0gmBanQqYbH8dzHESTa8QJNDiHHN5wTGcWWXKcTkxKXjMmiZH3e1+yj6qUwmoopEaAgsOUEiqBRmrNWYguxo51xj3u5KYVYTAnhIrjONNspXCuOGqR0UAkwZun0xy2iGtaMM45dszvuBsMkNxG7cUFUyXUCJ3WfdLwysUxceCGUHMOBNzTJ5Dw2CQ8IghH1oG02P7EGRptviPa4GhJh1IfU2CnA2zcIknCqncyYVybLKQhVV0Zi4FBV5gwRlpsuCptcEAKs6GuCLWBEhT2XEccm1s3OXKsjyQlQKKDxaEGyBLqE3dJ5wOy9qnJ02jGJFNGDdbDuQg3lB2BEMkKLmnDC1BwWK+EUgDuvBliVm0KkQZvQsILUHCSFrCCNxyEaKnUOWFUgBPkfhyM4rAOUmScmgPVyGohY1/IjqMFb0gsMKkTLuSLC6ZKqCHZvC7hFIArN81MHI2LgXMgnQcpxdxpYWVBEXJrAoHrQDhomIvtD7RZYFuHEmxw+paASx8rLeCDUwk1EppU59pkAbprWLNbIw2KcNAR3bixRXsaVkOy41phNtQVVgkAaIOS0eJ1k5NGck1sAg3OIYc3HNOBtSNMtR1liDUnSywyy9iEgeOqLHWHFAq3u2koQMFhLYRCODhWj8KGmGUEbwFPnOQym4MtpHIJTa7XGbbDnTnV5rlSAa1W9CaCFLk+XD8394VseDc8I6UeyUVaSF1cMJWjRtQq4RJgfggHp+kFKena1KQU4cRhXO4JBN6eLOAstl/SxxoCUyfEk+P2+8yIBODoQw+KCI8+kTgWNSQwYHUWxvXJAgKu4YXeDKdB8WTqk2Vqw4OG8IAWuGgpzIa6BZcA1oXlwRavGSmSXBOcQINzyAHOtHxnYYctOQxcG5rNuKAcpEhorFz5YF4pNFrivkKuOAEKjjDS9q45hphlItlKnOQym4MKqeG12qAnkO04vTn5FyeMZr872TFuvmRqxrkhy8XZtDIbnpFK/gggVdMXF0yHtyKKC1oCAoRaFpxWSUvnQMLNNcu2pahTgHigOnpkLbY/kkynxF0g7fdSEngJunwxB6cSa0QSeH2zyQI5qeEo5700KB6CzPA37Q1ogwe9hdrV9EYrhIqThJNr9Ak0OIcawJKTteNOtR0lqe3dqbciXT4GNg0FKDiLqmuOIWYtRGq4TeFgC6mCQ52p8DAc4MzIgbc/V5S/2O+QZnm639YRpT3Jymx4RhLRutb0xQXT4TWZIooLWgICuPUVjqPDTCnmmpU5UcHxIjC9xfZ33FOpU4Kp7qjAroyhqR03nyyQfMMirh6b82Ebb8tmiwZ0hov6Qq2kl4AIuLXjkOm8noNoTzKgwTk0gQZ3xdjc7verOhcuTEOK9ZZtbXuxzd7smAQ1lUqoBHQXGWKWgsFo8CYkzQ2oxSHqAGeGcomzepZgTBhLDaeI/b7gcXgBOokrpg3vTm+H5SqLC6ZKqBETSzgF4M7riSU2HAPJas6BZUoCgo53iAeq3Dw07MX2B97FWjY4i0Phos7sK7SwcW5vsoCga3itj0FZDMzcqSyz2Dg9sxb46MNXZ15hnwe8yLRdEpn95jpO6cVLTl6iW4rDG45XWjQyKXxA9r16lWZMPAwbfTihti2H5/Tha5IalRag4DC3hFIA7gwZYlYtiEiDNyHhDajFkxY4Lc+CssssAg1ZaFx6QAhzXUk4Vex0IbxSTjUSQYd/eZkbNU4LOdmFkkqo4XLILOEUgJtCJVA4zTmQNMydlgVif+qdERbbr/kwSONMZtCMZJYTwoGmB4SLe1NwOSg91ti3P1lA7GKRdsJA/jzCWabZ5BAKDrJtCRA7IQTmecD01IpJ8GIExBRJrkoJr8E51ACWHC3ssCX97k+08s5a7qC5Lxu8CcmOHlCLQ24JzFqJM+lY1cyLE0Y690RHzv+hLEHXRTT7DjwHZaDZdarh1MuIy13pYXHBVJ4aosDrEi4B4yukhmHBwoSRJo2UYu60sLJgUGPHgc404mL7jUAWJSK3zXdEt99bqgzeSiskBccVMfONTRbQcQ2bbGelQRm5yKcbHY0ss2gY4QEtcK8Fe+7lwm4DJTgU7K7idZMTJ7lFq8E5NIEGNw2xiLTgyeFY+5RcWTcni0CyRo0ptCinuKS065G8VEjb0vAQCuHghJKGmBUI6gBPnOQylYPjHndyUx0YzBmhFm84gxwyZ4TGZakxKUOOSNuyEXeZyXQiCYlldrwNBkhuQ1+O0FRMJdSIhBJOAbi48ew2cxtOVCUvXZuWKQ5wZpFDE8BDH5612H5PGQIU2NYBbgRY5k0x4Ohj2YvwkFyyJ8iri5PFXuSsiFVMgyIA5GljuMpJrbo7RIXXmr5QU9yntUFHmDhWznQEAyS4lFwKxO13tUSyrpdFtJ+T8Z+Si3EJBXe1QDzDhbLhBSg4oRNzGg5CdDPELMvLVuIkl9kcbCGVS2hyvc6wHe7MqTbHpAJareg5BGmceiows054CqvhqkmxBeaZSllcMB3u09RWXCIlwBsewsFpcGilc6BJ4YoOcKZ0Y2sCBZe1gWQttj9xhkib74jpJC904AjKzaUG82RCuTZZjOrjLmgHJzUcsOCkQQkYb4/cJ8iFz3qRTOYVdgmA3wZFqOJEr5ucNJJrYhNocA41gCVHSw6EGJ3eVLsktx8X3j18gLdyCNYdUrsaya0CcwMUHMNDODhWj8KGmGWEE6tN4WALqVxCk8s0F+zNqXZxwlgcAzj3h/yVcRkVXTOzA7+yMgseF/MpJ/bigqnyakSdEi4B5iOskBqmVULpHEi4uWaZvsmaRTxQdSAMYWux/ZkG35Xs4PNzbwqcTAit9gxemyxU4aTjywdlGhToizSt2ZSAFmdDw2okQnYXalfTg9yVpMRJrslNoME5tMZNQyziNjqMTrUlLhoX1kNj6q3ol4+BTUMBCo5VDeHgGIcsQ8wKBHUavAmJ4oBaHIIJSC6XdEFnajtqNOeKYt4gkYXOCF8eF6/Z2FpmW6xJXIUWF0yVVyMKlHAJRP7wGk4TCokJN9eswC8O8UB9QxPGxVpujPuMPqotn8A3mywg5hrSIt44wz0329CfMx/3vel+QGe4FFiolfQSEAG3jpzoCS1FkyssPbsbnEMTwKrhmA4sIiw5DJwPzYUL05CyQmb5bvqoMhRWQyE1AhQcpUSj4cyQIWbFXPEavAnJjh4Q7jYcUT7lTI1WCk+R9IDKsxFJ8OQPyYHgAIiUlA/3lOAoCy7Cu4OtpL3JE0aoF5xm+5tzIKWYOy0LNHoIEQEcGYzCWmx/4E2NEGsct9/btgRvwUbPha5PFrKxY4Y8qSQNuULVxKAsBgbydOMqTS0JjbU4tcIUmADzCvs8sBem/CIxMlI0uSY6gQbnkANgOtc0xCJwiTNwPjTNmIi8rIcUH+DjcJC4rIGfFdI+1ZBsWwcoOMwpoRJQLUPMUjAYDd6EZEcrBEMdEUyB5DLLBafpIiJEaxqXHnAcMrHfHc+ZMxzxmCyez5JYXNvw7rgbDJDchvTigqkSaqRGohs23kMhPTipDyQ150CTwvITSLgvrTxw5FYIi+0PPEpe5juiDc4cc4fBBC4nLvQuLt/2DVoucu/S7u6Bu3vg7h64uwe+RffA9UcW36I76O5m390Dd/fA3T1wdw8ct/l1H3f33N09cHcP3N0Dd/fAt9QeuPvI4ltquO9u7N09cHcP3N0Dt7cH7k4Wt7ff7mbd3QN398DdPfAttQf+f5H7/0svyne3AAAAAElFTkSuQmCC;fontSize=10;" vertex="1" parent="1">
          <mxGeometry x="690" y="329.5" width="51.02" height="50.5" as="geometry" />
        </mxCell>
        <mxCell id="C9uzuR9SwBI8yeOS5jQj-4" value="&lt;font color=&quot;#000000&quot;&gt;&lt;span style=&quot;font-size: 13px;&quot;&gt;Count Version&lt;/span&gt;&lt;/font&gt;" style="text;html=1;strokeColor=none;fillColor=none;align=center;verticalAlign=middle;whiteSpace=wrap;rounded=0;fontFamily=Comic Sans MS;fontSize=19;fontColor=#3D4C53;" vertex="1" parent="1">
          <mxGeometry x="668.27" y="301.83" width="94.49" height="20" as="geometry" />
        </mxCell>
      </root>
    </mxGraphModel>
  </diagram>
</mxfile>
